#N canvas 522 456 996 406 10;
#X obj 31 79 s \$0-roll;
#X obj 48 99 s \$0-pitch;
#X obj 65 119 s \$0-x;
#X obj 83 139 s \$0-y;
#X obj 100 159 s \$0-z;
#X obj 34 279 r \$0-roll;
#X obj 33 329 r \$0-x;
#X obj 133 329 r \$0-z;
#X obj 83 329 r \$0-y;
#X obj 119 279 r \$0-pitch;
#X floatatom 34 301 5 0 0 1 --90+90 - -;
#X floatatom 119 301 5 0 0 1 --90+90 - -;
#X floatatom 33 351 5 0 0 0 - - -;
#X floatatom 83 351 5 0 0 0 - - -;
#X floatatom 133 351 5 0 0 1 --256+256 - -;
#X obj 577 105 r 1fader;
#X obj 577 127 / 127;
#X floatatom 587 149 5 0 0 0 - - -;
#X obj 577 210 *;
#X obj 597 183 r maxSamples_1;
#X floatatom 597 232 11 0 0 0 - - -;
#X obj 572 267 s range_1;
#X obj 31 17 inlet wii;
#X obj 31 49 route r p x y z;
#N canvas 628 243 1024 724 range 0;
#X obj 212 298 tgl 15 0 empty empty empty 17 7 0 10 -262144 -1 -1 1
1;
#X obj 748 31 f 0;
#X obj 748 53 + 1;
#X obj 185 499 s range_1;
#X obj 212 452 *;
#X obj 288 416 r maxSamples_1;
#X floatatom 288 438 11 0 0 0 - - -;
#X obj 212 382 / 3;
#X floatatom 212 404 5 0 0 0 - - -;
#X obj 212 350 random 4;
#X floatatom 325 335 5 0 0 0 - - -;
#X obj 325 366 - 1;
#X msg 413 194 down;
#X msg 473 194 up;
#X msg 533 194 reset;
#X floatatom 423 254 5 0 0 0 - - -;
#X obj 413 232 j.stepper 99;
#X obj 212 318 metro 5;
#X obj 296 51 r \$0-pitch;
#X obj 296 73 + 90;
#X obj 424 61 r 2fader;
#X obj 424 83 / 127;
#X obj 424 105 * 10;
#X msg 104 85 10 10000;
#X floatatom 104 148 5 0 0 0 - - -;
#X msg 164 85 1 10000;
#X obj 104 126 line 0 100;
#X obj 296 95 / 180;
#X obj 490 305 tgl 15 0 empty empty empty 17 7 0 10 -262144 -1 -1 1
1;
#X obj 490 459 *;
#X obj 555 433 r maxSamples_1;
#X floatatom 555 455 11 0 0 0 - - -;
#X obj 490 389 / 3;
#X floatatom 490 411 5 0 0 0 - - -;
#X obj 490 357 random 4;
#X floatatom 603 342 5 0 0 0 - - -;
#X obj 603 373 - 1;
#X obj 463 506 s range_2;
#X obj 490 325 metro 7;
#X obj 756 304 tgl 15 0 empty empty empty 17 7 0 10 -262144 -1 -1 1
1;
#X obj 756 458 *;
#X obj 821 432 r maxSamples_1;
#X floatatom 821 454 11 0 0 0 - - -;
#X obj 756 388 / 3;
#X floatatom 756 410 5 0 0 0 - - -;
#X obj 756 356 random 4;
#X floatatom 869 341 5 0 0 0 - - -;
#X obj 869 372 - 1;
#X obj 756 324 metro 11;
#X obj 729 505 s range_3;
#X msg 741 135 1;
#X msg 781 135 -1;
#X obj 750 196 s direction_1;
#X obj 742 167 f;
#X obj 760 216 s direction_2;
#X obj 770 236 s direction_3;
#X obj 748 97 sel 0 1 2;
#X obj 748 75 % 3;
#X obj 120 267 tgl 15 0 empty empty empty 17 7 0 10 -262144 -1 -1 1
1;
#X floatatom 342 133 5 0 0 0 - - -;
#X obj 296 139 sqrt;
#X obj 296 169 + 2;
#X obj 296 117 * 24;
#X obj 555 488 / 3;
#X obj 821 486 / 2;
#X obj 292 483 / 5;
#X connect 0 0 17 0;
#X connect 1 0 2 0;
#X connect 2 0 1 1;
#X connect 2 0 57 0;
#X connect 4 0 3 0;
#X connect 5 0 6 0;
#X connect 5 0 65 0;
#X connect 7 0 8 0;
#X connect 7 0 4 0;
#X connect 9 0 7 0;
#X connect 10 0 11 0;
#X connect 10 0 9 1;
#X connect 11 0 7 1;
#X connect 12 0 16 0;
#X connect 13 0 16 0;
#X connect 14 0 16 0;
#X connect 16 0 15 0;
#X connect 16 0 10 0;
#X connect 17 0 1 0;
#X connect 17 0 9 0;
#X connect 18 0 19 0;
#X connect 19 0 27 0;
#X connect 20 0 21 0;
#X connect 21 0 22 0;
#X connect 23 0 26 0;
#X connect 25 0 26 0;
#X connect 26 0 24 0;
#X connect 27 0 62 0;
#X connect 28 0 38 0;
#X connect 29 0 37 0;
#X connect 30 0 31 0;
#X connect 30 0 63 0;
#X connect 32 0 33 0;
#X connect 32 0 29 0;
#X connect 34 0 32 0;
#X connect 35 0 36 0;
#X connect 35 0 34 1;
#X connect 36 0 32 1;
#X connect 38 0 34 0;
#X connect 39 0 48 0;
#X connect 40 0 49 0;
#X connect 41 0 42 0;
#X connect 41 0 64 0;
#X connect 43 0 44 0;
#X connect 43 0 40 0;
#X connect 45 0 43 0;
#X connect 46 0 47 0;
#X connect 46 0 45 1;
#X connect 47 0 43 1;
#X connect 48 0 45 0;
#X connect 50 0 53 0;
#X connect 51 0 53 0;
#X connect 53 0 52 0;
#X connect 53 0 54 0;
#X connect 53 0 55 0;
#X connect 57 0 56 0;
#X connect 58 0 0 0;
#X connect 58 0 28 0;
#X connect 58 0 39 0;
#X connect 60 0 61 0;
#X connect 61 0 10 0;
#X connect 61 0 35 0;
#X connect 61 0 46 0;
#X connect 62 0 59 0;
#X connect 62 0 60 0;
#X connect 63 0 29 1;
#X connect 64 0 40 1;
#X connect 65 0 4 1;
#X restore 332 236 pd range;
#X obj 687 127 / 127;
#X floatatom 697 149 5 0 0 0 - - -;
#X obj 687 210 *;
#X obj 707 183 r maxSamples_1;
#X floatatom 707 232 11 0 0 0 - - -;
#X obj 687 105 r 2fader;
#X obj 682 267 s range_2;
#X obj 163 48 route a b;
#X obj 163 70 tgl 15 0 empty empty empty 17 7 0 10 -262144 -1 -1 0
1;
#X obj 188 70 tgl 15 0 empty empty empty 17 7 0 10 -262144 -1 -1 0
1;
#X obj 163 90 s \$0-a;
#X obj 188 110 s \$0-b;
#N canvas 452 236 904 699 pitchCtrl_1 0;
#X obj 27 32 r \$0-pitch;
#X obj 27 84 / 90;
#X floatatom 37 106 5 0 0 1 --1+1 - -;
#X obj 66 578 s pitchCtrl_1;
#X obj 515 590 s speedCtrl_1;
#X obj 496 619 s durCtrl_1;
#X obj 27 197 moses 0;
#X obj 66 391 f;
#X msg 545 39 -24 4;
#X obj 545 5 loadbang;
#N canvas 795 23 456 193 gliss-test 0;
#X obj 68 85 hsl 128 15 -90 90 0 0 empty empty -90+90 -2 -8 0 10 -262144
-1 -1 0 1;
#X msg 143 40 0;
#X obj 236 50 line 10 0;
#X msg 353 41 90 5555;
#X msg 354 65 -90 5555;
#X obj 63 142 outlet;
#X connect 0 0 5 0;
#X connect 1 0 0 0;
#X connect 2 0 0 0;
#X connect 3 0 2 0;
#X connect 4 0 2 0;
#X restore 159 30 pd gliss-test;
#X obj 654 551 hsl 128 15 0 100 0 0 empty empty 0-100 -2 -8 0 10 -262144
-1 -1 7849 1;
#X msg 663 38 100 15;
#X obj 663 124 expr $f1-$f2;
#X floatatom 673 146 5 0 0 0 - - -;
#X obj 705 82 t f f;
#X text 522 22 gliss: min max;
#X text 650 19 spd: max \, base;
#X obj 400 382 t f b;
#X msg 415 37 0.618 1;
#X text 414 19 spd:prop;
#X obj 400 339 f;
#X obj 457 339 f;
#X obj 380 313 bang;
#X obj 437 313 bang;
#X obj 415 59 unpack f f;
#X obj 545 61 unpack f f;
#X obj 663 60 unpack f f;
#X obj 93 427 hsl 128 15 -24 0 0 0 empty empty -24-0 -2 -8 0 10 -262144
-1 -1 0 1;
#X obj 66 366 * 4;
#X floatatom 29 419 5 0 0 0 - - -;
#X obj 27 366 * -24;
#X obj 27 239 expr $f1*$f1;
#X obj 114 254 - 1;
#X obj 66 300 + 1;
#X obj 66 278 expr $f1*$f1 *-1;
#X obj 663 82 t f f;
#X floatatom 651 571 5 0 0 0 - - -;
#X obj 27 126 t f f;
#X obj 494 274 expr $f1*$f1;
#X obj 494 316 expr ($f1 * $f2) + $f3;
#X obj 494 445 * 1;
#X obj 237 426 hsl 128 15 0 4 0 0 empty empty 0-4 -2 -8 0 10 -262144
-1 -1 0 1;
#X obj 66 498 t f;
#X obj 496 555 t f f f;
#X msg 760 377 range 0 \$1;
#X connect 1 0 2 0;
#X connect 1 0 38 0;
#X connect 6 0 23 0;
#X connect 6 0 32 0;
#X connect 6 1 24 0;
#X connect 6 1 33 0;
#X connect 7 0 28 0;
#X connect 7 0 30 0;
#X connect 7 0 42 0;
#X connect 7 0 43 0;
#X connect 8 0 26 0;
#X connect 9 0 8 0;
#X connect 9 0 12 0;
#X connect 9 0 19 0;
#X connect 10 0 1 0;
#X connect 12 0 27 0;
#X connect 13 0 14 0;
#X connect 13 0 40 1;
#X connect 15 0 40 2;
#X connect 15 1 13 1;
#X connect 18 0 41 1;
#X connect 18 1 41 0;
#X connect 19 0 25 0;
#X connect 21 0 18 0;
#X connect 22 0 18 0;
#X connect 23 0 21 0;
#X connect 24 0 22 0;
#X connect 25 0 21 1;
#X connect 25 1 22 1;
#X connect 26 0 31 1;
#X connect 26 1 29 1;
#X connect 27 0 36 0;
#X connect 27 1 15 0;
#X connect 29 0 7 0;
#X connect 31 0 7 0;
#X connect 32 0 31 0;
#X connect 33 0 35 0;
#X connect 34 0 29 0;
#X connect 35 0 34 0;
#X connect 36 0 13 0;
#X connect 36 1 45 0;
#X connect 38 0 6 0;
#X connect 38 1 39 0;
#X connect 39 0 40 0;
#X connect 40 0 41 0;
#X connect 41 0 44 0;
#X connect 43 0 3 0;
#X connect 44 0 5 0;
#X connect 44 1 4 0;
#X connect 44 2 11 0;
#X connect 44 2 37 0;
#X connect 45 0 11 0;
#X restore 332 143 pd pitchCtrl_1;
#X connect 5 0 10 0;
#X connect 6 0 12 0;
#X connect 7 0 14 0;
#X connect 8 0 13 0;
#X connect 9 0 11 0;
#X connect 15 0 16 0;
#X connect 16 0 17 0;
#X connect 16 0 18 0;
#X connect 18 0 20 0;
#X connect 18 0 21 0;
#X connect 19 0 18 1;
#X connect 22 0 23 0;
#X connect 23 0 0 0;
#X connect 23 1 1 0;
#X connect 23 2 2 0;
#X connect 23 3 3 0;
#X connect 23 4 4 0;
#X connect 23 5 32 0;
#X connect 25 0 26 0;
#X connect 25 0 27 0;
#X connect 27 0 29 0;
#X connect 27 0 31 0;
#X connect 28 0 27 1;
#X connect 30 0 25 0;
#X connect 32 0 33 0;
#X connect 32 1 34 0;
#X connect 33 0 35 0;
#X connect 34 0 36 0;
