#N canvas 722 459 208 108 10;
#X obj 21 17 tgl 15 0 p\$1.tgl p\$1.tgl p\$1.tgl 17 7 0 10 -262144
-1 -1 0 1;
#N canvas 691 22 945 651 spdVar_1 1;
#X obj 14 45 tgl 15 0 empty empty empty 17 7 0 10 -262144 -1 -1 0 1
;
#X obj 74 23 s switch_1;
#X obj 304 578 s durCtrl_1;
#X obj 444 577 s direction_1;
#X obj 164 577 s speedCtrl_1;
#X floatatom 174 126 5 0 0 0 - - -;
#X obj 164 497 j-got;
#X obj 164 45 tgl 15 0 empty empty empty 17 7 0 10 -262144 -1 -1 0
1;
#X obj 214 45 tgl 15 0 empty empty empty 17 7 0 10 -262144 -1 -1 0
1;
#X obj 274 45 tgl 15 0 empty empty empty 17 7 0 10 -262144 -1 -1 0
1;
#X obj 344 45 tgl 15 0 empty empty empty 17 7 0 10 -262144 -1 -1 0
1;
#X obj 414 45 tgl 15 0 empty empty empty 17 7 0 10 -262144 -1 -1 0
1;
#X obj 444 103 r metroBang_1;
#X floatatom 174 377 5 0 0 0 - - -;
#X obj 164 270 expr 1-$f1;
#X obj 164 322 expr $f1*$f1;
#X obj 444 497 j-got;
#X obj 68 365 tgl 15 0 empty empty empty 17 7 0 10 -262144 -1 -1 0
1;
#X floatatom 174 292 5 0 0 1 1-0 - -;
#X obj 164 146 expr ($f1 +1)/2;
#X floatatom 174 168 5 0 0 1 0-1 - -;
#X obj 164 198 f;
#X obj 454 135 t b b;
#X obj 454 157 timer;
#X floatatom 454 179 5 0 0 0 - - -;
#X floatatom 314 374 5 0 0 0 - - -;
#X obj 304 497 j-got;
#X obj 544 272 expr $f1*$f1*$f1*$f1;
#X obj 622 195 tgl 15 0 empty empty empty 17 7 0 10 -262144 -1 -1 0
1;
#X obj 31 539 bng 15 250 50 0 empty empty empty 17 7 0 10 -262144 -1
-1;
#X obj 31 581 s range_1;
#X obj 31 508 sel 1;
#X floatatom 454 377 5 0 0 0 - - -;
#N canvas 1133 693 373 319 speed:pitch 0;
#X obj 15 241 expr $f1 *$f2 + $f3;
#X obj 15 280 outlet speedCtrl_1;
#X obj 15 13 inlet pitch;
#X obj 70 203 t b f;
#X obj 70 37 loadbang;
#X text 126 36 spd: change it!;
#X msg 123 109 160 20;
#X msg 173 109 320 40;
#X msg 70 109 80 10;
#X msg 223 109 127 10;
#X msg 273 109 1000 1;
#X obj 70 151 t a;
#X msg 283 129 2000 30;
#N canvas 1224 241 420 299 spd-change-minMax 0;
#X floatatom 99 125 5 0 0 2 max - -;
#X obj 99 91 unpack;
#X floatatom 141 125 5 0 0 2 min - -;
#X obj 141 146 t f f;
#X obj 99 178 expr $f1-$f2;
#X floatatom 99 209 5 0 0 3 max - -;
#X floatatom 170 209 5 0 0 3 min - -;
#X obj 170 250 outlet min;
#X obj 99 251 outlet max;
#X obj 99 146 t f;
#X obj 99 58 inlet spd_max_min;
#X connect 0 0 9 0;
#X connect 1 0 0 0;
#X connect 1 1 2 0;
#X connect 2 0 3 0;
#X connect 3 0 6 0;
#X connect 3 1 4 1;
#X connect 4 0 5 0;
#X connect 5 0 8 0;
#X connect 6 0 7 0;
#X connect 9 0 4 0;
#X connect 10 0 1 0;
#X restore 70 181 pd spd-change-minMax;
#X obj 241 20 r p\$1.tgl;
#X obj 241 42 sel 1;
#X obj 241 64 bng 15 250 50 0 empty empty empty 17 7 0 10 -262144 -1
-1;
#X msg 43 79 30 10;
#X connect 0 0 1 0;
#X connect 2 0 0 0;
#X connect 3 0 0 0;
#X connect 3 1 0 1;
#X connect 4 0 17 0;
#X connect 6 0 11 0;
#X connect 7 0 11 0;
#X connect 8 0 11 0;
#X connect 9 0 11 0;
#X connect 10 0 11 0;
#X connect 11 0 13 0;
#X connect 12 0 11 0;
#X connect 13 0 3 0;
#X connect 13 1 0 2;
#X connect 14 0 15 0;
#X connect 15 0 16 0;
#X connect 16 0 17 0;
#X connect 17 0 11 0;
#X restore 164 355 pd speed:pitch;
#N canvas 624 349 575 376 durMinMax:pitch 0;
#X obj 125 291 expr $f1 *$f2 + $f3;
#X obj 180 253 t b f;
#X obj 180 87 loadbang;
#X obj 180 201 t a;
#N canvas 1224 241 420 299 minMax 0;
#X floatatom 99 125 5 0 0 2 max - -;
#X obj 99 91 unpack;
#X floatatom 141 125 5 0 0 2 min - -;
#X obj 141 146 t f f;
#X obj 99 178 expr $f1-$f2;
#X floatatom 99 209 5 0 0 3 max - -;
#X floatatom 170 209 5 0 0 3 min - -;
#X obj 170 250 outlet min;
#X obj 99 251 outlet max;
#X obj 99 146 t f;
#X obj 99 58 inlet spd_max_min;
#X connect 0 0 9 0;
#X connect 1 0 0 0;
#X connect 1 1 2 0;
#X connect 2 0 3 0;
#X connect 3 0 6 0;
#X connect 3 1 4 1;
#X connect 4 0 5 0;
#X connect 5 0 8 0;
#X connect 6 0 7 0;
#X connect 9 0 4 0;
#X connect 10 0 1 0;
#X restore 180 231 pd minMax;
#X obj 54 59 inlet;
#X obj 65 333 outlet;
#X text 236 87 dur: change it!;
#X msg 180 139 127 10;
#X msg 230 139 30 10;
#X obj 351 86 r p\$1.tgl;
#X obj 351 108 sel 1;
#X obj 351 130 bng 15 250 50 0 empty empty empty 17 7 0 10 -262144
-1 -1;
#X connect 0 0 6 0;
#X connect 1 0 0 0;
#X connect 1 1 0 1;
#X connect 2 0 8 0;
#X connect 2 0 9 0;
#X connect 3 0 4 0;
#X connect 4 0 1 0;
#X connect 4 1 0 2;
#X connect 5 0 0 0;
#X connect 9 0 3 0;
#X connect 10 0 11 0;
#X connect 11 0 12 0;
#X connect 12 0 9 0;
#X restore 304 352 pd durMinMax:pitch;
#X obj 14 23 r \$1-b;
#X obj 164 23 r \$1-a;
#X obj 214 23 r \$1-up;
#X obj 274 23 r \$1-down;
#X obj 344 23 r \$1-left;
#X obj 414 23 r \$1-right;
#X obj 68 103 r \$1-b;
#X obj 164 104 r \$1-mP;
#X obj 622 103 r \$1-a;
#X obj 31 486 r p\$1.tgl;
#X obj 164 548 j-got2 p\$1.tgl;
#X obj 304 548 j-got2 p\$1.tgl;
#X obj 444 548 j-got2 p\$1.tgl;
#X obj 304 270 expr 1-$f1;
#X floatatom 314 292 5 0 0 1 1-0 - -;
#X floatatom 554 294 5 0 0 0 - - -;
#X floatatom 314 126 5 0 0 0 - - -;
#X obj 304 146 expr ($f1 +1)/2;
#X floatatom 314 168 5 0 0 1 0-1 - -;
#X obj 304 198 f;
#X obj 304 104 r \$1-wP;
#X floatatom 554 126 5 0 0 0 - - -;
#X obj 544 198 f;
#X obj 544 104 r \$1-mR;
#N canvas 1061 117 594 557 dir:bng--pit--tgl 0;
#X obj 57 418 f;
#X floatatom 67 440 5 0 0 0 - - -;
#X text 176 499 reverse;
#X obj 57 355 f;
#X floatatom 289 296 5 0 0 0 - - -;
#X obj 289 274 expr $f1 /$f2 -0.01;
#X obj 57 500 outlet direction_1;
#X msg 87 355 1;
#X obj 57 110 f 0;
#X obj 57 132 + 1;
#X obj 57 296 sel 0 1;
#X obj 57 274 % 2;
#X obj 128 250 hsl 128 15 0 127 0 0 empty empty empty -2 -8 0 10 -262144
-1 -1 200 1;
#X floatatom 125 270 5 0 0 0 - - -;
#X obj 125 205 loadbang;
#X msg 125 227 2;
#X obj 57 54 inlet metroBang_1;
#X obj 373 236 t b f;
#X obj 289 54 inlet pitch;
#X obj 449 54 inlet tgl;
#X obj 449 76 tgl 15 0 empty empty empty 17 7 0 10 -262144 -1 -1 0
1;
#X obj 449 98 sel 0 1;
#X floatatom 449 162 5 0 0 0 - - -;
#X msg 479 140 -1;
#X msg 449 140 0;
#X connect 0 0 1 0;
#X connect 0 0 6 0;
#X connect 3 0 0 0;
#X connect 5 0 4 0;
#X connect 5 0 3 1;
#X connect 7 0 0 0;
#X connect 8 0 9 0;
#X connect 9 0 8 1;
#X connect 9 0 11 0;
#X connect 10 0 3 0;
#X connect 10 1 7 0;
#X connect 11 0 10 0;
#X connect 12 0 11 1;
#X connect 12 0 13 0;
#X connect 14 0 15 0;
#X connect 15 0 12 0;
#X connect 16 0 8 0;
#X connect 17 0 5 0;
#X connect 17 1 5 1;
#X connect 18 0 5 0;
#X connect 19 0 20 0;
#X connect 20 0 21 0;
#X connect 21 0 24 0;
#X connect 21 1 23 0;
#X connect 22 0 17 0;
#X connect 23 0 22 0;
#X connect 24 0 22 0;
#X restore 444 354 pd dir:bng--pit--tgl;
#X msg 31 559 43648;
#X obj 374 435 itgl;
#X connect 0 0 1 0;
#X connect 6 0 45 0;
#X connect 12 0 22 0;
#X connect 12 0 59 0;
#X connect 14 0 15 0;
#X connect 14 0 18 0;
#X connect 15 0 33 0;
#X connect 16 0 47 0;
#X connect 17 0 6 1;
#X connect 17 0 16 1;
#X connect 19 0 20 0;
#X connect 19 0 21 0;
#X connect 21 0 14 0;
#X connect 22 0 23 0;
#X connect 22 1 23 1;
#X connect 23 0 24 0;
#X connect 26 0 46 0;
#X connect 27 0 50 0;
#X connect 27 0 59 1;
#X connect 28 0 59 2;
#X connect 28 0 61 0;
#X connect 29 0 60 0;
#X connect 31 0 29 0;
#X connect 33 0 13 0;
#X connect 33 0 6 0;
#X connect 34 0 25 0;
#X connect 34 0 26 0;
#X connect 35 0 0 0;
#X connect 36 0 7 0;
#X connect 37 0 8 0;
#X connect 38 0 9 0;
#X connect 39 0 10 0;
#X connect 40 0 11 0;
#X connect 41 0 17 0;
#X connect 42 0 5 0;
#X connect 42 0 19 0;
#X connect 43 0 28 0;
#X connect 44 0 31 0;
#X connect 45 0 4 0;
#X connect 46 0 2 0;
#X connect 47 0 3 0;
#X connect 48 0 49 0;
#X connect 48 0 34 0;
#X connect 52 0 53 0;
#X connect 52 0 54 0;
#X connect 54 0 48 0;
#X connect 55 0 51 0;
#X connect 55 0 52 0;
#X connect 57 0 27 0;
#X connect 58 0 56 0;
#X connect 58 0 57 0;
#X connect 59 0 32 0;
#X connect 59 0 16 0;
#X connect 60 0 30 0;
#X connect 61 0 26 1;
#X restore 20 48 pd spdVar_1;
#N canvas 971 22 705 640 spdVar_2 0;
#X obj 14 45 tgl 15 0 empty empty empty 17 7 0 10 -262144 -1 -1 0 1
;
#X floatatom 174 124 5 0 0 0 - - -;
#X obj 164 495 j-got;
#X obj 154 45 tgl 15 0 empty empty empty 17 7 0 10 -262144 -1 -1 0
1;
#X obj 204 45 tgl 15 0 empty empty empty 17 7 0 10 -262144 -1 -1 0
1;
#X obj 264 45 tgl 15 0 empty empty empty 17 7 0 10 -262144 -1 -1 0
1;
#X obj 334 45 tgl 15 0 empty empty empty 17 7 0 10 -262144 -1 -1 0
1;
#X obj 404 45 tgl 15 0 empty empty empty 17 7 0 10 -262144 -1 -1 0
1;
#X floatatom 174 375 5 0 0 0 - - -;
#X obj 164 268 expr 1-$f1;
#X obj 444 495 j-got;
#X obj 68 363 tgl 15 0 empty empty empty 17 7 0 10 -262144 -1 -1 0
1;
#X floatatom 174 290 5 0 0 1 1-0 - -;
#X obj 164 144 expr ($f1 +1)/2;
#X floatatom 174 166 5 0 0 1 0-1 - -;
#X obj 164 196 f;
#X floatatom 314 375 5 0 0 0 - - -;
#X obj 304 495 j-got;
#X obj 164 575 s speedCtrl_2;
#X obj 304 576 s durCtrl_2;
#X obj 444 575 s direction_2;
#X obj 74 23 s switch_2;
#X obj 164 310 expr $f1*$f1;
#X obj 31 539 bng 15 250 50 0 empty empty empty 17 7 0 10 -262144 -1
-1;
#X msg 31 559 23593;
#X obj 31 581 s range_2;
#X obj 31 508 sel 1;
#N canvas 1074 685 373 319 speed:pitch 0;
#X obj 15 241 expr $f1 *$f2 + $f3;
#X obj 15 280 outlet speedCtrl_1;
#X obj 15 13 inlet pitch;
#X obj 70 203 t b f;
#X obj 70 37 loadbang;
#X text 126 36 spd: change it!;
#X msg 123 109 160 20;
#X msg 173 109 320 40;
#X msg 70 109 80 10;
#X msg 223 109 127 10;
#X msg 273 109 1000 1;
#X obj 70 151 t a;
#X msg 283 129 2000 30;
#X msg 43 69 200 30;
#N canvas 1224 241 420 299 spd-change-minMax 0;
#X floatatom 99 125 5 0 0 2 max - -;
#X obj 99 91 unpack;
#X floatatom 141 125 5 0 0 2 min - -;
#X obj 141 146 t f f;
#X obj 99 178 expr $f1-$f2;
#X floatatom 99 209 5 0 0 3 max - -;
#X floatatom 170 209 5 0 0 3 min - -;
#X obj 170 250 outlet min;
#X obj 99 251 outlet max;
#X obj 99 146 t f;
#X obj 99 58 inlet spd_max_min;
#X connect 0 0 9 0;
#X connect 1 0 0 0;
#X connect 1 1 2 0;
#X connect 2 0 3 0;
#X connect 3 0 6 0;
#X connect 3 1 4 1;
#X connect 4 0 5 0;
#X connect 5 0 8 0;
#X connect 6 0 7 0;
#X connect 9 0 4 0;
#X connect 10 0 1 0;
#X restore 70 181 pd spd-change-minMax;
#X connect 0 0 1 0;
#X connect 2 0 0 0;
#X connect 3 0 0 0;
#X connect 3 1 0 1;
#X connect 4 0 13 0;
#X connect 6 0 11 0;
#X connect 7 0 11 0;
#X connect 8 0 11 0;
#X connect 9 0 11 0;
#X connect 10 0 11 0;
#X connect 11 0 14 0;
#X connect 12 0 11 0;
#X connect 13 0 11 0;
#X connect 14 0 3 0;
#X connect 14 1 0 2;
#X restore 164 353 pd speed:pitch;
#N canvas 269 223 575 376 durMinMax:pitch 0;
#X obj 125 291 expr $f1 *$f2 + $f3;
#X obj 180 253 t b f;
#X obj 180 87 loadbang;
#X obj 180 201 t a;
#N canvas 1224 241 420 299 minMax 0;
#X floatatom 99 125 5 0 0 2 max - -;
#X obj 99 91 unpack;
#X floatatom 141 125 5 0 0 2 min - -;
#X obj 141 146 t f f;
#X obj 99 178 expr $f1-$f2;
#X floatatom 99 209 5 0 0 3 max - -;
#X floatatom 170 209 5 0 0 3 min - -;
#X obj 170 250 outlet min;
#X obj 99 251 outlet max;
#X obj 99 146 t f;
#X obj 99 58 inlet spd_max_min;
#X connect 0 0 9 0;
#X connect 1 0 0 0;
#X connect 1 1 2 0;
#X connect 2 0 3 0;
#X connect 3 0 6 0;
#X connect 3 1 4 1;
#X connect 4 0 5 0;
#X connect 5 0 8 0;
#X connect 6 0 7 0;
#X connect 9 0 4 0;
#X connect 10 0 1 0;
#X restore 180 231 pd minMax;
#X obj 54 59 inlet;
#X obj 65 333 outlet;
#X text 236 87 dur: change it!;
#X msg 180 139 127 10;
#X connect 0 0 6 0;
#X connect 1 0 0 0;
#X connect 1 1 0 1;
#X connect 2 0 8 0;
#X connect 3 0 4 0;
#X connect 4 0 1 0;
#X connect 4 1 0 2;
#X connect 5 0 0 0;
#X connect 8 0 3 0;
#X restore 304 353 pd durMinMax:pitch;
#X obj 14 23 r \$1-b2;
#X obj 154 23 r \$1-a2;
#X obj 204 23 r \$1-up2;
#X obj 264 23 r \$1-down2;
#X obj 334 23 r \$1-left2;
#X obj 404 23 r \$1-right2;
#X obj 68 101 r \$1-b2;
#X obj 164 102 r \$1-mP2;
#X obj 31 486 r p\$1.tgl;
#X obj 164 546 j-got2 p\$1.tgl;
#X obj 304 546 j-got2 p\$1.tgl;
#X obj 444 546 j-got2 p\$1.tgl;
#X obj 304 268 expr 1-$f1;
#X floatatom 314 290 5 0 0 1 1-0 - -;
#X floatatom 314 124 5 0 0 0 - - -;
#X obj 304 144 expr ($f1 +1)/2;
#X floatatom 314 166 5 0 0 1 0-1 - -;
#X obj 304 196 f;
#X obj 304 102 r \$1-wP2;
#X obj 454 135 t b b;
#X obj 454 157 timer;
#X floatatom 454 179 5 0 0 0 - - -;
#X obj 544 272 expr $f1*$f1*$f1*$f1;
#X obj 622 195 tgl 15 0 empty empty empty 17 7 0 10 -262144 -1 -1 0
1;
#X floatatom 454 377 5 0 0 0 - - -;
#X floatatom 554 294 5 0 0 0 - - -;
#X floatatom 554 126 5 0 0 0 - - -;
#X obj 544 198 f;
#N canvas 804 415 594 557 dir:bng--pit--tgl 0;
#X obj 57 418 f;
#X floatatom 67 440 5 0 0 0 - - -;
#X text 176 499 reverse;
#X obj 57 355 f;
#X floatatom 289 296 5 0 0 0 - - -;
#X obj 289 274 expr $f1 /$f2 -0.01;
#X obj 57 500 outlet direction_1;
#X msg 87 355 1;
#X obj 57 110 f 0;
#X obj 57 132 + 1;
#X obj 57 296 sel 0 1;
#X obj 57 274 % 2;
#X obj 128 250 hsl 128 15 0 127 0 0 empty empty empty -2 -8 0 10 -262144
-1 -1 200 1;
#X floatatom 125 270 5 0 0 0 - - -;
#X obj 125 205 loadbang;
#X msg 125 227 2;
#X obj 57 54 inlet metroBang_1;
#X obj 373 236 t b f;
#X obj 289 54 inlet pitch;
#X obj 449 54 inlet tgl;
#X obj 449 76 tgl 15 0 empty empty empty 17 7 0 10 -262144 -1 -1 0
1;
#X obj 449 98 sel 0 1;
#X floatatom 449 162 5 0 0 0 - - -;
#X msg 479 140 -1;
#X msg 449 140 0;
#X connect 0 0 1 0;
#X connect 0 0 6 0;
#X connect 3 0 0 0;
#X connect 5 0 4 0;
#X connect 5 0 3 1;
#X connect 7 0 0 0;
#X connect 8 0 9 0;
#X connect 9 0 8 1;
#X connect 9 0 11 0;
#X connect 10 0 3 0;
#X connect 10 1 7 0;
#X connect 11 0 10 0;
#X connect 12 0 11 1;
#X connect 12 0 13 0;
#X connect 14 0 15 0;
#X connect 15 0 12 0;
#X connect 16 0 8 0;
#X connect 17 0 5 0;
#X connect 17 1 5 1;
#X connect 18 0 5 0;
#X connect 19 0 20 0;
#X connect 20 0 21 0;
#X connect 21 0 24 0;
#X connect 21 1 23 0;
#X connect 22 0 17 0;
#X connect 23 0 22 0;
#X connect 24 0 22 0;
#X restore 444 354 pd dir:bng--pit--tgl;
#X obj 444 103 r metroBang_2;
#X obj 544 104 r \$1-mR2;
#X obj 622 103 r \$1-a2;
#X connect 0 0 21 0;
#X connect 2 0 38 0;
#X connect 9 0 12 0;
#X connect 9 0 22 0;
#X connect 10 0 40 0;
#X connect 11 0 2 1;
#X connect 11 0 10 1;
#X connect 11 0 17 1;
#X connect 13 0 14 0;
#X connect 13 0 15 0;
#X connect 15 0 9 0;
#X connect 17 0 39 0;
#X connect 22 0 27 0;
#X connect 23 0 24 0;
#X connect 24 0 25 0;
#X connect 26 0 23 0;
#X connect 27 0 8 0;
#X connect 27 0 2 0;
#X connect 28 0 16 0;
#X connect 28 0 17 0;
#X connect 29 0 0 0;
#X connect 30 0 3 0;
#X connect 31 0 4 0;
#X connect 32 0 5 0;
#X connect 33 0 6 0;
#X connect 34 0 7 0;
#X connect 35 0 11 0;
#X connect 36 0 1 0;
#X connect 36 0 13 0;
#X connect 37 0 26 0;
#X connect 38 0 18 0;
#X connect 39 0 19 0;
#X connect 40 0 20 0;
#X connect 41 0 42 0;
#X connect 41 0 28 0;
#X connect 44 0 45 0;
#X connect 44 0 46 0;
#X connect 46 0 41 0;
#X connect 47 0 43 0;
#X connect 47 0 44 0;
#X connect 48 0 49 0;
#X connect 48 1 49 1;
#X connect 49 0 50 0;
#X connect 51 0 54 0;
#X connect 51 0 57 1;
#X connect 52 0 57 2;
#X connect 56 0 51 0;
#X connect 57 0 53 0;
#X connect 57 0 10 0;
#X connect 58 0 48 0;
#X connect 58 0 57 0;
#X connect 59 0 55 0;
#X connect 59 0 56 0;
#X connect 60 0 52 0;
#X restore 20 69 pd spdVar_2;
