#N canvas 920 321 351 90 10;
#X obj 11 7 tgl 15 0 p\$1.tgl p\$1.tgl p\$1.tgl 17 7 0 10 -262144 -1
-1 1 1;
#X obj 253 27 bng 15 250 50 0 empty empty empty 17 7 0 10 -262144 -1
-1;
#X obj 253 47 s \$0-reload;
#N canvas 144 22 1536 731 randVar_1 1;
#X obj 14 45 tgl 15 0 empty empty empty 17 7 0 10 -262144 -1 -1 0 1
;
#X obj 74 23 s switch_1;
#X obj 214 45 tgl 15 0 empty empty empty 17 7 0 10 -262144 -1 -1 0
1;
#X obj 274 45 tgl 15 0 empty empty empty 17 7 0 10 -262144 -1 -1 0
1;
#X obj 344 45 tgl 15 0 empty empty empty 17 7 0 10 -262144 -1 -1 0
1;
#X obj 414 45 tgl 15 0 empty empty empty 17 7 0 10 -262144 -1 -1 0
1;
#X obj 14 23 r \$1-b;
#X obj 214 23 r \$1-up;
#X obj 274 23 r \$1-down;
#X obj 344 23 r \$1-left;
#X obj 414 23 r \$1-right;
#X obj 154 45 tgl 15 0 empty empty empty 17 7 0 10 -262144 -1 -1 0
1;
#X obj 154 23 r \$1-a;
#X obj 374 365 tgl 15 0 empty empty empty 17 7 0 10 -262144 -1 -1 1
1;
#X obj 374 93 r \$1-a;
#X obj 164 677 s speedCtrl_1;
#X obj 164 587 j-got;
#X obj 68 465 tgl 15 0 empty empty empty 17 7 0 10 -262144 -1 -1 0
1;
#X obj 68 103 r \$1-b;
#X obj 164 618 j-got2 p\$1.tgl;
#X obj 394 587 j-got;
#X obj 394 618 j-got2 p\$1.tgl;
#X obj 394 677 s durCtrl_1;
#X obj 574 587 j-got;
#X obj 574 618 j-got2 p\$1.tgl;
#X obj 574 677 s range_1;
#X obj 824 677 s direction_1;
#X obj 824 587 j-got;
#X obj 824 618 j-got2 p\$1.tgl;
#X obj 824 540 f;
#X msg 727 642 1;
#X obj 700 348 tgl 15 0 empty empty empty 17 7 0 10 -262144 -1 -1 0
1;
#X obj 863 80 r \$1-mP.velo;
#X obj 943 80 r \$1-mY.velo;
#X obj 803 273 * 127;
#X floatatom 823 327 5 0 0 0 - - -;
#X obj 803 81 r \$1-wAcc;
#X obj 803 248 +;
#X obj 863 172 abs;
#X obj 943 172 abs;
#X obj 166 103 r \$1-mP;
#X obj 374 335 itgl;
#X obj 443 92 r \$1-mR;
#X obj 443 361 j-got;
#X obj 797 481 sel 1;
#X msg 797 505 1;
#X obj 844 481 sel 1;
#X obj 502 333 tgl 15 0 empty empty empty 17 7 0 10 -262144 -1 -1 0
1;
#X obj 803 173 mavg 4;
#X obj 727 619 bng 15 250 50 0 empty empty empty 17 7 0 10 -262144
-1 -1;
#X obj 374 458 sel 1;
#X obj 803 220 pack f f f;
#X obj 263 199 loadbang;
#N canvas 135 519 454 386 spdCtrl+MaxMinRange 0;
#X obj 67 41 inlet pitch;
#X obj 64 343 outlet spd;
#X obj 67 104 expr ($f1+1)/2;
#X obj 67 136 expr 1-$f1;
#X obj 67 196 expr $f1*$f1;
#X floatatom 77 270 5 0 0 0 - - -;
#X obj 228 151 t a;
#X floatatom 228 213 5 0 0 0 - - -;
#X floatatom 285 214 5 0 0 0 - - -;
#X obj 67 248 expr ($f1 *$f2) +$f3;
#X obj 228 85 inlet MaxMin:list;
#X obj 228 181 MaxMin;
#X connect 0 0 2 0;
#X connect 2 0 3 0;
#X connect 3 0 4 0;
#X connect 4 0 9 0;
#X connect 6 0 11 0;
#X connect 7 0 9 1;
#X connect 8 0 9 2;
#X connect 9 0 5 0;
#X connect 9 0 1 0;
#X connect 10 0 6 0;
#X connect 11 0 7 0;
#X connect 11 1 8 0;
#X restore 166 262 pd spdCtrl+MaxMinRange;
#N canvas 75 475 438 348 durCtrl+MaxMinRange 0;
#X obj 53 43 inlet;
#X obj 53 275 outlet;
#X text 79 103 max:137 \, min: 10;
#X obj 63 128 expr ($f1+1)/2;
#X obj 241 116 MaxMin;
#X floatatom 241 138 5 0 0 0 - - -;
#X floatatom 281 138 5 0 0 0 - - -;
#X obj 63 190 expr ($f1 *$f2) +$f3;
#X floatatom 73 212 5 0 0 0 - - -;
#X obj 242 51 inlet maxMin;
#X connect 0 0 3 0;
#X connect 3 0 7 0;
#X connect 4 0 5 0;
#X connect 4 1 6 0;
#X connect 5 0 7 1;
#X connect 6 0 7 2;
#X connect 7 0 1 0;
#X connect 7 0 8 0;
#X connect 9 0 4 0;
#X restore 443 259 pd durCtrl+MaxMinRange;
#X floatatom 176 284 5 0 0 0 - - -;
#X obj 536 199 loadbang;
#X floatatom 453 281 5 0 0 0 - - -;
#N canvas 164 357 705 592 randomGenerator 0;
#X obj 212 118 tgl 15 0 empty empty empty 17 7 0 10 -262144 -1 -1 0
1;
#X obj 212 168 bng 15 250 50 0 empty empty empty 17 7 0 10 -262144
-1 -1;
#X obj 212 188 f 0;
#X obj 212 210 + 1;
#X obj 212 254 sel 0 1 2 3 4 5;
#X obj 212 232 % 6;
#X msg 242 346 37750 3;
#X msg 212 306 10617 3;
#X msg 292 306 49547 3;
#X msg 322 346 56625 3;
#X msg 382 306 104993 3;
#X msg 412 346 119149 3;
#X obj 212 146 metro 1000;
#N canvas 822 535 477 486 randPeakPosition 0;
#X obj 24 137 unpack float float float float float flaot;
#X floatatom 361 127 5 0 0 0 - - -;
#X obj 24 259 pack f f;
#X msg 24 281 set \$1 \$2;
#X obj 24 443 outlet;
#X obj 74 443 outlet;
#X obj 124 443 outlet;
#X obj 173 443 outlet;
#X obj 224 443 outlet;
#X obj 274 443 outlet;
#X obj 74 309 pack f f;
#X msg 74 331 set \$1 \$2;
#X obj 124 359 pack f f;
#X msg 124 381 set \$1 \$2;
#X obj 173 179 pack f f;
#X msg 173 201 set \$1 \$2;
#X obj 224 229 pack f f;
#X msg 224 251 set \$1 \$2;
#X obj 274 279 pack f f;
#X msg 274 301 set \$1 \$2;
#X obj 24 37 t a b;
#X obj 24 15 inlet randPeaks;
#X msg 361 95 3;
#X connect 0 0 2 0;
#X connect 0 1 10 0;
#X connect 0 2 12 0;
#X connect 0 3 14 0;
#X connect 0 4 16 0;
#X connect 0 5 18 0;
#X connect 1 0 2 1;
#X connect 1 0 10 1;
#X connect 1 0 12 1;
#X connect 1 0 14 1;
#X connect 1 0 16 1;
#X connect 1 0 18 1;
#X connect 2 0 3 0;
#X connect 3 0 4 0;
#X connect 10 0 11 0;
#X connect 11 0 5 0;
#X connect 12 0 13 0;
#X connect 13 0 6 0;
#X connect 14 0 15 0;
#X connect 15 0 7 0;
#X connect 16 0 17 0;
#X connect 17 0 8 0;
#X connect 18 0 19 0;
#X connect 19 0 9 0;
#X connect 20 0 0 0;
#X connect 20 1 22 0;
#X connect 21 0 20 0;
#X connect 22 0 1 0;
#X restore 354 182 pd randPeakPosition;
#X obj 56 49 inlet tgl;
#X obj 146 485 outlet linedRange;
#X floatatom 222 421 11 0 0 0 - - -;
#X obj 354 45 inlet \$0-randPeaks;
#X obj 505 44 inlet metroSpd;
#X floatatom 535 76 5 0 0 0 - - -;
#X obj 212 400 f;
#X text 193 452 without line;
#X connect 0 0 12 0;
#X connect 1 0 2 0;
#X connect 2 0 3 0;
#X connect 3 0 2 1;
#X connect 3 0 5 0;
#X connect 4 0 7 0;
#X connect 4 1 6 0;
#X connect 4 2 8 0;
#X connect 4 3 9 0;
#X connect 4 4 10 0;
#X connect 4 5 11 0;
#X connect 5 0 4 0;
#X connect 6 0 20 0;
#X connect 7 0 20 0;
#X connect 8 0 20 0;
#X connect 9 0 20 0;
#X connect 10 0 20 0;
#X connect 11 0 20 0;
#X connect 12 0 1 0;
#X connect 13 0 7 0;
#X connect 13 1 6 0;
#X connect 13 2 8 0;
#X connect 13 3 9 0;
#X connect 13 4 10 0;
#X connect 13 5 11 0;
#X connect 14 0 0 0;
#X connect 17 0 13 0;
#X connect 18 0 12 1;
#X connect 18 0 19 0;
#X connect 20 0 15 0;
#X connect 20 0 16 0;
#X restore 700 376 pd randomGenerator;
#X floatatom 710 408 11 0 0 0 - - -;
#X obj 374 275 tgl 15 0 empty empty empty 17 7 0 10 -262144 -1 -1 0
1;
#X obj 727 595 r \$0-reload;
#X obj 190 223 bng 15 250 50 0 empty empty empty 17 7 0 10 -262144
-1 -1;
#X obj 190 199 r \$0-reload;
#X obj 460 223 bng 15 250 50 0 empty empty empty 17 7 0 10 -262144
-1 -1;
#X obj 460 199 r \$0-reload;
#X obj 297 621 bng 15 250 50 0 empty empty empty 17 7 0 10 -262144
-1 -1;
#X obj 297 597 r \$0-reload;
#X msg 297 641 44;
#X msg 374 531 44;
#X obj 39 533 bng 15 250 50 0 empty empty empty 17 7 0 10 -262144 -1
-1;
#X floatatom 39 577 5 0 0 0 - - -;
#X msg 39 596 set \$1;
#X obj 39 506 loadbang;
#X obj 1052 587 j-got;
#X obj 1052 618 j-got2 p\$1.tgl;
#X obj 1052 677 s pitchCtrl_1;
#X obj 1052 78 r metroBang_1;
#X obj 1052 485 j-got;
#X obj 1111 449 tgl 15 0 empty empty a 17 7 0 10 -262144 -1 -1 0 1
;
#X obj 1167 481 itgl;
#X obj 1167 503 sel 1;
#X msg 1167 525 0;
#N canvas 719 593 450 300 randomOctave 0;
#X obj 121 70 bng 15 250 50 0 empty empty empty 17 7 0 10 -262144 -1
-1;
#X msg 121 168 0;
#X msg 161 168 12;
#X obj 121 210 f;
#X obj 121 100 random 100;
#X obj 121 122 moses 70;
#X obj 73 28 inlet;
#X text 212 124 70% -> 0 \, 30% ->12;
#X obj 89 245 outlet;
#X connect 0 0 4 0;
#X connect 1 0 3 0;
#X connect 2 0 3 0;
#X connect 3 0 8 0;
#X connect 4 0 5 0;
#X connect 5 0 1 0;
#X connect 5 1 2 0;
#X connect 6 0 0 0;
#X restore 1052 312 pd randomOctave;
#X msg 263 226 127 0;
#X obj 803 302 max 1;
#X msg 39 555 44;
#X msg 844 506 -0.9;
#X obj 692 82 r \$0-randPeaks_1;
#X obj 656 139 print p5.randPeaks_1;
#X obj 1264 618 j-got2 p\$1.tgl;
#X obj 1264 391 sel 1 0;
#X obj 1336 370 f;
#X obj 1336 392 expr ($f1+1)/2;
#X floatatom 1356 414 5 0 0 1 mR - -;
#X obj 1264 453 f;
#X obj 1264 539 f;
#X text 1270 371 \$1-a;
#X obj 1264 567 j-got;
#X obj 1224 481 t f f;
#X obj 1224 453 tgl 15 0 empty empty a 17 7 0 10 -262144 -1 -1 0 1
;
#X obj 1264 667 s fileArray1.pan;
#X obj 1344 487 print 1.pan R E S T O R E D:;
#X msg 1324 453 0.4;
#X msg 586 226 200 10;
#X msg 536 226 200 10;
#X connect 0 0 1 0;
#X connect 6 0 0 0;
#X connect 7 0 2 0;
#X connect 8 0 3 0;
#X connect 9 0 4 0;
#X connect 10 0 5 0;
#X connect 12 0 11 0;
#X connect 13 0 16 1;
#X connect 13 0 23 1;
#X connect 13 0 44 0;
#X connect 13 0 50 0;
#X connect 14 0 60 0;
#X connect 14 0 79 0;
#X connect 16 0 19 0;
#X connect 17 0 31 0;
#X connect 17 0 20 1;
#X connect 17 0 27 1;
#X connect 17 0 74 1;
#X connect 18 0 17 0;
#X connect 19 0 15 0;
#X connect 20 0 21 0;
#X connect 21 0 22 0;
#X connect 23 0 24 0;
#X connect 24 0 25 0;
#X connect 27 0 28 0;
#X connect 28 0 26 0;
#X connect 29 0 27 0;
#X connect 30 0 26 0;
#X connect 31 0 58 0;
#X connect 32 0 38 0;
#X connect 33 0 39 0;
#X connect 34 0 85 0;
#X connect 36 0 48 0;
#X connect 37 0 34 0;
#X connect 38 0 51 1;
#X connect 39 0 51 2;
#X connect 40 0 53 0;
#X connect 41 0 13 0;
#X connect 42 0 54 0;
#X connect 42 0 92 0;
#X connect 43 0 20 0;
#X connect 44 0 45 0;
#X connect 45 0 29 0;
#X connect 46 0 87 0;
#X connect 47 0 43 1;
#X connect 47 0 46 0;
#X connect 48 0 51 0;
#X connect 49 0 30 0;
#X connect 50 0 69 0;
#X connect 51 0 37 0;
#X connect 52 0 84 0;
#X connect 53 0 16 0;
#X connect 53 0 55 0;
#X connect 54 0 43 0;
#X connect 54 0 57 0;
#X connect 56 0 105 0;
#X connect 58 0 59 0;
#X connect 58 0 23 0;
#X connect 60 0 41 0;
#X connect 60 0 47 0;
#X connect 61 0 49 0;
#X connect 62 0 84 0;
#X connect 63 0 62 0;
#X connect 64 0 105 0;
#X connect 65 0 64 0;
#X connect 66 0 68 0;
#X connect 67 0 66 0;
#X connect 68 0 22 0;
#X connect 69 0 20 0;
#X connect 70 0 86 0;
#X connect 71 0 72 0;
#X connect 72 0 69 0;
#X connect 72 0 68 0;
#X connect 73 0 70 0;
#X connect 74 0 75 0;
#X connect 75 0 76 0;
#X connect 77 0 83 0;
#X connect 78 0 74 0;
#X connect 79 0 78 1;
#X connect 79 0 80 0;
#X connect 79 0 100 0;
#X connect 80 0 81 0;
#X connect 81 0 82 0;
#X connect 82 0 74 0;
#X connect 83 0 78 0;
#X connect 84 0 53 1;
#X connect 85 0 35 0;
#X connect 85 0 58 2;
#X connect 86 0 71 0;
#X connect 87 0 29 0;
#X connect 88 0 58 1;
#X connect 88 0 89 0;
#X connect 90 0 101 0;
#X connect 91 0 95 0;
#X connect 91 1 103 0;
#X connect 92 0 93 0;
#X connect 93 0 94 0;
#X connect 93 0 95 0;
#X connect 95 0 96 0;
#X connect 96 0 98 0;
#X connect 98 0 90 0;
#X connect 99 0 91 0;
#X connect 99 1 98 1;
#X connect 100 0 99 0;
#X connect 103 0 90 0;
#X connect 103 0 102 0;
#X connect 104 0 54 1;
#X connect 105 0 54 1;
#X restore 11 27 pd randVar_1;
#N canvas 135 94 1533 746 randVar_2 0;
#X obj 14 45 tgl 15 0 empty empty empty 17 7 0 10 -262144 -1 -1 0 1
;
#X obj 154 45 tgl 15 0 empty empty empty 17 7 0 10 -262144 -1 -1 0
1;
#X obj 204 45 tgl 15 0 empty empty empty 17 7 0 10 -262144 -1 -1 0
1;
#X obj 264 45 tgl 15 0 empty empty empty 17 7 0 10 -262144 -1 -1 0
1;
#X obj 334 45 tgl 15 0 empty empty empty 17 7 0 10 -262144 -1 -1 0
1;
#X obj 404 45 tgl 15 0 empty empty empty 17 7 0 10 -262144 -1 -1 0
1;
#X obj 74 23 s switch_2;
#X obj 14 23 r \$1-b2;
#X obj 154 23 r \$1-a2;
#X obj 204 23 r \$1-up2;
#X obj 264 23 r \$1-down2;
#X obj 334 23 r \$1-left2;
#X obj 404 23 r \$1-right2;
#X obj 374 365 tgl 15 0 empty empty empty 17 7 0 10 -262144 -1 -1 1
1;
#X obj 164 587 j-got;
#X obj 68 465 tgl 15 0 empty empty empty 17 7 0 10 -262144 -1 -1 0
1;
#X obj 164 618 j-got2 p\$1.tgl;
#X obj 394 587 j-got;
#X obj 394 618 j-got2 p\$1.tgl;
#X obj 574 587 j-got;
#X obj 574 618 j-got2 p\$1.tgl;
#X obj 824 587 j-got;
#X obj 824 618 j-got2 p\$1.tgl;
#X obj 824 540 f;
#X msg 727 642 1;
#X obj 700 348 tgl 15 0 empty empty empty 17 7 0 10 -262144 -1 -1 0
1;
#X obj 803 273 * 127;
#X obj 803 248 +;
#X obj 873 172 abs;
#X obj 963 172 abs;
#X obj 374 335 itgl;
#X obj 443 361 j-got;
#X obj 797 481 sel 1;
#X msg 797 505 1;
#X obj 844 481 sel 1;
#X obj 502 333 tgl 15 0 empty empty empty 17 7 0 10 -262144 -1 -1 0
1;
#X obj 803 173 mavg 4;
#X obj 727 619 bng 15 250 50 0 empty empty empty 17 7 0 10 -262144
-1 -1;
#X obj 374 498 sel 1;
#X obj 803 220 pack f f f;
#X obj 263 199 loadbang;
#N canvas 135 519 454 386 spdCtrl+MaxMinRange 0;
#X obj 67 41 inlet pitch;
#X obj 64 343 outlet spd;
#X obj 67 104 expr ($f1+1)/2;
#X obj 67 136 expr 1-$f1;
#X obj 67 196 expr $f1*$f1;
#X floatatom 77 270 5 0 0 0 - - -;
#X obj 228 151 t a;
#X floatatom 228 213 5 0 0 0 - - -;
#X floatatom 285 214 5 0 0 0 - - -;
#X obj 67 248 expr ($f1 *$f2) +$f3;
#X obj 228 85 inlet MaxMin:list;
#X obj 228 181 MaxMin;
#X connect 0 0 2 0;
#X connect 2 0 3 0;
#X connect 3 0 4 0;
#X connect 4 0 9 0;
#X connect 6 0 11 0;
#X connect 7 0 9 1;
#X connect 8 0 9 2;
#X connect 9 0 5 0;
#X connect 9 0 1 0;
#X connect 10 0 6 0;
#X connect 11 0 7 0;
#X connect 11 1 8 0;
#X restore 166 262 pd spdCtrl+MaxMinRange;
#N canvas 75 475 438 348 durCtrl+MaxMinRange 0;
#X obj 53 43 inlet;
#X obj 53 275 outlet;
#X text 79 103 max:137 \, min: 10;
#X obj 63 128 expr ($f1+1)/2;
#X obj 241 116 MaxMin;
#X floatatom 241 138 5 0 0 0 - - -;
#X floatatom 281 138 5 0 0 0 - - -;
#X obj 63 190 expr ($f1 *$f2) +$f3;
#X floatatom 73 212 5 0 0 0 - - -;
#X obj 242 51 inlet maxMin;
#X connect 0 0 3 0;
#X connect 3 0 7 0;
#X connect 4 0 5 0;
#X connect 4 1 6 0;
#X connect 5 0 7 1;
#X connect 6 0 7 2;
#X connect 7 0 1 0;
#X connect 7 0 8 0;
#X connect 9 0 4 0;
#X restore 443 259 pd durCtrl+MaxMinRange;
#X floatatom 176 284 5 0 0 0 - - -;
#X obj 536 199 loadbang;
#X floatatom 453 281 5 0 0 0 - - -;
#N canvas 164 357 705 592 randomGenerator 0;
#X obj 210 118 tgl 15 0 empty empty empty 17 7 0 10 -262144 -1 -1 0
1;
#X obj 212 168 bng 15 250 50 0 empty empty empty 17 7 0 10 -262144
-1 -1;
#X obj 212 188 f 0;
#X obj 212 210 + 1;
#X obj 212 254 sel 0 1 2 3 4 5;
#X obj 212 232 % 6;
#X msg 242 346 36570 55;
#X msg 212 306 9437 55;
#X msg 292 306 55445 55;
#X msg 322 346 81398 55;
#X msg 382 306 103813 55;
#X msg 412 346 145102 55;
#X obj 212 146 metro 1000;
#N canvas 942 512 477 486 randPeakPosition 0;
#X obj 24 137 unpack float float float float float flaot;
#X floatatom 361 127 5 0 0 0 - - -;
#X obj 24 259 pack f f;
#X msg 24 281 set \$1 \$2;
#X obj 24 443 outlet;
#X obj 74 443 outlet;
#X obj 124 443 outlet;
#X obj 174 443 outlet;
#X obj 224 443 outlet;
#X obj 274 443 outlet;
#X obj 74 309 pack f f;
#X msg 74 331 set \$1 \$2;
#X obj 124 359 pack f f;
#X msg 124 381 set \$1 \$2;
#X obj 174 179 pack f f;
#X msg 174 201 set \$1 \$2;
#X obj 224 229 pack f f;
#X msg 224 251 set \$1 \$2;
#X obj 274 279 pack f f;
#X msg 274 301 set \$1 \$2;
#X obj 24 37 t a b;
#X obj 24 15 inlet randPeaks;
#X msg 361 105 55;
#X connect 0 0 2 0;
#X connect 0 1 10 0;
#X connect 0 2 12 0;
#X connect 0 3 14 0;
#X connect 0 4 16 0;
#X connect 0 5 18 0;
#X connect 1 0 2 1;
#X connect 1 0 10 1;
#X connect 1 0 12 1;
#X connect 1 0 14 1;
#X connect 1 0 16 1;
#X connect 1 0 18 1;
#X connect 2 0 3 0;
#X connect 3 0 4 0;
#X connect 10 0 11 0;
#X connect 11 0 5 0;
#X connect 12 0 13 0;
#X connect 13 0 6 0;
#X connect 14 0 15 0;
#X connect 15 0 7 0;
#X connect 16 0 17 0;
#X connect 17 0 8 0;
#X connect 18 0 19 0;
#X connect 19 0 9 0;
#X connect 20 0 0 0;
#X connect 20 1 22 0;
#X connect 21 0 20 0;
#X connect 22 0 1 0;
#X restore 354 182 pd randPeakPosition;
#X obj 56 49 inlet tgl;
#X obj 146 485 outlet linedRange;
#X floatatom 222 421 11 0 0 0 - - -;
#X obj 354 45 inlet \$0-randPeaks;
#X obj 505 44 inlet metroSpd;
#X floatatom 535 76 5 0 0 0 - - -;
#X obj 212 399 f;
#X connect 0 0 12 0;
#X connect 1 0 2 0;
#X connect 2 0 3 0;
#X connect 3 0 2 1;
#X connect 3 0 5 0;
#X connect 4 0 7 0;
#X connect 4 1 6 0;
#X connect 4 2 8 0;
#X connect 4 3 9 0;
#X connect 4 4 10 0;
#X connect 4 5 11 0;
#X connect 5 0 4 0;
#X connect 6 0 20 0;
#X connect 7 0 20 0;
#X connect 8 0 20 0;
#X connect 9 0 20 0;
#X connect 10 0 20 0;
#X connect 11 0 20 0;
#X connect 12 0 1 0;
#X connect 13 0 7 0;
#X connect 13 1 6 0;
#X connect 13 2 8 0;
#X connect 13 3 9 0;
#X connect 13 4 10 0;
#X connect 13 5 11 0;
#X connect 14 0 0 0;
#X connect 17 0 13 0;
#X connect 18 0 12 1;
#X connect 18 0 19 0;
#X connect 20 0 15 0;
#X connect 20 0 16 0;
#X restore 700 376 pd randomGenerator;
#X floatatom 710 408 11 0 0 0 - - -;
#X obj 374 275 tgl 15 0 empty empty empty 17 7 0 10 -262144 -1 -1 0
1;
#X obj 727 595 r \$0-reload;
#X obj 190 223 bng 15 250 50 0 empty empty empty 17 7 0 10 -262144
-1 -1;
#X obj 190 199 r \$0-reload;
#X obj 460 223 bng 15 250 50 0 empty empty empty 17 7 0 10 -262144
-1 -1;
#X obj 460 199 r \$0-reload;
#X obj 297 621 bng 15 250 50 0 empty empty empty 17 7 0 10 -262144
-1 -1;
#X obj 297 597 r \$0-reload;
#X msg 297 641 44;
#X msg 374 531 44;
#X obj 39 533 bng 15 250 50 0 empty empty empty 17 7 0 10 -262144 -1
-1;
#X floatatom 39 577 5 0 0 0 - - -;
#X msg 39 596 set \$1;
#X obj 39 506 loadbang;
#X obj 1052 587 j-got;
#X obj 1052 618 j-got2 p\$1.tgl;
#X obj 1052 485 j-got;
#X obj 1111 449 tgl 15 0 empty empty a 17 7 0 10 -262144 -1 -1 0 1
;
#X obj 1167 481 itgl;
#X obj 1167 503 sel 1;
#X msg 1167 525 0;
#N canvas 719 593 450 300 randomOctave 0;
#X obj 121 70 bng 15 250 50 0 empty empty empty 17 7 0 10 -262144 -1
-1;
#X msg 121 168 0;
#X msg 161 168 12;
#X obj 121 210 f;
#X obj 121 100 random 100;
#X obj 121 122 moses 70;
#X obj 73 28 inlet;
#X text 212 124 70% -> 0 \, 30% ->12;
#X obj 89 245 outlet;
#X connect 0 0 4 0;
#X connect 1 0 3 0;
#X connect 2 0 3 0;
#X connect 3 0 8 0;
#X connect 4 0 5 0;
#X connect 5 0 1 0;
#X connect 5 1 2 0;
#X connect 6 0 0 0;
#X restore 1052 312 pd randomOctave;
#X msg 263 226 127 0;
#X obj 164 677 s speedCtrl_2;
#X obj 394 677 s durCtrl_2;
#X obj 574 677 s range_2;
#X obj 824 677 s direction_2;
#X obj 1052 677 s pitchCtrl_2;
#X obj 1052 78 r metroBang_2;
#X obj 963 80 r \$1-mY.velo2;
#X obj 873 80 r \$1-mP.velo2;
#X obj 803 81 r \$1-wAcc2;
#X obj 443 92 r \$1-mR2;
#X obj 374 93 r \$1-a2;
#X obj 166 103 r \$1-mP2;
#X obj 68 103 r \$1-b2;
#X msg 39 555 44;
#X msg 844 506 -0.9;
#X floatatom 823 327 5 0 0 0 - - -;
#X obj 803 302 max 1;
#X obj 692 82 r \$0-randPeaks_2;
#X obj 656 139 print p5.randPeaks_2;
#X obj 1264 618 j-got2 p\$1.tgl;
#X obj 1264 391 sel 1 0;
#X obj 1336 370 f;
#X obj 1336 392 expr ($f1+1)/2;
#X floatatom 1356 414 5 0 0 1 mR - -;
#X obj 1264 453 f;
#X obj 1264 539 f;
#X text 1270 371 \$1-a;
#X obj 1264 567 j-got;
#X obj 1222 461 t f f;
#X obj 1222 433 tgl 15 0 empty empty a 17 7 0 10 -262144 -1 -1 0 1
;
#X obj 1264 667 s fileArray2.pan;
#X msg 1324 453 0.6;
#X obj 1344 495 pipe 100;
#X obj 1344 517 print 2.pan R E S T O R E D:;
#X msg 586 226 200 10;
#X msg 536 226 200 10;
#X connect 0 0 6 0;
#X connect 7 0 0 0;
#X connect 8 0 1 0;
#X connect 9 0 2 0;
#X connect 10 0 3 0;
#X connect 11 0 4 0;
#X connect 12 0 5 0;
#X connect 13 0 14 1;
#X connect 13 0 19 1;
#X connect 13 0 32 0;
#X connect 13 0 38 0;
#X connect 14 0 16 0;
#X connect 15 0 25 0;
#X connect 15 0 17 1;
#X connect 15 0 21 1;
#X connect 15 0 62 1;
#X connect 16 0 71 0;
#X connect 17 0 18 0;
#X connect 18 0 72 0;
#X connect 19 0 20 0;
#X connect 20 0 73 0;
#X connect 21 0 22 0;
#X connect 22 0 74 0;
#X connect 23 0 21 0;
#X connect 24 0 74 0;
#X connect 25 0 46 0;
#X connect 26 0 87 0;
#X connect 27 0 26 0;
#X connect 28 0 39 1;
#X connect 29 0 39 2;
#X connect 30 0 13 0;
#X connect 31 0 17 0;
#X connect 32 0 33 0;
#X connect 33 0 23 0;
#X connect 34 0 85 0;
#X connect 35 0 31 1;
#X connect 35 0 34 0;
#X connect 36 0 39 0;
#X connect 37 0 24 0;
#X connect 38 0 57 0;
#X connect 39 0 27 0;
#X connect 40 0 70 0;
#X connect 41 0 14 0;
#X connect 41 0 43 0;
#X connect 42 0 31 0;
#X connect 42 0 45 0;
#X connect 44 0 106 0;
#X connect 46 0 47 0;
#X connect 46 0 19 0;
#X connect 48 0 30 0;
#X connect 48 0 35 0;
#X connect 49 0 37 0;
#X connect 50 0 70 0;
#X connect 51 0 50 0;
#X connect 52 0 106 0;
#X connect 53 0 52 0;
#X connect 54 0 56 0;
#X connect 55 0 54 0;
#X connect 56 0 72 0;
#X connect 57 0 17 0;
#X connect 58 0 84 0;
#X connect 59 0 60 0;
#X connect 60 0 57 0;
#X connect 60 0 56 0;
#X connect 61 0 58 0;
#X connect 62 0 63 0;
#X connect 63 0 75 0;
#X connect 64 0 62 0;
#X connect 65 0 64 1;
#X connect 65 0 66 0;
#X connect 65 0 100 0;
#X connect 66 0 67 0;
#X connect 67 0 68 0;
#X connect 68 0 62 0;
#X connect 69 0 64 0;
#X connect 70 0 41 1;
#X connect 76 0 69 0;
#X connect 77 0 29 0;
#X connect 78 0 28 0;
#X connect 79 0 36 0;
#X connect 80 0 42 0;
#X connect 80 0 92 0;
#X connect 81 0 48 0;
#X connect 81 0 65 0;
#X connect 82 0 41 0;
#X connect 83 0 15 0;
#X connect 84 0 59 0;
#X connect 85 0 23 0;
#X connect 87 0 86 0;
#X connect 87 0 46 2;
#X connect 88 0 46 1;
#X connect 88 0 89 0;
#X connect 90 0 101 0;
#X connect 91 0 95 0;
#X connect 91 1 102 0;
#X connect 92 0 93 0;
#X connect 93 0 94 0;
#X connect 93 0 95 0;
#X connect 95 0 96 0;
#X connect 96 0 98 0;
#X connect 98 0 90 0;
#X connect 99 0 91 0;
#X connect 99 1 98 1;
#X connect 100 0 99 0;
#X connect 102 0 90 0;
#X connect 102 0 103 0;
#X connect 103 0 104 0;
#X connect 105 0 42 1;
#X connect 106 0 42 1;
#X restore 11 49 pd randVar_2;
#N canvas 350 24 1288 462 init_5 0;
#X msg 28 219 0;
#X obj 28 290 s pitchCtrl_1;
#X obj 118 290 s pitchCtrl_2;
#X obj 28 -85 inlet;
#X obj 28 -63 bng 15 250 50 0 empty empty empty 17 7 0 10 -262144 -1
-1;
#X obj 28 79 bng 15 250 50 0 empty empty granular_init 17 7 0 10 -262144
-1 -1;
#X obj 200 -69 f \$1;
#X obj 200 -45 print -------------- program:;
#X obj 28 -43 t bang bang bang bang;
#X msg 758 212 0;
#X obj 758 234 tgl 15 0 empty empty empty 17 7 0 10 -262144 -1 -1 0
1;
#X obj 758 286 s \$1-a;
#X obj 808 286 s \$1-a2;
#X msg 888 212 0;
#X obj 888 234 tgl 15 0 empty empty empty 17 7 0 10 -262144 -1 -1 0
1;
#X obj 888 286 s \$1-down;
#X obj 958 286 s \$1-down2;
#X obj 758 79 bng 15 250 50 0 empty empty button_reset 17 7 0 10 -262144
-1 -1;
#X obj 1048 79 bng 15 250 50 0 empty empty panning 17 7 0 10 -262144
-1 -1;
#X obj 1048 233 unpack f f;
#X obj 1048 285 s fileArray1.pan;
#X obj 1158 285 s fileArray2.pan;
#X obj 1048 119 t b;
#X text 122 -88 p.no5.randVar;
#X obj 88 221 print p5.pitchCtrl:;
#X msg 1048 189 0.4 0.6;
#X obj 271 192 loadbang;
#X msg 241 220 10617 37750 49547 56625 104993 119149;
#X obj 758 119 t b b;
#X obj 521 192 loadbang;
#X obj 28 119 t b b;
#X obj 248 119 t b b;
#X obj 241 290 s \$0-randPeaks_1;
#X obj 491 290 s \$0-randPeaks_2;
#X msg 491 220 9437 36570 55445 81398 103813 145102;
#X connect 0 0 1 0;
#X connect 0 0 2 0;
#X connect 0 0 24 0;
#X connect 3 0 4 0;
#X connect 4 0 8 0;
#X connect 5 0 30 0;
#X connect 6 0 7 0;
#X connect 8 0 5 0;
#X connect 8 1 17 0;
#X connect 8 2 18 0;
#X connect 8 3 6 0;
#X connect 9 0 10 0;
#X connect 10 0 11 0;
#X connect 10 0 12 0;
#X connect 13 0 14 0;
#X connect 14 0 15 0;
#X connect 14 0 16 0;
#X connect 17 0 28 0;
#X connect 18 0 22 0;
#X connect 19 0 20 0;
#X connect 19 1 21 0;
#X connect 22 0 25 0;
#X connect 25 0 19 0;
#X connect 26 0 27 0;
#X connect 27 0 32 0;
#X connect 28 0 9 0;
#X connect 28 1 13 0;
#X connect 29 0 34 0;
#X connect 30 0 0 0;
#X connect 30 1 31 0;
#X connect 31 0 34 0;
#X connect 31 1 27 0;
#X connect 34 0 33 0;
#X restore 183 47 pd init_5;
#X obj 183 27 bng 15 250 50 0 empty empty empty 17 7 0 10 -262144 -1
-1;
#X obj 91 8 r p\$1.tgl;
#X obj 91 49 sel 1;
#X obj 151 8 r \$1-home;
#X text 245 7 no down;
#X connect 1 0 2 0;
#X connect 6 0 5 0;
#X connect 7 0 8 0;
#X connect 8 0 6 0;
#X connect 8 0 1 0;
#X connect 9 0 8 0;
