#N canvas 1347 324 326 90 10;
#X obj 11 7 tgl 15 0 p\$1.tgl p\$1.tgl p\$1.tgl 17 7 0 10 -262144 -1
-1 1 1;
#N canvas 320 22 1050 717 spd_1 1;
#X obj 14 45 tgl 15 0 empty empty empty 17 7 0 10 -262144 -1 -1 0 1
;
#X obj 74 23 s switch_1;
#X obj 554 578 s durCtrl_1;
#X obj 694 577 s direction_1;
#X obj 414 577 s speedCtrl_1;
#X floatatom 424 126 5 0 0 0 - - -;
#X obj 414 517 j-got;
#X obj 164 45 tgl 15 0 empty empty empty 17 7 0 10 -262144 -1 -1 0
1;
#X obj 214 45 tgl 15 0 empty empty empty 17 7 0 10 -262144 -1 -1 0
1;
#X obj 274 45 tgl 15 0 empty empty empty 17 7 0 10 -262144 -1 -1 0
1;
#X obj 344 45 tgl 15 0 empty empty empty 17 7 0 10 -262144 -1 -1 0
1;
#X obj 414 45 tgl 15 0 empty empty empty 17 7 0 10 -262144 -1 -1 0
1;
#X obj 694 103 r metroBang_1;
#X floatatom 424 407 5 0 0 0 - - -;
#X obj 414 200 expr 1-$f1;
#X obj 414 252 expr $f1*$f1;
#X obj 694 517 j-got;
#X obj 318 365 tgl 15 0 empty empty empty 17 7 0 10 -262144 -1 -1 0
1;
#X floatatom 424 222 5 0 0 1 1-0 - -;
#X obj 414 146 expr ($f1 +1)/2;
#X floatatom 424 168 5 0 0 1 0-1 - -;
#X obj 704 135 t b b;
#X obj 704 157 timer;
#X floatatom 704 179 5 0 0 0 - - -;
#X floatatom 564 404 5 0 0 0 - - -;
#X obj 554 517 j-got;
#X obj 872 195 tgl 15 0 empty empty empty 17 7 0 10 -262144 -1 -1 0
1;
#X floatatom 704 407 5 0 0 0 - - -;
#N canvas 1074 685 477 321 speed:pitch 0;
#X obj 15 241 expr $f1 *$f2 + $f3;
#X obj 15 280 outlet speedCtrl_1;
#X obj 15 13 inlet pitch;
#X obj 70 203 t b f;
#X msg 253 109 160 20;
#X msg 303 109 320 40;
#X msg 200 109 80 10;
#X msg 353 109 127 10;
#X msg 403 109 1000 1;
#X obj 70 151 t a;
#X msg 413 129 2000 30;
#N canvas 1224 241 420 299 spd-change-minMax 0;
#X floatatom 99 125 5 0 0 2 max - -;
#X obj 99 91 unpack;
#X floatatom 141 125 5 0 0 2 min - -;
#X obj 141 146 t f f;
#X obj 99 178 expr $f1-$f2;
#X floatatom 99 209 5 0 0 3 max - -;
#X floatatom 170 209 5 0 0 3 min - -;
#X obj 170 250 outlet min;
#X obj 99 251 outlet max;
#X obj 99 146 t f;
#X obj 99 58 inlet spd_max_min;
#X connect 0 0 9 0;
#X connect 1 0 0 0;
#X connect 1 1 2 0;
#X connect 2 0 3 0;
#X connect 3 0 6 0;
#X connect 3 1 4 1;
#X connect 4 0 5 0;
#X connect 5 0 8 0;
#X connect 6 0 7 0;
#X connect 9 0 4 0;
#X connect 10 0 1 0;
#X restore 70 181 pd spd-change-minMax;
#X obj 170 17 inlet MaxMin;
#X connect 0 0 1 0;
#X connect 2 0 0 0;
#X connect 3 0 0 0;
#X connect 3 1 0 1;
#X connect 4 0 9 0;
#X connect 5 0 9 0;
#X connect 6 0 9 0;
#X connect 7 0 9 0;
#X connect 8 0 9 0;
#X connect 9 0 11 0;
#X connect 10 0 9 0;
#X connect 11 0 3 0;
#X connect 11 1 0 2;
#X connect 12 0 9 0;
#X restore 414 385 pd speed:pitch;
#N canvas 1057 548 575 376 durMinMax:pitch 0;
#X obj 125 291 expr $f1 *$f2 + $f3;
#X obj 180 253 t b f;
#X obj 180 201 t a;
#N canvas 1224 241 420 299 minMax 0;
#X floatatom 99 125 5 0 0 2 max - -;
#X obj 99 91 unpack;
#X floatatom 141 125 5 0 0 2 min - -;
#X obj 141 146 t f f;
#X obj 99 178 expr $f1-$f2;
#X floatatom 99 209 5 0 0 3 max - -;
#X floatatom 170 209 5 0 0 3 min - -;
#X obj 170 250 outlet min;
#X obj 99 251 outlet max;
#X obj 99 146 t f;
#X obj 99 58 inlet spd_max_min;
#X connect 0 0 9 0;
#X connect 1 0 0 0;
#X connect 1 1 2 0;
#X connect 2 0 3 0;
#X connect 3 0 6 0;
#X connect 3 1 4 1;
#X connect 4 0 5 0;
#X connect 5 0 8 0;
#X connect 6 0 7 0;
#X connect 9 0 4 0;
#X connect 10 0 1 0;
#X restore 180 231 pd minMax;
#X obj 54 59 inlet;
#X obj 65 333 outlet;
#X obj 230 57 inlet MaxMin;
#X connect 0 0 5 0;
#X connect 1 0 0 0;
#X connect 1 1 0 1;
#X connect 2 0 3 0;
#X connect 3 0 1 0;
#X connect 3 1 0 2;
#X connect 4 0 0 0;
#X connect 6 0 2 0;
#X restore 554 382 pd durMinMax:pitch;
#X obj 14 23 r \$1-b;
#X obj 164 23 r \$1-a;
#X obj 214 23 r \$1-up;
#X obj 274 23 r \$1-down;
#X obj 344 23 r \$1-left;
#X obj 414 23 r \$1-right;
#X obj 318 103 r \$1-b;
#X obj 414 104 r \$1-mP;
#X obj 872 103 r \$1-a;
#X obj 414 548 j-got2 p\$1.tgl;
#X obj 554 548 j-got2 p\$1.tgl;
#X obj 694 548 j-got2 p\$1.tgl;
#X obj 554 200 expr 1-$f1;
#X floatatom 564 222 5 0 0 1 1-0 - -;
#X floatatom 804 294 5 0 0 0 - - -;
#X floatatom 564 126 5 0 0 0 - - -;
#X obj 554 146 expr ($f1 +1)/2;
#X floatatom 564 168 5 0 0 1 0-1 - -;
#X obj 554 104 r \$1-wP;
#X floatatom 804 126 5 0 0 0 - - -;
#X obj 794 104 r \$1-mR;
#N canvas 450 135 594 557 dir:bng--pit--tgl 0;
#X obj 57 418 f;
#X floatatom 67 440 5 0 0 0 - - -;
#X text 176 499 reverse;
#X obj 57 355 f;
#X floatatom 289 296 5 0 0 0 - - -;
#X obj 289 274 expr $f1 /$f2 -0.01;
#X obj 57 500 outlet direction_1;
#X msg 87 355 1;
#X obj 57 110 f 0;
#X obj 57 132 + 1;
#X obj 57 296 sel 0 1;
#X obj 57 244 % 2;
#X obj 128 220 hsl 128 15 0 127 0 0 empty empty empty -2 -8 0 10 -262144
-1 -1 200 1;
#X floatatom 125 240 5 0 0 0 - - -;
#X obj 125 175 loadbang;
#X msg 125 197 2;
#X obj 57 54 inlet metroBang_1;
#X obj 373 236 t b f;
#X obj 289 54 inlet pitch;
#X obj 449 54 inlet tgl;
#X obj 449 76 tgl 15 0 empty empty empty 17 7 0 10 -262144 -1 -1 0
1;
#X obj 449 98 sel 0 1;
#X floatatom 449 172 5 0 0 0 - - -;
#X msg 479 140 -1;
#X msg 449 140 0;
#X connect 0 0 1 0;
#X connect 0 0 6 0;
#X connect 3 0 0 0;
#X connect 5 0 4 0;
#X connect 5 0 3 1;
#X connect 7 0 0 0;
#X connect 8 0 9 0;
#X connect 9 0 8 1;
#X connect 9 0 11 0;
#X connect 10 0 3 0;
#X connect 10 1 7 0;
#X connect 11 0 10 0;
#X connect 12 0 11 1;
#X connect 12 0 13 0;
#X connect 14 0 15 0;
#X connect 15 0 12 0;
#X connect 16 0 8 0;
#X connect 17 0 5 0;
#X connect 17 1 5 1;
#X connect 18 0 5 0;
#X connect 19 0 20 0;
#X connect 20 0 21 0;
#X connect 21 0 24 0;
#X connect 21 1 23 0;
#X connect 22 0 17 0;
#X connect 23 0 22 0;
#X connect 24 0 22 0;
#X restore 694 384 pd dir:bng--pit--tgl;
#X obj 794 272 expr $f1*$f1;
#X obj 809 416 sel 1 0;
#X floatatom 809 480 5 0 0 0 - - -;
#X obj 809 499 t b f;
#X obj 694 450 *;
#X obj 877 414 bng 15 250 50 0 empty empty empty 17 7 0 10 -262144
-1 -1;
#X obj 430 317 loadbang;
#X msg 430 343 2000 30;
#X obj 570 317 loadbang;
#X msg 570 343 127 10;
#X obj 233 166 sel 1;
#X obj 494 45 tgl 15 0 empty empty empty 17 7 0 10 -262144 -1 -1 0
1;
#X obj 494 23 r \$1-home;
#X obj 83 581 s range_1;
#X obj 83 553 j-got2 p\$1.tgl;
#X msg 809 448 -1;
#X msg 849 448 1;
#X obj 83 218 bng 15 250 50 0 empty empty empty 17 7 0 10 -262144 -1
-1;
#X obj 83 278 f;
#X obj 113 280 + 1;
#X floatatom 93 384 11 0 0 0 - - -;
#X obj 83 362 expr ($f1 * $f2) + $f3;
#X msg 232 288 22414;
#X obj 83 238 t b b b;
#X floatatom 93 322 5 0 0 0 - - -;
#X msg 40 426 0;
#X obj 110 523 bng 15 250 50 0 empty empty empty 17 7 0 10 -262144
-1 -1;
#X obj 110 501 r \$0-reload;
#X obj 877 392 r \$0-reload;
#X obj 147 288 rr 800 1200;
#X obj 83 300 % 6;
#X floatatom 157 310 5 0 0 0 - - -;
#X text 229 266 base range;
#X msg 490 343 2000 5;
#X connect 0 0 1 0;
#X connect 6 0 39 0;
#X connect 9 0 53 0;
#X connect 12 0 21 0;
#X connect 12 0 51 0;
#X connect 14 0 15 0;
#X connect 14 0 18 0;
#X connect 15 0 28 0;
#X connect 16 0 41 0;
#X connect 17 0 6 1;
#X connect 17 0 16 1;
#X connect 17 0 25 1;
#X connect 17 0 62 0;
#X connect 19 0 20 0;
#X connect 19 0 14 0;
#X connect 21 0 22 0;
#X connect 21 1 22 1;
#X connect 22 0 23 0;
#X connect 25 0 40 0;
#X connect 26 0 51 2;
#X connect 28 0 13 0;
#X connect 28 0 6 0;
#X connect 29 0 24 0;
#X connect 29 0 25 0;
#X connect 30 0 0 0;
#X connect 31 0 7 0;
#X connect 32 0 8 0;
#X connect 33 0 9 0;
#X connect 34 0 10 0;
#X connect 35 0 11 0;
#X connect 36 0 17 0;
#X connect 37 0 5 0;
#X connect 37 0 19 0;
#X connect 38 0 26 0;
#X connect 39 0 4 0;
#X connect 40 0 2 0;
#X connect 41 0 3 0;
#X connect 42 0 43 0;
#X connect 42 0 29 0;
#X connect 46 0 47 0;
#X connect 46 0 42 0;
#X connect 48 0 45 0;
#X connect 48 0 46 0;
#X connect 50 0 49 0;
#X connect 50 0 52 0;
#X connect 51 0 27 0;
#X connect 51 0 56 0;
#X connect 52 0 44 0;
#X connect 52 0 51 1;
#X connect 53 0 67 0;
#X connect 53 1 68 0;
#X connect 54 0 55 0;
#X connect 55 0 56 0;
#X connect 55 1 56 1;
#X connect 56 0 16 0;
#X connect 57 0 68 0;
#X connect 58 0 59 0;
#X connect 59 0 28 1;
#X connect 60 0 61 0;
#X connect 61 0 29 1;
#X connect 62 0 69 0;
#X connect 64 0 63 0;
#X connect 66 0 65 0;
#X connect 67 0 54 0;
#X connect 68 0 54 0;
#X connect 69 0 75 0;
#X connect 70 0 71 0;
#X connect 70 0 82 0;
#X connect 71 0 70 1;
#X connect 73 0 72 0;
#X connect 73 0 66 0;
#X connect 74 0 73 2;
#X connect 75 0 70 0;
#X connect 75 1 81 0;
#X connect 75 2 74 0;
#X connect 77 0 70 0;
#X connect 78 0 77 0;
#X connect 79 0 78 0;
#X connect 80 0 57 0;
#X connect 81 0 73 1;
#X connect 81 0 83 0;
#X connect 82 0 73 0;
#X connect 82 0 76 0;
#X connect 85 0 28 1;
#X restore 10 29 pd spd_1;
#N canvas 554 356 1020 628 spd_2 0;
#X obj 14 45 tgl 15 0 empty empty empty 17 7 0 10 -262144 -1 -1 0 1
;
#X floatatom 434 124 5 0 0 0 - - -;
#X obj 424 495 j-got;
#X obj 154 45 tgl 15 0 empty empty empty 17 7 0 10 -262144 -1 -1 0
1;
#X obj 204 45 tgl 15 0 empty empty empty 17 7 0 10 -262144 -1 -1 0
1;
#X obj 264 45 tgl 15 0 empty empty empty 17 7 0 10 -262144 -1 -1 0
1;
#X obj 334 45 tgl 15 0 empty empty empty 17 7 0 10 -262144 -1 -1 0
1;
#X obj 404 45 tgl 15 0 empty empty empty 17 7 0 10 -262144 -1 -1 0
1;
#X floatatom 434 375 5 0 0 0 - - -;
#X obj 424 268 expr 1-$f1;
#X obj 704 495 j-got;
#X obj 328 363 tgl 15 0 empty empty empty 17 7 0 10 -262144 -1 -1 0
1;
#X floatatom 434 290 5 0 0 1 1-0 - -;
#X obj 424 144 expr ($f1 +1)/2;
#X floatatom 434 166 5 0 0 1 0-1 - -;
#X obj 424 196 f;
#X floatatom 574 375 5 0 0 0 - - -;
#X obj 564 495 j-got;
#X obj 424 575 s speedCtrl_2;
#X obj 564 576 s durCtrl_2;
#X obj 704 575 s direction_2;
#X obj 74 23 s switch_2;
#X obj 424 310 expr $f1*$f1;
#N canvas 1074 685 373 319 speed:pitch 0;
#X obj 15 241 expr $f1 *$f2 + $f3;
#X obj 15 280 outlet speedCtrl_1;
#X obj 15 13 inlet pitch;
#X obj 70 203 t b f;
#X obj 70 37 loadbang;
#X text 126 36 spd: change it!;
#X msg 123 109 160 20;
#X msg 173 109 320 40;
#X msg 70 109 80 10;
#X msg 223 109 127 10;
#X msg 273 109 1000 1;
#X obj 70 151 t a;
#X msg 283 129 2000 30;
#N canvas 1224 241 420 299 spd-change-minMax 0;
#X floatatom 99 125 5 0 0 2 max - -;
#X obj 99 91 unpack;
#X floatatom 141 125 5 0 0 2 min - -;
#X obj 141 146 t f f;
#X obj 99 178 expr $f1-$f2;
#X floatatom 99 209 5 0 0 3 max - -;
#X floatatom 170 209 5 0 0 3 min - -;
#X obj 170 250 outlet min;
#X obj 99 251 outlet max;
#X obj 99 146 t f;
#X obj 99 58 inlet spd_max_min;
#X connect 0 0 9 0;
#X connect 1 0 0 0;
#X connect 1 1 2 0;
#X connect 2 0 3 0;
#X connect 3 0 6 0;
#X connect 3 1 4 1;
#X connect 4 0 5 0;
#X connect 5 0 8 0;
#X connect 6 0 7 0;
#X connect 9 0 4 0;
#X connect 10 0 1 0;
#X restore 70 181 pd spd-change-minMax;
#X msg 43 69 2000 30;
#X connect 0 0 1 0;
#X connect 2 0 0 0;
#X connect 3 0 0 0;
#X connect 3 1 0 1;
#X connect 4 0 14 0;
#X connect 6 0 11 0;
#X connect 7 0 11 0;
#X connect 8 0 11 0;
#X connect 9 0 11 0;
#X connect 10 0 11 0;
#X connect 11 0 13 0;
#X connect 12 0 11 0;
#X connect 13 0 3 0;
#X connect 13 1 0 2;
#X connect 14 0 11 0;
#X restore 424 353 pd speed:pitch;
#N canvas 269 223 575 376 durMinMax:pitch 0;
#X obj 125 291 expr $f1 *$f2 + $f3;
#X obj 180 253 t b f;
#X obj 180 87 loadbang;
#X obj 180 201 t a;
#N canvas 1224 241 420 299 minMax 0;
#X floatatom 99 125 5 0 0 2 max - -;
#X obj 99 91 unpack;
#X floatatom 141 125 5 0 0 2 min - -;
#X obj 141 146 t f f;
#X obj 99 178 expr $f1-$f2;
#X floatatom 99 209 5 0 0 3 max - -;
#X floatatom 170 209 5 0 0 3 min - -;
#X obj 170 250 outlet min;
#X obj 99 251 outlet max;
#X obj 99 146 t f;
#X obj 99 58 inlet spd_max_min;
#X connect 0 0 9 0;
#X connect 1 0 0 0;
#X connect 1 1 2 0;
#X connect 2 0 3 0;
#X connect 3 0 6 0;
#X connect 3 1 4 1;
#X connect 4 0 5 0;
#X connect 5 0 8 0;
#X connect 6 0 7 0;
#X connect 9 0 4 0;
#X connect 10 0 1 0;
#X restore 180 231 pd minMax;
#X obj 54 59 inlet;
#X obj 65 333 outlet;
#X text 236 87 dur: change it!;
#X msg 180 139 127 10;
#X connect 0 0 6 0;
#X connect 1 0 0 0;
#X connect 1 1 0 1;
#X connect 2 0 8 0;
#X connect 3 0 4 0;
#X connect 4 0 1 0;
#X connect 4 1 0 2;
#X connect 5 0 0 0;
#X connect 8 0 3 0;
#X restore 564 353 pd durMinMax:pitch;
#X obj 14 23 r \$1-b2;
#X obj 154 23 r \$1-a2;
#X obj 204 23 r \$1-up2;
#X obj 264 23 r \$1-down2;
#X obj 334 23 r \$1-left2;
#X obj 404 23 r \$1-right2;
#X obj 328 101 r \$1-b2;
#X obj 424 102 r \$1-mP2;
#X obj 424 546 j-got2 p\$1.tgl;
#X obj 564 546 j-got2 p\$1.tgl;
#X obj 704 546 j-got2 p\$1.tgl;
#X obj 564 268 expr 1-$f1;
#X floatatom 574 290 5 0 0 1 1-0 - -;
#X floatatom 574 124 5 0 0 0 - - -;
#X obj 564 144 expr ($f1 +1)/2;
#X floatatom 574 166 5 0 0 1 0-1 - -;
#X obj 564 196 f;
#X obj 564 102 r \$1-wP2;
#X obj 714 135 t b b;
#X obj 714 157 timer;
#X floatatom 714 179 5 0 0 0 - - -;
#X obj 882 195 tgl 15 0 empty empty empty 17 7 0 10 -262144 -1 -1 0
1;
#X floatatom 714 377 5 0 0 0 - - -;
#X floatatom 814 294 5 0 0 0 - - -;
#X floatatom 814 126 5 0 0 0 - - -;
#X obj 804 198 f;
#N canvas 1061 131 594 557 dir:bng--pit--tgl 0;
#X obj 57 418 f;
#X floatatom 67 440 5 0 0 0 - - -;
#X text 176 499 reverse;
#X obj 57 355 f;
#X floatatom 289 296 5 0 0 0 - - -;
#X obj 289 274 expr $f1 /$f2 -0.01;
#X obj 57 500 outlet direction_1;
#X msg 87 355 1;
#X obj 57 110 f 0;
#X obj 57 132 + 1;
#X obj 57 296 sel 0 1;
#X obj 57 274 % 2;
#X obj 128 250 hsl 128 15 0 127 0 0 empty empty empty -2 -8 0 10 -262144
-1 -1 200 1;
#X floatatom 125 270 5 0 0 0 - - -;
#X obj 125 205 loadbang;
#X msg 125 227 2;
#X obj 57 54 inlet metroBang_1;
#X obj 373 236 t b f;
#X obj 289 54 inlet pitch;
#X obj 449 54 inlet tgl;
#X obj 449 76 tgl 15 0 empty empty empty 17 7 0 10 -262144 -1 -1 0
1;
#X obj 449 98 sel 0 1;
#X floatatom 449 162 5 0 0 0 - - -;
#X msg 479 140 -1;
#X msg 449 140 0;
#X connect 0 0 1 0;
#X connect 0 0 6 0;
#X connect 3 0 0 0;
#X connect 5 0 4 0;
#X connect 5 0 3 1;
#X connect 7 0 0 0;
#X connect 8 0 9 0;
#X connect 9 0 8 1;
#X connect 9 0 11 0;
#X connect 10 0 3 0;
#X connect 10 1 7 0;
#X connect 11 0 10 0;
#X connect 12 0 11 1;
#X connect 12 0 13 0;
#X connect 14 0 15 0;
#X connect 15 0 12 0;
#X connect 16 0 8 0;
#X connect 17 0 5 0;
#X connect 17 1 5 1;
#X connect 18 0 5 0;
#X connect 19 0 20 0;
#X connect 20 0 21 0;
#X connect 21 0 24 0;
#X connect 21 1 23 0;
#X connect 22 0 17 0;
#X connect 23 0 22 0;
#X connect 24 0 22 0;
#X restore 704 354 pd dir:bng--pit--tgl;
#X obj 704 103 r metroBang_2;
#X obj 804 104 r \$1-mR2;
#X obj 882 103 r \$1-a2;
#X obj 804 272 expr $f1*$f1;
#X obj 704 450 *;
#X obj 819 406 sel 1 0;
#X msg 819 438 -1;
#X msg 849 438 1;
#X floatatom 819 460 5 0 0 0 - - -;
#X obj 819 479 t b f;
#X obj 887 404 bng 15 250 50 0 empty empty empty 17 7 0 10 -262144
-1 -1;
#X obj 233 226 sel 1;
#X obj 83 553 j-got2 p\$1.tgl;
#X obj 83 278 bng 15 250 50 0 empty empty empty 17 7 0 10 -262144 -1
-1;
#X obj 83 338 f;
#X obj 113 340 + 1;
#X floatatom 93 444 11 0 0 0 - - -;
#X obj 83 422 expr ($f1 * $f2) + $f3;
#X obj 83 298 t b b b;
#X floatatom 93 382 5 0 0 0 - - -;
#X msg 30 436 0;
#X obj 110 513 bng 15 250 50 0 empty empty empty 17 7 0 10 -262144
-1 -1;
#X obj 110 491 r \$0-reload;
#X obj 147 348 rr 800 1200;
#X obj 83 360 % 6;
#X floatatom 157 370 5 0 0 0 - - -;
#X obj 83 581 s range_2;
#X obj 887 382 r \$0-reload;
#X msg 232 348 25953;
#X text 227 318 base range;
#X connect 0 0 21 0;
#X connect 2 0 33 0;
#X connect 5 0 57 0;
#X connect 9 0 12 0;
#X connect 9 0 22 0;
#X connect 10 0 35 0;
#X connect 11 0 2 1;
#X connect 11 0 10 1;
#X connect 11 0 17 1;
#X connect 11 0 63 0;
#X connect 13 0 14 0;
#X connect 13 0 15 0;
#X connect 15 0 9 0;
#X connect 17 0 34 0;
#X connect 22 0 23 0;
#X connect 23 0 8 0;
#X connect 23 0 2 0;
#X connect 24 0 16 0;
#X connect 24 0 17 0;
#X connect 25 0 0 0;
#X connect 26 0 3 0;
#X connect 27 0 4 0;
#X connect 28 0 5 0;
#X connect 29 0 6 0;
#X connect 30 0 7 0;
#X connect 31 0 11 0;
#X connect 32 0 1 0;
#X connect 32 0 13 0;
#X connect 33 0 18 0;
#X connect 34 0 19 0;
#X connect 35 0 20 0;
#X connect 36 0 37 0;
#X connect 36 0 24 0;
#X connect 39 0 40 0;
#X connect 39 0 41 0;
#X connect 41 0 36 0;
#X connect 42 0 38 0;
#X connect 42 0 39 0;
#X connect 43 0 44 0;
#X connect 43 1 44 1;
#X connect 44 0 45 0;
#X connect 46 0 51 2;
#X connect 50 0 55 0;
#X connect 51 0 47 0;
#X connect 51 0 56 0;
#X connect 52 0 43 0;
#X connect 52 0 51 0;
#X connect 53 0 49 0;
#X connect 53 0 50 0;
#X connect 54 0 46 0;
#X connect 55 0 48 0;
#X connect 55 0 51 1;
#X connect 56 0 10 0;
#X connect 57 0 58 0;
#X connect 57 1 59 0;
#X connect 58 0 60 0;
#X connect 59 0 60 0;
#X connect 60 0 61 0;
#X connect 61 0 56 0;
#X connect 61 1 56 1;
#X connect 62 0 59 0;
#X connect 63 0 65 0;
#X connect 64 0 78 0;
#X connect 65 0 70 0;
#X connect 66 0 67 0;
#X connect 66 0 76 0;
#X connect 67 0 66 1;
#X connect 69 0 68 0;
#X connect 69 0 64 0;
#X connect 70 0 66 0;
#X connect 70 1 75 0;
#X connect 70 2 80 0;
#X connect 72 0 66 0;
#X connect 73 0 72 0;
#X connect 74 0 73 0;
#X connect 75 0 69 1;
#X connect 75 0 77 0;
#X connect 76 0 69 0;
#X connect 76 0 71 0;
#X connect 79 0 62 0;
#X connect 80 0 69 2;
#X restore 10 49 pd spd_2;
#X obj 91 8 r p\$1.tgl;
#X obj 91 49 sel 1;
#X obj 171 29 bng 15 250 50 0 empty empty empty 17 7 0 10 -262144 -1
-1;
#X obj 240 50 s \$0-reload;
#X obj 240 30 bng 15 250 50 0 empty empty empty 17 7 0 10 -262144 -1
-1;
#N canvas 359 43 1294 536 init_1 0;
#X msg 648 322 0;
#X obj 648 344 tgl 15 0 empty empty empty 17 7 0 10 -262144 -1 -1 0
1;
#X obj 648 396 s \$1-a;
#X obj 698 396 s \$1-a2;
#X msg 818 322 0;
#X obj 818 344 tgl 15 0 empty empty empty 17 7 0 10 -262144 -1 -1 0
1;
#X obj 818 396 s \$1-down;
#X obj 888 396 s \$1-down2;
#X msg 1048 299 0.3 0.7;
#X symbolatom 238 401 10 0 0 0 - - -;
#X floatatom 308 401 11 0 0 0 - - -;
#X symbolatom 408 401 10 0 0 0 - - -;
#X floatatom 478 401 11 0 0 0 - - -;
#X obj 648 189 bng 15 250 50 0 empty empty button_reset 17 7 0 10 -262144
-1 -1;
#X obj 1048 189 bng 15 250 50 0 empty empty panning 17 7 0 10 -262144
-1 -1;
#X obj 1048 343 unpack f f;
#X obj 1048 395 s fileArray1.pan;
#X obj 1158 395 s fileArray2.pan;
#X obj 238 279 t b b;
#X obj 648 229 t b b b;
#X obj 1048 229 t b;
#X obj 408 379 setRange range_2 25953;
#X obj 238 379 setRange range_1 22414;
#X msg 28 329 0;
#X obj 28 400 s pitchCtrl_1;
#X obj 118 400 s pitchCtrl_2;
#X obj 28 25 inlet;
#X obj 28 47 bng 15 250 50 0 empty empty empty 17 7 0 10 -262144 -1
-1;
#X obj 28 189 bng 15 250 50 0 empty empty granular_init 17 7 0 10 -262144
-1 -1;
#X obj 28 229 t b b;
#X text 122 22 p.no1.speed;
#X obj 200 41 f \$1;
#X obj 200 65 print -------------- program:;
#X obj 28 67 t bang bang bang bang;
#X obj 88 331 print p1.pitchCtrl:;
#X obj 308 440 s init_range_1;
#X obj 478 440 s init_range_2;
#X connect 0 0 1 0;
#X connect 1 0 2 0;
#X connect 1 0 3 0;
#X connect 4 0 5 0;
#X connect 5 0 6 0;
#X connect 5 0 7 0;
#X connect 8 0 15 0;
#X connect 13 0 19 0;
#X connect 14 0 20 0;
#X connect 15 0 16 0;
#X connect 15 1 17 0;
#X connect 18 0 22 0;
#X connect 18 1 21 0;
#X connect 19 0 0 0;
#X connect 19 1 4 0;
#X connect 20 0 8 0;
#X connect 21 0 11 0;
#X connect 21 1 12 0;
#X connect 21 1 36 0;
#X connect 22 0 9 0;
#X connect 22 1 10 0;
#X connect 22 1 35 0;
#X connect 23 0 24 0;
#X connect 23 0 25 0;
#X connect 23 0 34 0;
#X connect 26 0 27 0;
#X connect 27 0 33 0;
#X connect 28 0 29 0;
#X connect 29 0 23 0;
#X connect 29 1 18 0;
#X connect 31 0 32 0;
#X connect 33 0 28 0;
#X connect 33 1 13 0;
#X connect 33 2 14 0;
#X connect 33 3 31 0;
#X restore 171 50 pd init_1;
#X obj 151 8 r \$1-home;
#X connect 3 0 4 0;
#X connect 4 0 5 0;
#X connect 4 0 7 0;
#X connect 5 0 8 0;
#X connect 7 0 6 0;
#X connect 9 0 4 0;
