#N canvas 359 324 422 315 10;
#X obj 33 146 soundfiler;
#X obj 33 17 openpanel;
#X obj 33 -11 inlet;
#X obj 33 171 outlet samples;
#X obj 77 71 symbol \$1;
#X obj 33 41 t s b;
#X obj 33 99 pack s s;
#X msg 33 124 read -resize \$1 \$2;
#X obj 202 165 print fileloader;
#X msg 202 141 Loading \$1;
#X obj 97 223 s fileName;
#X msg 222 69 bang;
#X obj 222 91 s fileLoaded;
#X obj 222 47 del 100;
#N canvas 408 710 450 300 setCopiedArrayViewArraySize 0;
#X obj 77 35 inlet openpanel;
#X obj 77 186 soundfiler;
#X obj 77 81 t s b;
#X obj 77 139 pack s s;
#X msg 77 164 read -resize \$1 \$2;
#X floatatom 77 214 5 0 0 1 samples - -;
#X obj 122 111 symbol \$1.view;
#X connect 0 0 2 0;
#X connect 1 0 5 0;
#X connect 2 0 3 0;
#X connect 2 1 6 0;
#X connect 3 0 4 0;
#X connect 4 0 1 0;
#X connect 6 0 3 1;
#X restore 201 221 pd setCopiedArrayViewArraySize;
#X connect 0 0 3 0;
#X connect 1 0 5 0;
#X connect 1 0 14 0;
#X connect 2 0 1 0;
#X connect 4 0 6 1;
#X connect 5 0 6 0;
#X connect 5 0 9 0;
#X connect 5 0 10 0;
#X connect 5 1 4 0;
#X connect 5 1 13 0;
#X connect 6 0 7 0;
#X connect 7 0 0 0;
#X connect 9 0 8 0;
#X connect 11 0 12 0;
#X connect 13 0 11 0;
