#N canvas 237 363 901 486 10;
#X obj 374 114 samplerate~;
#X obj 374 68 t b b;
#X obj 374 138 *;
#X floatatom 374 166 10 0 0 0 - - -;
#X msg 143 105 start 0;
#X obj 169 223 spigot;
#X obj 233 199 tgl 15 0 empty empty loop_on/off 17 7 0 10 -262130 -1
-1 0 1;
#X obj 538 224 s maxSamples;
#X obj 322 114 * 1000;
#X text 434 91 seconds;
#X obj 137 245 t b;
#X obj 298 402 dac~;
#X obj 297 378 *~;
#X obj 325 378 *~;
#X obj -19 334 tabwrite~ \$1;
#X obj 401 91 f \$2;
#X obj 542 -7 loadbang;
#X obj 35 -12 inlet start;
#X obj 232 -5 inlet loop;
#X obj 318 260 inlet dry;
#X obj 241 425 outlet restart;
#X obj 148 426 outlet timer;
#X obj 148 357 f;
#X obj 174 357 + 1;
#X msg 182 306 0;
#X msg 148 306 1;
#X floatatom 148 402 7 0 0 0 - - -;
#X obj 148 328 metro 10;
#X obj 148 379 / 100;
#X obj 201 248 spigot;
#X msg 225 305 0;
#X msg 35 54 stop;
#X obj -18 54 inlet~;
#X obj 447 -7 inlet seconds;
#X obj -12 85 s~ \$0-input;
#X obj 388 348 r~ \$0-input;
#X obj 35 9 route stop start;
#X obj 318 349 *~ 0.8;
#X obj 35 32 bng 15 250 50 0 empty empty empty 17 7 0 10 -262144 -1
-1;
#X obj 219 150 del;
#X floatatom 308 150 5 0 0 0 - - -;
#X msg 290 180 0;
#X obj 330 214 t b;
#X obj 330 239 s resetRange;
#X obj 538 201 change;
#X obj 418 241 s \$1;
#X msg 418 215 resize \$1;
#X obj 418 194 change;
#X obj 488 434 tabwrite granslope;
#X obj 540 348 + 1;
#X obj 492 317 until;
#X obj 492 392 / 20;
#X obj 492 369 t f f;
#X obj 492 349 f 0;
#X msg 533 315 0;
#X msg 492 280 91;
#X obj 542 391 + 20;
#X obj 492 413 expr 1;
#X obj 284 40 t b b b;
#X msg 80 84 0;
#X obj 318 327 lop~ 20;
#X obj 542 112 delay 5000;
#X msg 542 156 0;
#X obj 542 93 t b;
#X obj 260 281 t b;
#X obj 599 80 * 1000;
#X obj -18 275 smoother~;
#X obj 172 151 t b;
#X obj 71 156 t b;
#X msg 71 183 0 \, 1;
#X msg 505 64 1;
#X obj 644 157 bng 15 250 50 0 empty empty jong-test 17 7 0 10 -262144
-1 -1;
#X msg 644 177 220500;
#X floatatom 262 247 5 0 0 0 - - -;
#N canvas 571 30 450 300 jong_!- 0;
#X obj 74 125 t b f;
#X obj 86 187 -;
#X obj 181 67 inlet minuend;
#X obj 74 67 inlet subtraend;
#X obj 86 213 outlet difference;
#X text 243 119 a - b = c;
#X text 243 135 a (minuend) is the \; argument;
#X text 212 48 a;
#X text 112 49 b;
#X text 129 229 c;
#X text 243 103 inverted subtraction;
#X obj 181 95 loadbang;
#X msg 181 117 1;
#X obj 74 159 f 1;
#X connect 0 0 13 0;
#X connect 0 1 1 1;
#X connect 1 0 4 0;
#X connect 3 0 0 0;
#X connect 11 0 12 0;
#X connect 12 0 13 1;
#X connect 13 0 1 0;
#X restore 249 223 pd jong_!- 1;
#X connect 0 0 2 0;
#X connect 1 0 0 0;
#X connect 1 1 15 0;
#X connect 2 0 3 0;
#X connect 3 0 44 0;
#X connect 3 0 47 0;
#X connect 4 0 14 0;
#X connect 4 0 67 0;
#X connect 4 0 68 0;
#X connect 5 0 10 0;
#X connect 5 0 20 0;
#X connect 6 0 5 1;
#X connect 6 0 74 0;
#X connect 8 0 39 1;
#X connect 8 0 40 0;
#X connect 10 0 4 0;
#X connect 10 0 24 0;
#X connect 12 0 11 0;
#X connect 13 0 11 1;
#X connect 15 0 2 1;
#X connect 15 0 8 0;
#X connect 16 0 15 0;
#X connect 16 0 41 0;
#X connect 17 0 36 0;
#X connect 18 0 6 0;
#X connect 19 0 60 0;
#X connect 22 0 23 0;
#X connect 22 0 28 0;
#X connect 23 0 22 1;
#X connect 24 0 22 1;
#X connect 25 0 27 0;
#X connect 26 0 21 0;
#X connect 27 0 22 0;
#X connect 28 0 26 0;
#X connect 29 0 30 0;
#X connect 30 0 27 0;
#X connect 31 0 14 0;
#X connect 31 0 59 0;
#X connect 31 0 64 0;
#X connect 32 0 34 0;
#X connect 32 0 66 0;
#X connect 33 0 15 1;
#X connect 33 0 65 0;
#X connect 35 0 12 0;
#X connect 35 0 13 0;
#X connect 36 0 38 0;
#X connect 36 1 58 0;
#X connect 37 0 12 1;
#X connect 37 0 13 1;
#X connect 38 0 31 0;
#X connect 39 0 5 0;
#X connect 39 0 29 0;
#X connect 41 0 6 0;
#X connect 42 0 43 0;
#X connect 44 0 7 0;
#X connect 46 0 45 0;
#X connect 47 0 46 0;
#X connect 47 0 42 0;
#X connect 49 0 53 1;
#X connect 50 0 53 0;
#X connect 51 0 57 0;
#X connect 52 0 51 0;
#X connect 52 1 56 0;
#X connect 53 0 49 0;
#X connect 53 0 52 0;
#X connect 54 0 53 1;
#X connect 55 0 50 0;
#X connect 56 0 48 1;
#X connect 57 0 48 0;
#X connect 58 0 4 0;
#X connect 58 0 39 0;
#X connect 58 1 1 0;
#X connect 58 2 63 0;
#X connect 58 2 70 0;
#X connect 59 0 66 2;
#X connect 60 0 37 0;
#X connect 61 0 62 0;
#X connect 62 0 66 1;
#X connect 63 0 61 0;
#X connect 64 0 30 0;
#X connect 65 0 61 1;
#X connect 66 0 14 0;
#X connect 67 0 25 0;
#X connect 67 0 24 0;
#X connect 67 0 39 0;
#X connect 68 0 69 0;
#X connect 69 0 66 1;
#X connect 70 0 66 2;
#X connect 71 0 72 0;
#X connect 72 0 7 0;
#X connect 74 0 29 1;
#X connect 74 0 73 0;
