#N canvas 184 27 450 300 10;
#X obj 155 112 loadbang;
#X obj 155 247 outlet;
#X obj 155 224 *;
#X obj 155 195 t b f;
#X obj 155 144 samplerate~;
#X obj 71 174 f \$1;
#X obj 71 63 / 1000;
#X obj 71 41 inlet ms;
#X connect 0 0 4 0;
#X connect 0 0 5 0;
#X connect 2 0 1 0;
#X connect 3 0 2 0;
#X connect 3 1 2 1;
#X connect 4 0 3 0;
#X connect 5 0 2 0;
#X connect 6 0 5 0;
#X connect 7 0 6 0;
