#N canvas 1308 642 321 90 10;
#X obj 11 7 tgl 15 0 p\$1.tgl p\$1.tgl p\$1.tgl 17 7 0 10 -262144 -1
-1 1 1;
#X obj 230 30 bng 15 250 50 0 empty empty empty 17 7 0 10 -262144 -1
-1;
#X obj 230 53 s \$0-reload;
#N canvas 421 199 1325 689 coda_1 1;
#X obj 14 45 tgl 15 0 empty empty empty 17 7 0 10 -262144 -1 -1 0 1
;
#X obj 74 23 s switch_1;
#X obj 304 588 s durCtrl_1;
#X obj 944 587 s direction_1;
#X obj 94 587 s speedCtrl_1;
#X obj 94 497 j-got;
#X obj 164 45 tgl 15 0 empty empty empty 17 7 0 10 -262144 -1 -1 0
1;
#X obj 214 45 tgl 15 0 empty empty empty 17 7 0 10 -262144 -1 -1 0
1;
#X obj 274 45 tgl 15 0 empty empty empty 17 7 0 10 -262144 -1 -1 0
1;
#X obj 344 45 tgl 15 0 empty empty empty 17 7 0 10 -262144 -1 -1 0
1;
#X obj 414 45 tgl 15 0 empty empty empty 17 7 0 10 -262144 -1 -1 0
1;
#X obj 944 109 r metroBang_1;
#X obj 944 497 j-got;
#X obj 1188 401 tgl 15 0 empty empty empty 17 7 0 10 -262144 -1 -1
0 1;
#X obj 304 497 j-got;
#X obj 14 23 r \$1-b;
#X obj 164 23 r \$1-a;
#X obj 214 23 r \$1-up;
#X obj 274 23 r \$1-down;
#X obj 344 23 r \$1-left;
#X obj 414 23 r \$1-right;
#X obj 1188 109 r \$1-b;
#X obj 94 538 j-got2 p\$1.tgl;
#X obj 304 538 j-got2 p\$1.tgl;
#X obj 944 538 j-got2 p\$1.tgl;
#X obj 944 277 rr -1000 1000;
#X obj 360 143 / 127;
#X obj 360 121 r 2fader;
#X obj 360 295 * 127;
#X obj 94 114 r \$1-mP;
#X obj 1063 110 r \$1-wP;
#X obj 1091 151 loadbang;
#X msg 1091 174 500 10;
#X obj 94 412 * 1;
#X obj 260 296 f;
#X obj 260 143 / 127;
#X obj 260 275 expr $f1*$f1;
#X obj 260 121 r 1fader;
#X obj 360 316 max 1e-05;
#X obj 360 275 expr $f1*$f1*$f1;
#X text 257 95 pedal_1;
#X text 363 95 pedal_2;
#X obj 213 577 r \$0-reload;
#X obj 213 599 bng 15 250 50 0 empty empty empty 17 7 0 10 -262144
-1 -1;
#X msg 213 621 127;
#X obj 716 201 itgl;
#X obj 656 134 tgl 15 0 empty empty empty 17 7 0 10 -262144 -1 -1 0
1;
#X obj 656 112 r \$1-a;
#X obj 716 223 tgl 15 0 empty empty empty 17 7 0 10 -262144 -1 -1 1
1;
#X obj 656 226 bng 15 250 50 0 empty empty empty 17 7 0 10 -262144
-1 -1;
#X obj 656 456 line;
#X obj 656 373 f;
#X floatatom 666 395 5 0 0 0 - - -;
#X msg 656 424 \$1 \, 1 5000;
#X obj 203 381 loadbang;
#X obj 203 403 tgl 15 0 empty empty empty 17 7 0 10 -262144 -1 -1 1
1;
#X obj 304 418 f;
#X obj 766 134 tgl 15 0 empty empty empty 17 7 0 10 -262144 -1 -1 0
1;
#X obj 766 112 r \$1-down;
#X obj 766 226 bng 15 250 50 0 empty empty empty 17 7 0 10 -262144
-1 -1;
#X obj 766 362 line;
#X obj 766 394 expr $f1*$f1;
#X obj 826 201 itgl;
#X obj 826 223 tgl 15 0 empty empty empty 17 7 0 10 -262144 -1 -1 1
1;
#X obj 852 281 f;
#X floatatom 862 303 5 0 0 0 - - -;
#X obj 766 444 * 1;
#X obj 766 466 f;
#X msg 766 330 1 \, 0 5000;
#N canvas 720 285 619 593 spdCtrl 0;
#X floatatom 154 217 5 0 0 0 - - -;
#X floatatom 83 363 5 0 0 0 - - -;
#X obj 135 171 expr ($f1+1)/2;
#X obj 135 193 expr 1-$f1;
#X obj 127 265 expr $f1*$f1;
#X obj 237 266 MaxMin;
#X obj 135 303 expr $f1*$f2+$f3;
#X obj 109 67 inlet mP;
#X obj 143 400 outlet;
#X obj 298 135 inlet MaxMin;
#X connect 2 0 3 0;
#X connect 3 0 0 0;
#X connect 3 0 4 0;
#X connect 4 0 6 0;
#X connect 5 0 6 1;
#X connect 5 1 6 2;
#X connect 6 0 1 0;
#X connect 6 0 8 0;
#X connect 7 0 2 0;
#X connect 9 0 5 0;
#X restore 94 230 pd spdCtrl;
#X obj 129 172 loadbang;
#X msg 129 195 2000 10;
#X floatatom 104 252 5 0 0 0 - - -;
#X floatatom 370 338 5 0 0 0 - - -;
#X floatatom 270 318 5 0 0 0 - - -;
#X obj 656 204 sel 1;
#X obj 766 204 sel 1;
#X obj 1050 316 loadbang;
#X msg 1050 338 500;
#N canvas 338 635 450 300 randomPitch 0;
#X floatatom 204 141 5 0 0 0 - - -;
#X obj 194 169 expr 1-$f1;
#X floatatom 204 191 5 0 0 0 - - -;
#X obj 194 119 / 500;
#X floatatom 221 92 5 0 0 0 - - -;
#X obj 95 42 inlet bng;
#X obj 88 240 outlet randomizedPitch;
#X obj 276 39 inlet defaultDivision;
#X connect 1 0 2 0;
#X connect 1 0 6 0;
#X connect 3 0 0 0;
#X connect 3 0 1 0;
#X connect 4 0 3 1;
#X connect 5 0 3 0;
#X connect 7 0 4 0;
#X restore 944 384 pd randomPitch;
#X floatatom 954 406 5 0 0 0 - - -;
#N canvas 861 485 474 523 pitchFactor 0;
#X obj 143 383 * -1;
#X obj 153 351 t f f;
#X obj 153 152 expr 1-$f1;
#X floatatom 172 128 5 0 0 0 - - -;
#X obj 153 82 expr ($f1+1)/2;
#X obj 153 104 expr 1-$f1;
#X obj 277 145 MaxMin;
#X obj 153 297 expr $f1*$f2+$f3;
#X obj 117 206 expr $f1*$f1*$f1*$f1;
#X obj 153 319 f;
#X obj 97 30 inlet wP;
#X obj 67 431 outlet randomMin;
#X obj 237 431 outlet randomMax;
#X obj 193 383 * 1;
#X obj 330 32 inlet MaxMin;
#X connect 0 0 11 0;
#X connect 1 0 0 0;
#X connect 1 1 13 0;
#X connect 2 0 8 0;
#X connect 4 0 5 0;
#X connect 5 0 3 0;
#X connect 5 0 2 0;
#X connect 6 0 7 1;
#X connect 6 1 7 2;
#X connect 7 0 9 0;
#X connect 8 0 7 0;
#X connect 9 0 1 0;
#X connect 10 0 4 0;
#X connect 13 0 12 0;
#X connect 14 0 6 0;
#X restore 1063 209 pd pitchFactor;
#X floatatom 954 299 5 0 0 0 - - -;
#X obj 656 607 nbx 5 14 -1e+37 1e+37 0 0 empty empty lined!_pitch 0
-8 0 10 -4034 -33289 -1 1 256;
#X obj 766 607 nbx 5 14 -1e+37 1e+37 0 0 empty empty lined!_spd 0 -8
0 10 -4034 -1 -1 0 256;
#X text 706 631 in 5000 ms!;
#X obj 405 181 expr ($f1+1)/2;
#X floatatom 415 203 5 0 0 0 - - -;
#X obj 405 233 j-got;
#X obj 528 276 sel 0;
#X msg 528 298 127;
#X obj 503 449 rr 1000 5000;
#X floatatom 503 493 5 0 0 0 - - -;
#X obj 503 421 bng 15 250 50 0 empty empty high_harmonic_gliss 17 7
0 10 -262144 -1 -1;
#X obj 503 471 / 10000;
#X connect 0 0 1 0;
#X connect 5 0 22 0;
#X connect 5 0 64 1;
#X connect 11 0 25 0;
#X connect 12 0 24 0;
#X connect 12 0 51 1;
#X connect 13 0 12 1;
#X connect 14 0 23 0;
#X connect 15 0 0 0;
#X connect 16 0 6 0;
#X connect 17 0 7 0;
#X connect 18 0 8 0;
#X connect 19 0 9 0;
#X connect 20 0 10 0;
#X connect 21 0 13 0;
#X connect 22 0 4 0;
#X connect 23 0 2 0;
#X connect 24 0 3 0;
#X connect 25 0 79 0;
#X connect 25 0 82 0;
#X connect 26 0 39 0;
#X connect 27 0 26 0;
#X connect 28 0 38 0;
#X connect 29 0 69 0;
#X connect 29 0 86 0;
#X connect 30 0 81 0;
#X connect 31 0 32 0;
#X connect 32 0 81 1;
#X connect 33 0 5 0;
#X connect 34 0 33 1;
#X connect 34 0 74 0;
#X connect 35 0 36 0;
#X connect 36 0 34 0;
#X connect 37 0 35 0;
#X connect 38 0 56 0;
#X connect 38 0 73 0;
#X connect 39 0 28 0;
#X connect 42 0 43 0;
#X connect 43 0 44 0;
#X connect 44 0 2 0;
#X connect 45 0 48 0;
#X connect 46 0 45 0;
#X connect 46 0 75 0;
#X connect 47 0 46 0;
#X connect 48 0 12 1;
#X connect 49 0 51 0;
#X connect 50 0 83 0;
#X connect 50 0 3 0;
#X connect 51 0 53 0;
#X connect 51 0 52 0;
#X connect 53 0 50 0;
#X connect 54 0 55 0;
#X connect 55 0 5 1;
#X connect 55 0 14 1;
#X connect 56 0 14 0;
#X connect 57 0 62 0;
#X connect 57 0 76 0;
#X connect 57 0 88 1;
#X connect 57 0 89 0;
#X connect 58 0 57 0;
#X connect 59 0 68 0;
#X connect 59 0 64 0;
#X connect 60 0 61 0;
#X connect 61 0 66 0;
#X connect 62 0 63 0;
#X connect 63 0 5 1;
#X connect 64 0 65 0;
#X connect 64 0 66 1;
#X connect 66 0 67 0;
#X connect 67 0 4 0;
#X connect 67 0 84 0;
#X connect 68 0 60 0;
#X connect 69 0 72 0;
#X connect 69 0 33 0;
#X connect 70 0 71 0;
#X connect 71 0 69 1;
#X connect 75 0 49 0;
#X connect 76 0 59 0;
#X connect 77 0 78 0;
#X connect 78 0 79 1;
#X connect 79 0 12 0;
#X connect 79 0 80 0;
#X connect 81 0 25 1;
#X connect 81 1 25 2;
#X connect 86 0 87 0;
#X connect 86 0 88 0;
#X connect 88 0 39 0;
#X connect 89 0 90 0;
#X connect 90 0 56 0;
#X connect 91 0 94 0;
#X connect 93 0 91 0;
#X connect 94 0 92 0;
#X connect 94 0 51 0;
#X restore 10 29 pd coda_1;
#N canvas 434 35 1211 698 coda_2 0;
#X obj 14 45 tgl 15 0 empty empty empty 17 7 0 10 -262144 -1 -1 0 1
;
#X obj 154 45 tgl 15 0 empty empty empty 17 7 0 10 -262144 -1 -1 0
1;
#X obj 204 45 tgl 15 0 empty empty empty 17 7 0 10 -262144 -1 -1 0
1;
#X obj 264 45 tgl 15 0 empty empty empty 17 7 0 10 -262144 -1 -1 0
1;
#X obj 334 45 tgl 15 0 empty empty empty 17 7 0 10 -262144 -1 -1 0
1;
#X obj 404 45 tgl 15 0 empty empty empty 17 7 0 10 -262144 -1 -1 0
1;
#X obj 74 23 s switch_2;
#X obj 14 23 r \$1-b2;
#X obj 154 23 r \$1-a2;
#X obj 204 23 r \$1-up2;
#X obj 264 23 r \$1-down2;
#X obj 334 23 r \$1-left2;
#X obj 404 23 r \$1-right2;
#X obj 44 497 j-got;
#X obj 894 497 j-got;
#X obj 1138 401 tgl 15 0 empty empty empty 17 7 0 10 -262144 -1 -1
0 1;
#X obj 254 497 j-got;
#X obj 44 538 j-got2 p\$1.tgl;
#X obj 254 538 j-got2 p\$1.tgl;
#X obj 894 538 j-got2 p\$1.tgl;
#X obj 894 277 rr -1000 1000;
#X obj 310 143 / 127;
#X obj 310 121 r 2fader;
#X obj 310 295 * 127;
#X obj 1041 151 loadbang;
#X msg 1041 174 500 10;
#X obj 44 412 * 1;
#X obj 210 296 f;
#X obj 210 143 / 127;
#X obj 210 275 expr $f1*$f1;
#X obj 210 121 r 1fader;
#X obj 310 316 max 1e-05;
#X obj 310 275 expr $f1*$f1*$f1;
#X text 207 95 pedal_1;
#X text 313 95 pedal_2;
#X obj 163 577 r \$0-reload;
#X obj 163 599 bng 15 250 50 0 empty empty empty 17 7 0 10 -262144
-1 -1;
#X msg 163 621 127;
#X obj 666 201 itgl;
#X obj 606 134 tgl 15 0 empty empty empty 17 7 0 10 -262144 -1 -1 0
1;
#X obj 666 223 tgl 15 0 empty empty empty 17 7 0 10 -262144 -1 -1 1
1;
#X obj 606 226 bng 15 250 50 0 empty empty empty 17 7 0 10 -262144
-1 -1;
#X obj 606 456 line;
#X obj 606 373 f;
#X floatatom 616 395 5 0 0 0 - - -;
#X msg 606 424 \$1 \, 1 5000;
#X obj 153 381 loadbang;
#X obj 153 403 tgl 15 0 empty empty empty 17 7 0 10 -262144 -1 -1 1
1;
#X obj 254 418 f;
#X obj 716 134 tgl 15 0 empty empty empty 17 7 0 10 -262144 -1 -1 0
1;
#X obj 716 226 bng 15 250 50 0 empty empty empty 17 7 0 10 -262144
-1 -1;
#X obj 716 362 line;
#X obj 716 394 expr $f1*$f1;
#X obj 776 201 itgl;
#X obj 776 223 tgl 15 0 empty empty empty 17 7 0 10 -262144 -1 -1 1
1;
#X obj 802 281 f;
#X floatatom 812 303 5 0 0 0 - - -;
#X obj 716 444 * 1;
#X obj 716 466 f;
#X msg 716 330 1 \, 0 5000;
#N canvas 720 285 619 593 spdCtrl 0;
#X floatatom 154 217 5 0 0 0 - - -;
#X floatatom 83 363 5 0 0 0 - - -;
#X obj 135 171 expr ($f1+1)/2;
#X obj 135 193 expr 1-$f1;
#X obj 127 265 expr $f1*$f1;
#X obj 237 266 MaxMin;
#X obj 135 303 expr $f1*$f2+$f3;
#X obj 109 67 inlet mP;
#X obj 143 400 outlet;
#X obj 298 135 inlet MaxMin;
#X connect 2 0 3 0;
#X connect 3 0 0 0;
#X connect 3 0 4 0;
#X connect 4 0 6 0;
#X connect 5 0 6 1;
#X connect 5 1 6 2;
#X connect 6 0 1 0;
#X connect 6 0 8 0;
#X connect 7 0 2 0;
#X connect 9 0 5 0;
#X restore 44 230 pd spdCtrl;
#X obj 79 172 loadbang;
#X msg 79 195 2000 10;
#X floatatom 54 252 5 0 0 0 - - -;
#X floatatom 320 338 5 0 0 0 - - -;
#X floatatom 220 318 5 0 0 0 - - -;
#X obj 606 204 sel 1;
#X obj 716 204 sel 1;
#X obj 1000 316 loadbang;
#X msg 1000 338 500;
#N canvas 338 635 450 300 randomPitch 0;
#X floatatom 204 141 5 0 0 0 - - -;
#X obj 194 169 expr 1-$f1;
#X floatatom 204 191 5 0 0 0 - - -;
#X obj 194 119 / 500;
#X floatatom 221 92 5 0 0 0 - - -;
#X obj 95 42 inlet bng;
#X obj 88 240 outlet randomizedPitch;
#X obj 276 39 inlet defaultDivision;
#X connect 1 0 2 0;
#X connect 1 0 6 0;
#X connect 3 0 0 0;
#X connect 3 0 1 0;
#X connect 4 0 3 1;
#X connect 5 0 3 0;
#X connect 7 0 4 0;
#X restore 894 384 pd randomPitch;
#X floatatom 904 406 5 0 0 0 - - -;
#N canvas 861 485 474 523 pitchFactor 0;
#X obj 143 383 * -1;
#X obj 153 351 t f f;
#X obj 153 152 expr 1-$f1;
#X floatatom 172 128 5 0 0 0 - - -;
#X obj 153 82 expr ($f1+1)/2;
#X obj 153 104 expr 1-$f1;
#X obj 277 145 MaxMin;
#X obj 153 297 expr $f1*$f2+$f3;
#X obj 117 206 expr $f1*$f1*$f1*$f1;
#X obj 153 319 f;
#X obj 97 30 inlet wP;
#X obj 67 431 outlet randomMin;
#X obj 237 431 outlet randomMax;
#X obj 193 383 * 1;
#X obj 330 32 inlet MaxMin;
#X connect 0 0 11 0;
#X connect 1 0 0 0;
#X connect 1 1 13 0;
#X connect 2 0 8 0;
#X connect 4 0 5 0;
#X connect 5 0 3 0;
#X connect 5 0 2 0;
#X connect 6 0 7 1;
#X connect 6 1 7 2;
#X connect 7 0 9 0;
#X connect 8 0 7 0;
#X connect 9 0 1 0;
#X connect 10 0 4 0;
#X connect 13 0 12 0;
#X connect 14 0 6 0;
#X restore 1013 209 pd pitchFactor;
#X floatatom 904 299 5 0 0 0 - - -;
#X obj 606 607 nbx 5 14 -1e+37 1e+37 0 0 empty empty lined!_pitch 0
-8 0 10 -4034 -33289 -1 1 256;
#X obj 716 607 nbx 5 14 -1e+37 1e+37 0 0 empty empty lined!_spd 0 -8
0 10 -4034 -1 -1 0 256;
#X text 656 631 in 5000 ms!;
#X obj 355 181 expr ($f1+1)/2;
#X floatatom 365 203 5 0 0 0 - - -;
#X obj 355 233 j-got;
#X obj 478 276 sel 0;
#X msg 478 298 127;
#X obj 44 114 r \$1-mP2;
#X obj 606 112 r \$1-a2;
#X obj 716 112 r \$1-down2;
#X obj 894 109 r metroBang_2;
#X obj 1013 110 r \$1-wP2;
#X obj 1138 109 r \$1-b2;
#X obj 44 587 s speedCtrl_2;
#X obj 254 588 s durCtrl_2;
#X obj 894 587 s direction_2;
#X connect 0 0 6 0;
#X connect 7 0 0 0;
#X connect 8 0 1 0;
#X connect 9 0 2 0;
#X connect 10 0 3 0;
#X connect 11 0 4 0;
#X connect 12 0 5 0;
#X connect 13 0 17 0;
#X connect 13 0 55 1;
#X connect 14 0 19 0;
#X connect 14 0 43 1;
#X connect 15 0 14 1;
#X connect 16 0 18 0;
#X connect 17 0 88 0;
#X connect 18 0 89 0;
#X connect 19 0 90 0;
#X connect 20 0 70 0;
#X connect 20 0 73 0;
#X connect 21 0 32 0;
#X connect 22 0 21 0;
#X connect 23 0 31 0;
#X connect 24 0 25 0;
#X connect 25 0 72 1;
#X connect 26 0 13 0;
#X connect 27 0 26 1;
#X connect 27 0 65 0;
#X connect 28 0 29 0;
#X connect 29 0 27 0;
#X connect 30 0 28 0;
#X connect 31 0 48 0;
#X connect 31 0 64 0;
#X connect 32 0 23 0;
#X connect 35 0 36 0;
#X connect 36 0 37 0;
#X connect 37 0 89 0;
#X connect 38 0 40 0;
#X connect 39 0 38 0;
#X connect 39 0 66 0;
#X connect 40 0 14 1;
#X connect 41 0 43 0;
#X connect 42 0 74 0;
#X connect 42 0 90 0;
#X connect 43 0 45 0;
#X connect 43 0 44 0;
#X connect 45 0 42 0;
#X connect 46 0 47 0;
#X connect 47 0 13 1;
#X connect 47 0 16 1;
#X connect 48 0 16 0;
#X connect 49 0 53 0;
#X connect 49 0 67 0;
#X connect 49 0 79 1;
#X connect 49 0 80 0;
#X connect 50 0 59 0;
#X connect 50 0 55 0;
#X connect 51 0 52 0;
#X connect 52 0 57 0;
#X connect 53 0 54 0;
#X connect 54 0 13 1;
#X connect 55 0 56 0;
#X connect 55 0 57 1;
#X connect 57 0 58 0;
#X connect 58 0 75 0;
#X connect 58 0 88 0;
#X connect 59 0 51 0;
#X connect 60 0 63 0;
#X connect 60 0 26 0;
#X connect 61 0 62 0;
#X connect 62 0 60 1;
#X connect 66 0 41 0;
#X connect 67 0 50 0;
#X connect 68 0 69 0;
#X connect 69 0 70 1;
#X connect 70 0 14 0;
#X connect 70 0 71 0;
#X connect 72 0 20 1;
#X connect 72 1 20 2;
#X connect 77 0 78 0;
#X connect 77 0 79 0;
#X connect 79 0 32 0;
#X connect 80 0 81 0;
#X connect 81 0 48 0;
#X connect 82 0 60 0;
#X connect 82 0 77 0;
#X connect 83 0 39 0;
#X connect 84 0 49 0;
#X connect 85 0 20 0;
#X connect 86 0 72 0;
#X connect 87 0 15 0;
#X restore 10 49 pd coda_2;
#N canvas 360 482 1294 536 init_7 0;
#X msg 648 322 0;
#X obj 648 344 tgl 15 0 empty empty empty 17 7 0 10 -262144 -1 -1 0
1;
#X obj 648 396 s \$1-a;
#X obj 698 396 s \$1-a2;
#X msg 818 322 0;
#X obj 818 344 tgl 15 0 empty empty empty 17 7 0 10 -262144 -1 -1 0
1;
#X obj 818 396 s \$1-down;
#X obj 888 396 s \$1-down2;
#X obj 648 189 bng 15 250 50 0 empty empty button_reset 17 7 0 10 -262144
-1 -1;
#X obj 1048 189 bng 15 250 50 0 empty empty panning 17 7 0 10 -262144
-1 -1;
#X obj 1048 343 unpack f f;
#X obj 1048 395 s fileArray1.pan;
#X obj 1158 395 s fileArray2.pan;
#X obj 239 279 t b b;
#X obj 1048 229 t b;
#X obj 28 400 s pitchCtrl_1;
#X obj 118 400 s pitchCtrl_2;
#X obj 28 25 inlet;
#X obj 28 47 bng 15 250 50 0 empty empty empty 17 7 0 10 -262144 -1
-1;
#X obj 28 189 bng 15 250 50 0 empty empty granular_init 17 7 0 10 -262144
-1 -1;
#X obj 28 229 t b b;
#X text 122 22 p.no1.speed;
#X obj 200 41 f \$1;
#X obj 200 65 print -------------- program:;
#X obj 28 67 t bang bang bang bang;
#X msg 28 329 0;
#X obj 88 331 print p7.pitchCtrl:;
#X symbolatom 239 402 10 0 0 0 - - -;
#X floatatom 309 402 11 0 0 0 - - -;
#X symbolatom 405 402 10 0 0 0 - - -;
#X floatatom 475 402 11 0 0 0 - - -;
#X obj 239 370 setRange range_1 109711;
#X obj 405 370 setRange range_2 87297;
#X msg 1048 299 0.4 0.6;
#X obj 648 229 t b b;
#X connect 0 0 1 0;
#X connect 1 0 2 0;
#X connect 1 0 3 0;
#X connect 4 0 5 0;
#X connect 5 0 6 0;
#X connect 5 0 7 0;
#X connect 8 0 34 0;
#X connect 9 0 14 0;
#X connect 10 0 11 0;
#X connect 10 1 12 0;
#X connect 13 0 31 0;
#X connect 13 1 32 0;
#X connect 14 0 33 0;
#X connect 17 0 18 0;
#X connect 18 0 24 0;
#X connect 19 0 20 0;
#X connect 20 0 25 0;
#X connect 20 1 13 0;
#X connect 22 0 23 0;
#X connect 24 0 19 0;
#X connect 24 1 8 0;
#X connect 24 2 9 0;
#X connect 24 3 22 0;
#X connect 25 0 15 0;
#X connect 25 0 16 0;
#X connect 25 0 26 0;
#X connect 31 0 27 0;
#X connect 31 1 28 0;
#X connect 32 0 29 0;
#X connect 32 1 30 0;
#X connect 33 0 10 0;
#X connect 34 0 0 0;
#X connect 34 1 4 0;
#X restore 160 53 pd init_7;
#X obj 160 30 bng 15 250 50 0 empty empty empty 17 7 0 10 -262144 -1
-1;
#X obj 91 8 r p\$1.tgl;
#X obj 91 49 sel 1;
#X obj 151 8 r \$1-home;
#X connect 1 0 2 0;
#X connect 6 0 5 0;
#X connect 7 0 8 0;
#X connect 8 0 6 0;
#X connect 8 0 1 0;
#X connect 9 0 8 0;
