#N canvas 1355 636 325 82 10;
#X obj 11 7 tgl 15 0 p\$1.tgl p\$1.tgl p\$1.tgl 17 7 0 10 -262144 -1
-1 0 1;
#X obj 243 28 bng 15 250 50 0 empty empty empty 17 7 0 10 -262144 -1
-1;
#X obj 243 47 s \$0-reload;
#N canvas 377 196 1235 717 long_1 0;
#X obj 14 45 tgl 15 0 empty empty empty 17 7 0 10 -262144 -1 -1 0 1
;
#X obj 74 23 s switch_1;
#X obj 214 45 tgl 15 0 empty empty empty 17 7 0 10 -262144 -1 -1 0
1;
#X obj 274 45 tgl 15 0 empty empty empty 17 7 0 10 -262144 -1 -1 0
1;
#X obj 344 45 tgl 15 0 empty empty empty 17 7 0 10 -262144 -1 -1 0
1;
#X obj 414 45 tgl 15 0 empty empty empty 17 7 0 10 -262144 -1 -1 0
1;
#X obj 14 23 r \$1-b;
#X obj 214 23 r \$1-up;
#X obj 274 23 r \$1-down;
#X obj 344 23 r \$1-left;
#X obj 414 23 r \$1-right;
#X obj 154 45 tgl 15 0 empty empty empty 17 7 0 10 -262144 -1 -1 0
1;
#X obj 154 23 r \$1-a;
#X obj 164 677 s speedCtrl_1;
#X obj 164 587 j-got;
#X obj 68 505 tgl 15 0 empty empty empty 17 7 0 10 -262144 -1 -1 0
1;
#X obj 68 103 r \$1-b;
#X obj 164 618 j-got2 p\$1.tgl;
#X obj 394 587 j-got;
#X obj 394 618 j-got2 p\$1.tgl;
#X obj 394 677 s durCtrl_1;
#X obj 574 587 j-got;
#X obj 574 618 j-got2 p\$1.tgl;
#X obj 574 677 s range_1;
#X obj 824 677 s direction_1;
#X obj 824 587 j-got;
#X obj 824 618 j-got2 p\$1.tgl;
#X msg 137 484 50;
#X floatatom 415 309 5 0 0 0 - - -;
#X obj 395 346 expr $f1 *$f2 + $f3;
#X obj 505 308 MaxMin;
#X floatatom 415 368 5 0 0 0 - - -;
#X msg 513 274 127 10;
#X obj 506 249 loadbang;
#X obj 91 423 loadbang;
#N canvas 803 52 793 927 rangeLiner 0;
#X obj 239 751 line;
#X obj 239 692 pack 0 0 0;
#X msg 239 719 \$1 \, \$2 \$3;
#X obj 232 425 t b b b;
#X obj 232 363 bng 15 250 50 0 empty empty start 17 7 0 10 -262144
-1 -1;
#X obj 239 854 outlet range;
#X obj 457 295 pack 0 0;
#X obj 457 317 +;
#X floatatom 476 203 5 0 0 0 - - -;
#X obj 476 262 t b f;
#X floatatom 530 232 11 0 0 0 - - -;
#X obj 377 232 f;
#X obj 457 349 f;
#X floatatom 457 371 11 0 0 3 end - -;
#X obj 379 349 f;
#X floatatom 379 371 11 0 0 3 start - -;
#X floatatom 530 372 11 0 0 3 lining_dur - -;
#X obj 377 260 t f f;
#X floatatom 377 203 11 0 0 0 - - -;
#X obj 530 317 max 1;
#X obj 233 515 f;
#X obj 279 516 f;
#X obj 324 515 f;
#X obj 125 600 sel 1000;
#X obj 279 558 change;
#X obj 329 558 change;
#X obj 239 793 change;
#X floatatom 259 825 11 0 0 0 - - -;
#X obj 530 349 f;
#X obj 476 222 max 1;
#X obj 328 20 inlet;
#X obj 130 72 hsl 128 15 0 1 0 0 empty empty empty -2 -8 0 10 -262144
-1 -1 0 1;
#X obj 127 132 pack 0 0;
#X obj 173 100 r maxSamples_1;
#X obj 127 154 *;
#X obj 329 580 t b f;
#X obj 279 580 t b f;
#X obj 560 201 * 800;
#X obj 85 572 del 0;
#X text 156 50 test slider;
#X obj 81 271 r \$0-reload;
#X obj 81 293 bng 15 250 50 0 empty empty empty 17 7 0 10 -262144 -1
-1;
#X obj 576 60 unpack 0 0 0;
#X floatatom 677 82 5 0 0 0 - - -;
#X obj 576 18 inlet \$0-start_end_maxDur;
#X connect 0 0 26 0;
#X connect 1 0 2 0;
#X connect 2 0 0 0;
#X connect 3 0 22 0;
#X connect 3 1 21 0;
#X connect 3 2 20 0;
#X connect 4 0 3 0;
#X connect 6 0 7 0;
#X connect 7 0 12 0;
#X connect 8 0 29 0;
#X connect 9 0 11 0;
#X connect 9 1 6 1;
#X connect 10 0 19 0;
#X connect 11 0 17 0;
#X connect 12 0 13 0;
#X connect 12 0 21 1;
#X connect 14 0 15 0;
#X connect 14 0 20 1;
#X connect 17 0 14 0;
#X connect 17 1 6 0;
#X connect 18 0 11 0;
#X connect 19 0 28 0;
#X connect 20 0 1 0;
#X connect 21 0 23 1;
#X connect 21 0 24 0;
#X connect 22 0 25 0;
#X connect 23 0 38 0;
#X connect 24 0 36 0;
#X connect 25 0 35 0;
#X connect 26 0 23 0;
#X connect 26 0 27 0;
#X connect 26 0 5 0;
#X connect 28 0 16 0;
#X connect 28 0 22 1;
#X connect 29 0 9 0;
#X connect 30 0 37 0;
#X connect 31 0 32 0;
#X connect 32 0 34 0;
#X connect 33 0 32 1;
#X connect 34 0 18 0;
#X connect 35 0 20 0;
#X connect 35 1 1 2;
#X connect 36 0 20 0;
#X connect 36 1 1 1;
#X connect 37 0 10 0;
#X connect 38 0 4 0;
#X connect 40 0 41 0;
#X connect 41 0 4 0;
#X connect 42 0 18 0;
#X connect 42 1 8 0;
#X connect 42 2 43 0;
#X connect 42 2 37 1;
#X connect 44 0 42 0;
#X restore 606 363 pd rangeLiner;
#X obj 396 102 r \$1-mP;
#X obj 396 154 expr ($f1+1)/2;
#X obj 396 176 expr 1-$f1;
#X floatatom 406 198 5 0 0 0 - - -;
#X obj 395 275 expr $f1*$f1;
#X obj 597 286 expr $f1*$f1;
#X obj 607 102 r \$1-mR;
#X obj 597 204 expr ($f1+1)/2;
#X obj 597 226 expr 1-$f1;
#X floatatom 607 248 5 0 0 0 - - -;
#X obj 290 106 r \$1-a;
#X obj 290 208 tgl 15 0 empty empty empty 17 7 0 10 -262144 -1 -1 0
1;
#X obj 326 345 itgl;
#X obj 326 367 tgl 15 0 empty empty empty 17 7 0 10 -262144 -1 -1 1
1;
#X obj 137 452 sel 1;
#X obj 118 172 expr ($f1+1)/2;
#X obj 118 194 expr 1-$f1;
#X obj 201 464 j-got;
#X obj 118 286 expr $f1* $f2 + $f3;
#X obj 213 196 loadbang;
#X obj 201 247 MaxMin;
#X obj 105 248 expr $f1*$f1;
#X floatatom 118 308 5 0 0 0 - - -;
#X obj 171 526 f;
#X floatatom 181 548 5 0 0 0 - - -;
#X msg 943 622 1;
#X obj 943 577 r \$0-reload;
#X obj 943 599 bng 15 250 50 0 empty empty empty 17 7 0 10 -262144
-1 -1;
#X obj 68 584 r \$0-reload;
#X obj 68 606 bng 15 250 50 0 empty empty empty 17 7 0 10 -262144 -1
-1;
#X msg 68 629 50;
#X obj 1112 147 tgl 15 0 empty empty empty 17 7 0 10 -262144 -1 -1
0 1;
#X obj 1112 105 r \$1-down;
#X obj 855 239 +;
#X obj 925 163 abs;
#X obj 1015 163 abs;
#X obj 855 164 mavg 4;
#X obj 855 211 pack f f f;
#X obj 855 102 r \$1-wAcc;
#X obj 925 101 r \$1-mP.velo;
#X obj 1015 101 r \$1-mY.velo;
#X obj 1001 434 sel 0;
#X obj 846 375 expr 1-$f1;
#X msg 1001 456 1 100;
#X obj 1001 478 line;
#X obj 849 310 expr $f1*$f2+$f3;
#X obj 951 225 loadbang;
#X obj 939 276 MaxMin;
#X obj 853 267 / 2;
#X floatatom 865 403 5 0 0 0 - - -;
#X msg 939 254 1 0.001;
#X floatatom 1001 500 5 0 0 0 - - -;
#X msg 201 225 15 5;
#X obj 695 101 r \$0-start_end_maxDur_1;
#X obj 705 133 print p4.startEndDur_1:;
#X connect 0 0 1 0;
#X connect 6 0 0 0;
#X connect 7 0 2 0;
#X connect 8 0 3 0;
#X connect 9 0 4 0;
#X connect 10 0 5 0;
#X connect 12 0 11 0;
#X connect 14 0 17 0;
#X connect 15 0 14 1;
#X connect 15 0 18 1;
#X connect 15 0 21 1;
#X connect 16 0 15 0;
#X connect 17 0 13 0;
#X connect 18 0 19 0;
#X connect 19 0 20 0;
#X connect 21 0 22 0;
#X connect 22 0 23 0;
#X connect 25 0 26 0;
#X connect 26 0 24 0;
#X connect 27 0 59 0;
#X connect 29 0 31 0;
#X connect 29 0 18 0;
#X connect 30 0 29 1;
#X connect 30 1 29 2;
#X connect 32 0 30 0;
#X connect 33 0 32 0;
#X connect 34 0 27 0;
#X connect 35 0 21 0;
#X connect 36 0 37 0;
#X connect 36 0 51 0;
#X connect 37 0 38 0;
#X connect 38 0 39 0;
#X connect 38 0 40 0;
#X connect 40 0 28 0;
#X connect 40 0 29 0;
#X connect 41 0 35 0;
#X connect 42 0 43 0;
#X connect 43 0 44 0;
#X connect 44 0 45 0;
#X connect 44 0 41 0;
#X connect 46 0 47 0;
#X connect 47 0 48 0;
#X connect 47 0 53 1;
#X connect 48 0 49 0;
#X connect 49 0 18 1;
#X connect 49 0 21 1;
#X connect 49 0 50 0;
#X connect 50 0 27 0;
#X connect 51 0 52 0;
#X connect 52 0 57 0;
#X connect 53 0 59 0;
#X connect 54 0 53 0;
#X connect 54 0 58 0;
#X connect 55 0 88 0;
#X connect 56 0 54 1;
#X connect 56 1 54 2;
#X connect 57 0 54 0;
#X connect 59 0 60 0;
#X connect 59 0 14 0;
#X connect 61 0 24 0;
#X connect 62 0 63 0;
#X connect 63 0 61 0;
#X connect 64 0 65 0;
#X connect 65 0 66 0;
#X connect 66 0 13 0;
#X connect 67 0 25 1;
#X connect 67 0 77 0;
#X connect 68 0 67 0;
#X connect 69 0 84 0;
#X connect 70 0 73 1;
#X connect 71 0 73 2;
#X connect 72 0 73 0;
#X connect 73 0 69 0;
#X connect 74 0 72 0;
#X connect 75 0 70 0;
#X connect 76 0 71 0;
#X connect 77 0 79 0;
#X connect 78 0 85 0;
#X connect 78 0 25 0;
#X connect 79 0 80 0;
#X connect 80 0 24 0;
#X connect 80 0 87 0;
#X connect 81 0 78 0;
#X connect 82 0 86 0;
#X connect 83 0 81 1;
#X connect 83 1 81 2;
#X connect 84 0 81 0;
#X connect 86 0 83 0;
#X connect 88 0 56 0;
#X connect 89 0 35 1;
#X connect 89 0 90 0;
#X restore 11 27 pd long_1;
#N canvas 415 416 1246 735 long_2 0;
#X obj 14 45 tgl 15 0 empty empty empty 17 7 0 10 -262144 -1 -1 0 1
;
#X obj 154 45 tgl 15 0 empty empty empty 17 7 0 10 -262144 -1 -1 0
1;
#X obj 204 45 tgl 15 0 empty empty empty 17 7 0 10 -262144 -1 -1 0
1;
#X obj 264 45 tgl 15 0 empty empty empty 17 7 0 10 -262144 -1 -1 0
1;
#X obj 334 45 tgl 15 0 empty empty empty 17 7 0 10 -262144 -1 -1 0
1;
#X obj 404 45 tgl 15 0 empty empty empty 17 7 0 10 -262144 -1 -1 0
1;
#X obj 74 23 s switch_2;
#X obj 14 23 r \$1-b2;
#X obj 154 23 r \$1-a2;
#X obj 204 23 r \$1-up2;
#X obj 264 23 r \$1-down2;
#X obj 334 23 r \$1-left2;
#X obj 404 23 r \$1-right2;
#X obj 164 587 j-got;
#X obj 68 505 tgl 15 0 empty empty empty 17 7 0 10 -262144 -1 -1 0
1;
#X obj 164 618 j-got2 p\$1.tgl;
#X obj 394 587 j-got;
#X obj 394 618 j-got2 p\$1.tgl;
#X obj 574 587 j-got;
#X obj 574 618 j-got2 p\$1.tgl;
#X obj 824 587 j-got;
#X obj 824 618 j-got2 p\$1.tgl;
#X msg 137 484 50;
#X floatatom 415 309 5 0 0 0 - - -;
#X obj 395 346 expr $f1 *$f2 + $f3;
#X obj 505 308 MaxMin;
#X floatatom 415 368 5 0 0 0 - - -;
#X msg 513 274 127 10;
#X obj 506 249 loadbang;
#X obj 91 423 loadbang;
#N canvas 803 52 793 927 rangeLiner 0;
#X obj 239 751 line;
#X obj 239 692 pack 0 0 0;
#X msg 239 719 \$1 \, \$2 \$3;
#X obj 232 425 t b b b;
#X obj 232 363 bng 15 250 50 0 empty empty start 17 7 0 10 -262144
-1 -1;
#X obj 239 854 outlet range;
#X obj 457 295 pack 0 0;
#X obj 457 317 +;
#X floatatom 476 203 5 0 0 0 - - -;
#X obj 476 262 t b f;
#X floatatom 530 232 11 0 0 0 - - -;
#X obj 377 232 f;
#X obj 457 349 f;
#X floatatom 457 371 11 0 0 3 end - -;
#X obj 379 349 f;
#X floatatom 379 371 11 0 0 3 start - -;
#X floatatom 530 372 11 0 0 3 lining_dur - -;
#X obj 377 260 t f f;
#X floatatom 377 203 11 0 0 0 - - -;
#X obj 530 317 max 1;
#X obj 233 515 f;
#X obj 279 516 f;
#X obj 324 515 f;
#X obj 125 600 sel 1000;
#X obj 279 558 change;
#X obj 329 558 change;
#X obj 239 793 change;
#X floatatom 259 825 11 0 0 0 - - -;
#X obj 530 349 f;
#X obj 476 222 max 1;
#X obj 328 20 inlet;
#X obj 329 580 t b f;
#X obj 279 580 t b f;
#X obj 560 201 * 800;
#X obj 85 572 del 0;
#X obj 81 271 r \$0-reload;
#X obj 81 293 bng 15 250 50 0 empty empty empty 17 7 0 10 -262144 -1
-1;
#X obj 576 60 unpack 0 0 0;
#X floatatom 653 90 5 0 0 0 - - -;
#X obj 576 18 inlet \$0-start_end_maxDur;
#X obj 81 313 del 1;
#X connect 0 0 26 0;
#X connect 1 0 2 0;
#X connect 2 0 0 0;
#X connect 3 0 22 0;
#X connect 3 1 21 0;
#X connect 3 2 20 0;
#X connect 4 0 3 0;
#X connect 6 0 7 0;
#X connect 7 0 12 0;
#X connect 8 0 29 0;
#X connect 9 0 11 0;
#X connect 9 1 6 1;
#X connect 10 0 19 0;
#X connect 11 0 17 0;
#X connect 12 0 13 0;
#X connect 12 0 21 1;
#X connect 14 0 15 0;
#X connect 14 0 20 1;
#X connect 17 0 14 0;
#X connect 17 1 6 0;
#X connect 18 0 11 0;
#X connect 19 0 28 0;
#X connect 20 0 1 0;
#X connect 21 0 23 1;
#X connect 21 0 24 0;
#X connect 22 0 25 0;
#X connect 23 0 34 0;
#X connect 24 0 32 0;
#X connect 25 0 31 0;
#X connect 26 0 23 0;
#X connect 26 0 27 0;
#X connect 26 0 5 0;
#X connect 28 0 16 0;
#X connect 28 0 22 1;
#X connect 29 0 9 0;
#X connect 30 0 33 0;
#X connect 31 0 20 0;
#X connect 31 1 1 2;
#X connect 32 0 20 0;
#X connect 32 1 1 1;
#X connect 33 0 10 0;
#X connect 34 0 4 0;
#X connect 35 0 36 0;
#X connect 36 0 40 0;
#X connect 37 0 18 0;
#X connect 37 1 8 0;
#X connect 37 2 38 0;
#X connect 37 2 33 1;
#X connect 39 0 37 0;
#X connect 40 0 4 0;
#X restore 606 363 pd rangeLiner;
#X obj 396 154 expr ($f1+1)/2;
#X obj 396 176 expr 1-$f1;
#X floatatom 406 198 5 0 0 0 - - -;
#X obj 395 275 expr $f1*$f1;
#X obj 597 286 expr $f1*$f1;
#X obj 597 204 expr ($f1+1)/2;
#X obj 597 226 expr 1-$f1;
#X floatatom 607 248 5 0 0 0 - - -;
#X obj 290 208 tgl 15 0 empty empty empty 17 7 0 10 -262144 -1 -1 0
1;
#X obj 326 345 itgl;
#X obj 326 367 tgl 15 0 empty empty empty 17 7 0 10 -262144 -1 -1 1
1;
#X obj 137 452 sel 1;
#X obj 118 172 expr ($f1+1)/2;
#X obj 118 194 expr 1-$f1;
#X obj 201 464 j-got;
#X obj 118 286 expr $f1* $f2 + $f3;
#X obj 213 196 loadbang;
#X obj 201 247 MaxMin;
#X obj 105 248 expr $f1*$f1;
#X floatatom 118 308 5 0 0 0 - - -;
#X obj 171 526 f;
#X floatatom 181 548 5 0 0 0 - - -;
#X msg 943 622 1;
#X obj 943 577 r \$0-reload;
#X obj 943 599 bng 15 250 50 0 empty empty empty 17 7 0 10 -262144
-1 -1;
#X obj 68 584 r \$0-reload;
#X obj 68 606 bng 15 250 50 0 empty empty empty 17 7 0 10 -262144 -1
-1;
#X msg 68 629 50;
#X obj 1112 147 tgl 15 0 empty empty empty 17 7 0 10 -262144 -1 -1
0 1;
#X obj 855 239 +;
#X obj 925 163 abs;
#X obj 1015 163 abs;
#X obj 855 164 mavg 4;
#X obj 855 211 pack f f f;
#X obj 1001 434 sel 0;
#X obj 846 375 expr 1-$f1;
#X msg 1001 456 1 100;
#X obj 1001 478 line;
#X obj 849 310 expr $f1*$f2+$f3;
#X obj 939 222 loadbang;
#X obj 939 276 MaxMin;
#X obj 853 267 / 2;
#X floatatom 865 403 5 0 0 0 - - -;
#X msg 939 254 1 0.001;
#X floatatom 1001 500 5 0 0 0 - - -;
#X obj 68 103 r \$1-b2;
#X obj 290 103 r \$1-a2;
#X obj 396 102 r \$1-mP2;
#X obj 607 102 r \$1-mR2;
#X obj 855 102 r \$1-wAcc2;
#X obj 925 101 r \$1-mP.velo2;
#X obj 1015 101 r \$1-mY.velo2;
#X obj 1112 100 r \$1-down2;
#X obj 164 677 s speedCtrl_2;
#X obj 394 677 s durCtrl_2;
#X obj 574 677 s range_2;
#X obj 824 677 s direction_2;
#X obj 998 221 r \$0-reload;
#X msg 201 225 15 5;
#X obj 695 101 r \$0-start_end_maxDur_2;
#X obj 705 133 print p4.startEndDur_2:;
#X connect 0 0 6 0;
#X connect 7 0 0 0;
#X connect 8 0 1 0;
#X connect 9 0 2 0;
#X connect 10 0 3 0;
#X connect 11 0 4 0;
#X connect 12 0 5 0;
#X connect 13 0 15 0;
#X connect 14 0 13 1;
#X connect 14 0 16 1;
#X connect 14 0 18 1;
#X connect 15 0 84 0;
#X connect 16 0 17 0;
#X connect 17 0 85 0;
#X connect 18 0 19 0;
#X connect 19 0 86 0;
#X connect 20 0 21 0;
#X connect 21 0 87 0;
#X connect 22 0 51 0;
#X connect 24 0 26 0;
#X connect 24 0 16 0;
#X connect 25 0 24 1;
#X connect 25 1 24 2;
#X connect 27 0 25 0;
#X connect 28 0 27 0;
#X connect 29 0 22 0;
#X connect 30 0 18 0;
#X connect 31 0 32 0;
#X connect 32 0 33 0;
#X connect 32 0 34 0;
#X connect 34 0 23 0;
#X connect 34 0 24 0;
#X connect 35 0 30 0;
#X connect 36 0 37 0;
#X connect 37 0 38 0;
#X connect 37 0 35 0;
#X connect 39 0 40 0;
#X connect 39 0 45 1;
#X connect 40 0 41 0;
#X connect 41 0 16 1;
#X connect 41 0 18 1;
#X connect 41 0 42 0;
#X connect 42 0 22 0;
#X connect 43 0 44 0;
#X connect 44 0 49 0;
#X connect 45 0 51 0;
#X connect 46 0 45 0;
#X connect 46 0 50 0;
#X connect 47 0 89 0;
#X connect 48 0 46 1;
#X connect 48 1 46 2;
#X connect 49 0 46 0;
#X connect 51 0 52 0;
#X connect 51 0 13 0;
#X connect 53 0 87 0;
#X connect 54 0 55 0;
#X connect 55 0 53 0;
#X connect 56 0 57 0;
#X connect 57 0 58 0;
#X connect 58 0 84 0;
#X connect 59 0 20 1;
#X connect 59 0 65 0;
#X connect 60 0 72 0;
#X connect 61 0 64 1;
#X connect 62 0 64 2;
#X connect 63 0 64 0;
#X connect 64 0 60 0;
#X connect 65 0 67 0;
#X connect 66 0 73 0;
#X connect 66 0 20 0;
#X connect 67 0 68 0;
#X connect 68 0 75 0;
#X connect 68 0 87 0;
#X connect 69 0 66 0;
#X connect 70 0 74 0;
#X connect 71 0 69 1;
#X connect 71 1 69 2;
#X connect 72 0 69 0;
#X connect 74 0 71 0;
#X connect 76 0 14 0;
#X connect 77 0 39 0;
#X connect 78 0 31 0;
#X connect 78 0 43 0;
#X connect 79 0 36 0;
#X connect 80 0 63 0;
#X connect 81 0 61 0;
#X connect 82 0 62 0;
#X connect 83 0 59 0;
#X connect 88 0 74 0;
#X connect 89 0 48 0;
#X connect 90 0 30 1;
#X connect 90 0 91 0;
#X restore 11 49 pd long_2;
#N canvas 349 49 1597 499 init_4 0;
#X obj 28 25 inlet;
#X obj 28 47 bng 15 250 50 0 empty empty empty 17 7 0 10 -262144 -1
-1;
#X obj 28 461 s pitchCtrl_1;
#X obj 118 461 s pitchCtrl_2;
#X msg 648 399 0;
#X obj 648 421 tgl 15 0 empty empty empty 17 7 0 10 -262144 -1 -1 0
1;
#X obj 648 463 s \$1-a;
#X obj 698 463 s \$1-a2;
#X msg 778 399 0;
#X obj 778 421 tgl 15 0 empty empty empty 17 7 0 10 -262144 -1 -1 0
1;
#X obj 778 463 s \$1-down;
#X obj 848 463 s \$1-down2;
#X msg 948 399 0;
#X obj 948 421 tgl 15 0 empty empty empty 17 7 0 10 -262144 -1 -1 0
1;
#X obj 948 463 s \$1-b;
#X obj 998 463 s \$1-b2;
#X obj 28 219 t b b;
#X obj 28 189 bng 15 250 50 0 empty empty granular_init 17 7 0 10 -262144
-1 -1;
#X obj 648 189 bng 15 250 50 0 empty empty button_reset 17 7 0 10 -262144
-1 -1;
#X obj 242 219 t b b;
#X obj 648 219 t b b b;
#X obj 1138 189 bng 15 250 50 0 empty empty panning 17 7 0 10 -262144
-1 -1;
#X obj 1138 219 t b;
#X obj 272 365 loadbang;
#X obj 242 461 s \$0-start_end_maxDur_1;
#X obj 432 365 loadbang;
#X obj 1138 460 s fileArray1.pan;
#X obj 1248 460 s fileArray2.pan;
#X obj 1138 415 unpack f f;
#X msg 1138 367 0.1 0.9;
#X obj 402 461 s \$0-start_end_maxDur_2;
#N canvas 965 390 671 424 startEndMaxTest 0;
#X obj 387 130 r 1fader;
#X obj 387 152 / 127;
#X obj 467 152 / 127;
#X obj 527 152 / 127;
#X obj 467 130 r 2fader;
#X obj 527 130 r 3fader;
#X obj 387 174 *;
#X obj 467 174 * 10000;
#X obj 527 174 * 2000;
#X obj 350 89 r maxSamples_2;
#X obj 387 266 pack f f f;
#X obj 467 236 t b f;
#X obj 527 236 t b f;
#X msg 387 288 \$1 \$2 \$3;
#X floatatom 397 196 11 0 0 0 - - -;
#X floatatom 477 196 5 0 0 0 - - -;
#X floatatom 537 196 5 0 0 0 - - -;
#X obj 365 331 outlet;
#X connect 0 0 1 0;
#X connect 1 0 6 0;
#X connect 2 0 7 0;
#X connect 3 0 8 0;
#X connect 4 0 2 0;
#X connect 5 0 3 0;
#X connect 6 0 10 0;
#X connect 6 0 14 0;
#X connect 7 0 11 0;
#X connect 7 0 15 0;
#X connect 8 0 12 0;
#X connect 8 0 16 0;
#X connect 9 0 6 1;
#X connect 10 0 13 0;
#X connect 11 0 10 0;
#X connect 11 1 10 1;
#X connect 12 0 10 0;
#X connect 12 1 10 2;
#X connect 13 0 17 0;
#X restore 325 265 pd startEndMaxTest;
#X msg 242 398 102633 4173 488;
#X msg 402 399 64883 4800 495;
#X msg 28 399 -5;
#X obj 88 401 print p4.pitchCtrl:;
#X obj 28 67 t bang bang bang bang;
#X obj 200 41 f \$1;
#X obj 200 65 print -------------- program:;
#X connect 0 0 1 0;
#X connect 1 0 36 0;
#X connect 4 0 5 0;
#X connect 5 0 6 0;
#X connect 5 0 7 0;
#X connect 8 0 9 0;
#X connect 9 0 10 0;
#X connect 9 0 11 0;
#X connect 12 0 13 0;
#X connect 13 0 14 0;
#X connect 13 0 15 0;
#X connect 16 0 34 0;
#X connect 16 1 19 0;
#X connect 17 0 16 0;
#X connect 18 0 20 0;
#X connect 19 0 33 0;
#X connect 19 1 32 0;
#X connect 20 0 4 0;
#X connect 20 1 8 0;
#X connect 20 2 12 0;
#X connect 21 0 22 0;
#X connect 22 0 29 0;
#X connect 23 0 32 0;
#X connect 25 0 33 0;
#X connect 28 0 26 0;
#X connect 28 1 27 0;
#X connect 29 0 28 0;
#X connect 32 0 24 0;
#X connect 33 0 30 0;
#X connect 34 0 2 0;
#X connect 34 0 3 0;
#X connect 34 0 35 0;
#X connect 36 0 17 0;
#X connect 36 1 18 0;
#X connect 36 2 21 0;
#X connect 36 3 37 0;
#X connect 37 0 38 0;
#X restore 173 47 pd init_4;
#X obj 173 28 bng 15 250 50 0 empty empty empty 17 7 0 10 -262144 -1
-1;
#X obj 91 8 r p\$1.tgl;
#X obj 91 49 sel 1;
#X obj 151 8 r \$1-home;
#X connect 1 0 2 0;
#X connect 6 0 5 0;
#X connect 7 0 8 0;
#X connect 8 0 6 0;
#X connect 8 0 1 0;
#X connect 9 0 8 0;
