#N canvas 1348 429 332 82 10;
#X obj 11 7 tgl 15 0 p\$1.tgl p\$1.tgl p\$1.tgl 17 7 0 10 -262144 -1
-1 0 1;
#N canvas 514 37 1118 491 rachet_1 0;
#X obj 14 45 tgl 15 0 empty empty empty 17 7 0 10 -262144 -1 -1 0 1
;
#N canvas 390 61 372 497 dur_1 0;
#X obj 97 64 inlet;
#N canvas 1184 119 467 686 module_1 0;
#X floatatom 189 233 5 0 0 2 max - -;
#X obj 107 315 expr $f1*$f1*$f1;
#X obj 189 105 loadbang;
#X floatatom 117 419 5 0 0 0 - - -;
#X obj 107 397 expr $f1 *$f2 +$f3;
#X msg 189 127 127 1;
#X obj 189 179 unpack;
#X floatatom 249 233 5 0 0 2 min - -;
#X obj 249 254 t f f;
#X obj 229 317 expr $f1-$f2;
#X obj 189 254 t f b;
#X msg 232 126 500 200;
#X text 261 105 dur: change it!;
#X msg 292 126 1000 127;
#X floatatom 117 337 5 0 0 0 - - -;
#X floatatom 239 339 5 0 0 0 - - -;
#X obj 107 181 t f b;
#X obj 107 74 inlet;
#X obj 107 664 outlet;
#X msg 289 161 60 0.005;
#X connect 0 0 10 0;
#X connect 1 0 4 0;
#X connect 1 0 14 0;
#X connect 2 0 5 0;
#X connect 4 0 3 0;
#X connect 4 0 18 0;
#X connect 5 0 6 0;
#X connect 6 0 0 0;
#X connect 6 1 7 0;
#X connect 7 0 8 0;
#X connect 8 0 4 2;
#X connect 8 1 9 1;
#X connect 9 0 4 1;
#X connect 9 0 15 0;
#X connect 10 0 9 0;
#X connect 10 1 1 0;
#X connect 11 0 6 0;
#X connect 13 0 6 0;
#X connect 16 0 1 0;
#X connect 16 1 0 0;
#X connect 17 0 16 0;
#X connect 19 0 6 0;
#X restore 97 105 pd module_1;
#X floatatom 107 127 11 0 0 0 - - -;
#N canvas 263 583 450 300 random_limiter_1 0;
#X obj 107 192 clip 0 700;
#X obj 134 127 rr 700 800;
#X obj 107 103 t f b;
#X floatatom 134 150 5 0 0 0 - - -;
#X obj 107 56 inlet;
#X obj 107 223 outlet limited_output;
#X obj 162 74 inlet random_min;
#X obj 272 74 inlet random_max;
#X floatatom 162 96 5 0 0 0 - - -;
#X floatatom 272 96 5 0 0 0 - - -;
#X connect 0 0 5 0;
#X connect 1 0 3 0;
#X connect 1 0 0 2;
#X connect 2 0 0 0;
#X connect 2 1 1 0;
#X connect 4 0 2 0;
#X connect 6 0 8 0;
#X connect 7 0 9 0;
#X connect 8 0 1 1;
#X connect 9 0 1 2;
#X restore 117 345 pd random_limiter_1;
#N canvas 1094 83 562 917 attackCurve_1 0;
#X obj 315 353 line;
#X obj 348 596 tgl 15 0 empty empty empty 17 7 0 10 -262144 -1 -1 0
1;
#X obj 296 180 sel 1 0;
#X floatatom 325 255 5 0 0 3 release.time - -;
#X floatatom 235 255 5 0 0 3 attack.time - -;
#X obj 315 233 rr 70 150;
#X obj 57 763 * 1;
#X msg 315 311 0 \$1;
#X obj 334 690 del;
#X msg 225 311 1000 \$1;
#X obj 315 435 / 1000;
#X obj 315 665 t f b f;
#X obj 315 620 spigot;
#X obj 416 621 spigot;
#X obj 405 123 t f f f;
#X obj 449 591 tgl 15 0 empty empty empty 17 7 0 10 -262144 -1 -1 1
1;
#X obj 315 457 t f f;
#X obj 379 710 hsl 128 15 0 1 0 0 empty empty 0-1 -2 -8 0 10 -262144
-1 -1 0 1;
#X floatatom 376 730 5 0 0 0 - - -;
#X floatatom 325 375 11 0 0 0 - - -;
#X obj 225 233 rr 50 100;
#X obj 315 507 - 1;
#X obj 315 550 + 1;
#X obj 315 528 expr $f1*$f1*$f1*$f1 *-1;
#X obj 57 41 inlet;
#X obj 57 825 outlet curved_attack;
#X obj 405 41 inlet switch;
#X obj 449 569 jong-itgl;
#X connect 0 0 10 0;
#X connect 0 0 19 0;
#X connect 1 0 12 1;
#X connect 2 0 20 0;
#X connect 2 1 5 0;
#X connect 5 0 7 0;
#X connect 5 0 3 0;
#X connect 6 0 25 0;
#X connect 7 0 0 0;
#X connect 8 0 6 0;
#X connect 9 0 0 0;
#X connect 10 0 16 0;
#X connect 11 0 6 1;
#X connect 11 1 8 0;
#X connect 11 2 17 0;
#X connect 12 0 11 0;
#X connect 13 0 11 0;
#X connect 14 0 2 0;
#X connect 14 1 1 0;
#X connect 14 2 27 0;
#X connect 15 0 13 1;
#X connect 16 0 21 0;
#X connect 16 1 13 0;
#X connect 17 0 18 0;
#X connect 20 0 4 0;
#X connect 20 0 9 0;
#X connect 21 0 23 0;
#X connect 22 0 12 0;
#X connect 23 0 22 0;
#X connect 24 0 6 0;
#X connect 26 0 14 0;
#X connect 27 0 15 0;
#X restore 97 187 pd attackCurve_1;
#X obj 172 321 unpack 0 0;
#X obj 172 277 loadbang;
#X obj 97 410 outlet durCtrl_1;
#X obj 190 63 inlet switch_1;
#X msg 172 299 300 500;
#X connect 0 0 1 0;
#X connect 1 0 2 0;
#X connect 1 0 4 0;
#X connect 4 0 3 0;
#X connect 4 0 7 0;
#X connect 5 0 3 1;
#X connect 5 1 3 2;
#X connect 6 0 9 0;
#X connect 8 0 4 1;
#X connect 9 0 5 0;
#X restore 710 243 pd dur_1;
#N canvas 282 176 494 394 xyz-dur_1 0;
#X obj 117 167 pack f f f;
#X obj 117 189 sum;
#X obj 117 278 + 0.3;
#X obj 254 335 outlet;
#X obj 117 243 mavg 12;
#X floatatom 117 300 5 0 0 0 - - -;
#X obj 117 87 inlet x;
#X obj 177 88 inlet y;
#X obj 237 87 inlet z;
#X connect 0 0 1 0;
#X connect 1 0 4 0;
#X connect 2 0 5 0;
#X connect 2 0 3 0;
#X connect 4 0 2 0;
#X connect 6 0 0 0;
#X connect 7 0 0 1;
#X connect 8 0 0 2;
#X restore 710 133 pd xyz-dur_1;
#X obj 710 456 s durCtrl_1;
#X obj 534 455 s direction_1;
#X obj 294 455 s speedCtrl_1;
#X obj 751 20 r 1-y;
#X obj 791 20 r 1-z;
#X obj 710 104 abs;
#X obj 751 105 abs;
#X obj 791 104 abs;
#X obj 160 207 tgl 15 0 empty empty empty 17 7 0 10 -262144 -1 -1 0
1;
#X obj 848 153 tgl 15 0 empty empty empty 17 7 0 10 -262144 -1 -1 0
1;
#X floatatom 367 44 5 0 0 0 - - -;
#X obj 187 207 tgl 15 0 empty empty empty 17 7 0 10 -262144 -1 -1 1
1;
#X obj 424 365 j-got;
#X obj 294 365 j-got;
#X obj 160 164 t f f;
#X obj 187 227 t f f;
#X obj 160 227 t f;
#X obj 14 115 tgl 15 0 empty empty empty 17 7 0 10 -262144 -1 -1 0
1;
#X obj 14 165 tgl 15 0 empty empty empty 17 7 0 10 -262144 -1 -1 0
1;
#X obj 14 215 tgl 15 0 empty empty empty 17 7 0 10 -262144 -1 -1 0
1;
#X obj 14 265 tgl 15 0 empty empty empty 17 7 0 10 -262144 -1 -1 0
1;
#X obj 14 315 tgl 15 0 empty empty empty 17 7 0 10 -262144 -1 -1 0
1;
#X obj 187 185 itgl;
#X obj 160 140 tgl 15 0 empty empty break_up_to_down 17 7 0 10 -262144
-1 -1 0 1;
#X obj 912 97 tgl 15 0 empty empty dur*longer 17 7 0 10 -262144 -1
-1 0 1;
#X obj 838 253 tgl 15 0 empty empty empty 17 7 0 10 -262144 -1 -1 0
1;
#X obj 710 345 * 1;
#X obj 838 299 t b f;
#N canvas 685 402 504 496 dur_longer 0;
#X obj 38 18 inlet tgl;
#X obj 38 97 sel 1 0;
#X obj 38 151 line;
#X floatatom 58 397 5 0 0 0 - - -;
#X obj 38 293 expr $f1*$f1 *-1;
#X obj 38 273 - 1;
#X obj 38 315 + 1;
#X msg 38 119 1 500;
#X obj 148 273 expr $f1*$f1;
#X obj 38 173 t f f;
#X obj 38 235 j-got;
#X obj 148 235 j-got;
#X obj 207 205 itgl;
#X msg 98 119 0 250;
#X obj 38 66 t f f f;
#X obj 38 447 outlet multiplicationPropotion;
#X obj 279 250 loadbang;
#X msg 279 272 12;
#X floatatom 279 294 5 0 0 1 maximal - -;
#X obj 279 315 expr $f1 - 1;
#X obj 38 375 expr $f1 *$f2 +1;
#X floatatom 96 159 5 0 0 0 - - -;
#X connect 0 0 14 0;
#X connect 1 0 7 0;
#X connect 1 1 13 0;
#X connect 2 0 9 0;
#X connect 2 0 21 0;
#X connect 4 0 6 0;
#X connect 5 0 4 0;
#X connect 6 0 20 0;
#X connect 7 0 2 0;
#X connect 8 0 20 0;
#X connect 9 0 10 0;
#X connect 9 1 11 0;
#X connect 10 0 5 0;
#X connect 11 0 8 0;
#X connect 12 0 11 1;
#X connect 13 0 2 0;
#X connect 14 0 1 0;
#X connect 14 1 10 1;
#X connect 14 2 12 0;
#X connect 16 0 17 0;
#X connect 17 0 18 0;
#X connect 18 0 19 0;
#X connect 19 0 20 1;
#X connect 20 0 3 0;
#X connect 20 0 15 0;
#X restore 838 275 pd dur_longer;
#X floatatom 878 299 5 0 0 0 - - -;
#N canvas 321 356 450 300 spd_shorter 0;
#X obj 81 170 + 1;
#X obj 81 30 inlet;
#X obj 81 215 outlet;
#X obj 241 21 loadbang;
#X msg 241 53 5;
#X floatatom 241 85 5 0 0 0 - - -;
#X obj 241 106 expr $f1 -1;
#X obj 81 128 expr $f1*$f1 *$f2;
#X text 189 51 maximum;
#X text 112 168 minimum is always 1;
#X msg 271 53 3;
#X connect 0 0 2 0;
#X connect 1 0 7 0;
#X connect 3 0 4 0;
#X connect 4 0 5 0;
#X connect 5 0 6 0;
#X connect 6 0 7 1;
#X connect 7 0 0 0;
#X connect 10 0 5 0;
#X restore 294 213 pd spd_shorter;
#X floatatom 304 235 5 0 0 0 - - -;
#X floatatom 720 265 5 0 0 0 - - -;
#X floatatom 720 155 5 0 0 0 - - -;
#X obj 567 21 r metroBang_1;
#X floatatom 357 150 5 0 0 0 - - -;
#N canvas 1094 467 518 592 dir 0;
#X obj 267 418 f;
#X floatatom 277 440 5 0 0 0 - - -;
#X text 386 499 reverse;
#X obj 267 355 f;
#X floatatom 19 296 5 0 0 0 - - -;
#X obj 103 167 loadbang;
#X msg 103 192 -4;
#X obj 19 274 expr $f1 /$f2 -0.01;
#X msg 133 192 -3;
#X msg 163 192 -2;
#X msg 193 192 -1;
#X floatatom 103 214 5 0 0 0 - - -;
#X obj 267 500 outlet direction_1;
#X msg 297 355 1;
#X obj 267 110 f 0;
#X obj 267 132 + 1;
#X obj 267 296 sel 0 1;
#X obj 267 274 % 2;
#X obj 338 250 hsl 128 15 0 127 0 0 empty empty empty -2 -8 0 10 -262144
-1 -1 200 1;
#X floatatom 335 270 5 0 0 0 - - -;
#X obj 335 205 loadbang;
#X msg 335 227 2;
#X obj 267 54 inlet metroBang_1;
#X obj 103 236 t b f;
#X obj 19 54 inlet pitch;
#X msg 198 222 -0.5;
#X connect 0 0 1 0;
#X connect 0 0 12 0;
#X connect 3 0 0 0;
#X connect 5 0 6 0;
#X connect 6 0 11 0;
#X connect 7 0 4 0;
#X connect 7 0 3 1;
#X connect 8 0 11 0;
#X connect 9 0 11 0;
#X connect 10 0 11 0;
#X connect 11 0 23 0;
#X connect 13 0 0 0;
#X connect 14 0 15 0;
#X connect 15 0 14 1;
#X connect 15 0 17 0;
#X connect 16 0 3 0;
#X connect 16 1 13 0;
#X connect 17 0 16 0;
#X connect 18 0 17 1;
#X connect 18 0 19 0;
#X connect 20 0 21 0;
#X connect 21 0 18 0;
#X connect 22 0 14 0;
#X connect 23 0 7 0;
#X connect 23 1 7 1;
#X connect 24 0 7 0;
#X connect 25 0 11 0;
#X restore 534 242 pd dir;
#X floatatom 434 265 5 0 0 0 - - -;
#X floatatom 544 265 5 0 0 0 - - -;
#X obj 424 158 expr 1-$f1;
#X obj 424 180 expr $f1*$f1;
#X text 425 140 0-1 to 1-0;
#X obj 424 202 t f f;
#X obj 357 128 t f f;
#N canvas 349 481 371 512 spd 0;
#X obj 135 211 expr $f1 *$f2 + $f3;
#N canvas 1050 393 420 299 spd-change 0;
#X floatatom 99 125 5 0 0 2 max - -;
#X obj 99 27 loadbang;
#X obj 99 91 unpack;
#X floatatom 141 125 5 0 0 2 min - -;
#X text 155 26 spd: change it!;
#X obj 141 146 t f f;
#X obj 99 178 expr $f1-$f2;
#X floatatom 99 209 5 0 0 3 max - -;
#X floatatom 170 209 5 0 0 3 min - -;
#X msg 152 49 160 20;
#X msg 202 49 320 40;
#X obj 170 250 outlet min;
#X obj 99 251 outlet max;
#X msg 99 49 80 10;
#X obj 99 146 t f;
#X msg 262 49 127 10;
#X connect 0 0 14 0;
#X connect 1 0 13 0;
#X connect 2 0 0 0;
#X connect 2 1 3 0;
#X connect 3 0 5 0;
#X connect 5 0 8 0;
#X connect 5 1 6 1;
#X connect 6 0 7 0;
#X connect 7 0 12 0;
#X connect 8 0 11 0;
#X connect 9 0 2 0;
#X connect 10 0 2 0;
#X connect 13 0 2 0;
#X connect 14 0 6 0;
#X connect 15 0 2 0;
#X restore 190 151 pd spd-change;
#X obj 135 460 outlet speedCtrl_1;
#X obj 135 13 inlet pitch;
#X obj 190 173 t b f;
#X connect 0 0 2 0;
#X connect 1 0 4 0;
#X connect 1 1 0 2;
#X connect 3 0 0 0;
#X connect 4 0 0 0;
#X connect 4 1 0 1;
#X restore 424 243 pd spd;
#X obj 357 84 + 1;
#X obj 357 106 / 2;
#X obj 710 82 / 256;
#X obj 751 83 / 256;
#X obj 791 82 / 256;
#X floatatom 710 42 5 0 0 0 - - -;
#X floatatom 751 42 5 0 0 0 - - -;
#X floatatom 791 42 5 0 0 0 - - -;
#X msg 656 101 0;
#X obj 534 389 * 1;
#N canvas 1016 606 450 300 changeDir_test 0;
#X obj 114 97 sel 0 1;
#X obj 114 161 line;
#X obj 199 195 hsl 128 15 -1 1 0 0 empty empty empty -2 -8 0 10 -262144
-1 -1 12700 1;
#X msg 114 119 1 100;
#X msg 154 119 -1 100;
#X obj 85 51 inlet tgl;
#X obj 86 195 outlet -1or+1;
#X connect 0 0 3 0;
#X connect 0 1 4 0;
#X connect 1 0 2 0;
#X connect 1 0 6 0;
#X connect 3 0 1 0;
#X connect 4 0 1 0;
#X connect 5 0 0 0;
#X restore 558 355 pd changeDir_test;
#X obj 710 20 r 1-x;
#X obj 14 65 s switch_1;
#X obj 14 23 r \$1-b;
#X obj 14 93 r \$1-a;
#X obj 14 143 r \$1-up;
#X obj 14 193 r \$1-down;
#X obj 14 243 r \$1-left;
#X obj 14 293 r \$1-right;
#X obj 160 23 r \$1-a;
#X obj 357 22 r \$1-wP;
#X obj 912 20 r \$1-down;
#X obj 848 20 r \$1-b;
#X obj 294 420 j-got2 p\$1.tgl;
#X obj 534 420 j-got2 p\$1.tgl;
#X obj 710 420 j-got2 p\$1.tgl;
#N canvas 263 583 450 300 random_limiter_1 0;
#X obj 107 192 clip 0 700;
#X obj 134 127 rr 700 800;
#X obj 107 103 t f b;
#X floatatom 134 150 5 0 0 0 - - -;
#X obj 107 16 inlet;
#X obj 107 223 outlet limited_output;
#X floatatom 162 96 5 0 0 0 - - -;
#X floatatom 222 96 5 0 0 0 - - -;
#X obj 162 20 inlet min_max;
#X obj 162 42 unpack 0 0;
#X connect 0 0 5 0;
#X connect 1 0 3 0;
#X connect 1 0 0 2;
#X connect 2 0 0 0;
#X connect 2 1 1 0;
#X connect 4 0 2 0;
#X connect 6 0 1 1;
#X connect 7 0 1 2;
#X connect 8 0 9 0;
#X connect 9 0 6 0;
#X connect 9 1 7 0;
#X restore 710 393 pd random_limiter_1;
#X obj 845 365 loadbang;
#X msg 845 387 800 1000;
#X connect 0 0 60 0;
#X connect 0 0 12 0;
#X connect 1 0 29 0;
#X connect 1 0 35 0;
#X connect 2 0 36 0;
#X connect 2 0 1 0;
#X connect 6 0 54 0;
#X connect 6 0 50 0;
#X connect 6 0 51 0;
#X connect 7 0 55 0;
#X connect 7 0 52 0;
#X connect 8 0 2 0;
#X connect 9 0 2 1;
#X connect 10 0 2 2;
#X connect 11 0 19 0;
#X connect 12 0 1 1;
#X connect 14 0 18 0;
#X connect 15 0 71 0;
#X connect 16 0 71 0;
#X connect 17 0 11 0;
#X connect 17 1 25 0;
#X connect 18 0 15 1;
#X connect 19 0 16 1;
#X connect 23 0 58 0;
#X connect 25 0 14 0;
#X connect 26 0 17 0;
#X connect 27 0 28 0;
#X connect 28 0 31 0;
#X connect 29 0 74 0;
#X connect 30 0 29 0;
#X connect 30 1 29 1;
#X connect 30 1 32 0;
#X connect 31 0 30 0;
#X connect 33 0 16 0;
#X connect 33 0 34 0;
#X connect 37 0 39 1;
#X connect 39 0 41 0;
#X connect 39 0 57 0;
#X connect 42 0 43 0;
#X connect 43 0 45 0;
#X connect 45 0 47 0;
#X connect 45 1 39 0;
#X connect 46 0 33 0;
#X connect 46 0 38 0;
#X connect 46 1 42 0;
#X connect 47 0 40 0;
#X connect 47 0 15 0;
#X connect 48 0 49 0;
#X connect 49 0 46 0;
#X connect 50 0 8 0;
#X connect 51 0 9 0;
#X connect 52 0 10 0;
#X connect 56 0 50 0;
#X connect 56 0 51 0;
#X connect 56 0 52 0;
#X connect 57 0 72 0;
#X connect 58 0 57 1;
#X connect 59 0 53 0;
#X connect 61 0 0 0;
#X connect 62 0 20 0;
#X connect 63 0 21 0;
#X connect 64 0 22 0;
#X connect 65 0 23 0;
#X connect 66 0 24 0;
#X connect 67 0 26 0;
#X connect 68 0 13 0;
#X connect 68 0 48 0;
#X connect 69 0 27 0;
#X connect 70 0 12 0;
#X connect 71 0 5 0;
#X connect 72 0 4 0;
#X connect 73 0 3 0;
#X connect 74 0 73 0;
#X connect 75 0 76 0;
#X connect 76 0 74 1;
#X restore 10 29 pd rachet_1;
#N canvas 557 533 1037 515 rachet_2 0;
#X obj 13 39 tgl 15 0 empty empty empty 17 7 0 10 -262144 -1 -1 0 1
;
#X obj 13 64 s switch_2;
#X obj 13 118 tgl 15 0 empty empty empty 17 7 0 10 -262144 -1 -1 0
1;
#X obj 13 168 tgl 15 0 empty empty empty 17 7 0 10 -262144 -1 -1 0
1;
#X obj 13 218 tgl 15 0 empty empty empty 17 7 0 10 -262144 -1 -1 0
1;
#X obj 13 268 tgl 15 0 empty empty empty 17 7 0 10 -262144 -1 -1 0
1;
#X obj 13 318 tgl 15 0 empty empty empty 17 7 0 10 -262144 -1 -1 0
1;
#N canvas 390 61 372 497 dur_1 0;
#X obj 97 64 inlet;
#N canvas 1184 119 467 686 module_1 0;
#X floatatom 189 233 5 0 0 2 max - -;
#X obj 107 315 expr $f1*$f1*$f1;
#X obj 189 105 loadbang;
#X floatatom 117 419 5 0 0 0 - - -;
#X obj 107 397 expr $f1 *$f2 +$f3;
#X msg 189 127 127 1;
#X obj 189 179 unpack;
#X floatatom 249 233 5 0 0 2 min - -;
#X obj 249 254 t f f;
#X obj 229 317 expr $f1-$f2;
#X obj 189 254 t f b;
#X msg 232 126 500 200;
#X text 261 105 dur: change it!;
#X msg 292 126 1000 127;
#X floatatom 117 337 5 0 0 0 - - -;
#X floatatom 239 339 5 0 0 0 - - -;
#X obj 107 181 t f b;
#X obj 107 74 inlet;
#X obj 107 634 outlet;
#X connect 0 0 10 0;
#X connect 1 0 4 0;
#X connect 1 0 14 0;
#X connect 2 0 5 0;
#X connect 4 0 3 0;
#X connect 4 0 18 0;
#X connect 5 0 6 0;
#X connect 6 0 0 0;
#X connect 6 1 7 0;
#X connect 7 0 8 0;
#X connect 8 0 4 2;
#X connect 8 1 9 1;
#X connect 9 0 4 1;
#X connect 9 0 15 0;
#X connect 10 0 9 0;
#X connect 10 1 1 0;
#X connect 11 0 6 0;
#X connect 13 0 6 0;
#X connect 16 0 1 0;
#X connect 16 1 0 0;
#X connect 17 0 16 0;
#X restore 97 105 pd module_1;
#X floatatom 107 127 11 0 0 0 - - -;
#N canvas 263 583 450 300 random_limiter_1 0;
#X obj 107 192 clip 0 700;
#X obj 134 127 rr 700 800;
#X obj 107 103 t f b;
#X floatatom 134 150 5 0 0 0 - - -;
#X obj 107 56 inlet;
#X obj 107 223 outlet limited_output;
#X obj 162 74 inlet random_min;
#X obj 272 74 inlet random_max;
#X floatatom 162 96 5 0 0 0 - - -;
#X floatatom 272 96 5 0 0 0 - - -;
#X connect 0 0 5 0;
#X connect 1 0 3 0;
#X connect 1 0 0 2;
#X connect 2 0 0 0;
#X connect 2 1 1 0;
#X connect 4 0 2 0;
#X connect 6 0 8 0;
#X connect 7 0 9 0;
#X connect 8 0 1 1;
#X connect 9 0 1 2;
#X restore 117 345 pd random_limiter_1;
#N canvas 1094 83 562 917 attackCurve_1 0;
#X obj 315 353 line;
#X obj 348 596 tgl 15 0 empty empty empty 17 7 0 10 -262144 -1 -1 0
1;
#X obj 296 180 sel 1 0;
#X floatatom 325 255 5 0 0 3 release.time - -;
#X floatatom 235 255 5 0 0 3 attack.time - -;
#X obj 315 233 rr 70 150;
#X obj 57 763 * 1;
#X msg 315 311 0 \$1;
#X obj 334 690 del;
#X msg 225 311 1000 \$1;
#X obj 315 435 / 1000;
#X obj 315 665 t f b f;
#X obj 315 620 spigot;
#X obj 416 621 spigot;
#X obj 405 123 t f f f;
#X obj 449 591 tgl 15 0 empty empty empty 17 7 0 10 -262144 -1 -1 1
1;
#X obj 315 457 t f f;
#X obj 379 710 hsl 128 15 0 1 0 0 empty empty 0-1 -2 -8 0 10 -262144
-1 -1 0 1;
#X floatatom 376 730 5 0 0 0 - - -;
#X floatatom 325 375 11 0 0 0 - - -;
#X obj 225 233 rr 50 100;
#X obj 315 507 - 1;
#X obj 315 550 + 1;
#X obj 315 528 expr $f1*$f1*$f1*$f1 *-1;
#X obj 57 41 inlet;
#X obj 57 825 outlet curved_attack;
#X obj 405 41 inlet switch;
#X obj 449 569 jong-itgl;
#X connect 0 0 10 0;
#X connect 0 0 19 0;
#X connect 1 0 12 1;
#X connect 2 0 20 0;
#X connect 2 1 5 0;
#X connect 5 0 7 0;
#X connect 5 0 3 0;
#X connect 6 0 25 0;
#X connect 7 0 0 0;
#X connect 8 0 6 0;
#X connect 9 0 0 0;
#X connect 10 0 16 0;
#X connect 11 0 6 1;
#X connect 11 1 8 0;
#X connect 11 2 17 0;
#X connect 12 0 11 0;
#X connect 13 0 11 0;
#X connect 14 0 2 0;
#X connect 14 1 1 0;
#X connect 14 2 27 0;
#X connect 15 0 13 1;
#X connect 16 0 21 0;
#X connect 16 1 13 0;
#X connect 17 0 18 0;
#X connect 20 0 4 0;
#X connect 20 0 9 0;
#X connect 21 0 23 0;
#X connect 22 0 12 0;
#X connect 23 0 22 0;
#X connect 24 0 6 0;
#X connect 26 0 14 0;
#X connect 27 0 15 0;
#X restore 97 187 pd attackCurve_1;
#X obj 172 321 unpack 0 0;
#X obj 172 267 loadbang;
#X obj 97 410 outlet durCtrl_1;
#X obj 190 63 inlet switch_1;
#X msg 172 289 300 500;
#X connect 0 0 1 0;
#X connect 1 0 2 0;
#X connect 1 0 4 0;
#X connect 4 0 3 0;
#X connect 4 0 7 0;
#X connect 5 0 3 1;
#X connect 5 1 3 2;
#X connect 6 0 9 0;
#X connect 8 0 4 1;
#X connect 9 0 5 0;
#X restore 720 251 pd dur_1;
#N canvas 282 176 494 394 xyz-dur_1 0;
#X obj 117 167 pack f f f;
#X obj 117 189 sum;
#X obj 117 278 + 0.3;
#X obj 254 335 outlet;
#X obj 117 243 mavg 12;
#X floatatom 117 300 5 0 0 0 - - -;
#X obj 117 87 inlet x;
#X obj 177 88 inlet y;
#X obj 237 87 inlet z;
#X connect 0 0 1 0;
#X connect 1 0 4 0;
#X connect 2 0 5 0;
#X connect 2 0 3 0;
#X connect 4 0 2 0;
#X connect 6 0 0 0;
#X connect 7 0 0 1;
#X connect 8 0 0 2;
#X restore 720 141 pd xyz-dur_1;
#X obj 720 112 abs;
#X obj 761 113 abs;
#X obj 801 112 abs;
#X obj 170 217 tgl 15 0 empty empty empty 17 7 0 10 -262144 -1 -1 0
1;
#X obj 858 161 tgl 15 0 empty empty empty 17 7 0 10 -262144 -1 -1 0
1;
#X floatatom 368 54 5 0 0 0 - - -;
#X obj 197 217 tgl 15 0 empty empty empty 17 7 0 10 -262144 -1 -1 1
1;
#X obj 294 375 j-got;
#X obj 170 174 t f f;
#X obj 197 237 t f f;
#X obj 170 237 t f;
#X obj 357 138 t f f;
#X obj 197 195 itgl;
#X obj 170 150 tgl 15 0 empty empty break_up_to_down 17 7 0 10 -262144
-1 -1 0 1;
#X obj 920 106 tgl 15 0 empty empty dur*longer 17 7 0 10 -262144 -1
-1 0 1;
#X obj 848 261 tgl 15 0 empty empty empty 17 7 0 10 -262144 -1 -1 0
1;
#X obj 720 343 * 1;
#X obj 848 307 t b f;
#N canvas 685 402 504 496 dur_longer 0;
#X obj 38 18 inlet tgl;
#X obj 38 97 sel 1 0;
#X obj 38 151 line;
#X floatatom 58 397 5 0 0 0 - - -;
#X obj 38 293 expr $f1*$f1 *-1;
#X obj 38 273 - 1;
#X obj 38 315 + 1;
#X msg 38 119 1 500;
#X obj 148 273 expr $f1*$f1;
#X obj 38 173 t f f;
#X obj 38 235 j-got;
#X obj 148 235 j-got;
#X obj 207 205 itgl;
#X msg 98 119 0 250;
#X obj 38 66 t f f f;
#X obj 38 447 outlet multiplicationPropotion;
#X obj 279 250 loadbang;
#X msg 279 272 12;
#X floatatom 279 294 5 0 0 1 maximal - -;
#X obj 279 315 expr $f1 - 1;
#X obj 38 375 expr $f1 *$f2 +1;
#X connect 0 0 14 0;
#X connect 1 0 7 0;
#X connect 1 1 13 0;
#X connect 2 0 9 0;
#X connect 4 0 6 0;
#X connect 5 0 4 0;
#X connect 6 0 20 0;
#X connect 7 0 2 0;
#X connect 8 0 20 0;
#X connect 9 0 10 0;
#X connect 9 1 11 0;
#X connect 10 0 5 0;
#X connect 11 0 8 0;
#X connect 12 0 11 1;
#X connect 13 0 2 0;
#X connect 14 0 1 0;
#X connect 14 1 10 1;
#X connect 14 2 12 0;
#X connect 16 0 17 0;
#X connect 17 0 18 0;
#X connect 18 0 19 0;
#X connect 19 0 20 1;
#X connect 20 0 3 0;
#X connect 20 0 15 0;
#X restore 848 283 pd dur_longer;
#X floatatom 888 307 5 0 0 0 - - -;
#X obj 720 28 r 1-x2;
#X obj 761 28 r 1-y2;
#X obj 801 28 r 1-z2;
#X obj 294 465 s speedCtrl_2;
#X obj 544 465 s direction_2;
#X obj 720 464 s durCtrl_2;
#N canvas 321 356 450 300 spd_shorter 0;
#X obj 81 170 + 1;
#X obj 81 30 inlet;
#X obj 81 215 outlet;
#X obj 241 21 loadbang;
#X msg 241 53 5;
#X floatatom 241 85 5 0 0 0 - - -;
#X obj 241 106 expr $f1 -1;
#X obj 81 128 expr $f1*$f1 *$f2;
#X text 189 51 maximum;
#X text 112 168 minimum is always 1;
#X msg 271 53 10;
#X connect 0 0 2 0;
#X connect 1 0 7 0;
#X connect 3 0 4 0;
#X connect 4 0 5 0;
#X connect 5 0 6 0;
#X connect 6 0 7 1;
#X connect 7 0 0 0;
#X connect 10 0 5 0;
#X restore 294 223 pd spd_shorter;
#X floatatom 304 245 5 0 0 0 - - -;
#X floatatom 730 273 5 0 0 0 - - -;
#X floatatom 730 163 5 0 0 0 - - -;
#X obj 577 32 r metroBang_2;
#X obj 424 375 j-got;
#N canvas 1116 296 518 592 dir 0;
#X obj 267 418 f;
#X floatatom 277 440 5 0 0 0 - - -;
#X text 386 499 reverse;
#X obj 267 385 f;
#X floatatom 19 296 5 0 0 0 - - -;
#X obj 103 167 loadbang;
#X msg 103 192 -4;
#X obj 19 274 expr $f1 /$f2 -0.01;
#X msg 133 192 -3;
#X msg 163 192 -2;
#X msg 193 192 -1;
#X floatatom 103 214 5 0 0 0 - - -;
#X obj 267 500 outlet direction_1;
#X msg 297 385 1;
#X obj 267 110 f 0;
#X obj 267 132 + 1;
#X obj 267 296 sel 0 1;
#X obj 267 274 % 2;
#X obj 338 250 hsl 128 15 0 127 0 0 empty empty empty -2 -8 0 10 -262144
-1 -1 200 1;
#X floatatom 335 270 5 0 0 0 - - -;
#X obj 335 205 loadbang;
#X msg 335 227 2;
#X obj 267 54 inlet metroBang_1;
#X obj 103 236 t b f;
#X obj 19 54 inlet pitch;
#X connect 0 0 1 0;
#X connect 0 0 12 0;
#X connect 3 0 0 0;
#X connect 5 0 6 0;
#X connect 6 0 11 0;
#X connect 7 0 4 0;
#X connect 7 0 3 1;
#X connect 8 0 11 0;
#X connect 9 0 11 0;
#X connect 10 0 11 0;
#X connect 11 0 23 0;
#X connect 13 0 0 0;
#X connect 14 0 15 0;
#X connect 15 0 14 1;
#X connect 15 0 17 0;
#X connect 16 0 3 0;
#X connect 16 1 13 0;
#X connect 17 0 16 0;
#X connect 18 0 17 1;
#X connect 18 0 19 0;
#X connect 20 0 21 0;
#X connect 21 0 18 0;
#X connect 22 0 14 0;
#X connect 23 0 7 0;
#X connect 23 1 7 1;
#X connect 24 0 7 0;
#X restore 544 252 pd dir;
#X floatatom 434 275 5 0 0 0 - - -;
#X floatatom 554 275 5 0 0 0 - - -;
#X obj 424 168 expr 1-$f1;
#X obj 424 190 expr $f1*$f1;
#X text 425 150 0-1 to 1-0;
#X obj 424 212 t f f;
#N canvas 349 481 371 512 spd 0;
#X obj 150 368 metro 33;
#X obj 150 327 tgl 15 0 empty empty empty 17 7 0 10 -262144 -1 -1 1
1;
#X obj 135 211 expr $f1 *$f2 + $f3;
#X obj 150 303 r p1.tgl;
#N canvas 1050 393 420 299 spd-change 0;
#X floatatom 99 105 5 0 0 2 max - -;
#X obj 99 27 loadbang;
#X obj 99 71 unpack;
#X floatatom 141 105 5 0 0 2 min - -;
#X text 155 26 spd: change it!;
#X obj 141 126 t f f;
#X obj 99 158 expr $f1-$f2;
#X floatatom 99 189 5 0 0 3 max - -;
#X floatatom 170 189 5 0 0 3 min - -;
#X msg 152 49 160 20;
#X msg 202 49 320 40;
#X obj 170 250 outlet min;
#X obj 99 251 outlet max;
#X msg 99 49 80 10;
#X obj 99 126 t f;
#X connect 0 0 14 0;
#X connect 1 0 13 0;
#X connect 2 0 0 0;
#X connect 2 1 3 0;
#X connect 3 0 5 0;
#X connect 5 0 8 0;
#X connect 5 1 6 1;
#X connect 6 0 7 0;
#X connect 7 0 12 0;
#X connect 8 0 11 0;
#X connect 9 0 2 0;
#X connect 10 0 2 0;
#X connect 13 0 2 0;
#X connect 14 0 6 0;
#X restore 190 151 pd spd-change;
#X obj 135 262 t f f;
#X obj 135 460 outlet speedCtrl_1;
#X text 161 344 remove it;
#X obj 135 13 inlet pitch;
#X obj 190 173 t b f;
#X connect 1 0 0 0;
#X connect 2 0 5 0;
#X connect 3 0 1 0;
#X connect 4 0 9 0;
#X connect 4 1 2 2;
#X connect 5 0 6 0;
#X connect 5 1 0 1;
#X connect 8 0 2 0;
#X connect 9 0 2 0;
#X connect 9 1 2 1;
#X restore 424 253 pd spd;
#X obj 357 94 + 1;
#X obj 357 116 / 2;
#X obj 720 90 / 1;
#X obj 761 91 / 1;
#X obj 801 90 / 1;
#X obj 13 17 r \$1-b2;
#X obj 11 95 r \$1-a2;
#X obj 13 146 r \$1-up2;
#X obj 13 196 r \$1-down2;
#X obj 13 246 r \$1-left2;
#X obj 13 296 r \$1-right2;
#X obj 170 33 r \$1-a2;
#X obj 357 32 r \$1-wP2;
#X obj 858 28 r \$1-b2;
#X obj 920 29 r \$1-down2;
#X obj 294 430 j-got2 p\$1.tgl;
#X obj 544 430 j-got2 p\$1.tgl;
#X obj 720 430 j-got2 p\$1.tgl;
#X obj 544 389 * 1;
#N canvas 1016 606 450 300 changeDir_test 0;
#X obj 114 97 sel 0 1;
#X obj 114 161 line;
#X obj 199 195 hsl 128 15 -1 1 0 0 empty empty empty -2 -8 0 10 -262144
-1 -1 0 1;
#X msg 114 119 1 100;
#X msg 154 119 -1 100;
#X obj 85 51 inlet tgl;
#X obj 86 195 outlet -1or+1;
#X connect 0 0 3 0;
#X connect 0 1 4 0;
#X connect 1 0 2 0;
#X connect 1 0 6 0;
#X connect 3 0 1 0;
#X connect 4 0 1 0;
#X connect 5 0 0 0;
#X restore 568 355 pd changeDir_test;
#N canvas 263 583 450 300 random_limiter_1 0;
#X obj 107 192 clip 0 700;
#X obj 134 127 rr 700 800;
#X obj 107 103 t f b;
#X floatatom 134 150 5 0 0 0 - - -;
#X obj 107 16 inlet;
#X obj 107 223 outlet limited_output;
#X floatatom 162 96 5 0 0 0 - - -;
#X floatatom 222 96 5 0 0 0 - - -;
#X obj 162 20 inlet min_max;
#X obj 162 42 unpack 0 0;
#X connect 0 0 5 0;
#X connect 1 0 3 0;
#X connect 1 0 0 2;
#X connect 2 0 0 0;
#X connect 2 1 1 0;
#X connect 4 0 2 0;
#X connect 6 0 1 1;
#X connect 7 0 1 2;
#X connect 8 0 9 0;
#X connect 9 0 6 0;
#X connect 9 1 7 0;
#X restore 720 393 pd random_limiter_1;
#X obj 855 365 loadbang;
#X msg 855 387 800 1000;
#X connect 0 0 1 0;
#X connect 5 0 68 0;
#X connect 7 0 25 0;
#X connect 7 0 37 0;
#X connect 8 0 7 0;
#X connect 8 0 38 0;
#X connect 9 0 8 0;
#X connect 10 0 8 1;
#X connect 11 0 8 2;
#X connect 12 0 19 0;
#X connect 13 0 7 1;
#X connect 15 0 18 0;
#X connect 16 0 64 0;
#X connect 17 0 12 0;
#X connect 17 1 21 0;
#X connect 18 0 40 1;
#X connect 19 0 16 1;
#X connect 20 0 35 0;
#X connect 20 1 44 0;
#X connect 21 0 15 0;
#X connect 22 0 17 0;
#X connect 23 0 24 0;
#X connect 24 0 27 0;
#X connect 25 0 69 0;
#X connect 26 0 25 0;
#X connect 26 1 25 1;
#X connect 26 1 28 0;
#X connect 27 0 26 0;
#X connect 30 0 52 0;
#X connect 30 0 51 0;
#X connect 31 0 53 0;
#X connect 35 0 16 0;
#X connect 35 0 36 0;
#X connect 39 0 41 1;
#X connect 40 0 64 0;
#X connect 41 0 43 0;
#X connect 41 0 67 0;
#X connect 44 0 45 0;
#X connect 45 0 47 0;
#X connect 47 0 48 0;
#X connect 47 1 41 0;
#X connect 48 0 42 0;
#X connect 48 0 40 0;
#X connect 49 0 50 0;
#X connect 50 0 20 0;
#X connect 51 0 9 0;
#X connect 52 0 10 0;
#X connect 53 0 11 0;
#X connect 54 0 0 0;
#X connect 55 0 2 0;
#X connect 56 0 3 0;
#X connect 57 0 4 0;
#X connect 58 0 5 0;
#X connect 59 0 6 0;
#X connect 60 0 22 0;
#X connect 61 0 14 0;
#X connect 61 0 49 0;
#X connect 62 0 13 0;
#X connect 63 0 23 0;
#X connect 64 0 32 0;
#X connect 65 0 33 0;
#X connect 66 0 34 0;
#X connect 67 0 65 0;
#X connect 68 0 67 1;
#X connect 69 0 66 0;
#X connect 70 0 71 0;
#X connect 71 0 69 1;
#X restore 10 49 pd rachet_2;
#X obj 165 31 bng 15 250 50 0 empty empty empty 17 7 0 10 -262144 -1
-1;
#X obj 235 51 s \$0-reload;
#X obj 235 31 bng 15 250 50 0 empty empty empty 17 7 0 10 -262144 -1
-1;
#N canvas 342 420 1330 473 init_2 1;
#X obj 28 25 inlet;
#X obj 28 47 bng 15 250 50 0 empty empty empty 17 7 0 10 -262144 -1
-1;
#X msg 28 299 0;
#X obj 28 354 s pitchCtrl_1;
#X obj 118 354 s pitchCtrl_2;
#X msg 648 289 0;
#X obj 648 311 tgl 15 0 empty empty empty 17 7 0 10 -262144 -1 -1 0
1;
#X obj 648 353 s \$1-a;
#X obj 698 353 s \$1-a2;
#X msg 758 289 0;
#X obj 758 311 tgl 15 0 empty empty empty 17 7 0 10 -262144 -1 -1 0
1;
#X obj 758 353 s \$1-down;
#X obj 828 353 s \$1-down2;
#X msg 905 289 0;
#X obj 905 311 tgl 15 0 empty empty empty 17 7 0 10 -262144 -1 -1 0
1;
#X obj 905 353 s \$1-b;
#X obj 955 353 s \$1-b2;
#X symbolatom 242 357 10 0 0 0 - - -;
#X floatatom 312 357 11 0 0 0 - - -;
#X symbolatom 412 357 10 0 0 0 - - -;
#X floatatom 482 357 11 0 0 0 - - -;
#X obj 242 335 setRange range_1 43648;
#X obj 28 219 t b b;
#X obj 28 189 bng 15 250 50 0 empty empty granular_init 17 7 0 10 -262144
-1 -1;
#X obj 648 189 bng 15 250 50 0 empty empty button_reset 17 7 0 10 -262144
-1 -1;
#X obj 242 219 t b b;
#X obj 648 219 t b b b;
#X obj 1078 189 bng 15 250 50 0 empty empty panning 17 7 0 10 -262144
-1 -1;
#X msg 1078 266 0.05 0.95;
#X obj 1078 353 s fileArray1.pan;
#X obj 1188 353 s fileArray2.pan;
#X obj 1078 308 unpack f f;
#X obj 1078 219 t b;
#X text 137 23 p.no2.rachet;
#X obj 28 67 t bang bang bang bang;
#X obj 200 41 f \$1;
#X obj 200 65 print -------------- program:;
#X obj 88 301 print p2.pitchCtrl:;
#X obj 412 335 setRange range_2 44828;
#X connect 0 0 1 0;
#X connect 1 0 34 0;
#X connect 2 0 3 0;
#X connect 2 0 4 0;
#X connect 2 0 37 0;
#X connect 5 0 6 0;
#X connect 6 0 7 0;
#X connect 6 0 8 0;
#X connect 9 0 10 0;
#X connect 10 0 11 0;
#X connect 10 0 12 0;
#X connect 13 0 14 0;
#X connect 14 0 15 0;
#X connect 14 0 16 0;
#X connect 21 0 17 0;
#X connect 21 1 18 0;
#X connect 22 0 2 0;
#X connect 22 1 25 0;
#X connect 23 0 22 0;
#X connect 24 0 26 0;
#X connect 25 0 21 0;
#X connect 25 1 38 0;
#X connect 26 0 5 0;
#X connect 26 1 9 0;
#X connect 26 2 13 0;
#X connect 27 0 32 0;
#X connect 28 0 31 0;
#X connect 31 0 29 0;
#X connect 31 1 30 0;
#X connect 32 0 28 0;
#X connect 34 0 23 0;
#X connect 34 1 24 0;
#X connect 34 2 27 0;
#X connect 34 3 35 0;
#X connect 35 0 36 0;
#X connect 38 0 19 0;
#X connect 38 1 20 0;
#X restore 165 51 pd init_2;
#X obj 91 8 r p\$1.tgl;
#X obj 91 49 sel 1;
#X obj 151 8 r \$1-home;
#X connect 3 0 6 0;
#X connect 5 0 4 0;
#X connect 7 0 8 0;
#X connect 8 0 3 0;
#X connect 8 0 5 0;
#X connect 9 0 8 0;
