#N canvas 1264 534 417 80 10;
#X obj 11 7 tgl 15 0 p\$1.tgl p\$1.tgl p\$1.tgl 17 7 0 10 -262144 -1
-1 1 1;
#N canvas 426 44 1191 715 rand_1 0;
#X obj 14 45 tgl 15 0 empty empty empty 17 7 0 10 -262144 -1 -1 0 1
;
#X obj 74 23 s switch_1;
#X obj 214 45 tgl 15 0 empty empty empty 17 7 0 10 -262144 -1 -1 0
1;
#X obj 274 45 tgl 15 0 empty empty empty 17 7 0 10 -262144 -1 -1 0
1;
#X obj 344 45 tgl 15 0 empty empty empty 17 7 0 10 -262144 -1 -1 0
1;
#X obj 414 45 tgl 15 0 empty empty empty 17 7 0 10 -262144 -1 -1 0
1;
#X obj 14 23 r \$1-b;
#X obj 214 23 r \$1-up;
#X obj 274 23 r \$1-down;
#X obj 344 23 r \$1-left;
#X obj 414 23 r \$1-right;
#X obj 154 45 tgl 15 0 empty empty empty 17 7 0 10 -262144 -1 -1 0
1;
#X obj 154 23 r \$1-a;
#X obj 374 315 tgl 15 0 empty empty empty 17 7 0 10 -262144 -1 -1 1
1;
#X obj 374 93 r \$1-a;
#X obj 166 647 s speedCtrl_1;
#X obj 166 587 j-got;
#X obj 68 465 tgl 15 0 empty empty empty 17 7 0 10 -262144 -1 -1 0
1;
#X obj 68 103 r \$1-b;
#X obj 166 618 j-got2 p\$1.tgl;
#X obj 394 587 j-got;
#X obj 394 618 j-got2 p\$1.tgl;
#X obj 394 647 s durCtrl_1;
#X obj 574 587 j-got;
#X obj 574 618 j-got2 p\$1.tgl;
#X obj 574 647 s range_1;
#X obj 824 647 s direction_1;
#X obj 824 587 j-got;
#X obj 824 618 j-got2 p\$1.tgl;
#X obj 824 540 f;
#X msg 727 622 1;
#X obj 700 298 tgl 15 0 empty empty empty 17 7 0 10 -262144 -1 -1 0
1;
#X obj 1003 90 r \$1-mP.velo;
#X obj 1083 90 r \$1-mY.velo;
#X obj 923 213 * 127;
#X floatatom 923 235 5 0 0 0 - - -;
#X obj 923 91 r \$1-wAcc;
#X obj 923 188 +;
#X obj 1003 112 abs;
#X obj 1083 112 abs;
#X obj 166 103 r \$1-mP;
#X obj 374 285 itgl;
#X obj 443 92 r \$1-mR;
#X obj 443 311 j-got;
#X msg 368 441 127;
#X obj 797 481 sel 1;
#X msg 797 505 1;
#X obj 844 481 sel 1;
#X obj 502 283 tgl 15 0 empty empty empty 17 7 0 10 -262144 -1 -1 0
1;
#X msg 844 506 0.8;
#X obj 923 113 mavg 4;
#X obj 727 599 bng 15 250 50 0 empty empty empty 17 7 0 10 -262144
-1 -1;
#X obj 368 408 sel 1;
#X obj 923 160 pack f f f;
#X obj 263 129 loadbang;
#X msg 263 156 127 0;
#N canvas 135 519 454 386 spdCtrl+MaxMinRange 0;
#X obj 67 41 inlet pitch;
#X obj 64 343 outlet spd;
#X obj 67 104 expr ($f1+1)/2;
#X obj 67 136 expr 1-$f1;
#X obj 67 196 expr $f1*$f1;
#X floatatom 77 270 5 0 0 0 - - -;
#X obj 228 151 t a;
#X floatatom 228 213 5 0 0 0 - - -;
#X floatatom 285 214 5 0 0 0 - - -;
#X obj 67 248 expr ($f1 *$f2) +$f3;
#X obj 228 85 inlet MaxMin:list;
#X obj 228 181 MaxMin;
#X connect 0 0 2 0;
#X connect 2 0 3 0;
#X connect 3 0 4 0;
#X connect 4 0 9 0;
#X connect 6 0 11 0;
#X connect 7 0 9 1;
#X connect 8 0 9 2;
#X connect 9 0 5 0;
#X connect 9 0 1 0;
#X connect 10 0 6 0;
#X connect 11 0 7 0;
#X connect 11 1 8 0;
#X restore 166 192 pd spdCtrl+MaxMinRange;
#N canvas 75 475 438 348 durCtrl+MaxMinRange 0;
#X obj 53 43 inlet;
#X obj 53 275 outlet;
#X text 79 103 max:137 \, min: 10;
#X obj 63 128 expr ($f1+1)/2;
#X obj 241 116 MaxMin;
#X floatatom 241 138 5 0 0 0 - - -;
#X floatatom 281 138 5 0 0 0 - - -;
#X obj 63 190 expr ($f1 *$f2) +$f3;
#X floatatom 73 212 5 0 0 0 - - -;
#X obj 242 51 inlet maxMin;
#X connect 0 0 3 0;
#X connect 3 0 7 0;
#X connect 4 0 5 0;
#X connect 4 1 6 0;
#X connect 5 0 7 1;
#X connect 6 0 7 2;
#X connect 7 0 1 0;
#X connect 7 0 8 0;
#X connect 9 0 4 0;
#X restore 443 189 pd durCtrl+MaxMinRange;
#X floatatom 176 214 5 0 0 0 - - -;
#X msg 536 156 127 10;
#X obj 536 129 loadbang;
#X floatatom 453 211 5 0 0 0 - - -;
#N canvas 632 414 705 592 randomGenerator 0;
#X obj 210 118 tgl 15 0 empty empty empty 17 7 0 10 -262144 -1 -1 0
1;
#X obj 212 168 bng 15 250 50 0 empty empty empty 17 7 0 10 -262144
-1 -1;
#X obj 212 188 f 0;
#X obj 212 210 + 1;
#X obj 212 399 line;
#X obj 212 254 sel 0 1 2 3 4 5;
#X obj 212 232 % 6;
#X msg 242 346 23971 55;
#X msg 212 306 1557 55;
#X msg 292 306 41666 55;
#X msg 322 346 69979 55;
#X msg 382 306 93573 55;
#X msg 412 346 126605 55;
#X obj 212 146 metro 1000;
#N canvas 942 512 477 486 randPeakPosition 0;
#X obj 24 137 unpack float float float float float flaot;
#X floatatom 361 127 5 0 0 0 - - -;
#X obj 24 259 pack f f;
#X msg 24 281 set \$1 \$2;
#X obj 24 443 outlet;
#X obj 74 443 outlet;
#X obj 124 443 outlet;
#X obj 174 443 outlet;
#X obj 224 443 outlet;
#X obj 274 443 outlet;
#X obj 74 309 pack f f;
#X msg 74 331 set \$1 \$2;
#X obj 124 359 pack f f;
#X msg 124 381 set \$1 \$2;
#X obj 174 179 pack f f;
#X msg 174 201 set \$1 \$2;
#X obj 224 229 pack f f;
#X msg 224 251 set \$1 \$2;
#X obj 274 279 pack f f;
#X msg 274 301 set \$1 \$2;
#X obj 24 37 t a b;
#X obj 24 15 inlet randPeaks;
#X msg 361 105 55;
#X connect 0 0 2 0;
#X connect 0 1 10 0;
#X connect 0 2 12 0;
#X connect 0 3 14 0;
#X connect 0 4 16 0;
#X connect 0 5 18 0;
#X connect 1 0 2 1;
#X connect 1 0 10 1;
#X connect 1 0 12 1;
#X connect 1 0 14 1;
#X connect 1 0 16 1;
#X connect 1 0 18 1;
#X connect 2 0 3 0;
#X connect 3 0 4 0;
#X connect 10 0 11 0;
#X connect 11 0 5 0;
#X connect 12 0 13 0;
#X connect 13 0 6 0;
#X connect 14 0 15 0;
#X connect 15 0 7 0;
#X connect 16 0 17 0;
#X connect 17 0 8 0;
#X connect 18 0 19 0;
#X connect 19 0 9 0;
#X connect 20 0 0 0;
#X connect 20 1 22 0;
#X connect 21 0 20 0;
#X connect 22 0 1 0;
#X restore 354 182 pd randPeakPosition;
#X obj 56 49 inlet tgl;
#X obj 146 485 outlet linedRange;
#X floatatom 222 421 11 0 0 0 - - -;
#X obj 354 45 inlet \$0-randPeaks;
#X obj 505 44 inlet metroSpd;
#X floatatom 535 76 5 0 0 0 - - -;
#X connect 0 0 13 0;
#X connect 1 0 2 0;
#X connect 2 0 3 0;
#X connect 3 0 2 1;
#X connect 3 0 6 0;
#X connect 4 0 16 0;
#X connect 4 0 17 0;
#X connect 5 0 8 0;
#X connect 5 1 7 0;
#X connect 5 2 9 0;
#X connect 5 3 10 0;
#X connect 5 4 11 0;
#X connect 5 5 12 0;
#X connect 6 0 5 0;
#X connect 7 0 4 0;
#X connect 8 0 4 0;
#X connect 9 0 4 0;
#X connect 10 0 4 0;
#X connect 11 0 4 0;
#X connect 12 0 4 0;
#X connect 13 0 1 0;
#X connect 14 0 8 0;
#X connect 14 1 7 0;
#X connect 14 2 9 0;
#X connect 14 3 10 0;
#X connect 14 4 11 0;
#X connect 14 5 12 0;
#X connect 15 0 0 0;
#X connect 18 0 14 0;
#X connect 19 0 13 1;
#X connect 19 0 20 0;
#X restore 700 326 pd randomGenerator;
#X floatatom 710 358 11 0 0 0 - - -;
#X obj 374 205 tgl 15 0 empty empty empty 17 7 0 10 -262144 -1 -1 0
1;
#X obj 727 575 r \$0-reload;
#X obj 190 153 bng 15 250 50 0 empty empty empty 17 7 0 10 -262144
-1 -1;
#X obj 190 129 r \$0-reload;
#X obj 460 153 bng 15 250 50 0 empty empty empty 17 7 0 10 -262144
-1 -1;
#X obj 460 129 r \$0-reload;
#X obj 200 285 expr 127-$f1;
#X floatatom 220 308 5 0 0 0 - - -;
#X obj 96 353 j-got;
#X obj 226 353 j-got;
#X obj 155 285 itgl;
#X obj 36 219 expr $f1 *$f2 +$f3;
#X msg 108 169 10 5;
#X obj 108 191 MaxMin;
#X floatatom 36 241 5 0 0 0 - - -;
#X obj 752 92 r \$0-randPeaks_1;
#X obj 772 124 print p3.ramdomPeaks_1:;
#X obj 984 647 s fileArray1.pan;
#X obj 984 618 j-got2 p\$1.tgl;
#X obj 984 391 sel 1 0;
#X obj 1056 370 f;
#X obj 1056 392 expr ($f1+1)/2;
#X floatatom 1076 414 5 0 0 1 mR - -;
#X msg 1044 453 0.4;
#X obj 984 453 f;
#X obj 984 539 f;
#X text 990 371 \$1-a;
#X obj 984 587 j-got;
#X obj 942 461 t f f;
#X obj 942 433 tgl 15 0 empty empty a 17 7 0 10 -262144 -1 -1 0 1;
#X connect 0 0 1 0;
#X connect 3 0 73 1;
#X connect 3 0 74 0;
#X connect 6 0 0 0;
#X connect 7 0 2 0;
#X connect 8 0 3 0;
#X connect 9 0 4 0;
#X connect 10 0 5 0;
#X connect 12 0 11 0;
#X connect 13 0 16 1;
#X connect 13 0 23 1;
#X connect 13 0 45 0;
#X connect 13 0 52 0;
#X connect 14 0 64 0;
#X connect 16 0 19 0;
#X connect 17 0 31 0;
#X connect 17 0 20 1;
#X connect 17 0 27 1;
#X connect 18 0 17 0;
#X connect 19 0 15 0;
#X connect 20 0 21 0;
#X connect 21 0 22 0;
#X connect 23 0 24 0;
#X connect 24 0 25 0;
#X connect 27 0 28 0;
#X connect 28 0 26 0;
#X connect 29 0 27 0;
#X connect 30 0 26 0;
#X connect 31 0 62 0;
#X connect 32 0 38 0;
#X connect 33 0 39 0;
#X connect 34 0 35 0;
#X connect 34 0 62 2;
#X connect 36 0 50 0;
#X connect 37 0 34 0;
#X connect 38 0 53 1;
#X connect 39 0 53 2;
#X connect 40 0 56 0;
#X connect 40 0 75 0;
#X connect 41 0 13 0;
#X connect 42 0 57 0;
#X connect 42 0 84 0;
#X connect 43 0 20 0;
#X connect 44 0 20 0;
#X connect 45 0 46 0;
#X connect 46 0 29 0;
#X connect 47 0 49 0;
#X connect 48 0 43 1;
#X connect 48 0 47 0;
#X connect 49 0 29 0;
#X connect 50 0 53 0;
#X connect 51 0 30 0;
#X connect 52 0 44 0;
#X connect 53 0 37 0;
#X connect 54 0 55 0;
#X connect 55 0 56 1;
#X connect 56 0 58 0;
#X connect 56 0 70 0;
#X connect 56 0 72 0;
#X connect 57 0 43 0;
#X connect 57 0 61 0;
#X connect 59 0 57 1;
#X connect 60 0 59 0;
#X connect 62 0 23 0;
#X connect 62 0 63 0;
#X connect 64 0 48 0;
#X connect 64 0 41 0;
#X connect 64 0 93 0;
#X connect 65 0 51 0;
#X connect 66 0 55 0;
#X connect 67 0 66 0;
#X connect 68 0 59 0;
#X connect 69 0 68 0;
#X connect 70 0 71 0;
#X connect 70 0 73 0;
#X connect 72 0 16 0;
#X connect 73 0 16 0;
#X connect 74 0 72 1;
#X connect 75 0 78 0;
#X connect 76 0 77 0;
#X connect 77 0 75 1;
#X connect 77 1 75 2;
#X connect 79 0 62 1;
#X connect 79 0 80 0;
#X connect 82 0 81 0;
#X connect 83 0 88 0;
#X connect 83 1 87 0;
#X connect 84 0 85 0;
#X connect 85 0 86 0;
#X connect 85 0 88 0;
#X connect 87 0 82 0;
#X connect 88 0 89 0;
#X connect 89 0 91 0;
#X connect 91 0 82 0;
#X connect 92 0 83 0;
#X connect 92 1 91 1;
#X connect 93 0 92 0;
#X restore 11 27 pd rand_1;
#N canvas 426 274 1241 725 rand_2 1;
#X obj 14 45 tgl 15 0 empty empty empty 17 7 0 10 -262144 -1 -1 0 1
;
#X obj 154 45 tgl 15 0 empty empty empty 17 7 0 10 -262144 -1 -1 0
1;
#X obj 204 45 tgl 15 0 empty empty empty 17 7 0 10 -262144 -1 -1 0
1;
#X obj 264 45 tgl 15 0 empty empty empty 17 7 0 10 -262144 -1 -1 0
1;
#X obj 334 45 tgl 15 0 empty empty empty 17 7 0 10 -262144 -1 -1 0
1;
#X obj 404 45 tgl 15 0 empty empty empty 17 7 0 10 -262144 -1 -1 0
1;
#X obj 74 23 s switch_2;
#X obj 14 23 r \$1-b2;
#X obj 154 23 r \$1-a2;
#X obj 204 23 r \$1-up2;
#X obj 264 23 r \$1-down2;
#X obj 334 23 r \$1-left2;
#X obj 404 23 r \$1-right2;
#X obj 374 315 tgl 15 0 empty empty empty 17 7 0 10 -262144 -1 -1 1
1;
#X obj 164 587 j-got;
#X obj 68 465 tgl 15 0 empty empty empty 17 7 0 10 -262144 -1 -1 0
1;
#X obj 164 618 j-got2 p\$1.tgl;
#X obj 394 587 j-got;
#X obj 394 618 j-got2 p\$1.tgl;
#X obj 574 587 j-got;
#X obj 574 618 j-got2 p\$1.tgl;
#X obj 804 587 j-got;
#X obj 804 618 j-got2 p\$1.tgl;
#X obj 804 540 f;
#X msg 717 612 1;
#X obj 700 298 tgl 15 0 empty empty empty 17 7 0 10 -262144 -1 -1 0
1;
#X obj 923 213 * 127;
#X floatatom 923 235 5 0 0 0 - - -;
#X obj 923 188 +;
#X obj 1003 112 abs;
#X obj 1103 112 abs;
#X obj 374 285 itgl;
#X obj 443 311 j-got;
#X msg 268 391 127;
#X obj 777 481 sel 1;
#X msg 777 505 1;
#X obj 824 481 sel 1;
#X obj 502 283 tgl 15 0 empty empty empty 17 7 0 10 -262144 -1 -1 0
1;
#X msg 824 506 0.8;
#X obj 923 113 mavg 4;
#X obj 268 358 sel 1;
#X obj 923 160 pack f f f;
#X obj 261 129 loadbang;
#X msg 261 156 127 0;
#N canvas 135 519 454 386 spdCtrl+MaxMinRange 0;
#X obj 67 41 inlet pitch;
#X obj 64 343 outlet spd;
#X obj 67 104 expr ($f1+1)/2;
#X obj 67 136 expr 1-$f1;
#X obj 67 196 expr $f1*$f1;
#X floatatom 77 270 5 0 0 0 - - -;
#X obj 228 151 t a;
#X floatatom 228 213 5 0 0 0 - - -;
#X floatatom 285 214 5 0 0 0 - - -;
#X obj 67 248 expr ($f1 *$f2) +$f3;
#X obj 228 85 inlet MaxMin:list;
#X obj 228 181 MaxMin;
#X connect 0 0 2 0;
#X connect 2 0 3 0;
#X connect 3 0 4 0;
#X connect 4 0 9 0;
#X connect 6 0 11 0;
#X connect 7 0 9 1;
#X connect 8 0 9 2;
#X connect 9 0 5 0;
#X connect 9 0 1 0;
#X connect 10 0 6 0;
#X connect 11 0 7 0;
#X connect 11 1 8 0;
#X restore 164 192 pd spdCtrl+MaxMinRange;
#N canvas 75 475 438 348 durCtrl+MaxMinRange 0;
#X obj 53 43 inlet;
#X obj 53 275 outlet;
#X text 79 103 max:137 \, min: 10;
#X obj 63 128 expr ($f1+1)/2;
#X obj 241 116 MaxMin;
#X floatatom 241 138 5 0 0 0 - - -;
#X floatatom 281 138 5 0 0 0 - - -;
#X obj 63 190 expr ($f1 *$f2) +$f3;
#X floatatom 73 212 5 0 0 0 - - -;
#X obj 242 51 inlet maxMin;
#X connect 0 0 3 0;
#X connect 3 0 7 0;
#X connect 4 0 5 0;
#X connect 4 1 6 0;
#X connect 5 0 7 1;
#X connect 6 0 7 2;
#X connect 7 0 1 0;
#X connect 7 0 8 0;
#X connect 9 0 4 0;
#X restore 443 189 pd durCtrl+MaxMinRange;
#X floatatom 174 214 5 0 0 0 - - -;
#X msg 536 153 127 10;
#X obj 536 126 loadbang;
#X floatatom 453 211 5 0 0 0 - - -;
#N canvas 164 357 705 592 randomGenerator 0;
#X obj 210 118 tgl 15 0 empty empty empty 17 7 0 10 -262144 -1 -1 0
1;
#X obj 212 168 bng 15 250 50 0 empty empty empty 17 7 0 10 -262144
-1 -1;
#X obj 212 188 f 0;
#X obj 212 210 + 1;
#X obj 212 399 line;
#X obj 212 254 sel 0 1 2 3 4 5;
#X obj 212 232 % 6;
#X msg 242 346 21612 55;
#X msg 212 306 3916 55;
#X msg 292 306 44026 55;
#X msg 322 346 73518 55;
#X msg 382 306 85315 55;
#X msg 412 346 121886 55;
#X obj 212 146 metro 1000;
#N canvas 942 512 477 486 randPeakPosition 0;
#X obj 24 137 unpack float float float float float flaot;
#X floatatom 361 127 5 0 0 0 - - -;
#X obj 24 259 pack f f;
#X msg 24 281 set \$1 \$2;
#X obj 24 443 outlet;
#X obj 74 443 outlet;
#X obj 124 443 outlet;
#X obj 174 443 outlet;
#X obj 224 443 outlet;
#X obj 274 443 outlet;
#X obj 74 309 pack f f;
#X msg 74 331 set \$1 \$2;
#X obj 124 359 pack f f;
#X msg 124 381 set \$1 \$2;
#X obj 174 179 pack f f;
#X msg 174 201 set \$1 \$2;
#X obj 224 229 pack f f;
#X msg 224 251 set \$1 \$2;
#X obj 274 279 pack f f;
#X msg 274 301 set \$1 \$2;
#X obj 24 37 t a b;
#X obj 24 15 inlet randPeaks;
#X msg 361 105 55;
#X connect 0 0 2 0;
#X connect 0 1 10 0;
#X connect 0 2 12 0;
#X connect 0 3 14 0;
#X connect 0 4 16 0;
#X connect 0 5 18 0;
#X connect 1 0 2 1;
#X connect 1 0 10 1;
#X connect 1 0 12 1;
#X connect 1 0 14 1;
#X connect 1 0 16 1;
#X connect 1 0 18 1;
#X connect 2 0 3 0;
#X connect 3 0 4 0;
#X connect 10 0 11 0;
#X connect 11 0 5 0;
#X connect 12 0 13 0;
#X connect 13 0 6 0;
#X connect 14 0 15 0;
#X connect 15 0 7 0;
#X connect 16 0 17 0;
#X connect 17 0 8 0;
#X connect 18 0 19 0;
#X connect 19 0 9 0;
#X connect 20 0 0 0;
#X connect 20 1 22 0;
#X connect 21 0 20 0;
#X connect 22 0 1 0;
#X restore 354 182 pd randPeakPosition;
#X obj 56 49 inlet tgl;
#X obj 146 485 outlet linedRange;
#X floatatom 222 421 11 0 0 0 - - -;
#X obj 354 45 inlet \$0-randPeaks;
#X obj 505 44 inlet metroSpd;
#X floatatom 535 76 5 0 0 0 - - -;
#X connect 0 0 13 0;
#X connect 1 0 2 0;
#X connect 2 0 3 0;
#X connect 3 0 2 1;
#X connect 3 0 6 0;
#X connect 4 0 16 0;
#X connect 4 0 17 0;
#X connect 5 0 8 0;
#X connect 5 1 7 0;
#X connect 5 2 9 0;
#X connect 5 3 10 0;
#X connect 5 4 11 0;
#X connect 5 5 12 0;
#X connect 6 0 5 0;
#X connect 7 0 4 0;
#X connect 8 0 4 0;
#X connect 9 0 4 0;
#X connect 10 0 4 0;
#X connect 11 0 4 0;
#X connect 12 0 4 0;
#X connect 13 0 1 0;
#X connect 14 0 8 0;
#X connect 14 1 7 0;
#X connect 14 2 9 0;
#X connect 14 3 10 0;
#X connect 14 4 11 0;
#X connect 14 5 12 0;
#X connect 15 0 0 0;
#X connect 18 0 14 0;
#X connect 19 0 13 1;
#X connect 19 0 20 0;
#X restore 700 326 pd randomGenerator;
#X floatatom 710 358 11 0 0 0 - - -;
#X obj 374 205 tgl 15 0 empty empty empty 17 7 0 10 -262144 -1 -1 0
1;
#X obj 68 103 r \$1-b2;
#X obj 164 103 r \$1-mP2;
#X obj 374 93 r \$1-a2;
#X obj 443 92 r \$1-mR2;
#X obj 923 91 r \$1-wAcc2;
#X obj 1003 90 r \$1-mP.velo2;
#X obj 1103 90 r \$1-mY.velo2;
#X obj 164 647 s speedCtrl_2;
#X obj 394 647 s durCtrl_2;
#X obj 574 647 s range_2;
#X obj 804 647 s direction_2;
#X obj 717 589 bng 15 250 50 0 empty empty empty 17 7 0 10 -262144
-1 -1;
#X obj 717 565 r \$0-reload;
#X obj 185 153 bng 15 250 50 0 empty empty empty 17 7 0 10 -262144
-1 -1;
#X obj 185 129 r \$0-reload;
#X obj 460 149 bng 15 250 50 0 empty empty empty 17 7 0 10 -262144
-1 -1;
#X obj 460 125 r \$0-reload;
#X obj 200 285 expr 127-$f1;
#X floatatom 220 308 5 0 0 0 - - -;
#X obj 96 353 j-got;
#X obj 186 353 j-got;
#X obj 155 285 itgl;
#X obj 752 92 r \$0-randPeaks_2;
#X obj 776 131 print p3.randomPeaks_2:;
#X obj 984 618 j-got2 p\$1.tgl;
#X obj 984 391 sel 1 0;
#X obj 1056 370 f;
#X obj 1056 392 expr ($f1+1)/2;
#X floatatom 1076 414 5 0 0 1 mR - -;
#X obj 984 453 f;
#X obj 984 539 f;
#X text 990 371 \$1-a;
#X obj 984 587 j-got;
#X obj 942 461 t f f;
#X obj 942 433 tgl 15 0 empty empty a 17 7 0 10 -262144 -1 -1 0 1;
#X obj 984 647 s fileArray2.pan;
#X msg 1044 453 0.6;
#X connect 0 0 6 0;
#X connect 3 0 74 0;
#X connect 3 0 73 1;
#X connect 7 0 0 0;
#X connect 8 0 1 0;
#X connect 9 0 2 0;
#X connect 10 0 3 0;
#X connect 11 0 4 0;
#X connect 12 0 5 0;
#X connect 13 0 14 1;
#X connect 13 0 19 1;
#X connect 13 0 34 0;
#X connect 13 0 40 0;
#X connect 14 0 16 0;
#X connect 15 0 25 0;
#X connect 15 0 17 1;
#X connect 15 0 21 1;
#X connect 16 0 60 0;
#X connect 17 0 18 0;
#X connect 18 0 61 0;
#X connect 19 0 20 0;
#X connect 20 0 62 0;
#X connect 21 0 22 0;
#X connect 22 0 63 0;
#X connect 23 0 21 0;
#X connect 24 0 63 0;
#X connect 25 0 50 0;
#X connect 26 0 27 0;
#X connect 26 0 50 2;
#X connect 28 0 26 0;
#X connect 29 0 41 1;
#X connect 30 0 41 2;
#X connect 31 0 13 0;
#X connect 32 0 17 0;
#X connect 33 0 17 0;
#X connect 34 0 35 0;
#X connect 35 0 23 0;
#X connect 36 0 38 0;
#X connect 37 0 32 1;
#X connect 37 0 36 0;
#X connect 38 0 23 0;
#X connect 39 0 41 0;
#X connect 40 0 33 0;
#X connect 41 0 28 0;
#X connect 42 0 43 0;
#X connect 43 0 44 1;
#X connect 44 0 46 0;
#X connect 44 0 72 0;
#X connect 44 0 70 0;
#X connect 45 0 32 0;
#X connect 45 0 49 0;
#X connect 47 0 45 1;
#X connect 48 0 47 0;
#X connect 50 0 19 0;
#X connect 50 0 51 0;
#X connect 52 0 37 0;
#X connect 52 0 31 0;
#X connect 52 0 87 0;
#X connect 53 0 15 0;
#X connect 54 0 44 0;
#X connect 55 0 52 0;
#X connect 56 0 45 0;
#X connect 56 0 79 0;
#X connect 57 0 39 0;
#X connect 58 0 29 0;
#X connect 59 0 30 0;
#X connect 64 0 24 0;
#X connect 65 0 64 0;
#X connect 66 0 43 0;
#X connect 67 0 66 0;
#X connect 68 0 47 0;
#X connect 69 0 68 0;
#X connect 70 0 71 0;
#X connect 70 0 73 0;
#X connect 72 0 14 0;
#X connect 73 0 14 0;
#X connect 74 0 72 1;
#X connect 75 0 50 1;
#X connect 75 0 76 0;
#X connect 77 0 88 0;
#X connect 78 0 82 0;
#X connect 78 1 89 0;
#X connect 79 0 80 0;
#X connect 80 0 81 0;
#X connect 80 0 82 0;
#X connect 82 0 83 0;
#X connect 83 0 85 0;
#X connect 85 0 77 0;
#X connect 86 0 78 0;
#X connect 86 1 85 1;
#X connect 87 0 86 0;
#X connect 89 0 77 0;
#X restore 11 49 pd rand_2;
#X obj 166 29 bng 15 250 50 0 empty empty empty 17 7 0 10 -262144 -1
-1;
#X obj 326 49 s \$0-reload;
#N canvas 235 112 1438 446 init_3 0;
#X obj 28 25 inlet;
#X obj 28 47 bng 15 250 50 0 empty empty empty 17 7 0 10 -262144 -1
-1;
#X msg 28 319 0;
#X obj 28 391 s pitchCtrl_1;
#X obj 118 391 s pitchCtrl_2;
#X msg 768 309 0;
#X obj 768 351 tgl 15 0 empty empty empty 17 7 0 10 -262144 -1 -1 0
1;
#X obj 768 403 s \$1-a;
#X obj 818 403 s \$1-a2;
#X obj 888 351 tgl 15 0 empty empty empty 17 7 0 10 -262144 -1 -1 0
1;
#X obj 888 403 s \$1-down;
#X obj 958 403 s \$1-down2;
#X obj 1045 402 s \$1-b;
#X msg 1045 308 1;
#X obj 1045 350 tgl 15 0 empty empty empty 17 7 0 10 -262144 -1 -1
1 1;
#X obj 1095 402 s \$1-b2;
#X msg 231 327 1557 23971 41666 69979 93573 126605;
#X obj 251 299 loadbang;
#X obj 28 219 t b b;
#X obj 28 189 bng 15 250 50 0 empty empty granular_init 17 7 0 10 -262144
-1 -1;
#X obj 768 189 bng 15 250 50 0 empty empty button_reset 17 7 0 10 -262144
-1 -1;
#X obj 231 249 t b b;
#X obj 768 219 t b b b;
#X obj 1198 189 bng 15 250 50 0 empty empty panning 17 7 0 10 -262144
-1 -1;
#X obj 231 391 s \$0-randPeaks_1;
#X obj 481 299 loadbang;
#X obj 461 391 s \$0-randPeaks_2;
#X msg 461 327 3916 21612 44026 73518 85315 121886;
#X obj 1198 400 s fileArray1.pan;
#X obj 1308 400 s fileArray2.pan;
#X obj 1198 355 unpack f f;
#X obj 1198 219 t b;
#X msg 1198 307 0.4 0.6;
#X msg 888 308 0;
#X obj 200 41 f \$1;
#X obj 200 65 print -------------- program:;
#X obj 28 67 t bang bang bang bang;
#X obj 88 321 print p3.pitchCtrl:;
#X obj 990 247 print !!! C A U T I O N !!! B-pressed!:;
#X connect 0 0 1 0;
#X connect 1 0 36 0;
#X connect 2 0 3 0;
#X connect 2 0 4 0;
#X connect 2 0 37 0;
#X connect 5 0 6 0;
#X connect 6 0 7 0;
#X connect 6 0 8 0;
#X connect 9 0 10 0;
#X connect 9 0 11 0;
#X connect 13 0 14 0;
#X connect 13 0 38 0;
#X connect 14 0 12 0;
#X connect 14 0 15 0;
#X connect 16 0 24 0;
#X connect 17 0 16 0;
#X connect 18 0 2 0;
#X connect 18 1 21 0;
#X connect 19 0 18 0;
#X connect 20 0 22 0;
#X connect 21 0 27 0;
#X connect 21 1 16 0;
#X connect 22 0 5 0;
#X connect 22 1 33 0;
#X connect 22 2 13 0;
#X connect 23 0 31 0;
#X connect 25 0 27 0;
#X connect 27 0 26 0;
#X connect 30 0 28 0;
#X connect 30 1 29 0;
#X connect 31 0 32 0;
#X connect 32 0 30 0;
#X connect 33 0 9 0;
#X connect 34 0 35 0;
#X connect 36 0 19 0;
#X connect 36 1 20 0;
#X connect 36 2 23 0;
#X connect 36 3 34 0;
#X restore 256 49 pd init_3;
#X obj 256 29 bng 15 250 50 0 empty empty empty 17 7 0 10 -262144 -1
-1;
#X obj 326 29 bng 15 250 50 0 empty empty empty 17 7 0 10 -262144 -1
-1;
#N canvas 522 599 599 320 p2-link-p3 0;
#X obj 68 46 inlet;
#X obj 68 91 bng 15 250 50 0 empty empty connect_from_2 17 7 0 10 -262144
-1 -1;
#X obj 68 193 line;
#X floatatom 28 225 5 0 0 0 - - -;
#X obj 68 255 s durCtrl_1;
#X obj 148 255 s durCtrl_2;
#X msg 68 141 500 \, 127 1000;
#X obj 278 193 line;
#X floatatom 238 225 5 0 0 0 - - -;
#X obj 278 255 s speedCtrl_1;
#X obj 378 255 s speedCtrl_2;
#X msg 278 141 1 \, 127 800;
#X connect 0 0 1 0;
#X connect 1 0 6 0;
#X connect 1 0 11 0;
#X connect 2 0 3 0;
#X connect 2 0 4 0;
#X connect 2 0 5 0;
#X connect 6 0 2 0;
#X connect 7 0 8 0;
#X connect 7 0 9 0;
#X connect 7 0 10 0;
#X connect 11 0 7 0;
#X restore 166 49 pd p2-link-p3;
#X obj 91 8 r p\$1.tgl;
#X obj 91 49 sel 1;
#X obj 151 8 r \$1-home;
#X connect 3 0 8 0;
#X connect 6 0 5 0;
#X connect 7 0 4 0;
#X connect 9 0 10 0;
#X connect 10 0 3 0;
#X connect 10 0 6 0;
#X connect 10 0 7 0;
#X connect 11 0 10 0;
