#N canvas 1252 537 406 97 10;
#X obj 11 7 tgl 15 0 p\$1.tgl p\$1.tgl p\$1.tgl 17 7 0 10 -262144 -1
-1 1 1;
#X obj 91 5 r p\$1.tgl;
#X symbolatom 91 51 10 0 0 0 - - -;
#X floatatom 161 51 11 0 0 0 - - -;
#X symbolatom 231 51 10 0 0 0 - - -;
#X floatatom 301 51 11 0 0 0 - - -;
#X obj 91 29 setRange range_1 71961;
#X obj 231 29 setRange range_2 71961;
#N canvas 370 30 1189 627 stable_1 1;
#X obj 14 45 tgl 15 0 empty empty empty 17 7 0 10 -262144 -1 -1 0 1
;
#X obj 74 23 s switch_1;
#X obj 214 45 tgl 15 0 empty empty empty 17 7 0 10 -262144 -1 -1 0
1;
#X obj 274 45 tgl 15 0 empty empty empty 17 7 0 10 -262144 -1 -1 0
1;
#X obj 344 45 tgl 15 0 empty empty empty 17 7 0 10 -262144 -1 -1 0
1;
#X obj 414 45 tgl 15 0 empty empty empty 17 7 0 10 -262144 -1 -1 0
1;
#X obj 14 23 r \$1-b;
#X obj 214 23 r \$1-up;
#X obj 274 23 r \$1-down;
#X obj 344 23 r \$1-left;
#X obj 414 23 r \$1-right;
#X obj 164 577 s speedCtrl_1;
#X obj 164 517 j-got;
#X obj 164 548 j-got2 p\$1.tgl;
#X floatatom 239 489 5 0 0 0 - - -;
#X obj 344 517 j-got;
#X obj 344 548 j-got2 p\$1.tgl;
#X obj 344 577 s durCtrl_1;
#X floatatom 359 489 5 0 0 0 - - -;
#X obj 359 467 r 2fader;
#X obj 239 467 r 1fader;
#X obj 564 404 r 3fader;
#X obj 574 517 j-got;
#X obj 574 548 j-got2 p\$1.tgl;
#X obj 584 475 *;
#X obj 611 441 r maxSamples_1;
#X obj 564 426 / 127;
#X floatatom 564 448 5 0 0 0 - - -;
#X obj 574 577 s range_1;
#X obj 724 577 s direction_1;
#X obj 724 517 j-got;
#X obj 724 548 j-got2 p\$1.tgl;
#X msg 1017 512 1;
#X obj 724 324 r 4fader;
#X obj 724 346 / 127;
#X obj 727 388 hsl 128 15 0 1 0 0 empty empty 0-1 -2 -8 0 10 -262144
-1 -1 5701 1;
#X obj 154 45 tgl 15 0 empty empty empty 17 7 0 10 -262144 -1 -1 0
1;
#X obj 154 23 r \$1-a;
#X obj 1081 505 r p\$1.tgl;
#X obj 1081 527 tgl 15 0 empty empty empty 17 7 0 10 -262144 -1 -1
1 1;
#X obj 1081 547 sel 1;
#X obj 1081 569 bng 15 250 50 0 empty empty empty 17 7 0 10 -262144
-1 -1;
#X text 989 590 reset when program changed;
#X msg 912 507 -1;
#X obj 808 341 hsl 128 15 0 2 0 0 empty empty 0-2 -2 -8 0 10 -262144
-1 -1 0 1;
#X obj 724 490 *;
#X floatatom 757 486 5 0 0 0 - - -;
#X obj 834 139 expr ($f1+1)/2;
#X floatatom 363 379 5 0 0 0 - - -;
#X obj 338 393 + 10;
#X obj 143 229 r \$1-wAcc;
#X floatatom 143 273 5 0 0 0 - - -;
#X obj 310 187 expr ($f1+1)/2;
#X obj 310 231 expr $f1*$f1;
#X obj 310 165 r \$1-mR;
#X obj 1061 295 tgl 15 0 empty empty empty 17 7 0 10 -262144 -1 -1
0 1;
#X obj 1059 143 r \$1-a;
#X obj 1059 325 sel 0 1;
#X obj 343 357 * 127;
#X obj 834 210 / 10;
#X floatatom 834 254 5 0 0 0 - - -;
#X obj 834 233 + 0.4;
#X obj 834 161 expr 1-$f1;
#X obj 143 251 expr 40-($f1*30);
#X obj 441 406 itgl;
#X obj 487 358 tgl 15 0 empty empty empty 17 7 0 10 -262144 -1 -1 0
1;
#X obj 487 378 sel 1 0;
#X msg 778 449 -1;
#X msg 808 447 1;
#X obj 553 149 expr ($f1+1)/2;
#X obj 563 231 *;
#X obj 669 132 r maxSamples_1;
#X obj 563 275 + 27000;
#X obj 563 253 / 10000;
#X msg 487 400 55;
#X obj 834 117 r \$1-wP;
#X obj 553 127 r \$1-mP;
#X obj 453 127 r \$1-wAcc;
#X floatatom 553 171 5 0 0 0 - - -;
#X obj 453 149 bng 15 250 50 0 empty empty empty 17 7 0 10 -262144
-1 -1;
#X obj 453 171 random;
#X floatatom 669 154 11 0 0 0 - - -;
#X floatatom 28 111 5 0 0 0 - - -;
#X floatatom 118 111 5 0 0 0 - - -;
#X floatatom 208 111 5 0 0 0 - - -;
#X obj 12 157 > 1;
#X obj 12 179 tgl 15 0 empty empty empty 17 7 0 10 -262144 -1 -1 0
1;
#X obj 52 179 tgl 15 0 empty empty empty 17 7 0 10 -262144 -1 -1 0
1;
#X obj 52 157 < -1;
#X obj 12 131 t f f;
#X obj 142 157 > 1;
#X obj 142 179 tgl 15 0 empty empty empty 17 7 0 10 -262144 -1 -1 0
1;
#X obj 102 179 tgl 15 0 empty empty empty 17 7 0 10 -262144 -1 -1 0
1;
#X obj 102 157 < -1;
#X obj 102 131 t f f;
#X obj 232 157 > 1;
#X obj 232 179 tgl 15 0 empty empty empty 17 7 0 10 -262144 -1 -1 0
1;
#X obj 192 179 tgl 15 0 empty empty empty 17 7 0 10 -262144 -1 -1 0
1;
#X obj 192 157 < -1;
#X obj 192 131 t f f;
#X obj 192 89 r \$1-mYaw.velo;
#X obj 102 89 r \$1-mR.velo;
#X obj 12 89 r \$1-mP.velo;
#X obj 12 199 tgl 15 0 empty empty empty 17 7 0 10 -262144 -1 -1 0
1;
#X obj 452 238 j-got;
#X connect 0 0 1 0;
#X connect 6 0 0 0;
#X connect 7 0 2 0;
#X connect 8 0 3 0;
#X connect 9 0 4 0;
#X connect 10 0 5 0;
#X connect 12 0 13 0;
#X connect 13 0 11 0;
#X connect 14 0 12 0;
#X connect 15 0 16 0;
#X connect 16 0 17 0;
#X connect 18 0 15 0;
#X connect 19 0 18 0;
#X connect 20 0 14 0;
#X connect 21 0 26 0;
#X connect 22 0 23 0;
#X connect 23 0 28 0;
#X connect 24 0 22 0;
#X connect 25 0 24 1;
#X connect 26 0 27 0;
#X connect 27 0 24 0;
#X connect 30 0 31 0;
#X connect 31 0 29 0;
#X connect 32 0 29 0;
#X connect 33 0 34 0;
#X connect 34 0 35 0;
#X connect 35 0 45 0;
#X connect 37 0 36 0;
#X connect 38 0 39 0;
#X connect 39 0 40 0;
#X connect 40 0 41 0;
#X connect 41 0 32 0;
#X connect 43 0 29 0;
#X connect 44 0 45 0;
#X connect 45 0 30 0;
#X connect 46 0 45 1;
#X connect 47 0 62 0;
#X connect 49 0 15 0;
#X connect 50 0 63 0;
#X connect 52 0 53 0;
#X connect 53 0 58 0;
#X connect 54 0 52 0;
#X connect 55 0 57 0;
#X connect 56 0 65 0;
#X connect 56 0 55 0;
#X connect 57 0 67 0;
#X connect 57 1 68 0;
#X connect 58 0 48 0;
#X connect 58 0 49 0;
#X connect 59 0 61 0;
#X connect 61 0 60 0;
#X connect 61 0 35 0;
#X connect 62 0 59 0;
#X connect 63 0 51 0;
#X connect 63 0 12 0;
#X connect 64 0 15 1;
#X connect 65 0 64 0;
#X connect 65 0 66 0;
#X connect 66 0 74 0;
#X connect 67 0 46 0;
#X connect 68 0 46 0;
#X connect 69 0 70 0;
#X connect 69 0 78 0;
#X connect 70 0 73 0;
#X connect 71 0 70 1;
#X connect 71 0 81 0;
#X connect 72 0 22 0;
#X connect 73 0 72 0;
#X connect 74 0 16 0;
#X connect 75 0 47 0;
#X connect 76 0 69 0;
#X connect 77 0 79 0;
#X connect 79 0 80 0;
#X connect 80 0 104 0;
#X connect 81 0 80 1;
#X connect 85 0 86 0;
#X connect 86 0 103 0;
#X connect 87 0 103 0;
#X connect 88 0 87 0;
#X connect 89 0 85 0;
#X connect 89 1 88 0;
#X connect 90 0 91 0;
#X connect 91 0 103 0;
#X connect 92 0 103 0;
#X connect 93 0 92 0;
#X connect 94 0 93 0;
#X connect 94 1 90 0;
#X connect 95 0 96 0;
#X connect 96 0 103 0;
#X connect 97 0 103 0;
#X connect 98 0 97 0;
#X connect 99 0 98 0;
#X connect 99 1 95 0;
#X connect 100 0 84 0;
#X connect 100 0 99 0;
#X connect 101 0 83 0;
#X connect 101 0 94 0;
#X connect 102 0 82 0;
#X connect 102 0 89 0;
#X connect 103 0 104 1;
#X connect 104 0 22 0;
#X restore 11 27 pd stable_1;
#N canvas 458 301 1194 680 stable_2 0;
#X obj 14 45 tgl 15 0 empty empty empty 17 7 0 10 -262144 -1 -1 0 1
;
#X obj 154 45 tgl 15 0 empty empty empty 17 7 0 10 -262144 -1 -1 0
1;
#X obj 204 45 tgl 15 0 empty empty empty 17 7 0 10 -262144 -1 -1 0
1;
#X obj 264 45 tgl 15 0 empty empty empty 17 7 0 10 -262144 -1 -1 0
1;
#X obj 334 45 tgl 15 0 empty empty empty 17 7 0 10 -262144 -1 -1 0
1;
#X obj 404 45 tgl 15 0 empty empty empty 17 7 0 10 -262144 -1 -1 0
1;
#X obj 74 23 s switch_2;
#X obj 14 23 r \$1-b2;
#X obj 154 23 r \$1-a2;
#X obj 204 23 r \$1-up2;
#X obj 264 23 r \$1-down2;
#X obj 334 23 r \$1-left2;
#X obj 404 23 r \$1-right2;
#X obj 374 295 tgl 15 0 empty empty empty 17 7 0 10 -262144 -1 -1 1
1;
#X obj 164 517 j-got;
#X obj 68 365 tgl 15 0 empty empty empty 17 7 0 10 -262144 -1 -1 0
1;
#X obj 164 548 j-got2 p\$1.tgl;
#X floatatom 239 489 5 0 0 0 - - -;
#X obj 344 517 j-got;
#X obj 344 548 j-got2 p\$1.tgl;
#X floatatom 349 489 5 0 0 0 - - -;
#X obj 349 467 r 2fader;
#X obj 239 467 r 1fader;
#X obj 589 407 r 3fader;
#X obj 574 517 j-got;
#X obj 574 548 j-got2 p\$1.tgl;
#X obj 609 478 *;
#X obj 628 441 r maxSamples_1;
#X obj 589 429 / 127;
#X floatatom 589 451 5 0 0 0 - - -;
#X obj 724 517 j-got;
#X obj 724 548 j-got2 p\$1.tgl;
#X obj 724 490 f;
#X msg 1020 524 1;
#X obj 960 400 r 4fader;
#X obj 960 422 / 127;
#X obj 963 464 hsl 128 15 0 1 0 0 empty empty 0-1 -2 -8 0 10 -262144
-1 -1 0 1;
#X obj 610 118 tgl 15 0 empty empty empty 17 7 0 10 -262144 -1 -1 0
1;
#X obj 612 168 bng 15 250 50 0 empty empty empty 17 7 0 10 -262144
-1 -1;
#X obj 1033 299 r 5fader;
#X floatatom 1033 321 5 0 0 0 - - -;
#X obj 1033 340 * 20;
#X floatatom 1033 362 5 0 0 0 - - -;
#X obj 612 188 f 0;
#X obj 612 210 + 1;
#X obj 612 349 line;
#X obj 612 254 sel 0 1 2 3 4 5;
#X obj 612 232 % 6;
#X obj 903 196 * 127;
#X floatatom 903 218 5 0 0 0 - - -;
#X obj 903 143 +;
#X obj 903 165 +;
#X obj 983 95 abs;
#X obj 1083 95 abs;
#X obj 374 265 itgl;
#X obj 443 238 expr ($f1+1)/2*127;
#X obj 443 279 + 10;
#X obj 443 301 j-got;
#X msg 449 362 127;
#X obj 457 331 sel 1;
#X msg 479 362 1;
#X obj 527 281 sel 1;
#X obj 496 273 tgl 15 0 empty empty empty 17 7 0 10 -262144 -1 -1 0
1;
#X msg 524 356 0.8;
#X obj 197 174 expr ($f1+1)/2;
#X floatatom 197 268 5 0 0 0 - - -;
#X msg 652 306 23971 55;
#X msg 612 286 1557 55;
#X msg 692 286 41666 55;
#X msg 732 306 69979 55;
#X msg 782 286 93573 55;
#X msg 822 306 126605 55;
#X obj 197 216 expr 1-$f1;
#X obj 903 96 mavg 4;
#X obj 612 146 metro 1000;
#X obj 197 246 expr $f1*$f1 *127;
#X obj 164 577 s speedCtrl_2;
#X obj 344 577 s durCtrl_2;
#X obj 574 577 s range_2;
#X obj 724 577 s direction_2;
#X obj 68 103 r \$1-b2;
#X obj 197 103 r \$1-mP2;
#X obj 374 93 r \$1-a2;
#X obj 903 74 r \$1-wAcc2;
#X obj 983 73 r \$1-mP.velo2;
#X obj 1083 73 r \$1-mY.velo2;
#X obj 443 87 r \$1-mR2;
#X obj 1081 505 r p\$1.tgl;
#X obj 1081 527 tgl 15 0 empty empty empty 17 7 0 10 -262144 -1 -1
1 1;
#X obj 1081 547 sel 1;
#X obj 1081 569 bng 15 250 50 0 empty empty empty 17 7 0 10 -262144
-1 -1;
#X text 989 590 reset when program changed;
#X connect 0 0 6 0;
#X connect 7 0 0 0;
#X connect 8 0 1 0;
#X connect 9 0 2 0;
#X connect 10 0 3 0;
#X connect 11 0 4 0;
#X connect 12 0 5 0;
#X connect 13 0 14 1;
#X connect 13 0 24 1;
#X connect 13 0 59 0;
#X connect 14 0 16 0;
#X connect 15 0 37 0;
#X connect 15 0 18 1;
#X connect 15 0 30 1;
#X connect 16 0 76 0;
#X connect 17 0 14 0;
#X connect 18 0 19 0;
#X connect 19 0 77 0;
#X connect 20 0 18 0;
#X connect 21 0 20 0;
#X connect 22 0 17 0;
#X connect 23 0 28 0;
#X connect 24 0 25 0;
#X connect 25 0 78 0;
#X connect 26 0 24 0;
#X connect 27 0 26 1;
#X connect 28 0 29 0;
#X connect 29 0 26 0;
#X connect 30 0 31 0;
#X connect 31 0 79 0;
#X connect 32 0 30 0;
#X connect 33 0 79 0;
#X connect 34 0 35 0;
#X connect 35 0 36 0;
#X connect 36 0 32 0;
#X connect 37 0 74 0;
#X connect 38 0 43 0;
#X connect 39 0 40 0;
#X connect 40 0 41 0;
#X connect 41 0 42 0;
#X connect 41 0 74 1;
#X connect 43 0 44 0;
#X connect 44 0 43 1;
#X connect 44 0 47 0;
#X connect 45 0 24 0;
#X connect 46 0 67 0;
#X connect 46 1 66 0;
#X connect 46 2 68 0;
#X connect 46 3 69 0;
#X connect 46 4 70 0;
#X connect 46 5 71 0;
#X connect 47 0 46 0;
#X connect 48 0 49 0;
#X connect 49 0 74 1;
#X connect 50 0 51 0;
#X connect 51 0 48 0;
#X connect 52 0 50 1;
#X connect 53 0 51 1;
#X connect 54 0 13 0;
#X connect 55 0 56 0;
#X connect 56 0 57 0;
#X connect 57 0 18 0;
#X connect 58 0 18 0;
#X connect 59 0 58 0;
#X connect 59 0 60 0;
#X connect 60 0 32 0;
#X connect 61 0 63 0;
#X connect 62 0 57 1;
#X connect 62 0 61 0;
#X connect 63 0 32 0;
#X connect 64 0 72 0;
#X connect 65 0 14 0;
#X connect 66 0 45 0;
#X connect 67 0 45 0;
#X connect 68 0 45 0;
#X connect 69 0 45 0;
#X connect 70 0 45 0;
#X connect 71 0 45 0;
#X connect 72 0 75 0;
#X connect 73 0 50 0;
#X connect 74 0 38 0;
#X connect 75 0 65 0;
#X connect 80 0 15 0;
#X connect 81 0 64 0;
#X connect 82 0 54 0;
#X connect 82 0 62 0;
#X connect 83 0 73 0;
#X connect 84 0 52 0;
#X connect 85 0 53 0;
#X connect 86 0 55 0;
#X connect 87 0 88 0;
#X connect 88 0 89 0;
#X connect 89 0 90 0;
#X connect 90 0 33 0;
#X restore 11 49 pd stable_2;
#X connect 1 0 6 0;
#X connect 1 0 7 0;
#X connect 6 0 2 0;
#X connect 6 1 3 0;
#X connect 7 0 4 0;
#X connect 7 1 5 0;
