#N canvas 211 138 842 640 10;
#X obj 99 305 tgl 15 0 empty empty empty 17 7 0 10 -262144 -1 -1 0
1;
#X obj 62 403 line~;
#X obj 99 283 r p0.tgl;
#X obj 99 327 sel 1;
#X msg 62 361 0 0;
#X obj 132 31 r 0-mP.velo;
#X obj 358 41 r 0-mYaw.velo;
#X floatatom 563 93 5 0 0 0 - - -;
#X obj 523 93 t f f;
#X obj 523 41 r 0-mR.velo;
#X obj 550 182 velo.lr -1 1;
#X obj 152 465 *~;
#X obj 262 465 *~;
#N canvas 336 294 450 300 noise-Tshirt 0;
#X obj 151 47 r 0-wAcc;
#X obj 136 155 osc~;
#X obj 136 131 *~;
#X obj 151 79 expr $f1*18000 +2000;
#X obj 136 109 pink~;
#X obj 136 177 outlet~ noise;
#X connect 0 0 3 0;
#X connect 1 0 5 0;
#X connect 2 0 1 0;
#X connect 3 0 2 1;
#X connect 4 0 2 0;
#X restore 56 575 pd noise-Tshirt;
#X obj 72 31 r 0-wP;
#X obj 502 251 j-got~;
#X obj 582 251 j-got~;
#X obj 298 41 r 0-mP;
#N canvas 1048 568 450 300 adsrTest 0;
#X obj 81 187 pack 0 0 0 0;
#X msg 81 209 \$1 \$2 \$3 \$4;
#X obj 77 55 r 1fader;
#X obj 137 55 r 2fader;
#X obj 217 55 r 3fader;
#X obj 277 55 r 4fader;
#X floatatom 77 77 5 0 0 0 - - -;
#X floatatom 217 77 5 0 0 0 - - -;
#X floatatom 277 77 5 0 0 0 - - -;
#X obj 137 77 expr $f1/127;
#X floatatom 157 99 5 0 0 0 - - -;
#X obj 137 124 t b f;
#X obj 217 124 t b f;
#X obj 277 123 t b f;
#X connect 0 0 1 0;
#X connect 2 0 0 0;
#X connect 2 0 6 0;
#X connect 3 0 9 0;
#X connect 4 0 7 0;
#X connect 4 0 12 0;
#X connect 5 0 8 0;
#X connect 5 0 13 0;
#X connect 9 0 10 0;
#X connect 9 0 11 0;
#X connect 11 0 0 0;
#X connect 11 1 0 1;
#X connect 12 0 0 0;
#X connect 12 1 0 2;
#X connect 13 0 0 0;
#X connect 13 1 0 3;
#X restore 56 599 pd adsrTest;
#X obj 502 353 throw~ \$0-p0.left;
#X obj 622 353 throw~ \$0-p0.right;
#X obj 152 423 catch~ \$0-p0.left;
#X obj 262 423 catch~ \$0-p0.right;
#X obj 152 503 s~ testtoneL;
#X obj 262 503 s~ testtoneR;
#X obj 72 98 throw~ \$0-p0.left;
#X obj 92 118 throw~ \$0-p0.right;
#N canvas 358 265 1281 617 left_right 0;
#X obj 259 531 j-got~;
#X obj 259 366 *~;
#X obj 352 174 tgl 15 0 empty empty empty 17 7 0 10 -262144 -1 -1 1
1;
#X obj 352 201 metro 33;
#X obj 1040 462 velo.lr -0.3 0.3;
#X floatatom 419 134 5 0 0 0 - - -;
#X obj 419 112 expr 3+$f1;
#X floatatom 419 177 5 0 0 0 - - -;
#X obj 759 531 j-got~;
#X obj 759 366 *~;
#X obj 852 163 tgl 15 0 empty empty empty 17 7 0 10 -262144 -1 -1 1
1;
#X obj 852 190 metro 33;
#X floatatom 919 133 5 0 0 0 - - -;
#X floatatom 919 176 5 0 0 0 - - -;
#X obj 919 155 expr $f1*33+1;
#X obj 259 254 phasor~ 4000;
#X obj 419 156 expr $f1*33;
#X floatatom 269 177 5 0 0 0 - - -;
#X obj 259 103 t f f;
#X obj 759 78 moses 0;
#X obj 919 111 expr 3-$f1;
#X floatatom 769 177 5 0 0 0 - - -;
#X obj 759 133 * 300;
#X obj 759 254 phasor~ 4000;
#X obj 259 133 * 300;
#X obj 352 106 loadbang;
#X msg 385 328 1 0.5 5 500;
#X obj 259 21 inlet 0-mP;
#X obj 1040 21 inlet 0-mYaw.velo;
#X obj 259 573 outlet~ left;
#X obj 759 573 outlet~ right;
#X obj 352 128 t b b;
#X obj 852 105 loadbang;
#X obj 852 127 t b b;
#X msg 885 327 5 0.5 10 5;
#X obj 352 349 jadsr~;
#X obj 852 348 jadsr~;
#X obj 259 450 *~ 15;
#X obj 759 450 *~ 15;
#X obj 259 155 + 1500;
#X obj 758 155 + 1550;
#X connect 0 0 29 0;
#X connect 1 0 37 0;
#X connect 2 0 3 0;
#X connect 3 0 35 0;
#X connect 4 0 0 1;
#X connect 4 1 8 1;
#X connect 5 0 16 0;
#X connect 6 0 5 0;
#X connect 8 0 30 0;
#X connect 9 0 38 0;
#X connect 10 0 11 0;
#X connect 11 0 36 0;
#X connect 12 0 14 0;
#X connect 14 0 11 1;
#X connect 14 0 13 0;
#X connect 15 0 1 0;
#X connect 16 0 3 1;
#X connect 16 0 7 0;
#X connect 18 0 24 0;
#X connect 18 1 22 0;
#X connect 19 0 6 0;
#X connect 19 1 20 0;
#X connect 20 0 12 0;
#X connect 22 0 40 0;
#X connect 23 0 9 0;
#X connect 24 0 39 0;
#X connect 25 0 31 0;
#X connect 26 0 35 1;
#X connect 27 0 18 0;
#X connect 28 0 4 0;
#X connect 28 0 19 0;
#X connect 31 0 2 0;
#X connect 31 1 26 0;
#X connect 32 0 33 0;
#X connect 33 0 10 0;
#X connect 33 1 34 0;
#X connect 34 0 36 1;
#X connect 35 0 1 1;
#X connect 36 0 9 1;
#X connect 37 0 0 0;
#X connect 38 0 8 0;
#X connect 39 0 17 0;
#X connect 39 0 15 0;
#X connect 40 0 21 0;
#X connect 40 0 23 0;
#X restore 298 69 pd left_right;
#N canvas 551 308 1064 611 up_down 0;
#X floatatom 122 169 5 0 0 0 - - -;
#X obj 112 279 * 2;
#X obj 112 301 square~;
#X obj 422 301 square~;
#X obj 422 279 * 1;
#X obj 112 491 j-got~;
#X obj 422 491 j-got~;
#X obj 112 21 inlet 0-wP;
#X obj 830 21 inlet 0-mP.velo;
#X obj 112 125 * 1760;
#X obj 112 147 + 1760;
#X obj 112 563 outlet~ up;
#X obj 422 563 outlet~ down;
#X obj 272 38 moses 0;
#X floatatom 282 169 5 0 0 0 - - -;
#X obj 272 125 * 1760;
#X obj 272 147 + 1760;
#X obj 272 279 * 2;
#X obj 272 94 expr $f1*$f1 *-1;
#X floatatom 592 169 5 0 0 0 - - -;
#X obj 582 125 * 1760;
#X obj 582 147 + 1760;
#X obj 582 279 * 2;
#X obj 582 94 expr $f1*$f1 *-1;
#X obj 272 301 osc~;
#X obj 582 302 osc~;
#N canvas 287 388 450 300 noise-Tshirt 0;
#X obj 136 161 *~;
#X obj 181 109 expr $f1*18000 +2000;
#X obj 136 227 outlet~ noise;
#X obj 181 77 inlet 0-wAcc;
#X obj 136 195 osc~;
#X obj 26 109 inlet~ pink~_noise~;
#X connect 0 0 4 0;
#X connect 1 0 0 1;
#X connect 3 0 1 0;
#X connect 4 0 2 0;
#X connect 5 0 0 0;
#X restore 4 406 pd noise-Tshirt;
#X obj 14 21 r 0-wAcc;
#X obj 4 376 pink~;
#N canvas 287 388 450 300 noise-Tshirt 0;
#X obj 136 161 *~;
#X obj 181 109 expr $f1*18000 +2000;
#X obj 136 227 outlet~ noise;
#X obj 181 77 inlet 0-wAcc;
#X obj 136 195 osc~;
#X obj 26 109 inlet~ pink~_noise~;
#X connect 0 0 4 0;
#X connect 1 0 0 1;
#X connect 3 0 1 0;
#X connect 4 0 2 0;
#X connect 5 0 0 0;
#X restore 314 406 pd noise-Tshirt;
#X obj 314 376 noise~;
#X obj 14 43 t f f;
#X obj 112 443 *~ 0.5;
#X obj 422 443 *~ 0.5;
#X obj 4 448 *~ 0.75;
#X obj 314 448 *~ 0.75;
#X obj 830 282 velo.updown 0.3 -0.3;
#X connect 1 0 2 0;
#X connect 2 0 32 0;
#X connect 3 0 33 0;
#X connect 4 0 3 0;
#X connect 5 0 11 0;
#X connect 6 0 12 0;
#X connect 7 0 9 0;
#X connect 7 0 13 0;
#X connect 8 0 36 0;
#X connect 9 0 10 0;
#X connect 10 0 0 0;
#X connect 10 0 1 0;
#X connect 10 0 4 0;
#X connect 13 0 23 0;
#X connect 13 1 18 0;
#X connect 15 0 16 0;
#X connect 16 0 14 0;
#X connect 16 0 17 0;
#X connect 17 0 24 0;
#X connect 18 0 15 0;
#X connect 20 0 21 0;
#X connect 21 0 19 0;
#X connect 21 0 22 0;
#X connect 22 0 25 0;
#X connect 23 0 20 0;
#X connect 24 0 32 0;
#X connect 25 0 33 0;
#X connect 26 0 34 0;
#X connect 27 0 31 0;
#X connect 28 0 26 0;
#X connect 29 0 35 0;
#X connect 30 0 29 0;
#X connect 31 0 26 1;
#X connect 31 1 29 1;
#X connect 32 0 5 0;
#X connect 33 0 6 0;
#X connect 34 0 5 0;
#X connect 35 0 6 0;
#X connect 36 0 5 1;
#X connect 36 1 6 1;
#X restore 72 62 pd up_down;
#X obj 298 98 throw~ \$0-p0.left;
#X obj 318 118 throw~ \$0-p0.right;
#X msg 99 361 0.1 0;
#X connect 0 0 3 0;
#X connect 1 0 11 1;
#X connect 1 0 12 1;
#X connect 2 0 0 0;
#X connect 3 0 31 0;
#X connect 3 1 4 0;
#X connect 4 0 1 0;
#X connect 5 0 28 1;
#X connect 6 0 27 1;
#X connect 8 1 10 0;
#X connect 9 0 7 0;
#X connect 9 0 8 0;
#X connect 10 0 15 1;
#X connect 10 1 16 1;
#X connect 11 0 23 0;
#X connect 12 0 24 0;
#X connect 14 0 28 0;
#X connect 15 0 19 0;
#X connect 16 0 20 0;
#X connect 17 0 27 0;
#X connect 21 0 11 0;
#X connect 22 0 12 0;
#X connect 27 0 29 0;
#X connect 27 1 30 0;
#X connect 28 0 25 0;
#X connect 28 0 26 0;
#X connect 28 1 25 0;
#X connect 28 1 26 0;
#X connect 31 0 1 0;
