#N canvas 107 364 462 310 10;
#X obj 93 31 inlet;
#X obj 93 58 bang;
#X obj 93 229 outlet;
#X obj 93 175 pack float symbol symbol;
#X obj 118 129 makefilename %02d;
#X obj 247 129 makefilename %02d;
#X obj 93 202 makesymbol %s-%s-%s;
#X obj 93 84 date -----------;
#X connect 0 0 1 0;
#X connect 1 0 7 0;
#X connect 3 0 6 0;
#X connect 4 0 3 1;
#X connect 5 0 3 2;
#X connect 6 0 2 0;
#X connect 7 0 3 0;
#X connect 7 1 4 0;
#X connect 7 2 5 0;
