#N canvas 398 469 470 318 10;
#X obj 93 31 inlet;
#X obj 93 58 bang;
#X obj 93 229 outlet;
#N canvas 834 168 462 312 addzero 0;
#X obj 186 38 inlet;
#X obj 191 255 outlet;
#X obj 188 102 moses 10;
#X obj 65 187 makesymbol 0%s;
#X obj 244 187 makesymbol %s;
#X connect 0 0 2 0;
#X connect 2 0 3 0;
#X connect 2 1 4 0;
#X connect 3 0 1 0;
#X connect 4 0 1 0;
#X restore 136 135 pd addzero;
#N canvas 0 22 462 312 addzero 0;
#X obj 186 38 inlet;
#X obj 191 255 outlet;
#X obj 188 102 moses 10;
#X obj 65 187 makesymbol 0%s;
#X obj 244 187 makesymbol %s;
#X connect 0 0 2 0;
#X connect 2 0 3 0;
#X connect 2 1 4 0;
#X connect 3 0 1 0;
#X connect 4 0 1 0;
#X restore 216 135 pd addzero;
#X obj 93 175 pack float symbol symbol;
#X obj 93 84 time -----------;
#X obj 93 202 makesymbol %s:%s:%s;
#X connect 0 0 1 0;
#X connect 1 0 6 0;
#X connect 3 0 5 1;
#X connect 4 0 5 2;
#X connect 5 0 7 0;
#X connect 6 0 5 0;
#X connect 6 1 3 0;
#X connect 6 2 4 0;
#X connect 7 0 2 0;
