#N canvas 460 331 474 340 10;
#X obj 66 279 outlet~;
#X obj 176 279 outlet~;
#X obj 66 83 inlet~ mono;
#X obj 180 131 r \$1;
#X text 290 108 \$2=with line \, change term;
#X text 289 49 \$1=sender name of panning;
#X floatatom 366 170 5 0 0 0 - - -;
#X obj 66 195 j-pan~;
#X obj 167 67 inlet pan0to1;
#X msg 366 138 0;
#X msg 401 138 0.5;
#X msg 436 138 1;
#X connect 2 0 7 0;
#X connect 3 0 7 1;
#X connect 7 0 0 0;
#X connect 7 1 1 0;
#X connect 8 0 7 1;
#X connect 9 0 6 0;
#X connect 10 0 6 0;
#X connect 11 0 6 0;
