#N canvas 516 257 1098 717 10;
#X obj 87 657 outlet output_packed_3floats;
#X obj 114 387 r range_\$1;
#X obj 533 89 r durCtrl_\$1;
#N canvas 82 44 635 633 pitchConverter 0;
#X floatatom 84 299 5 0 0 0 - - -;
#X obj 74 277 expr 1/$f1;
#X obj 74 171 mtof;
#X floatatom 84 101 5 0 0 0 - - -;
#X obj 74 46 inlet pitchCtrl;
#X obj 74 122 + 69;
#X obj 74 231 / 440;
#X floatatom 84 193 5 0 0 0 - - -;
#X floatatom 84 144 5 0 0 0 - - -;
#X floatatom 84 253 5 0 0 0 - - -;
#X obj 74 510 outlet pitch_to_Granita128;
#X connect 1 0 0 0;
#X connect 1 0 10 0;
#X connect 2 0 6 0;
#X connect 2 0 7 0;
#X connect 3 0 5 0;
#X connect 4 0 5 0;
#X connect 5 0 2 0;
#X connect 5 0 8 0;
#X connect 6 0 1 0;
#X connect 6 0 9 0;
#X restore 676 235 pd pitchConverter;
#X obj 676 91 r pitchCtrl_\$1;
#X obj 649 580 * 1;
#X msg 925 410 1;
#X msg 956 411 -1;
#X obj 875 92 r direction_\$1;
#X obj 875 442 trigger float bang;
#X obj 676 391 t f b;
#X obj 533 394 t f b;
#X obj 87 326 trigger bang bang bang;
#X obj 87 626 pack float float float;
#X obj 87 440 float;
#X obj 506 440 float;
#X obj 649 441 float;
#X obj 114 409 t f f;
#X obj 141 439 s range_\$1.view;
#X obj 774 91 r pC_\$1;
#X text 776 74 test;
#X obj 87 21 inlet metro_on-off;
#X obj 144 90 r speedCtrl_\$1;
#X obj 104 163 s metroBang_\$1;
#X text 95 579 startRange \, dur \, pitch;
#X obj 533 181 max 1e-05;
#X obj 87 126 vmetro2 100;
#X connect 1 0 17 0;
#X connect 2 0 25 0;
#X connect 3 0 10 0;
#X connect 4 0 3 0;
#X connect 5 0 13 2;
#X connect 6 0 9 0;
#X connect 7 0 9 0;
#X connect 8 0 9 0;
#X connect 9 0 5 1;
#X connect 9 1 5 0;
#X connect 10 0 16 1;
#X connect 10 1 16 0;
#X connect 11 0 15 1;
#X connect 11 1 15 0;
#X connect 12 0 14 0;
#X connect 12 1 15 0;
#X connect 12 2 16 0;
#X connect 13 0 0 0;
#X connect 14 0 13 0;
#X connect 15 0 13 1;
#X connect 16 0 5 0;
#X connect 17 0 14 1;
#X connect 17 1 18 0;
#X connect 19 0 10 0;
#X connect 21 0 26 0;
#X connect 22 0 26 1;
#X connect 25 0 11 0;
#X connect 26 0 23 0;
#X connect 26 0 12 0;
