#N canvas 201 91 450 300 10;
#N canvas 1076 670 450 300 bak-program-wii.23 0;
#N canvas 568 39 1086 964 p5 0;
#X obj 514 648 f;
#X floatatom 524 670 5 0 0 0 - - -;
#X obj 805 193 jong-itgl;
#X obj 805 215 tgl 15 0 empty empty empty 17 7 0 10 -262144 -1 -1 1
1;
#X floatatom 464 222 5 0 0 0 - - -;
#X obj 454 200 / 256;
#X obj 624 648 f;
#X floatatom 634 670 5 0 0 0 - - -;
#X floatatom 574 222 5 0 0 0 - - -;
#X obj 564 200 / 256;
#X obj 744 648 f;
#X floatatom 754 670 5 0 0 0 - - -;
#X floatatom 694 222 5 0 0 0 - - -;
#X obj 684 200 / 256;
#X obj 178 118 / 90;
#X obj 178 162 + 1;
#X obj 178 184 / 2;
#X floatatom 188 206 5 0 0 1 0-1 - -;
#X floatatom 188 248 5 0 0 1 1-0 - -;
#X floatatom 188 300 5 0 0 1 1000-0 - -;
#X obj 178 226 jong-01to10;
#X obj 454 386 *;
#X obj 178 278 * 300;
#X obj 454 282 + 1;
#X obj 454 304 / 2;
#X floatatom 484 304 5 0 0 1 0-1 - -;
#X obj 564 386 *;
#X obj 564 282 + 1;
#X obj 564 304 / 2;
#X floatatom 594 304 5 0 0 1 0-1 - -;
#X obj 694 386 *;
#X obj 684 282 + 1;
#X obj 684 304 / 2;
#X floatatom 714 304 5 0 0 1 0-1 - -;
#X obj 178 343 max 30;
#X obj 684 250 j-spg;
#X obj 454 250 j-spg;
#X obj 564 250 j-spg;
#X obj 804 147 r 5-b;
#X obj 454 178 r 5-x;
#X obj 564 178 r 5-y;
#X obj 684 179 r 5-z;
#X obj 176 84 r 5-p;
#X obj 735 350 r maxSamples_1;
#X obj 444 440 f;
#X obj 140 479 f;
#X obj 293 479 f;
#X floatatom 454 462 11 0 0 0 - - -;
#X floatatom 150 501 5 0 0 0 - - -;
#X floatatom 303 501 5 0 0 0 - - -;
#X obj 554 440 f;
#X floatatom 564 462 11 0 0 0 - - -;
#X obj 684 440 f;
#X floatatom 694 462 11 0 0 0 - - -;
#X obj 140 528 s speedCtrl_1;
#X obj 140 578 s speedCtrl_2;
#X obj 140 628 s speedCtrl_3;
#X obj 293 527 s durCtrl_1;
#X obj 293 577 s durCtrl_2;
#X obj 293 627 s durCtrl_3;
#X obj 444 492 s range_1;
#X obj 554 492 s range_2;
#X obj 684 492 s range_3;
#X obj 514 695 s pitchCtrl_1;
#X obj 624 695 s pitchCtrl_2;
#X obj 744 695 s pitchCtrl_3;
#X obj 624 609 + 0;
#X obj 744 609 + 0;
#X obj 514 609 + 0;
#X obj 331 52 tgl 15 0 empty empty empty 17 7 0 10 -262144 -1 -1 0
1;
#X obj 331 72 t f f f;
#X obj 331 94 s metro_1;
#X obj 341 114 s metro_2;
#X obj 351 134 s metro_3;
#X obj 329 21 r 5-a;
#X obj 514 587 * 12;
#X obj 624 587 * 12;
#X obj 744 587 * 12;
#X connect 0 0 1 0;
#X connect 0 0 63 0;
#X connect 2 0 3 0;
#X connect 3 0 35 1;
#X connect 3 0 36 1;
#X connect 3 0 37 1;
#X connect 5 0 4 0;
#X connect 5 0 36 0;
#X connect 6 0 7 0;
#X connect 6 0 64 0;
#X connect 9 0 8 0;
#X connect 9 0 37 0;
#X connect 10 0 11 0;
#X connect 10 0 65 0;
#X connect 13 0 12 0;
#X connect 13 0 35 0;
#X connect 14 0 15 0;
#X connect 15 0 16 0;
#X connect 16 0 17 0;
#X connect 16 0 20 0;
#X connect 20 0 18 0;
#X connect 20 0 22 0;
#X connect 21 0 44 0;
#X connect 22 0 19 0;
#X connect 22 0 34 0;
#X connect 23 0 24 0;
#X connect 24 0 25 0;
#X connect 24 0 21 0;
#X connect 26 0 50 0;
#X connect 27 0 28 0;
#X connect 28 0 29 0;
#X connect 28 0 26 0;
#X connect 30 0 52 0;
#X connect 31 0 32 0;
#X connect 32 0 33 0;
#X connect 32 0 30 0;
#X connect 34 0 45 0;
#X connect 34 0 46 0;
#X connect 35 0 31 0;
#X connect 35 0 77 0;
#X connect 36 0 23 0;
#X connect 36 0 75 0;
#X connect 37 0 27 0;
#X connect 37 0 76 0;
#X connect 38 0 2 0;
#X connect 39 0 5 0;
#X connect 40 0 9 0;
#X connect 41 0 13 0;
#X connect 42 0 14 0;
#X connect 43 0 21 1;
#X connect 43 0 26 1;
#X connect 43 0 30 1;
#X connect 44 0 47 0;
#X connect 44 0 60 0;
#X connect 45 0 48 0;
#X connect 45 0 54 0;
#X connect 45 0 55 0;
#X connect 45 0 56 0;
#X connect 46 0 49 0;
#X connect 46 0 57 0;
#X connect 46 0 58 0;
#X connect 46 0 59 0;
#X connect 50 0 51 0;
#X connect 50 0 61 0;
#X connect 52 0 53 0;
#X connect 52 0 62 0;
#X connect 66 0 6 0;
#X connect 67 0 10 0;
#X connect 68 0 0 0;
#X connect 69 0 70 0;
#X connect 70 0 71 0;
#X connect 70 1 72 0;
#X connect 70 2 73 0;
#X connect 74 0 69 0;
#X connect 75 0 68 0;
#X connect 76 0 66 0;
#X connect 77 0 67 0;
#X restore 112 183 pd p5;
#N canvas 406 214 1257 794 p6 0;
#X obj 794 485 f;
#X obj 894 668 f;
#X floatatom 804 507 11 0 0 0 - - -;
#X floatatom 281 582 5 0 0 0 - - -;
#X floatatom 904 690 5 0 0 0 - - -;
#X obj 907 145 tgl 15 0 empty empty empty 17 7 0 10 -262144 -1 -1 1
1;
#X obj 834 270 / 256;
#X obj 1004 668 f;
#X floatatom 1014 690 5 0 0 0 - - -;
#X obj 944 270 / 256;
#X obj 1124 668 f;
#X floatatom 1134 690 5 0 0 0 - - -;
#X obj 1064 270 / 256;
#X obj 158 138 / 90;
#X obj 158 182 + 1;
#X obj 158 204 / 2;
#X floatatom 168 226 5 0 0 1 0-1 - -;
#X floatatom 168 268 5 0 0 1 1-0 - -;
#X floatatom 168 320 5 0 0 1 1000-0 - -;
#X obj 158 246 jong-01to10;
#X obj 794 436 *;
#X obj 158 298 * 300;
#X obj 389 274 tgl 15 0 empty empty empty 17 7 0 10 -262144 -1 -1 1
1;
#X obj 794 362 + 1;
#X obj 794 384 / 2;
#X floatatom 824 384 5 0 0 1 0-1 - -;
#X obj 904 485 f;
#X floatatom 914 507 11 0 0 0 - - -;
#X obj 904 436 *;
#X obj 904 362 + 1;
#X obj 904 384 / 2;
#X floatatom 934 384 5 0 0 1 0-1 - -;
#X obj 1024 485 f;
#X floatatom 1034 507 11 0 0 0 - - -;
#X obj 1024 436 *;
#X obj 1024 362 + 1;
#X obj 1024 384 / 2;
#X floatatom 1054 384 5 0 0 1 0-1 - -;
#X obj 834 318 spigot;
#X obj 944 318 spigot;
#X obj 1064 318 spigot;
#X obj 907 123 jong-itgl b;
#X obj 389 252 jong-itgl a;
#X floatatom 411 582 5 0 0 0 - - -;
#X floatatom 551 582 5 0 0 0 - - -;
#X obj 401 560 * 1;
#X obj 541 560 * 1;
#X obj 271 560 * 1;
#X obj 158 413 + 30;
#X obj 158 362 spigot;
#X floatatom 954 294 5 0 0 1 --1+1 - -;
#X floatatom 1074 294 5 0 0 1 --1+1 - -;
#X floatatom 844 294 5 0 0 1 --1+1 - -;
#X obj 155 64 r 6-p;
#X obj 834 248 r 6-x;
#X obj 944 248 r 6-y;
#X obj 1064 249 r 6-z;
#X obj 1112 396 r maxSamples_1;
#X obj 271 639 s speedCtrl_1;
#X obj 68 492 t f f f;
#X obj 23 643 s durCtrl_1;
#X obj 102 643 s durCtrl_2;
#X obj 181 643 s durCtrl_3;
#X obj 401 639 s speedCtrl_2;
#X obj 541 642 s speedCtrl_3;
#X obj 271 522 t f f f;
#X obj 159 445 t f f;
#X obj 386 209 r 6-a;
#X obj 908 93 r 6-b;
#X obj 491 241 tgl 15 0 empty empty empty 17 7 0 10 -262144 -1 -1 0
1;
#X obj 491 261 t f f f;
#X obj 491 283 s metro_1;
#X obj 501 303 s metro_2;
#X obj 511 323 s metro_3;
#X obj 794 538 s range_1;
#X obj 904 537 s range_2;
#X obj 1024 538 s range_3;
#X obj 894 715 s pitchCtrl_1;
#X obj 1004 715 s pitchCtrl_2;
#X obj 1124 715 s pitchCtrl_3;
#X obj 1124 607 * 12;
#X obj 1004 607 * 12;
#X obj 894 607 * 12;
#X obj 894 629 + 0;
#X obj 1004 629 + 0;
#X obj 1124 629 + 0;
#X connect 0 0 2 0;
#X connect 0 0 74 0;
#X connect 1 0 4 0;
#X connect 1 0 77 0;
#X connect 5 0 38 1;
#X connect 5 0 39 1;
#X connect 5 0 40 1;
#X connect 5 0 49 1;
#X connect 6 0 38 0;
#X connect 6 0 52 0;
#X connect 7 0 8 0;
#X connect 7 0 78 0;
#X connect 9 0 39 0;
#X connect 9 0 50 0;
#X connect 10 0 11 0;
#X connect 10 0 79 0;
#X connect 12 0 40 0;
#X connect 12 0 51 0;
#X connect 13 0 14 0;
#X connect 14 0 15 0;
#X connect 15 0 16 0;
#X connect 15 0 19 0;
#X connect 19 0 17 0;
#X connect 19 0 21 0;
#X connect 20 0 0 0;
#X connect 21 0 18 0;
#X connect 21 0 49 0;
#X connect 23 0 24 0;
#X connect 24 0 25 0;
#X connect 24 0 20 0;
#X connect 24 0 47 1;
#X connect 26 0 27 0;
#X connect 26 0 75 0;
#X connect 28 0 26 0;
#X connect 29 0 30 0;
#X connect 30 0 31 0;
#X connect 30 0 28 0;
#X connect 30 0 45 1;
#X connect 32 0 33 0;
#X connect 32 0 76 0;
#X connect 34 0 32 0;
#X connect 35 0 36 0;
#X connect 36 0 37 0;
#X connect 36 0 34 0;
#X connect 36 0 46 1;
#X connect 38 0 23 0;
#X connect 38 0 82 0;
#X connect 39 0 29 0;
#X connect 39 0 81 0;
#X connect 40 0 35 0;
#X connect 40 0 80 0;
#X connect 41 0 5 0;
#X connect 42 0 22 0;
#X connect 45 0 43 0;
#X connect 45 0 63 0;
#X connect 46 0 44 0;
#X connect 46 0 64 0;
#X connect 47 0 3 0;
#X connect 47 0 58 0;
#X connect 48 0 66 0;
#X connect 49 0 48 0;
#X connect 53 0 13 0;
#X connect 54 0 6 0;
#X connect 55 0 9 0;
#X connect 56 0 12 0;
#X connect 57 0 20 1;
#X connect 57 0 28 1;
#X connect 57 0 34 1;
#X connect 59 0 60 0;
#X connect 59 1 61 0;
#X connect 59 2 62 0;
#X connect 65 0 47 0;
#X connect 65 1 45 0;
#X connect 65 2 46 0;
#X connect 66 0 59 0;
#X connect 66 1 65 0;
#X connect 67 0 42 0;
#X connect 67 0 69 0;
#X connect 68 0 41 0;
#X connect 69 0 70 0;
#X connect 70 0 71 0;
#X connect 70 1 72 0;
#X connect 70 2 73 0;
#X connect 80 0 85 0;
#X connect 81 0 84 0;
#X connect 82 0 83 0;
#X connect 83 0 1 0;
#X connect 84 0 7 0;
#X connect 85 0 10 0;
#X restore 113 205 pd p6;
#N canvas 600 22 877 419 p1.gliss 0;
#X floatatom 34 91 5 0 0 1 --90+90 - -;
#X floatatom 119 91 5 0 0 1 --90+90 - -;
#X floatatom 33 141 5 0 0 0 - - -;
#X floatatom 83 141 5 0 0 0 - - -;
#X floatatom 133 141 5 0 0 1 --256+256 - -;
#N canvas 381 97 927 760 pitchCtrl_1 0;
#X obj 27 84 / 90;
#X floatatom 37 106 5 0 0 1 --1+1 - -;
#X obj 84 608 s pitchCtrl_1;
#X obj 496 619 s durCtrl_1;
#X obj 27 207 moses 0;
#X obj 84 431 f;
#X obj 545 5 loadbang;
#X obj 654 551 hsl 128 15 0 100 0 0 empty empty 0-100 -2 -8 0 10 -262144
-1 -1 0 1;
#X obj 663 174 expr $f1-$f2;
#X floatatom 673 196 5 0 0 0 - - -;
#X obj 705 132 t f f;
#X obj 400 382 t f b;
#X msg 415 87 0.618 1;
#X text 414 69 spd:prop;
#X obj 400 339 f;
#X obj 457 339 f;
#X obj 415 109 unpack f f;
#X obj 663 110 unpack f f;
#X obj 111 467 hsl 128 15 -24 12 0 0 empty empty empty -2 -8 0 10 -262144
-1 -1 0 1;
#X floatatom 29 459 5 0 0 0 - - -;
#X obj 27 406 * -24;
#X obj 27 296 expr $f1*$f1;
#X obj 663 132 t f f;
#X floatatom 651 571 5 0 0 0 - - -;
#X obj 27 126 t f f;
#X obj 494 274 expr $f1*$f1;
#X obj 494 445 * 1;
#X obj 84 518 t f;
#X obj 496 555 t f f f;
#X msg 760 377 range 0 \$1;
#X text 506 69 gliss: min center max;
#X obj 545 111 unpack f f f;
#X obj 494 316 expr ($f1*$f2) +$f3;
#X msg 545 89 -24 0 12;
#X text -1 296 2cha;
#N canvas 367 175 450 300 y=x^2/-1+1to01 0;
#X obj 66 100 - 1;
#X obj 66 146 + 1;
#X obj 66 124 expr $f1*$f1 *-1;
#X text 102 96 y=-x^2 >> -1+1 to 0-1;
#X obj 109 44 inlet;
#X obj 106 182 outlet;
#X connect 0 0 2 0;
#X connect 1 0 5 0;
#X connect 2 0 1 0;
#X connect 4 0 0 0;
#X restore 84 334 pd y=x^2/-1+1to01;
#X obj 84 406 * 12;
#X obj 27 233 t f b;
#X obj 84 233 t f b;
#X msg 214 417 range -24 \$1;
#X obj 27 32 inlet \$1-p;
#X text 650 69 dur: max \, base;
#X msg 663 88 100 15;
#X obj 84 560 spigot;
#X obj 208 531 r 1-b;
#X obj 208 553 jong-itgl;
#X obj 208 575 tgl 15 0 empty empty empty 17 7 0 10 -262144 -1 -1 1
1;
#X connect 0 0 1 0;
#X connect 0 0 24 0;
#X connect 4 0 37 0;
#X connect 4 1 38 0;
#X connect 5 0 18 0;
#X connect 5 0 19 0;
#X connect 5 0 27 0;
#X connect 6 0 33 0;
#X connect 6 0 42 0;
#X connect 6 0 12 0;
#X connect 8 0 9 0;
#X connect 8 0 32 1;
#X connect 10 0 32 2;
#X connect 10 1 8 1;
#X connect 11 0 26 1;
#X connect 11 1 26 0;
#X connect 12 0 16 0;
#X connect 14 0 11 0;
#X connect 15 0 11 0;
#X connect 16 0 14 1;
#X connect 16 1 15 1;
#X connect 17 0 22 0;
#X connect 17 1 10 0;
#X connect 20 0 5 0;
#X connect 21 0 20 0;
#X connect 22 0 8 0;
#X connect 22 1 29 0;
#X connect 24 0 4 0;
#X connect 24 1 25 0;
#X connect 25 0 32 0;
#X connect 26 0 28 0;
#X connect 27 0 43 0;
#X connect 28 0 3 0;
#X connect 28 2 7 0;
#X connect 28 2 23 0;
#X connect 29 0 7 0;
#X connect 31 0 20 1;
#X connect 31 1 4 1;
#X connect 31 2 39 0;
#X connect 31 2 36 1;
#X connect 32 0 26 0;
#X connect 33 0 31 0;
#X connect 35 0 36 0;
#X connect 36 0 5 0;
#X connect 37 0 21 0;
#X connect 37 1 14 0;
#X connect 38 0 35 0;
#X connect 38 1 15 0;
#X connect 39 0 18 0;
#X connect 40 0 0 0;
#X connect 42 0 17 0;
#X connect 43 0 2 0;
#X connect 44 0 45 0;
#X connect 45 0 46 0;
#X connect 46 0 43 1;
#X restore 342 153 pd pitchCtrl_1;
#N canvas 1059 673 450 300 direction 0;
#X msg 207 87 1;
#X msg 247 87 -1;
#X obj 216 148 s direction_1;
#X obj 208 119 f;
#X obj 226 168 s direction_2;
#X obj 236 188 s direction_3;
#X connect 0 0 3 0;
#X connect 1 0 3 0;
#X connect 3 0 2 0;
#X connect 3 0 4 0;
#X connect 3 0 5 0;
#X restore 714 148 pd direction;
#N canvas 1140 123 515 657 range_3.nn 0;
#X obj 180 253 tgl 15 0 empty empty empty 17 7 0 10 -262144 -1 -1 0
1;
#X obj 271 492 *;
#X floatatom 336 488 11 0 0 0 - - -;
#X obj 271 422 / 3;
#X floatatom 271 444 5 0 0 0 - - -;
#X obj 271 390 random 4;
#X obj 384 406 - 1;
#X obj 244 539 s range_3;
#X obj 336 520 / 2;
#N canvas 655 510 450 300 test 0;
#X msg 69 99 down;
#X msg 109 99 up;
#X msg 139 99 reset;
#X floatatom 79 159 5 0 0 0 - - -;
#X obj 69 137 j.stepper 99;
#X obj 48 212 outlet;
#X connect 0 0 4 0;
#X connect 1 0 4 0;
#X connect 2 0 4 0;
#X connect 4 0 3 0;
#X connect 4 0 5 0;
#X restore 122 71 pd test;
#X obj 336 466 r maxSamples_3;
#X obj 361 107 + 90;
#X obj 361 129 / 180;
#X obj 361 173 sqrt;
#X obj 361 203 + 2;
#X obj 361 151 * 24;
#X obj 361 247 t f f;
#X obj 180 295 t b b;
#X obj 129 350 s speedCtrl_3;
#X obj 361 55 r 1-p;
#X floatatom 371 77 5 0 0 0 - - -;
#X obj 56 38 inlet metro-onoff;
#X obj 180 273 metro 100;
#X obj 231 38 inlet tempo;
#X connect 0 0 22 0;
#X connect 1 0 7 0;
#X connect 3 0 4 0;
#X connect 3 0 1 0;
#X connect 5 0 3 0;
#X connect 6 0 3 1;
#X connect 8 0 1 1;
#X connect 10 0 2 0;
#X connect 10 0 8 0;
#X connect 11 0 12 0;
#X connect 12 0 15 0;
#X connect 13 0 14 0;
#X connect 14 0 16 0;
#X connect 15 0 13 0;
#X connect 16 0 5 1;
#X connect 16 1 6 0;
#X connect 17 0 18 0;
#X connect 17 1 5 0;
#X connect 19 0 11 0;
#X connect 19 0 20 0;
#X connect 21 0 0 0;
#X connect 22 0 17 0;
#X connect 23 0 22 1;
#X restore 460 193 pd range_3.nn;
#N canvas 664 313 964 705 pitchCtrl_2.nn 0;
#X obj 67 84 / 90;
#X floatatom 77 106 5 0 0 1 --1+1 - -;
#X obj 176 501 f;
#X obj 655 5 loadbang;
#X obj 784 601 hsl 128 15 0 100 0 0 empty empty 0-100 -2 -8 0 10 -262144
-1 -1 0 1;
#X msg 803 78 100 15;
#X obj 803 164 expr $f1-$f2;
#X floatatom 813 186 5 0 0 0 - - -;
#X obj 845 122 t f f;
#X text 790 59 spd: max \, base;
#X obj 490 382 t f b;
#X text 504 59 spd:prop;
#X obj 490 339 f;
#X obj 547 339 f;
#X obj 505 99 unpack f f;
#X obj 803 100 unpack f f;
#X obj 203 537 hsl 128 15 -24 4 0 0 empty empty empty -2 -8 0 10 -262144
-1 -1 0 1;
#X obj 176 456 * 4;
#X floatatom 120 530 9 0 0 0 - - -;
#X obj 67 456 * -24;
#X obj 803 122 t f f;
#X floatatom 781 621 5 0 0 0 - - -;
#X obj 67 126 t f f;
#X obj 604 274 expr $f1*$f1;
#X obj 604 316 expr ($f1 * $f2) + $f3;
#X obj 604 445 * 1;
#X obj 176 568 t f;
#X obj 606 555 t f f f;
#X msg 870 377 range 0 \$1;
#X obj 176 658 s pitchCtrl_2;
#X obj 606 649 s durCtrl_2;
#X obj 655 101 unpack f f f;
#X text 630 59 gliss: min center max;
#X obj 67 329 expr $f1*$f1*$f1*$f1;
#X obj 67 257 moses 0;
#X text 36 328 4cha;
#X msg 655 79 -24 0 4;
#X obj 67 289 t f b;
#X obj 176 289 t f b;
#X obj 176 370 expr $f1*$f1;
#X msg 265 486 range -24 \$1;
#X msg 505 77 0.382 0.618;
#X obj 67 33 inlet \$1-p;
#X obj 188 605 spigot;
#X obj 312 576 r 1-b;
#X obj 312 598 jong-itgl;
#X obj 312 620 tgl 15 0 empty empty empty 17 7 0 10 -262144 -1 -1 1
1;
#X connect 0 0 1 0;
#X connect 0 0 22 0;
#X connect 2 0 16 0;
#X connect 2 0 18 0;
#X connect 2 0 26 0;
#X connect 3 0 36 0;
#X connect 3 0 5 0;
#X connect 3 0 41 0;
#X connect 5 0 15 0;
#X connect 6 0 7 0;
#X connect 6 0 24 1;
#X connect 8 0 24 2;
#X connect 8 1 6 1;
#X connect 10 0 25 1;
#X connect 10 1 25 0;
#X connect 12 0 10 0;
#X connect 13 0 10 0;
#X connect 14 0 12 1;
#X connect 14 1 13 1;
#X connect 15 0 20 0;
#X connect 15 1 8 0;
#X connect 17 0 2 0;
#X connect 19 0 2 0;
#X connect 20 0 6 0;
#X connect 20 1 28 0;
#X connect 22 0 34 0;
#X connect 22 1 23 0;
#X connect 23 0 24 0;
#X connect 24 0 25 0;
#X connect 25 0 27 0;
#X connect 26 0 43 0;
#X connect 27 0 30 0;
#X connect 27 2 4 0;
#X connect 27 2 21 0;
#X connect 28 0 4 0;
#X connect 31 0 19 1;
#X connect 31 1 34 1;
#X connect 31 2 17 1;
#X connect 31 2 40 0;
#X connect 33 0 19 0;
#X connect 34 0 37 0;
#X connect 34 1 38 0;
#X connect 36 0 31 0;
#X connect 37 0 33 0;
#X connect 37 1 12 0;
#X connect 38 0 39 0;
#X connect 38 1 13 0;
#X connect 39 0 17 0;
#X connect 40 0 16 0;
#X connect 41 0 14 0;
#X connect 42 0 0 0;
#X connect 43 0 29 0;
#X connect 44 0 45 0;
#X connect 45 0 46 0;
#X connect 46 0 43 1;
#X restore 342 173 pd pitchCtrl_2.nn;
#N canvas 999 171 484 708 range_2.nn 0;
#X obj 96 267 tgl 15 0 empty empty empty 17 7 0 10 -262144 -1 -1 0
1;
#X obj 96 541 *;
#X floatatom 161 537 11 0 0 0 - - -;
#X obj 96 471 / 3;
#X floatatom 96 493 5 0 0 0 - - -;
#X obj 96 439 random 4;
#X obj 199 435 - 1;
#X obj 69 588 s range_2;
#X obj 161 570 / 3;
#N canvas 655 510 450 300 test 0;
#X msg 69 99 down;
#X msg 109 99 up;
#X msg 139 99 reset;
#X floatatom 79 159 5 0 0 0 - - -;
#X obj 69 137 j.stepper 99;
#X obj 48 212 outlet;
#X connect 0 0 4 0;
#X connect 1 0 4 0;
#X connect 2 0 4 0;
#X connect 4 0 3 0;
#X connect 4 0 5 0;
#X restore 122 71 pd test;
#X obj 161 515 r maxSamples_2;
#X obj 282 185 + 90;
#X obj 282 207 / 180;
#X obj 282 251 sqrt;
#X obj 282 281 + 2;
#X obj 282 229 * 24;
#X obj 282 325 t f f;
#X obj 96 309 t b b;
#X obj 27 352 s speedCtrl_2;
#X obj 282 73 r 1-p;
#X obj 46 28 inlet metro-onoff;
#X obj 96 287 metro 100;
#X obj 226 26 inlet tempo;
#X connect 0 0 21 0;
#X connect 1 0 7 0;
#X connect 3 0 4 0;
#X connect 3 0 1 0;
#X connect 5 0 3 0;
#X connect 6 0 3 1;
#X connect 8 0 1 1;
#X connect 10 0 2 0;
#X connect 10 0 8 0;
#X connect 11 0 12 0;
#X connect 12 0 15 0;
#X connect 13 0 14 0;
#X connect 14 0 16 0;
#X connect 15 0 13 0;
#X connect 16 0 5 1;
#X connect 16 1 6 0;
#X connect 17 0 18 0;
#X connect 17 1 5 0;
#X connect 19 0 11 0;
#X connect 20 0 0 0;
#X connect 21 0 17 0;
#X connect 22 0 21 1;
#X restore 460 173 pd range_2.nn;
#N canvas 876 231 518 646 range_1.nn 0;
#X obj 212 218 tgl 15 0 empty empty empty 17 7 0 10 -262144 -1 -1 0
1;
#X obj 212 549 s range_1;
#X obj 212 492 *;
#X obj 288 416 r maxSamples_1;
#X floatatom 298 438 11 0 0 0 - - -;
#X floatatom 222 404 5 0 0 0 - - -;
#X obj 212 350 random 4;
#X obj 323 351 - 1;
#X obj 421 104 + 90;
#X obj 421 126 / 180;
#X obj 421 170 sqrt;
#X obj 421 200 + 2;
#X obj 421 148 * 24;
#X obj 288 463 / 5;
#N canvas 655 510 450 300 test 0;
#X msg 69 99 down;
#X msg 109 99 up;
#X msg 139 99 reset;
#X floatatom 79 159 5 0 0 0 - - -;
#X obj 69 137 j.stepper 99;
#X obj 48 212 outlet;
#X connect 0 0 4 0;
#X connect 1 0 4 0;
#X connect 2 0 4 0;
#X connect 4 0 3 0;
#X connect 4 0 5 0;
#X restore 122 71 pd test;
#X obj 421 244 t f f;
#X floatatom 451 276 5 0 0 0 - - -;
#X obj 108 299 s speedCtrl_1;
#X obj 85 206 f;
#X floatatom 84 176 5 0 0 0 - - -;
#X obj 108 231 t f f;
#X floatatom 118 263 5 0 0 0 - - -;
#X obj 264 52 + 90;
#X obj 264 85 / 180;
#X obj 264 107 * 100;
#X obj 212 382 / 3;
#X floatatom 281 374 5 0 0 0 - - -;
#X obj 265 21 r 1-p;
#X obj 36 18 inlet metro-onoff;
#X obj 212 288 metro 100;
#X obj 166 19 inlet tempo;
#X connect 0 0 29 0;
#X connect 2 0 1 0;
#X connect 3 0 4 0;
#X connect 3 0 13 0;
#X connect 6 0 25 0;
#X connect 8 0 9 0;
#X connect 9 0 12 0;
#X connect 10 0 11 0;
#X connect 11 0 15 0;
#X connect 12 0 10 0;
#X connect 13 0 2 1;
#X connect 15 0 6 1;
#X connect 15 1 7 0;
#X connect 15 1 16 0;
#X connect 18 0 20 0;
#X connect 19 0 18 0;
#X connect 20 0 17 0;
#X connect 20 0 21 0;
#X connect 20 1 29 1;
#X connect 22 0 23 0;
#X connect 23 0 24 0;
#X connect 25 0 5 0;
#X connect 25 0 2 0;
#X connect 26 0 25 1;
#X connect 27 0 8 0;
#X connect 27 0 22 0;
#X connect 28 0 0 0;
#X connect 29 0 6 0;
#X connect 30 0 29 1;
#X restore 460 153 pd range_1.nn;
#X obj 342 113 t f f f;
#N canvas 723 306 904 699 pitchCtrl_3.nn 0;
#X obj 27 84 / 90;
#X floatatom 37 106 5 0 0 1 --1+1 - -;
#X obj 27 207 moses 0;
#X obj 66 431 f;
#X obj 545 5 loadbang;
#X obj 674 601 hsl 128 15 0 100 0 0 empty empty 0-100 -2 -8 0 10 -262144
-1 -1 0 1;
#X msg 693 78 100 15;
#X obj 693 164 expr $f1-$f2;
#X floatatom 703 186 5 0 0 0 - - -;
#X obj 735 122 t f f;
#X text 680 59 spd: max \, base;
#X obj 400 382 t f b;
#X msg 415 77 0.618 1;
#X text 414 59 spd:prop;
#X obj 400 339 f;
#X obj 457 339 f;
#X obj 380 313 bang;
#X obj 437 313 bang;
#X obj 415 99 unpack f f;
#X obj 693 100 unpack f f;
#X obj 93 467 hsl 128 15 -24 0 0 0 empty empty -24-0 -2 -8 0 10 -262144
-1 -1 0 1;
#X obj 66 406 * 4;
#X floatatom 29 459 5 0 0 0 - - -;
#X obj 27 406 * -24;
#X obj 66 294 - 1;
#X obj 66 340 + 1;
#X obj 66 318 expr $f1*$f1 *-1;
#X obj 693 122 t f f;
#X floatatom 671 621 5 0 0 0 - - -;
#X obj 27 126 t f f;
#X obj 494 274 expr $f1*$f1;
#X obj 494 316 expr ($f1 * $f2) + $f3;
#X obj 494 445 * 1;
#X obj 237 466 hsl 128 15 0 4 0 0 empty empty 0-4 -2 -8 0 10 -262144
-1 -1 0 1;
#X obj 66 568 t f;
#X obj 496 555 t f f f;
#X msg 760 377 range 0 \$1;
#X obj 545 101 unpack f f f;
#X text 520 59 gliss: min center max;
#X text 97 294 y=-x^2 >> -1+1 to 0-1;
#X obj 66 658 s pitchCtrl_3;
#X obj 496 649 s durCtrl_3;
#X obj 27 259 expr $f1*$f1*$f1*$f1*$f1*$f1*$f1*$f1;
#X msg 545 79 -24 0 -5;
#X obj 27 32 inlet \$1-p;
#X obj 84 604 spigot;
#X obj 208 575 r 1-b;
#X obj 208 597 jong-itgl;
#X obj 208 619 tgl 15 0 empty empty empty 17 7 0 10 -262144 -1 -1 1
1;
#X connect 0 0 1 0;
#X connect 0 0 29 0;
#X connect 2 0 16 0;
#X connect 2 0 42 0;
#X connect 2 1 17 0;
#X connect 2 1 24 0;
#X connect 3 0 20 0;
#X connect 3 0 22 0;
#X connect 3 0 33 0;
#X connect 3 0 34 0;
#X connect 4 0 43 0;
#X connect 4 0 6 0;
#X connect 4 0 12 0;
#X connect 6 0 19 0;
#X connect 7 0 8 0;
#X connect 7 0 31 1;
#X connect 9 0 31 2;
#X connect 9 1 7 1;
#X connect 11 0 32 1;
#X connect 11 1 32 0;
#X connect 12 0 18 0;
#X connect 14 0 11 0;
#X connect 15 0 11 0;
#X connect 16 0 14 0;
#X connect 17 0 15 0;
#X connect 18 0 14 1;
#X connect 18 1 15 1;
#X connect 19 0 27 0;
#X connect 19 1 9 0;
#X connect 21 0 3 0;
#X connect 23 0 3 0;
#X connect 24 0 26 0;
#X connect 25 0 21 0;
#X connect 26 0 25 0;
#X connect 27 0 7 0;
#X connect 27 1 36 0;
#X connect 29 0 2 0;
#X connect 29 1 30 0;
#X connect 30 0 31 0;
#X connect 31 0 32 0;
#X connect 32 0 35 0;
#X connect 34 0 45 0;
#X connect 35 0 41 0;
#X connect 35 2 5 0;
#X connect 35 2 28 0;
#X connect 36 0 5 0;
#X connect 37 0 23 1;
#X connect 37 1 2 1;
#X connect 37 2 21 1;
#X connect 42 0 23 0;
#X connect 43 0 37 0;
#X connect 44 0 0 0;
#X connect 45 0 40 0;
#X connect 46 0 47 0;
#X connect 47 0 48 0;
#X connect 48 0 45 1;
#X restore 342 193 pd pitchCtrl_3.nn;
#X obj 119 69 r 1-p;
#X obj 34 69 r 1-r;
#X obj 33 119 r 1-x;
#X obj 83 119 r 1-y;
#X obj 133 119 r 1-z;
#X obj 342 31 r 1-p;
#X obj 460 93 tgl 15 0 empty empty empty 17 7 0 10 -262144 -1 -1 0
1;
#X obj 460 113 t f f f;
#X obj 342 73 spigot;
#X obj 429 18 r p1.tgl;
#X obj 429 40 t f f;
#X obj 429 62 tgl 15 0 empty empty empty 17 7 0 10 -262144 -1 -1 0
1;
#X obj 76 243 tgl 15 0 empty empty empty 17 7 0 10 -262144 -1 -1 0
1;
#X obj 76 263 t f f f;
#X obj 76 285 s metro_1;
#X obj 86 305 s metro_2;
#X obj 96 325 s metro_3;
#X obj 76 222 r 1-a;
#X floatatom 571 98 5 0 0 0 - - -;
#X obj 571 119 t f f f;
#X msg 570 65 100;
#X connect 11 0 5 0;
#X connect 11 1 8 0;
#X connect 11 2 12 0;
#X connect 13 0 1 0;
#X connect 14 0 0 0;
#X connect 15 0 2 0;
#X connect 16 0 3 0;
#X connect 17 0 4 0;
#X connect 18 0 21 0;
#X connect 19 0 20 0;
#X connect 20 0 10 0;
#X connect 20 1 9 0;
#X connect 20 2 7 0;
#X connect 21 0 11 0;
#X connect 22 0 23 0;
#X connect 23 0 24 0;
#X connect 23 1 19 0;
#X connect 24 0 21 1;
#X connect 25 0 26 0;
#X connect 26 0 27 0;
#X connect 26 1 28 0;
#X connect 26 2 29 0;
#X connect 30 0 25 0;
#X connect 31 0 32 0;
#X connect 32 0 10 1;
#X connect 32 1 9 1;
#X connect 32 2 7 1;
#X connect 33 0 31 0;
#X restore 18 182 pd p1.gliss;
#N canvas 349 129 415 373 p2.random 0;
#X obj 38 89 tgl 15 0 empty empty empty 17 7 0 10 -262144 -1 -1 0 1
;
#X obj 38 109 t f f f;
#X obj 38 131 s metro_1;
#X obj 48 151 s metro_2;
#X obj 58 171 s metro_3;
#N canvas 746 243 471 620 range 0;
#X obj 51 169 tgl 15 0 empty empty empty 17 7 0 10 -262144 -1 -1 1
1;
#X obj 51 500 s range_1;
#X obj 51 443 *;
#X obj 85 375 r maxSamples_1;
#X floatatom 95 397 11 0 0 0 - - -;
#X floatatom 61 355 5 0 0 0 - - -;
#X obj 51 271 random 4;
#X obj 51 239 metro 5;
#X obj 51 333 / 3;
#X obj 51 293 + 1;
#X obj 181 443 *;
#X obj 215 375 r maxSamples_1;
#X floatatom 225 397 11 0 0 0 - - -;
#X floatatom 191 355 5 0 0 0 - - -;
#X obj 181 271 random 4;
#X obj 181 333 / 3;
#X obj 181 293 + 1;
#X obj 311 443 *;
#X obj 345 375 r maxSamples_1;
#X floatatom 355 397 11 0 0 0 - - -;
#X floatatom 321 355 5 0 0 0 - - -;
#X obj 311 271 random 4;
#X obj 311 333 / 3;
#X obj 311 293 + 1;
#X obj 181 500 s range_2;
#X obj 311 500 s range_3;
#X obj 181 239 metro 6;
#X obj 311 239 metro 7;
#X obj 345 422 / 2;
#X obj 215 422 / 3;
#X obj 85 422 / 5;
#X obj 52 52 inlet tgl;
#X connect 0 0 7 0;
#X connect 0 0 26 0;
#X connect 0 0 27 0;
#X connect 2 0 1 0;
#X connect 3 0 4 0;
#X connect 3 0 30 0;
#X connect 6 0 9 0;
#X connect 7 0 6 0;
#X connect 8 0 5 0;
#X connect 8 0 2 0;
#X connect 9 0 8 0;
#X connect 10 0 24 0;
#X connect 11 0 12 0;
#X connect 11 0 29 0;
#X connect 14 0 16 0;
#X connect 15 0 13 0;
#X connect 15 0 10 0;
#X connect 16 0 15 0;
#X connect 17 0 25 0;
#X connect 18 0 19 0;
#X connect 18 0 28 0;
#X connect 21 0 23 0;
#X connect 22 0 20 0;
#X connect 22 0 17 0;
#X connect 23 0 22 0;
#X connect 26 0 14 0;
#X connect 27 0 21 0;
#X connect 28 0 17 1;
#X connect 29 0 10 1;
#X connect 30 0 2 1;
#X connect 31 0 0 0;
#X restore 195 199 pd range;
#X obj 195 81 tgl 15 0 empty empty empty 17 7 0 10 -262144 -1 -1 0
1;
#X obj 195 101 jong-itgl;
#N canvas 871 138 700 481 speedCtrl 0;
#X floatatom 221 75 5 0 0 0 - - -;
#X obj 181 75 / 90;
#X obj 181 137 + 1;
#X obj 181 159 / 2;
#X floatatom 221 181 5 0 0 0 - - -;
#X obj 181 97 * -1;
#X obj 181 181 * 100;
#X obj 181 339 s speedCtrl_1;
#X obj 181 203 max 1;
#X obj 181 225 t f f f;
#X obj 200 359 s speedCtrl_2;
#X obj 220 379 s speedCtrl_3;
#X obj 377 170 / 256;
#X obj 437 170 / 256;
#X obj 497 171 / 256;
#X obj 181 277 +;
#X obj 211 277 +;
#X obj 241 277 +;
#X obj 377 192 * 50;
#X obj 437 192 * 50;
#X obj 497 193 * 50;
#X obj 181 53 r 2-p;
#X obj 377 148 r 2-x;
#X obj 437 148 r 2-y;
#X obj 497 148 r 2-z;
#X connect 1 0 5 0;
#X connect 2 0 3 0;
#X connect 3 0 4 0;
#X connect 3 0 6 0;
#X connect 5 0 2 0;
#X connect 6 0 8 0;
#X connect 8 0 9 0;
#X connect 9 0 15 0;
#X connect 9 1 16 0;
#X connect 9 2 17 0;
#X connect 12 0 18 0;
#X connect 13 0 19 0;
#X connect 14 0 20 0;
#X connect 15 0 7 0;
#X connect 16 0 10 0;
#X connect 17 0 11 0;
#X connect 18 0 15 1;
#X connect 19 0 16 1;
#X connect 20 0 17 1;
#X connect 21 0 0 0;
#X connect 21 0 1 0;
#X connect 22 0 12 0;
#X connect 23 0 13 0;
#X connect 24 0 14 0;
#X restore 194 226 pd speedCtrl;
#N canvas 374 328 508 570 durCtrl 0;
#X floatatom 170 393 5 0 0 0 - - -;
#X obj 118 371 + 30;
#X obj 118 483 s durCtrl_1;
#X obj 118 433 spigot;
#X obj 118 81 / 256;
#X obj 208 81 / 256;
#X obj 298 82 / 256;
#X obj 118 283 abs;
#X obj 208 283 abs;
#X obj 298 284 abs;
#X msg 143 162 1;
#X msg 182 162 -1;
#X obj 118 349 * 300;
#X floatatom 128 305 5 0 0 0 - - -;
#X floatatom 260 393 5 0 0 0 - - -;
#X obj 208 371 + 30;
#X obj 208 433 spigot;
#X obj 208 349 * 300;
#X floatatom 350 393 5 0 0 0 - - -;
#X obj 298 371 + 30;
#X obj 298 433 spigot;
#X obj 298 349 * 300;
#X obj 208 483 s durCtrl_2;
#X obj 298 483 s durCtrl_3;
#X obj 73 404 tgl 15 0 empty empty empty 17 7 0 10 -262144 -1 -1 1
1;
#X obj 56 373 loadbang;
#X floatatom 218 305 5 0 0 0 - - -;
#X floatatom 308 306 5 0 0 0 - - -;
#X obj 143 134 moses 0;
#X floatatom 128 103 5 0 0 0 - - -;
#X floatatom 218 103 5 0 0 0 - - -;
#X floatatom 308 104 5 0 0 0 - - -;
#X msg 233 162 1;
#X msg 272 162 -1;
#X obj 233 134 moses 0;
#X msg 323 162 1;
#X msg 362 162 -1;
#X obj 323 134 moses 0;
#X obj 143 239 s direction_1;
#X obj 233 239 s direction_2;
#X obj 323 239 s direction_3;
#X obj 143 199 change;
#X obj 233 199 change;
#X obj 323 199 change;
#X floatatom 153 221 5 0 0 0 - - -;
#X floatatom 243 221 5 0 0 0 - - -;
#X floatatom 333 221 5 0 0 0 - - -;
#X obj 118 59 r 2-x;
#X obj 208 59 r 2-y;
#X obj 298 59 r 2-z;
#X connect 1 0 3 0;
#X connect 3 0 2 0;
#X connect 4 0 7 0;
#X connect 4 0 29 0;
#X connect 4 0 28 0;
#X connect 5 0 8 0;
#X connect 5 0 30 0;
#X connect 5 0 34 0;
#X connect 6 0 9 0;
#X connect 6 0 31 0;
#X connect 6 0 37 0;
#X connect 7 0 12 0;
#X connect 7 0 13 0;
#X connect 8 0 17 0;
#X connect 8 0 26 0;
#X connect 9 0 21 0;
#X connect 9 0 27 0;
#X connect 10 0 41 0;
#X connect 11 0 41 0;
#X connect 12 0 0 0;
#X connect 12 0 1 0;
#X connect 15 0 16 0;
#X connect 16 0 22 0;
#X connect 17 0 14 0;
#X connect 17 0 15 0;
#X connect 19 0 20 0;
#X connect 20 0 23 0;
#X connect 21 0 18 0;
#X connect 21 0 19 0;
#X connect 24 0 3 1;
#X connect 24 0 16 1;
#X connect 24 0 20 1;
#X connect 25 0 24 0;
#X connect 28 0 10 0;
#X connect 28 1 11 0;
#X connect 32 0 42 0;
#X connect 33 0 42 0;
#X connect 34 0 32 0;
#X connect 34 1 33 0;
#X connect 35 0 43 0;
#X connect 36 0 43 0;
#X connect 37 0 35 0;
#X connect 37 1 36 0;
#X connect 41 0 38 0;
#X connect 41 0 44 0;
#X connect 42 0 39 0;
#X connect 42 0 45 0;
#X connect 43 0 40 0;
#X connect 43 0 46 0;
#X connect 47 0 4 0;
#X connect 48 0 5 0;
#X connect 49 0 6 0;
#X restore 197 258 pd durCtrl;
#N canvas 767 187 451 275 pitchCtrl 0;
#X obj 97 110 / 256;
#X obj 197 110 / 256;
#X obj 297 111 / 256;
#X obj 97 162 s pitchCtrl_1;
#X obj 197 162 s pitchCtrl_2;
#X obj 297 163 s pitchCtrl_3;
#X obj 97 132 * 2;
#X obj 197 132 * 2;
#X obj 297 133 * 2;
#X obj 97 88 r 2-x;
#X obj 197 88 r 2-y;
#X obj 297 88 r 2-z;
#X connect 0 0 6 0;
#X connect 1 0 7 0;
#X connect 2 0 8 0;
#X connect 6 0 3 0;
#X connect 7 0 4 0;
#X connect 8 0 5 0;
#X connect 9 0 0 0;
#X connect 10 0 1 0;
#X connect 11 0 2 0;
#X restore 198 290 pd pitchCtrl;
#X obj 38 68 r 2-a;
#X obj 195 60 r 2-b;
#X obj 302 57 r p2.tgl;
#X obj 302 79 tgl 15 0 empty empty empty 17 7 0 10 -262144 -1 -1 0
1;
#X connect 0 0 1 0;
#X connect 1 0 2 0;
#X connect 1 1 3 0;
#X connect 1 2 4 0;
#X connect 6 0 7 0;
#X connect 7 0 5 0;
#X connect 11 0 0 0;
#X connect 12 0 6 0;
#X connect 13 0 14 0;
#X connect 14 0 5 0;
#X restore 17 205 pd p2.random;
#N canvas 274 22 1403 817 p3 0;
#X obj 1015 439 f;
#X floatatom 644 687 11 0 0 0 - - -;
#X floatatom 168 520 5 0 0 0 - - -;
#X floatatom 1025 461 5 0 0 0 - - -;
#X obj 782 89 tgl 15 0 empty empty empty 17 7 0 10 -262144 -1 -1 1
1;
#X obj 674 270 / 256;
#X obj 1125 439 f;
#X floatatom 1135 461 5 0 0 0 - - -;
#X obj 784 270 / 256;
#X obj 1245 439 f;
#X floatatom 1255 461 5 0 0 0 - - -;
#X obj 904 270 / 256;
#X obj 45 166 / 90;
#X obj 45 228 + 1;
#X obj 45 250 / 2;
#X floatatom 73 250 5 0 0 1 0-1 - -;
#X obj 634 516 *;
#X obj 45 131 spigot;
#X obj 372 241 tgl 15 0 empty empty empty 17 7 0 10 -262144 -1 -1 1
1;
#X obj 634 362 + 1;
#X obj 634 384 / 2;
#X floatatom 664 384 5 0 0 1 0-1 - -;
#X floatatom 754 687 11 0 0 0 - - -;
#X obj 744 516 *;
#X obj 744 362 + 1;
#X obj 744 384 / 2;
#X floatatom 774 384 5 0 0 1 0-1 - -;
#X floatatom 874 687 11 0 0 0 - - -;
#X obj 864 516 *;
#X obj 864 362 + 1;
#X obj 864 384 / 2;
#X floatatom 894 384 5 0 0 1 0-1 - -;
#X obj 674 318 spigot;
#X obj 784 318 spigot;
#X obj 904 318 spigot;
#X obj 782 67 jong-itgl b;
#X obj 372 219 jong-itgl a;
#X floatatom 298 520 5 0 0 0 - - -;
#X floatatom 438 520 5 0 0 0 - - -;
#X obj 288 498 * 1;
#X obj 428 498 * 1;
#X obj 158 498 * 1;
#X obj 158 413 + 30;
#X obj 158 362 spigot;
#X floatatom 794 294 5 0 0 1 --1+1 - -;
#X floatatom 914 294 5 0 0 1 --1+1 - -;
#X floatatom 684 294 5 0 0 1 --1+1 - -;
#X floatatom 1071 590 11 0 0 0 - - -;
#X obj 158 125 / 90;
#X obj 158 169 + 1;
#X obj 158 191 / 2;
#X floatatom 168 213 5 0 0 1 0-1 - -;
#X floatatom 168 255 5 0 0 1 1-0 - -;
#X floatatom 168 307 5 0 0 1 1000-0 - -;
#X obj 158 233 jong-01to10;
#X obj 158 285 * 300;
#X obj 1019 564 - 0.5;
#X floatatom 1026 621 11 0 0 0 - - -;
#X obj 1026 599 *;
#X obj 982 593 bng 15 250 50 0 empty empty empty 17 7 0 10 -262144
-1 -1;
#X obj 634 665 + 0;
#X obj 744 665 + 0;
#X obj 864 665 + 0;
#X obj 1061 567 r maxSamples_1;
#X obj 46 62 r 3-r;
#X obj 159 57 r 3-p;
#X obj 674 248 r 3-x;
#X obj 784 248 r 3-y;
#X obj 904 248 r 3-z;
#X obj 42 587 t f f f;
#X obj 161 449 t f f f;
#X obj 30 655 s durCtrl_1;
#X obj 140 655 s durCtrl_2;
#X obj 260 655 s durCtrl_3;
#X obj 158 577 s speedCtrl_1;
#X obj 288 577 s speedCtrl_2;
#X obj 428 577 s speedCtrl_3;
#X obj 1028 36 tgl 15 0 empty empty empty 17 7 0 10 -262144 -1 -1 0
1;
#X obj 1028 55 t f f f;
#X obj 1028 77 s metro_1;
#X obj 1038 97 s metro_2;
#X obj 1048 117 s metro_3;
#X obj 780 30 r 3-b;
#X obj 374 181 r 3-a;
#X obj 634 717 s range_1;
#X obj 744 717 s range_2;
#X obj 864 717 s range_3;
#X obj 1015 378 * 12;
#X obj 1125 378 * 12;
#X obj 1245 378 * 12;
#X obj 1015 400 + 0;
#X obj 1125 400 + 0;
#X obj 1245 400 + 0;
#X obj 1015 486 s pitchCtrl_1;
#X obj 1125 486 s pitchCtrl_2;
#X obj 1245 486 s pitchCtrl_3;
#X obj 882 461 r maxSamples_1;
#X connect 0 0 3 0;
#X connect 0 0 93 0;
#X connect 4 0 32 1;
#X connect 4 0 33 1;
#X connect 4 0 34 1;
#X connect 4 0 17 1;
#X connect 5 0 32 0;
#X connect 5 0 46 0;
#X connect 6 0 7 0;
#X connect 6 0 94 0;
#X connect 8 0 33 0;
#X connect 8 0 44 0;
#X connect 9 0 10 0;
#X connect 9 0 95 0;
#X connect 11 0 34 0;
#X connect 11 0 45 0;
#X connect 12 0 13 0;
#X connect 13 0 14 0;
#X connect 14 0 15 0;
#X connect 14 0 56 0;
#X connect 16 0 60 0;
#X connect 17 0 12 0;
#X connect 18 0 43 1;
#X connect 19 0 20 0;
#X connect 20 0 21 0;
#X connect 20 0 16 0;
#X connect 20 0 41 1;
#X connect 23 0 61 0;
#X connect 24 0 25 0;
#X connect 25 0 26 0;
#X connect 25 0 23 0;
#X connect 25 0 39 1;
#X connect 28 0 62 0;
#X connect 29 0 30 0;
#X connect 30 0 31 0;
#X connect 30 0 28 0;
#X connect 30 0 40 1;
#X connect 32 0 19 0;
#X connect 32 0 87 0;
#X connect 33 0 24 0;
#X connect 33 0 88 0;
#X connect 34 0 29 0;
#X connect 34 0 89 0;
#X connect 35 0 4 0;
#X connect 36 0 18 0;
#X connect 39 0 37 0;
#X connect 39 0 75 0;
#X connect 40 0 38 0;
#X connect 40 0 76 0;
#X connect 41 0 2 0;
#X connect 41 0 74 0;
#X connect 42 0 69 0;
#X connect 42 0 70 0;
#X connect 43 0 42 0;
#X connect 48 0 49 0;
#X connect 49 0 50 0;
#X connect 50 0 51 0;
#X connect 50 0 54 0;
#X connect 54 0 52 0;
#X connect 54 0 55 0;
#X connect 55 0 53 0;
#X connect 55 0 43 0;
#X connect 56 0 58 0;
#X connect 56 0 59 0;
#X connect 58 0 57 0;
#X connect 58 0 60 1;
#X connect 58 0 61 1;
#X connect 58 0 62 1;
#X connect 59 0 60 0;
#X connect 59 0 61 0;
#X connect 59 0 62 0;
#X connect 60 0 1 0;
#X connect 60 0 84 0;
#X connect 61 0 22 0;
#X connect 61 0 85 0;
#X connect 62 0 27 0;
#X connect 62 0 86 0;
#X connect 63 0 47 0;
#X connect 63 0 58 1;
#X connect 64 0 17 0;
#X connect 65 0 48 0;
#X connect 66 0 5 0;
#X connect 67 0 8 0;
#X connect 68 0 11 0;
#X connect 69 0 71 0;
#X connect 69 1 72 0;
#X connect 69 2 73 0;
#X connect 70 0 41 0;
#X connect 70 1 39 0;
#X connect 70 2 40 0;
#X connect 77 0 78 0;
#X connect 78 0 79 0;
#X connect 78 1 80 0;
#X connect 78 2 81 0;
#X connect 82 0 35 0;
#X connect 83 0 36 0;
#X connect 83 0 77 0;
#X connect 87 0 90 0;
#X connect 88 0 91 0;
#X connect 89 0 92 0;
#X connect 90 0 0 0;
#X connect 91 0 6 0;
#X connect 92 0 9 0;
#X connect 96 0 16 1;
#X connect 96 0 23 1;
#X connect 96 0 28 1;
#X restore 17 228 pd p3;
#N canvas 600 22 1033 548 p4.ai 0;
#X floatatom 34 91 5 0 0 1 --90+90 - -;
#X floatatom 119 91 5 0 0 1 --90+90 - -;
#X floatatom 33 141 5 0 0 0 - - -;
#X floatatom 83 141 5 0 0 0 - - -;
#X floatatom 133 141 5 0 0 1 --256+256 - -;
#N canvas 1059 673 450 300 direction 0;
#X msg 207 87 1;
#X msg 247 87 -1;
#X obj 216 148 s direction_1;
#X obj 208 119 f;
#X obj 226 168 s direction_2;
#X obj 236 188 s direction_3;
#X connect 0 0 3 0;
#X connect 1 0 3 0;
#X connect 3 0 2 0;
#X connect 3 0 4 0;
#X connect 3 0 5 0;
#X restore 714 148 pd direction;
#N canvas 1140 123 515 657 range_3.nn 0;
#X obj 180 253 tgl 15 0 empty empty empty 17 7 0 10 -262144 -1 -1 0
1;
#X obj 271 492 *;
#X floatatom 336 488 11 0 0 0 - - -;
#X obj 271 422 / 3;
#X floatatom 271 444 5 0 0 0 - - -;
#X obj 271 390 random 4;
#X obj 384 406 - 1;
#X obj 244 539 s range_3;
#X obj 336 520 / 2;
#N canvas 655 510 450 300 test 0;
#X msg 69 99 down;
#X msg 109 99 up;
#X msg 139 99 reset;
#X floatatom 79 159 5 0 0 0 - - -;
#X obj 69 137 j.stepper 99;
#X obj 48 212 outlet;
#X connect 0 0 4 0;
#X connect 1 0 4 0;
#X connect 2 0 4 0;
#X connect 4 0 3 0;
#X connect 4 0 5 0;
#X restore 122 71 pd test;
#X obj 336 466 r maxSamples_3;
#X obj 361 107 + 90;
#X obj 361 129 / 180;
#X obj 361 173 sqrt;
#X obj 361 203 + 2;
#X obj 361 151 * 24;
#X obj 361 247 t f f;
#X obj 180 295 t b b;
#X obj 129 350 s speedCtrl_3;
#X obj 361 55 r 1-p;
#X floatatom 371 77 5 0 0 0 - - -;
#X obj 56 38 inlet metro-onoff;
#X obj 180 273 metro 100;
#X obj 231 38 inlet tempo;
#X connect 0 0 22 0;
#X connect 1 0 7 0;
#X connect 3 0 4 0;
#X connect 3 0 1 0;
#X connect 5 0 3 0;
#X connect 6 0 3 1;
#X connect 8 0 1 1;
#X connect 10 0 2 0;
#X connect 10 0 8 0;
#X connect 11 0 12 0;
#X connect 12 0 15 0;
#X connect 13 0 14 0;
#X connect 14 0 16 0;
#X connect 15 0 13 0;
#X connect 16 0 5 1;
#X connect 16 1 6 0;
#X connect 17 0 18 0;
#X connect 17 1 5 0;
#X connect 19 0 11 0;
#X connect 19 0 20 0;
#X connect 21 0 0 0;
#X connect 22 0 17 0;
#X connect 23 0 22 1;
#X restore 460 193 pd range_3.nn;
#N canvas 999 171 484 708 range_2.nn 0;
#X obj 96 267 tgl 15 0 empty empty empty 17 7 0 10 -262144 -1 -1 0
1;
#X obj 96 541 *;
#X floatatom 161 537 11 0 0 0 - - -;
#X obj 96 471 / 3;
#X floatatom 96 493 5 0 0 0 - - -;
#X obj 96 439 random 4;
#X obj 199 435 - 1;
#X obj 69 588 s range_2;
#X obj 161 570 / 3;
#N canvas 655 510 450 300 test 0;
#X msg 69 99 down;
#X msg 109 99 up;
#X msg 139 99 reset;
#X floatatom 79 159 5 0 0 0 - - -;
#X obj 69 137 j.stepper 99;
#X obj 48 212 outlet;
#X connect 0 0 4 0;
#X connect 1 0 4 0;
#X connect 2 0 4 0;
#X connect 4 0 3 0;
#X connect 4 0 5 0;
#X restore 122 71 pd test;
#X obj 161 515 r maxSamples_2;
#X obj 282 185 + 90;
#X obj 282 207 / 180;
#X obj 282 251 sqrt;
#X obj 282 281 + 2;
#X obj 282 229 * 24;
#X obj 282 325 t f f;
#X obj 96 309 t b b;
#X obj 27 352 s speedCtrl_2;
#X obj 282 73 r 1-p;
#X obj 46 28 inlet metro-onoff;
#X obj 96 287 metro 100;
#X obj 226 26 inlet tempo;
#X connect 0 0 21 0;
#X connect 1 0 7 0;
#X connect 3 0 4 0;
#X connect 3 0 1 0;
#X connect 5 0 3 0;
#X connect 6 0 3 1;
#X connect 8 0 1 1;
#X connect 10 0 2 0;
#X connect 10 0 8 0;
#X connect 11 0 12 0;
#X connect 12 0 15 0;
#X connect 13 0 14 0;
#X connect 14 0 16 0;
#X connect 15 0 13 0;
#X connect 16 0 5 1;
#X connect 16 1 6 0;
#X connect 17 0 18 0;
#X connect 17 1 5 0;
#X connect 19 0 11 0;
#X connect 20 0 0 0;
#X connect 21 0 17 0;
#X connect 22 0 21 1;
#X restore 460 173 pd range_2.nn;
#N canvas 876 231 518 646 range_1.nn 0;
#X obj 212 218 tgl 15 0 empty empty empty 17 7 0 10 -262144 -1 -1 0
1;
#X obj 212 549 s range_1;
#X obj 212 492 *;
#X obj 288 416 r maxSamples_1;
#X floatatom 298 438 11 0 0 0 - - -;
#X floatatom 222 404 5 0 0 0 - - -;
#X obj 212 350 random 4;
#X obj 323 351 - 1;
#X obj 421 104 + 90;
#X obj 421 126 / 180;
#X obj 421 170 sqrt;
#X obj 421 200 + 2;
#X obj 421 148 * 24;
#X obj 288 463 / 5;
#N canvas 655 510 450 300 test 0;
#X msg 69 99 down;
#X msg 109 99 up;
#X msg 139 99 reset;
#X floatatom 79 159 5 0 0 0 - - -;
#X obj 69 137 j.stepper 99;
#X obj 48 212 outlet;
#X connect 0 0 4 0;
#X connect 1 0 4 0;
#X connect 2 0 4 0;
#X connect 4 0 3 0;
#X connect 4 0 5 0;
#X restore 122 71 pd test;
#X obj 421 244 t f f;
#X floatatom 451 276 5 0 0 0 - - -;
#X obj 108 299 s speedCtrl_1;
#X obj 85 206 f;
#X floatatom 84 176 5 0 0 0 - - -;
#X obj 108 231 t f f;
#X floatatom 118 263 5 0 0 0 - - -;
#X obj 264 52 + 90;
#X obj 264 85 / 180;
#X obj 264 107 * 100;
#X obj 212 382 / 3;
#X floatatom 281 374 5 0 0 0 - - -;
#X obj 265 21 r 1-p;
#X obj 36 18 inlet metro-onoff;
#X obj 212 288 metro 100;
#X obj 166 19 inlet tempo;
#X connect 0 0 29 0;
#X connect 2 0 1 0;
#X connect 3 0 4 0;
#X connect 3 0 13 0;
#X connect 6 0 25 0;
#X connect 8 0 9 0;
#X connect 9 0 12 0;
#X connect 10 0 11 0;
#X connect 11 0 15 0;
#X connect 12 0 10 0;
#X connect 13 0 2 1;
#X connect 15 0 6 1;
#X connect 15 1 7 0;
#X connect 15 1 16 0;
#X connect 18 0 20 0;
#X connect 19 0 18 0;
#X connect 20 0 17 0;
#X connect 20 0 21 0;
#X connect 20 1 29 1;
#X connect 22 0 23 0;
#X connect 23 0 24 0;
#X connect 25 0 5 0;
#X connect 25 0 2 0;
#X connect 26 0 25 1;
#X connect 27 0 8 0;
#X connect 27 0 22 0;
#X connect 28 0 0 0;
#X connect 29 0 6 0;
#X connect 30 0 29 1;
#X restore 460 153 pd range_1.nn;
#X obj 460 93 tgl 15 0 empty empty empty 17 7 0 10 -262144 -1 -1 0
1;
#X obj 460 113 t f f f;
#X obj 429 40 t f f;
#X obj 429 62 tgl 15 0 empty empty empty 17 7 0 10 -262144 -1 -1 0
1;
#X obj 76 243 tgl 15 0 empty empty empty 17 7 0 10 -262144 -1 -1 0
1;
#X obj 76 263 t f f f;
#X obj 76 285 s metro_1;
#X obj 86 305 s metro_2;
#X obj 96 325 s metro_3;
#X floatatom 571 98 22 0 0 0 - - -;
#X obj 571 119 t f f f;
#X msg 570 65 100;
#X obj 429 8 r p4.tgl;
#X obj 342 31 r 4-p;
#X obj 34 69 r 4-r;
#X obj 119 69 r 4-p;
#X obj 33 119 r 4-x;
#X obj 83 119 r 4-y;
#X obj 133 119 r 4-z;
#X obj 76 222 r 4-a;
#X floatatom 742 419 5 0 0 0 - - -;
#X obj 732 522 s speedCtrl_1;
#X floatatom 832 419 5 0 0 0 - - -;
#X floatatom 922 419 5 0 0 0 - - -;
#X obj 822 522 s speedCtrl_2;
#X obj 912 522 s speedCtrl_3;
#X obj 732 289 r 6fader;
#X obj 732 311 / 127;
#X obj 732 333 * 12;
#X obj 732 355 int;
#X floatatom 742 377 5 0 0 0 - - -;
#X obj 822 311 / 127;
#X obj 822 333 * 12;
#X obj 822 355 int;
#X floatatom 832 377 5 0 0 0 - - -;
#X obj 912 311 / 127;
#X obj 912 333 * 12;
#X obj 912 355 int;
#X floatatom 922 377 5 0 0 0 - - -;
#X obj 822 289 r 7fader;
#X obj 912 289 r 8fader;
#X obj 732 440 * 10;
#X obj 822 440 * 10;
#X obj 912 440 * 10;
#X floatatom 392 419 5 0 0 0 - - -;
#X obj 382 311 / 127;
#X obj 382 355 int;
#X floatatom 392 377 5 0 0 0 - - -;
#X obj 382 289 r 3fader;
#X obj 382 522 s durCtrl_1;
#X floatatom 472 419 5 0 0 0 - - -;
#X obj 462 311 / 127;
#X obj 462 355 int;
#X floatatom 472 377 5 0 0 0 - - -;
#X floatatom 552 419 5 0 0 0 - - -;
#X obj 542 311 / 127;
#X obj 542 355 int;
#X floatatom 552 377 5 0 0 0 - - -;
#X obj 462 289 r 4fader;
#X obj 542 289 r 5fader;
#X obj 462 522 s durCtrl_2;
#X obj 542 522 s durCtrl_3;
#X obj 382 440 * 20;
#X obj 462 440 * 20;
#X obj 542 440 * 20;
#X floatatom 252 419 5 0 0 0 - - -;
#X obj 242 311 / 127;
#X obj 242 355 int;
#X floatatom 252 377 5 0 0 0 - - -;
#X obj 242 289 r 1fader;
#X obj 382 462 max 1;
#X obj 462 462 max 1;
#X obj 542 462 max 1;
#X obj 382 333 * 24;
#X obj 462 333 * 24;
#X obj 542 333 * 24;
#X obj 242 333 * 10;
#X obj 242 440 * 10;
#X obj 649 345 max 1;
#X obj 649 367 t f f f;
#X obj 679 400 t f b;
#X obj 779 400 t f b;
#X obj 869 400 t f b;
#X obj 382 491 j-got;
#X obj 462 491 j-got;
#X obj 542 491 j-got;
#X obj 732 491 j-got;
#X obj 822 491 j-got;
#X obj 912 491 j-got;
#X connect 9 0 10 0;
#X connect 10 0 8 0;
#X connect 10 1 7 0;
#X connect 10 2 6 0;
#X connect 11 0 12 0;
#X connect 11 1 9 0;
#X connect 12 0 92 1;
#X connect 12 0 93 1;
#X connect 12 0 94 1;
#X connect 12 0 95 1;
#X connect 12 0 96 1;
#X connect 12 0 97 1;
#X connect 13 0 14 0;
#X connect 14 0 15 0;
#X connect 14 1 16 0;
#X connect 14 2 17 0;
#X connect 18 0 19 0;
#X connect 19 0 8 1;
#X connect 19 1 7 1;
#X connect 19 2 6 1;
#X connect 20 0 18 0;
#X connect 21 0 11 0;
#X connect 23 0 0 0;
#X connect 24 0 1 0;
#X connect 25 0 2 0;
#X connect 26 0 3 0;
#X connect 27 0 4 0;
#X connect 28 0 13 0;
#X connect 29 0 50 0;
#X connect 31 0 51 0;
#X connect 32 0 52 0;
#X connect 35 0 36 0;
#X connect 36 0 37 0;
#X connect 37 0 38 0;
#X connect 38 0 39 0;
#X connect 38 0 50 0;
#X connect 40 0 41 0;
#X connect 41 0 42 0;
#X connect 42 0 43 0;
#X connect 42 0 51 0;
#X connect 44 0 45 0;
#X connect 45 0 46 0;
#X connect 46 0 47 0;
#X connect 46 0 52 0;
#X connect 48 0 40 0;
#X connect 49 0 44 0;
#X connect 50 0 95 0;
#X connect 51 0 96 0;
#X connect 52 0 97 0;
#X connect 53 0 71 0;
#X connect 54 0 82 0;
#X connect 55 0 56 0;
#X connect 55 0 71 0;
#X connect 57 0 54 0;
#X connect 59 0 72 0;
#X connect 60 0 83 0;
#X connect 61 0 62 0;
#X connect 61 0 72 0;
#X connect 63 0 73 0;
#X connect 64 0 84 0;
#X connect 65 0 66 0;
#X connect 65 0 73 0;
#X connect 67 0 60 0;
#X connect 68 0 64 0;
#X connect 71 0 79 0;
#X connect 72 0 80 0;
#X connect 73 0 81 0;
#X connect 74 0 86 0;
#X connect 75 0 85 0;
#X connect 76 0 77 0;
#X connect 76 0 86 0;
#X connect 78 0 75 0;
#X connect 79 0 92 0;
#X connect 82 0 55 0;
#X connect 83 0 61 0;
#X connect 84 0 65 0;
#X connect 85 0 76 0;
#X connect 86 0 18 0;
#X connect 87 0 88 0;
#X connect 88 0 89 0;
#X connect 88 1 90 0;
#X connect 88 2 91 0;
#X connect 89 0 50 1;
#X connect 89 1 50 0;
#X connect 90 0 51 1;
#X connect 90 1 51 0;
#X connect 91 0 52 1;
#X connect 91 1 52 0;
#X connect 92 0 58 0;
#X connect 95 0 30 0;
#X connect 96 0 33 0;
#X connect 97 0 34 0;
#X restore 110 157 pd p4.ai;
#X restore 81 41 pd bak-program-wii.23;
