#N canvas 774 141 370 214 10;
#N canvas 747 25 355 398 nunchuk 0;
#X obj 30 20 inlet;
#X obj 30 56 routeOSC /orientation /acc /joystick /button;
#X obj 225 117 tgl 15 0 empty empty empty 17 7 0 10 -262144 -1 -1 0
1;
#X obj 265 116 tgl 15 0 empty empty empty 17 7 0 10 -262144 -1 -1 0
1;
#X obj 225 88 routeOSC /c /z;
#X obj 160 143 unpack f f;
#X floatatom 160 165 5 0 0 0 - - -;
#X floatatom 217 166 5 0 0 0 - - -;
#X floatatom 95 215 5 0 0 0 - - -;
#X floatatom 129 214 5 0 0 0 - - -;
#X obj 95 193 unpack f f f;
#X floatatom 164 214 5 0 0 0 - - -;
#X floatatom 30 268 5 0 0 0 - - -;
#X floatatom 87 267 5 0 0 0 - - -;
#X obj 30 246 unpack f f;
#X text 32 283 roll;
#X text 92 282 pitch;
#X text 126 266 -90 -> 90°;
#X obj 33 343 outlet nun/mo;
#X obj 233 343 outlet nun/but;
#X connect 0 0 1 0;
#X connect 1 0 14 0;
#X connect 1 1 10 0;
#X connect 1 2 5 0;
#X connect 1 3 4 0;
#X connect 4 0 2 0;
#X connect 4 1 3 0;
#X connect 5 0 6 0;
#X connect 5 1 7 0;
#X connect 10 0 8 0;
#X connect 10 1 9 0;
#X connect 10 2 11 0;
#X connect 14 0 12 0;
#X connect 14 1 13 0;
#X restore 146 87 pd nunchuk;
#N canvas 51 93 934 789 wii 0;
#X obj 703 69 * 100;
#X floatatom 703 91 5 0 0 1 batterylevel - -;
#X obj 703 49 routeOSC /batterylevel /connected;
#X obj 800 69 tgl 15 0 empty empty empty 17 7 0 10 -262144 -1 -1 0
1;
#X obj 32 209 unpack f f;
#X obj 322 211 unpack f f f;
#X floatatom 332 233 5 0 0 3 0-511 - -;
#X floatatom 372 233 5 0 0 3 0-511 - -;
#X floatatom 412 233 5 0 0 3 0-511 - -;
#N canvas 229 315 617 601 but 0;
#X obj 30 40 inlet;
#X obj 466 112 tgl 15 0 empty empty empty 17 7 0 10 -262144 -1 -1 0
1;
#X obj 30 116 tgl 15 0 empty empty empty 17 7 0 10 -262144 -1 -1 0
1;
#X obj 75 115 tgl 15 0 empty empty empty 17 7 0 10 -262144 -1 -1 0
1;
#X obj 121 115 tgl 15 0 empty empty empty 17 7 0 10 -262144 -1 -1 0
1;
#X obj 167 115 tgl 15 0 empty empty empty 17 7 0 10 -262144 -1 -1 0
1;
#X obj 284 112 tgl 15 0 empty empty empty 17 7 0 10 -262144 -1 -1 0
1;
#X obj 320 112 tgl 15 0 empty empty empty 17 7 0 10 -262144 -1 -1 0
1;
#X obj 356 112 tgl 15 0 empty empty empty 17 7 0 10 -262144 -1 -1 0
1;
#X obj 393 112 tgl 15 0 empty empty empty 17 7 0 10 -262144 -1 -1 0
1;
#X obj 429 112 tgl 15 0 empty empty empty 17 7 0 10 -262144 -1 -1 0
1;
#X obj 502 112 tgl 15 0 empty empty empty 17 7 0 10 -262144 -1 -1 0
1;
#X text 38 70 BUTTONS;
#X obj 30 87 routeOSC /up /down /left /right;
#X obj 284 86 routeOSC /a /b /minus /home /plus /one /two;
#X obj 65 217 tgl 10 0 empty empty empty 17 7 0 10 -262144 -1 -1 0
1;
#X obj 75 227 tgl 10 0 empty empty empty 17 7 0 10 -262144 -1 -1 0
1;
#X obj 65 237 tgl 10 0 empty empty empty 17 7 0 10 -262144 -1 -1 0
1;
#X obj 55 227 tgl 10 0 empty empty empty 17 7 0 10 -262144 -1 -1 0
1;
#X obj 65 257 tgl 10 0 empty empty A 3 -5 0 10 -262144 -1 -1 0 1;
#X obj 75 277 tgl 10 0 empty empty + 3 -7 0 10 -262144 -1 -1 0 1;
#X obj 65 277 tgl 10 0 empty empty H 3 -7 0 10 -262144 -1 -1 0 1;
#X obj 55 277 tgl 10 0 empty empty - 3 -7 0 10 -262144 -1 -1 0 1;
#X obj 60 297 tgl 10 0 empty empty 1 -7 5 0 10 -262144 -1 -1 0 1;
#X obj 60 307 tgl 10 0 empty empty 2 -7 5 0 10 -262144 -1 -1 0 1;
#X obj 73 299 tgl 15 0 empty empty B 7 7 0 10 -262144 -1 -1 0 1;
#X msg 138 333 up \$1;
#X msg 168 353 down \$1;
#X msg 198 373 left \$1;
#X msg 228 393 right \$1;
#X msg 308 333 a \$1;
#X msg 338 353 b \$1;
#X msg 368 373 minus \$1;
#X msg 398 393 home \$1;
#X msg 428 413 plus \$1;
#X msg 458 433 one \$1;
#X msg 488 453 two \$1;
#X obj 246 527 outlet wii/but;
#X connect 0 0 13 0;
#X connect 1 0 23 0;
#X connect 2 0 15 0;
#X connect 3 0 17 0;
#X connect 4 0 18 0;
#X connect 5 0 16 0;
#X connect 6 0 19 0;
#X connect 7 0 25 0;
#X connect 8 0 22 0;
#X connect 9 0 21 0;
#X connect 10 0 20 0;
#X connect 11 0 24 0;
#X connect 13 0 2 0;
#X connect 13 0 26 0;
#X connect 13 1 3 0;
#X connect 13 1 27 0;
#X connect 13 2 4 0;
#X connect 13 2 28 0;
#X connect 13 3 5 0;
#X connect 13 3 29 0;
#X connect 13 4 14 0;
#X connect 14 0 6 0;
#X connect 14 0 30 0;
#X connect 14 1 7 0;
#X connect 14 1 31 0;
#X connect 14 2 8 0;
#X connect 14 2 32 0;
#X connect 14 3 9 0;
#X connect 14 3 33 0;
#X connect 14 4 10 0;
#X connect 14 4 34 0;
#X connect 14 5 1 0;
#X connect 14 5 35 0;
#X connect 14 6 11 0;
#X connect 14 6 36 0;
#X connect 26 0 37 0;
#X connect 27 0 37 0;
#X connect 28 0 37 0;
#X connect 29 0 37 0;
#X connect 30 0 37 0;
#X connect 31 0 37 0;
#X connect 32 0 37 0;
#X connect 33 0 37 0;
#X connect 34 0 37 0;
#X connect 35 0 37 0;
#X connect 36 0 37 0;
#X coords 0 601 1 600 40 120 0;
#X restore 702 168 pd but;
#N canvas 183 260 544 725 ird 0;
#X obj 114 25 inlet;
#X text 220 28 4 points with x \, y \, size;
#X obj 25 101 unpack 0 0 0;
#X floatatom 15 123 5 0 0 0 - - -;
#X floatatom 49 123 5 0 0 0 - - -;
#X floatatom 84 123 5 0 0 0 - - -;
#X obj 114 55 list split 3;
#X obj 144 142 unpack 0 0 0;
#X floatatom 144 164 5 0 0 0 - - -;
#X floatatom 178 164 5 0 0 0 - - -;
#X floatatom 213 164 5 0 0 0 - - -;
#X obj 144 104 list split 3;
#X obj 263 181 unpack 0 0 0;
#X floatatom 263 203 5 0 0 0 - - -;
#X floatatom 297 203 5 0 0 0 - - -;
#X floatatom 332 203 5 0 0 0 - - -;
#X obj 263 143 list split 3;
#X obj 379 179 unpack 0 0 0;
#X floatatom 379 201 5 0 0 0 - - -;
#X floatatom 413 201 5 0 0 0 - - -;
#X floatatom 448 201 5 0 0 0 - - -;
#X text 34 146 x \, y \, size;
#X msg 35 432 ird_1x \$1;
#X msg 101 432 ird_1y \$1;
#X msg 168 432 ird_1size \$1;
#X obj 222 635 s wii/ird;
#X connect 0 0 6 0;
#X connect 2 0 3 0;
#X connect 2 0 22 0;
#X connect 2 1 4 0;
#X connect 2 1 23 0;
#X connect 2 2 5 0;
#X connect 2 2 24 0;
#X connect 6 0 2 0;
#X connect 6 1 11 0;
#X connect 7 0 8 0;
#X connect 7 1 9 0;
#X connect 7 2 10 0;
#X connect 11 0 7 0;
#X connect 11 1 16 0;
#X connect 12 0 13 0;
#X connect 12 1 14 0;
#X connect 12 2 15 0;
#X connect 16 0 12 0;
#X connect 16 1 17 0;
#X connect 17 0 18 0;
#X connect 17 1 19 0;
#X connect 17 2 20 0;
#X connect 22 0 25 0;
#X connect 23 0 25 0;
#X connect 24 0 25 0;
#X coords 0 725 1 724 85 100 0;
#X restore 772 169 pd ird;
#N canvas 598 297 170 511 cali_pitch 0;
#X obj 15 483 outlet corrected_float;
#X floatatom 25 179 5 0 0 1 cali - -;
#X obj 15 97 * -1;
#X obj 15 13 inlet pitch_moving_float;
#X floatatom 25 119 5 0 0 1 flip - -;
#X floatatom 25 325 11 0 0 1 cali - -;
#X obj 15 385 clip -90 90;
#X obj 15 157 - 0;
#X obj 15 303 f;
#X connect 2 0 4 0;
#X connect 2 0 7 0;
#X connect 3 0 2 0;
#X connect 6 0 0 0;
#X connect 7 0 1 0;
#X connect 7 0 8 0;
#X connect 8 0 5 0;
#X connect 8 0 6 0;
#X restore 119 435 pd cali_pitch;
#N canvas 749 378 331 643 cali_y 0;
#X obj 15 603 outlet corrected_float;
#X obj 15 13 inlet pitch_moving_float;
#X floatatom 25 105 11 0 0 1 cali - -;
#X obj 15 135 - 256;
#X floatatom 25 157 11 0 0 1 --256~+256 - -;
#X obj 15 83 - 2.2;
#X obj 15 235 moses 0;
#X floatatom 25 257 5 0 0 0 - - -;
#X floatatom 84 257 5 0 0 0 - - -;
#X obj 15 310 * 256;
#X obj 74 310 * 256;
#X floatatom 25 332 5 0 0 0 - - -;
#X floatatom 84 332 5 0 0 0 - - -;
#X obj 15 288 / 222;
#X obj 74 288 / 222;
#X obj 15 439 clip -256 256;
#X obj 15 417 f;
#X connect 1 0 5 0;
#X connect 3 0 4 0;
#X connect 3 0 6 0;
#X connect 5 0 2 0;
#X connect 5 0 3 0;
#X connect 6 0 7 0;
#X connect 6 0 13 0;
#X connect 6 1 8 0;
#X connect 6 1 14 0;
#X connect 9 0 11 0;
#X connect 9 0 16 0;
#X connect 10 0 12 0;
#X connect 10 0 16 0;
#X connect 13 0 9 0;
#X connect 14 0 10 0;
#X connect 15 0 0 0;
#X connect 16 0 15 0;
#X restore 426 434 pd cali_y;
#N canvas 1080 319 328 641 cali_z 0;
#X obj 15 603 outlet corrected_float;
#X obj 15 13 inlet pitch_moving_float;
#X floatatom 25 105 11 0 0 1 cali - -;
#X floatatom 25 162 11 0 0 1 cali - -;
#X obj 15 83 - 53;
#X obj 15 187 - 256;
#X obj 15 209 * -1;
#X floatatom 25 231 11 0 0 1 --256+256 - -;
#X obj 15 305 moses 0;
#X floatatom 25 327 5 0 0 0 - - -;
#X floatatom 84 327 5 0 0 0 - - -;
#X obj 15 380 * 256;
#X obj 74 380 * 256;
#X floatatom 25 402 5 0 0 0 - - -;
#X floatatom 84 402 5 0 0 0 - - -;
#X obj 15 135 - 1.5;
#X obj 15 509 clip -256 256;
#X obj 74 358 / 222;
#X obj 15 358 / 180;
#X obj 15 487 f;
#X connect 1 0 4 0;
#X connect 4 0 2 0;
#X connect 4 0 15 0;
#X connect 5 0 6 0;
#X connect 6 0 7 0;
#X connect 6 0 8 0;
#X connect 8 0 9 0;
#X connect 8 0 18 0;
#X connect 8 1 10 0;
#X connect 8 1 17 0;
#X connect 11 0 13 0;
#X connect 11 0 19 0;
#X connect 12 0 14 0;
#X connect 12 0 19 0;
#X connect 15 0 3 0;
#X connect 15 0 5 0;
#X connect 16 0 0 0;
#X connect 17 0 12 0;
#X connect 18 0 11 0;
#X connect 19 0 16 0;
#X restore 536 434 pd cali_z;
#N canvas 417 297 176 513 cali_roll 0;
#X obj 15 413 outlet corrected_float;
#X floatatom 25 159 11 0 0 1 cali - -;
#X obj 15 13 inlet roll_moving_float;
#X floatatom 25 295 11 0 0 1 cali - -;
#X obj 15 355 clip -90 90;
#X obj 15 137 - 1;
#X obj 15 199 / 88;
#X obj 15 221 * 90;
#X floatatom 25 243 11 0 0 1 cali - -;
#X obj 15 273 f;
#X connect 2 0 5 0;
#X connect 4 0 0 0;
#X connect 5 0 1 0;
#X connect 5 0 6 0;
#X connect 6 0 7 0;
#X connect 7 0 8 0;
#X connect 7 0 9 0;
#X connect 9 0 3 0;
#X connect 9 0 4 0;
#X restore 32 435 pd cali_roll;
#N canvas 248 344 326 639 cali_x 0;
#X obj 15 603 outlet corrected_float;
#X obj 15 13 inlet pitch_moving_float;
#X floatatom 25 105 11 0 0 1 cali - -;
#X obj 15 135 - 256;
#X floatatom 25 157 11 0 0 1 --256+256 - -;
#X obj 15 295 moses 0;
#X floatatom 25 317 5 0 0 0 - - -;
#X floatatom 84 317 5 0 0 0 - - -;
#X obj 15 370 * 256;
#X obj 74 370 * 256;
#X floatatom 25 392 5 0 0 0 - - -;
#X floatatom 84 392 5 0 0 0 - - -;
#X obj 15 348 / 222;
#X obj 74 348 / 222;
#X obj 15 83 - 1.2;
#X obj 15 499 clip -256 256;
#X obj 15 477 f;
#X connect 1 0 14 0;
#X connect 3 0 4 0;
#X connect 3 0 5 0;
#X connect 5 0 6 0;
#X connect 5 0 12 0;
#X connect 5 1 7 0;
#X connect 5 1 13 0;
#X connect 8 0 10 0;
#X connect 8 0 16 0;
#X connect 9 0 11 0;
#X connect 9 0 16 0;
#X connect 12 0 8 0;
#X connect 13 0 9 0;
#X connect 14 0 2 0;
#X connect 14 0 3 0;
#X connect 15 0 0 0;
#X connect 16 0 15 0;
#X restore 322 434 pd cali_x;
#X floatatom 42 461 5 0 0 3 --90~+90 - -;
#X floatatom 129 461 5 0 0 3 --90~+90 - -;
#X floatatom 42 231 5 0 0 3 --90+90 - -;
#X floatatom 102 231 5 0 0 3 --90+90 - -;
#X obj 32 137 routeOSC /orientation /acc;
#X obj 702 137 routeOSC /button /irdata;
#X floatatom 332 463 7 0 0 3 --256+256 - -;
#X obj 32 39 inlet oscReceiver;
#X floatatom 442 463 7 0 0 3 --256+256 - -;
#X floatatom 552 463 7 0 0 3 --256+256 - -;
#X msg 322 543 x \$1;
#X msg 426 543 y \$1;
#X msg 536 543 z \$1;
#X obj 322 391 j.adjust 8;
#X obj 426 391 j.adjust 8;
#X obj 536 391 j.adjust 8;
#X obj 32 391 j.adjust 4;
#X obj 119 391 j.adjust 4;
#N canvas 766 672 881 271 s-but/nc 0;
#X obj 37 94 route but_up but_down but_left but_right;
#X obj 301 94 route but_a but_b but_minus but_home but_plus but_one
but_two;
#X obj 301 129 s but_a;
#X obj 346 149 s but_b;
#X obj 391 129 s but_minus;
#X obj 436 149 s but_home;
#X obj 481 129 s but_plus;
#X obj 526 149 s but_one;
#X obj 571 129 s but_two;
#X obj 55 172 tgl 15 0 empty empty empty 17 7 0 10 -262144 -1 -1 0
1;
#X obj 55 192 tgl 15 0 empty empty empty 17 7 0 10 -262144 -1 -1 0
1;
#X obj 45 182 tgl 15 0 empty empty empty 17 7 0 10 -262144 -1 -1 0
1;
#X obj 65 182 tgl 15 0 empty empty empty 17 7 0 10 -262144 -1 -1 0
1;
#X obj 421 178 tgl 15 0 empty empty a 5 5 0 10 -262144 -1 -1 0 1;
#X obj 441 178 tgl 15 0 empty empty b 5 5 0 10 -262144 -1 -1 0 1;
#X obj 421 198 tgl 15 0 empty empty - 5 5 0 10 -262144 -1 -1 0 1;
#X obj 441 198 tgl 15 0 empty empty h 5 5 0 10 -262144 -1 -1 0 1;
#X obj 461 198 tgl 15 0 empty empty + 5 5 0 10 -262144 -1 -1 0 1;
#X obj 421 218 tgl 15 0 empty empty 1 5 5 0 10 -262144 -1 -1 0 1;
#X obj 441 218 tgl 15 0 empty empty 2 5 5 0 10 -262144 -1 -1 0 1;
#X obj 37 116 s but_up;
#X obj 96 136 s but_down;
#X obj 155 116 s but_left;
#X obj 214 136 s but_right;
#X obj 37 49 r wii/but;
#X connect 0 0 9 0;
#X connect 0 0 20 0;
#X connect 0 1 10 0;
#X connect 0 1 21 0;
#X connect 0 2 11 0;
#X connect 0 2 22 0;
#X connect 0 3 12 0;
#X connect 0 3 23 0;
#X connect 0 4 1 0;
#X connect 1 0 2 0;
#X connect 1 0 13 0;
#X connect 1 1 3 0;
#X connect 1 1 14 0;
#X connect 1 2 4 0;
#X connect 1 2 15 0;
#X connect 1 3 5 0;
#X connect 1 3 16 0;
#X connect 1 4 6 0;
#X connect 1 4 17 0;
#X connect 1 5 7 0;
#X connect 1 5 18 0;
#X connect 1 6 8 0;
#X connect 1 6 19 0;
#X connect 24 0 0 0;
#X restore 445 55 pd s-but/nc;
#N canvas 1193 602 378 192 s-ird/nc 0;
#X obj 43 94 route ird_1x ird_1y ird_1size;
#X obj 43 116 s ird_1x;
#X obj 100 116 s ird_1y;
#X obj 157 116 s ird_1size;
#X text 213 33 draft! achtung!;
#X obj 43 30 r wii/ird;
#X connect 0 0 1 0;
#X connect 0 1 2 0;
#X connect 0 2 3 0;
#X connect 5 0 0 0;
#X restore 526 55 pd s-ird/nc;
#X obj 702 740 outlet wii/but;
#X obj 32 745 outlet wii/mo;
#X msg 32 543 r \$1;
#X msg 119 543 p \$1;
#X obj 414 623 vsl 15 128 -90 90 0 0 empty empty empty 0 -9 0 10 -262144
-1 -1 0 1;
#X obj 507 655 hsl 128 15 -90 90 0 0 empty empty empty -2 -8 0 10 -262144
-1 -1 0 1;
#X connect 0 0 1 0;
#X connect 2 0 0 0;
#X connect 2 1 3 0;
#X connect 4 0 18 0;
#X connect 4 0 32 0;
#X connect 4 1 19 0;
#X connect 4 1 33 0;
#X connect 5 0 6 0;
#X connect 5 0 29 0;
#X connect 5 1 7 0;
#X connect 5 1 30 0;
#X connect 5 2 8 0;
#X connect 5 2 31 0;
#X connect 9 0 36 0;
#X connect 11 0 17 0;
#X connect 11 0 39 0;
#X connect 11 0 40 0;
#X connect 12 0 24 0;
#X connect 12 0 27 0;
#X connect 13 0 25 0;
#X connect 13 0 28 0;
#X connect 14 0 16 0;
#X connect 14 0 38 0;
#X connect 14 0 41 0;
#X connect 15 0 22 0;
#X connect 15 0 26 0;
#X connect 20 0 4 0;
#X connect 20 1 5 0;
#X connect 20 2 21 0;
#X connect 21 0 9 0;
#X connect 21 1 10 0;
#X connect 21 2 2 0;
#X connect 23 0 20 0;
#X connect 26 0 37 0;
#X connect 27 0 37 0;
#X connect 28 0 37 0;
#X connect 29 0 15 0;
#X connect 30 0 12 0;
#X connect 31 0 13 0;
#X connect 32 0 14 0;
#X connect 33 0 11 0;
#X connect 38 0 37 0;
#X connect 39 0 37 0;
#X restore 31 87 pd wii;
#X obj 31 149 outlet wii/mo;
#X obj 31 26 inlet wii;
#X obj 146 26 inlet nun;
#X obj 146 149 outlet nun/mo;
#X obj 268 149 outlet but;
#X connect 0 0 5 0;
#X connect 0 1 6 0;
#X connect 1 0 2 0;
#X connect 1 1 6 0;
#X connect 3 0 1 0;
#X connect 4 0 0 0;
