#N canvas 443 215 484 358 10;
#X floatatom 99 125 5 0 0 2 max - -;
#X obj 99 91 unpack;
#X floatatom 141 125 5 0 0 2 min - -;
#X obj 141 146 t f f;
#X obj 99 208 expr $f1-$f2;
#X floatatom 99 239 5 0 0 3 max - -;
#X floatatom 280 239 5 0 0 3 min - -;
#X obj 280 280 outlet min;
#X obj 99 146 t f;
#X obj 99 58 inlet max_min;
#X obj 99 281 outlet max-min;
#X text 206 59 list: a \, b;
#X text 207 83 a: max \, b:min;
#X text 118 304 max minus min;
#X text 288 306 only min;
#X connect 0 0 8 0;
#X connect 1 0 0 0;
#X connect 1 1 2 0;
#X connect 2 0 3 0;
#X connect 3 0 6 0;
#X connect 3 1 4 1;
#X connect 4 0 5 0;
#X connect 5 0 10 0;
#X connect 6 0 7 0;
#X connect 8 0 4 0;
#X connect 9 0 1 0;
