#N canvas 469 301 595 521 10;
#X obj 31 27 inlet wii;
#N canvas 286 22 1397 574 sender 0;
#X obj 185 121 tgl 15 0 empty empty empty 17 7 0 10 -262144 -1 -1 0
1;
#X obj 210 121 tgl 15 0 empty empty empty 17 7 0 10 -262144 -1 -1 0
1;
#X obj 185 141 s \$1-a;
#X obj 210 161 s \$1-b;
#X obj 329 431 tgl 15 0 empty empty empty 17 7 0 10 -262144 -1 -1 0
1;
#X obj 354 431 tgl 15 0 empty empty empty 17 7 0 10 -262144 -1 -1 0
1;
#X obj 621 18 inlet;
#X obj 185 99 route a b;
#X obj 265 121 tgl 15 0 empty empty empty 17 7 0 10 -262144 -1 -1 0
1;
#X obj 300 121 tgl 15 0 empty empty empty 17 7 0 10 -262144 -1 -1 0
1;
#X obj 265 99 route up down left right;
#X obj 265 141 s \$1-up;
#X obj 300 161 s \$1-down;
#X obj 335 121 tgl 15 0 empty empty empty 17 7 0 10 -262144 -1 -1 0
1;
#X obj 370 121 tgl 15 0 empty empty empty 17 7 0 10 -262144 -1 -1 0
1;
#X obj 335 141 s \$1-left;
#X obj 370 161 s \$1-right;
#X obj 435 121 tgl 15 0 empty empty empty 17 7 0 10 -262144 -1 -1 0
1;
#X obj 469 121 tgl 15 0 empty empty empty 17 7 0 10 -262144 -1 -1 0
1;
#X obj 503 121 tgl 15 0 empty empty empty 17 7 0 10 -262144 -1 -1 0
1;
#X obj 537 121 tgl 15 0 empty empty empty 17 7 0 10 -262144 -1 -1 0
1;
#X obj 435 99 route minus plus home one two;
#X obj 571 121 tgl 15 0 empty empty empty 17 7 0 10 -262144 -1 -1 0
1;
#X obj 435 141 s \$1-minus;
#X obj 469 161 s \$1-plus;
#X obj 503 141 s \$1-home;
#X obj 537 161 s \$1-one;
#X obj 571 141 s \$1-two;
#X obj 621 40 t a a;
#X obj 31 121 s \$1-wP;
#X obj 48 141 s \$1-wR;
#X obj 31 281 s \$1-mP;
#X obj 51 301 s \$1-mR;
#X obj 71 321 s \$1-mYaw;
#X obj 31 259 route mP mR mYaw;
#X obj 161 259 route mP.velo mR.velo mYaw.velo;
#X obj 161 281 s \$1-mP.velo;
#X obj 222 301 s \$1-mR.velo;
#X obj 283 321 s \$1-mYaw.velo;
#X obj 31 99 route wP wR wYaw wAcc;
#X obj 85 181 s \$1-wAcc;
#X obj 65 161 s \$1-wYaw;
#X obj 33 409 route nP nR nYaw nAcc;
#X obj 33 441 s \$1-nP;
#X obj 56 461 s \$1-nR;
#X obj 79 481 s \$1-nYaw;
#X obj 103 502 s \$1-nAcc;
#X obj 187 409 route nJoy.x nJoy.y;
#X obj 187 441 s \$1-nJoy.x;
#X obj 242 461 s \$1-nJoy.y;
#X obj 329 410 route c z;
#X obj 329 451 s \$1-c;
#X obj 354 471 s \$1-z;
#X obj 845 121 tgl 15 0 empty empty empty 17 7 0 10 -262144 -1 -1 0
1;
#X obj 870 121 tgl 15 0 empty empty empty 17 7 0 10 -262144 -1 -1 0
1;
#X obj 999 431 tgl 15 0 empty empty empty 17 7 0 10 -262144 -1 -1 0
1;
#X obj 1024 431 tgl 15 0 empty empty empty 17 7 0 10 -262144 -1 -1
0 1;
#X obj 935 121 tgl 15 0 empty empty empty 17 7 0 10 -262144 -1 -1 0
1;
#X obj 970 121 tgl 15 0 empty empty empty 17 7 0 10 -262144 -1 -1 0
1;
#X obj 1005 121 tgl 15 0 empty empty empty 17 7 0 10 -262144 -1 -1
0 1;
#X obj 1040 121 tgl 15 0 empty empty empty 17 7 0 10 -262144 -1 -1
0 1;
#X obj 1135 121 tgl 15 0 empty empty empty 17 7 0 10 -262144 -1 -1
0 1;
#X obj 1179 121 tgl 15 0 empty empty empty 17 7 0 10 -262144 -1 -1
0 1;
#X obj 1223 121 tgl 15 0 empty empty empty 17 7 0 10 -262144 -1 -1
0 1;
#X obj 1267 121 tgl 15 0 empty empty empty 17 7 0 10 -262144 -1 -1
0 1;
#X obj 1301 121 tgl 15 0 empty empty empty 17 7 0 10 -262144 -1 -1
0 1;
#X obj 671 99 route wP2 wR2 wYaw2 wAcc2;
#X obj 845 99 route a2 b2;
#X obj 935 99 route up2 down2 left2 right2;
#X obj 1135 99 route minus2 plus2 home2 one2 two2;
#X obj 671 259 route mP2 mR2 mYaw2;
#X obj 811 259 route mP.velo2 mR.velo2 mYaw.velo2;
#X obj 673 409 route nP2 nR2 nYaw2 nAcc2;
#X obj 847 409 route nJoy.x2 nJoy.y2;
#X obj 999 410 route c2 z2;
#X obj 671 121 s \$1-wP2;
#X obj 688 141 s \$1-wR2;
#X obj 705 161 s \$1-wYaw2;
#X obj 725 181 s \$1-wAcc2;
#X obj 845 141 s \$1-a2;
#X obj 870 161 s \$1-b2;
#X obj 935 141 s \$1-up2;
#X obj 970 161 s \$1-down2;
#X obj 1005 141 s \$1-left2;
#X obj 1040 161 s \$1-right2;
#X obj 1135 141 s \$1-minus2;
#X obj 1179 161 s \$1-plus2;
#X obj 1223 141 s \$1-home2;
#X obj 1267 161 s \$1-one2;
#X obj 1301 141 s \$1-two2;
#X obj 671 282 s \$1-mP2;
#X obj 691 301 s \$1-mR2;
#X obj 711 321 s \$1-mYaw2;
#X obj 811 281 s \$1-mP.velo2;
#X obj 872 301 s \$1-mR.velo2;
#X obj 933 321 s \$1-mYaw.velo2;
#X obj 673 441 s \$1-nP2;
#X obj 696 461 s \$1-nR2;
#X obj 719 481 s \$1-nYaw2;
#X obj 743 502 s \$1-nAcc2;
#X obj 847 441 s \$1-nJoy.x2;
#X obj 902 461 s \$1-nJoy.y2;
#X obj 999 451 s \$1-c2;
#X obj 1024 471 s \$1-z2;
#X obj 726 18 t b b;
#X obj 726 40 timer;
#X floatatom 726 62 5 0 0 0 - - -;
#X obj 697 30 bng 15 250 50 0 empty empty empty 17 7 0 10 -262144 -1
-1;
#X connect 0 0 2 0;
#X connect 1 0 3 0;
#X connect 4 0 51 0;
#X connect 5 0 52 0;
#X connect 6 0 28 0;
#X connect 6 0 107 0;
#X connect 7 0 0 0;
#X connect 7 1 1 0;
#X connect 7 2 10 0;
#X connect 8 0 11 0;
#X connect 9 0 12 0;
#X connect 10 0 8 0;
#X connect 10 1 9 0;
#X connect 10 2 13 0;
#X connect 10 3 14 0;
#X connect 10 4 21 0;
#X connect 13 0 15 0;
#X connect 14 0 16 0;
#X connect 17 0 23 0;
#X connect 18 0 24 0;
#X connect 19 0 25 0;
#X connect 20 0 26 0;
#X connect 21 0 17 0;
#X connect 21 1 18 0;
#X connect 21 2 19 0;
#X connect 21 3 20 0;
#X connect 21 4 22 0;
#X connect 21 5 34 0;
#X connect 22 0 27 0;
#X connect 28 0 39 0;
#X connect 28 1 66 0;
#X connect 34 0 31 0;
#X connect 34 1 32 0;
#X connect 34 2 33 0;
#X connect 34 3 35 0;
#X connect 35 0 36 0;
#X connect 35 1 37 0;
#X connect 35 2 38 0;
#X connect 35 3 42 0;
#X connect 39 0 29 0;
#X connect 39 1 30 0;
#X connect 39 2 41 0;
#X connect 39 3 40 0;
#X connect 39 4 7 0;
#X connect 42 0 43 0;
#X connect 42 1 44 0;
#X connect 42 2 45 0;
#X connect 42 3 46 0;
#X connect 42 4 47 0;
#X connect 47 0 48 0;
#X connect 47 1 49 0;
#X connect 47 2 50 0;
#X connect 50 0 4 0;
#X connect 50 1 5 0;
#X connect 53 0 79 0;
#X connect 54 0 80 0;
#X connect 55 0 102 0;
#X connect 56 0 103 0;
#X connect 57 0 81 0;
#X connect 58 0 82 0;
#X connect 59 0 83 0;
#X connect 60 0 84 0;
#X connect 61 0 85 0;
#X connect 62 0 86 0;
#X connect 63 0 87 0;
#X connect 64 0 88 0;
#X connect 65 0 89 0;
#X connect 66 0 75 0;
#X connect 66 1 76 0;
#X connect 66 2 77 0;
#X connect 66 3 78 0;
#X connect 66 4 67 0;
#X connect 67 0 53 0;
#X connect 67 1 54 0;
#X connect 67 2 68 0;
#X connect 68 0 57 0;
#X connect 68 1 58 0;
#X connect 68 2 59 0;
#X connect 68 3 60 0;
#X connect 68 4 69 0;
#X connect 69 0 61 0;
#X connect 69 1 62 0;
#X connect 69 2 63 0;
#X connect 69 3 64 0;
#X connect 69 4 65 0;
#X connect 69 5 70 0;
#X connect 70 0 90 0;
#X connect 70 1 91 0;
#X connect 70 2 92 0;
#X connect 70 3 71 0;
#X connect 71 0 93 0;
#X connect 71 1 94 0;
#X connect 71 2 95 0;
#X connect 71 3 72 0;
#X connect 72 0 96 0;
#X connect 72 1 97 0;
#X connect 72 2 98 0;
#X connect 72 3 99 0;
#X connect 72 4 73 0;
#X connect 73 0 100 0;
#X connect 73 1 101 0;
#X connect 73 2 74 0;
#X connect 74 0 55 0;
#X connect 74 1 56 0;
#X connect 104 0 105 0;
#X connect 104 1 105 1;
#X connect 105 0 106 0;
#X connect 107 0 104 0;
#X restore 31 89 pd sender;
#X obj 134 25 r p\$1.tgl;
#X obj 134 47 tgl 15 0 empty empty empty 17 7 0 10 -262144 -1 -1 1
1;
#X obj 31 64 spigot;
#X floatatom 31 156 5 0 0 0 - - -;
#X obj 31 134 r \$1-wP;
#X floatatom 81 156 5 0 0 0 - - -;
#X obj 81 134 r \$1-wR;
#X floatatom 131 156 5 0 0 0 - - -;
#X obj 131 134 r \$1-wYaw;
#X floatatom 191 156 5 0 0 0 - - -;
#X obj 191 134 r \$1-wAcc;
#N canvas 940 84 695 317 buttonViewer 0;
#X obj 15 21 r \$1-a;
#X obj 60 21 r \$1-b;
#X obj 115 21 r \$1-up;
#X obj 170 21 r \$1-down;
#X obj 234 21 r \$1-left;
#X obj 300 21 r \$1-right;
#X obj 365 21 r \$1-minus;
#X obj 439 21 r \$1-plus;
#X obj 503 21 r \$1-home;
#X obj 567 21 r \$1-one;
#X obj 621 21 r \$1-two;
#X obj 209 181 r \$1-c;
#X obj 264 181 r \$1-z;
#X obj 124 136 tgl 8 0 empty empty empty 17 7 0 10 -260097 -1 -1 0
1;
#X obj 114 126 tgl 8 0 empty empty empty 17 7 0 10 -258113 -1 -1 0
1;
#X obj 114 116 tgl 8 0 empty empty empty 17 7 0 10 -262144 -1 -1 0
1;
#X obj 114 136 tgl 8 0 empty empty empty 17 7 0 10 -262144 -1 -1 0
1;
#X obj 104 126 tgl 8 0 empty empty empty 17 7 0 10 -262144 -1 -1 0
1;
#X obj 124 126 tgl 8 0 empty empty empty 17 7 0 10 -262144 -1 -1 0
1;
#X obj 134 116 tgl 8 0 empty empty empty 17 7 0 10 -262144 -1 -1 0
1;
#X obj 154 116 tgl 8 0 empty empty empty 17 7 0 10 -262144 -1 -1 0
1;
#X obj 144 116 tgl 8 0 empty empty empty 17 7 0 10 -262144 -1 -1 0
1;
#X obj 144 125 tgl 8 0 empty empty empty 17 7 0 10 -262144 -1 -1 0
1;
#X obj 144 135 tgl 8 0 empty empty empty 17 7 0 10 -262144 -1 -1 0
1;
#X obj 154 125 tgl 8 0 empty empty empty 17 7 0 10 -4034 -1 -1 0 1
;
#X obj 154 135 tgl 8 0 empty empty empty 17 7 0 10 -4032 -1 -1 51.5338
51.5338;
#X connect 0 0 13 0;
#X connect 1 0 14 0;
#X connect 2 0 15 0;
#X connect 3 0 16 0;
#X connect 4 0 17 0;
#X connect 5 0 18 0;
#X connect 6 0 19 0;
#X connect 7 0 20 0;
#X connect 8 0 21 0;
#X connect 9 0 22 0;
#X connect 10 0 23 0;
#X connect 11 0 24 0;
#X connect 12 0 25 0;
#X coords 0 -1 1 1 95 47 1 100 100;
#X restore 262 134 pd buttonViewer;
#X floatatom 31 206 5 0 0 0 - - -;
#X obj 31 184 r \$1-mP;
#X floatatom 81 206 5 0 0 0 - - -;
#X obj 81 184 r \$1-mR;
#X floatatom 131 206 5 0 0 0 - - -;
#X obj 131 184 r \$1-mYaw;
#X floatatom 191 206 5 0 0 0 - - -;
#X obj 191 184 r \$1-mP.velo;
#X floatatom 271 206 5 0 0 0 - - -;
#X obj 271 184 r \$1-mR.velo;
#X floatatom 351 206 5 0 0 0 - - -;
#X obj 351 184 r \$1-mYaw.velo;
#X floatatom 31 256 5 0 0 0 - - -;
#X floatatom 81 256 5 0 0 0 - - -;
#X floatatom 131 256 5 0 0 0 - - -;
#X floatatom 191 256 5 0 0 0 - - -;
#X obj 31 234 r \$1-nP;
#X obj 81 234 r \$1-nR;
#X obj 131 234 r \$1-nYaw;
#X obj 191 234 r \$1-nAcc;
#X floatatom 31 336 5 0 0 0 - - -;
#X floatatom 91 336 5 0 0 0 - - -;
#X floatatom 151 336 5 0 0 0 - - -;
#X floatatom 221 336 5 0 0 0 - - -;
#X floatatom 31 386 5 0 0 0 - - -;
#X floatatom 91 386 5 0 0 0 - - -;
#X floatatom 151 386 5 0 0 0 - - -;
#X floatatom 221 386 5 0 0 0 - - -;
#X floatatom 311 386 5 0 0 0 - - -;
#X floatatom 401 386 5 0 0 0 - - -;
#X floatatom 31 436 5 0 0 0 - - -;
#X floatatom 91 436 5 0 0 0 - - -;
#X floatatom 151 436 5 0 0 0 - - -;
#X floatatom 221 436 5 0 0 0 - - -;
#X obj 31 314 r \$1-wP2;
#X obj 91 314 r \$1-wR2;
#X obj 151 314 r \$1-wYaw2;
#X obj 221 314 r \$1-wAcc2;
#X obj 31 364 r \$1-mP2;
#X obj 91 364 r \$1-mR2;
#X obj 151 364 r \$1-mYaw2;
#X obj 221 364 r \$1-mP.velo2;
#X obj 311 364 r \$1-mR.velo2;
#X obj 401 364 r \$1-mYaw.velo2;
#X obj 31 414 r \$1-nP2;
#X obj 91 414 r \$1-nR2;
#X obj 151 414 r \$1-nYaw2;
#X obj 221 414 r \$1-nAcc2;
#X obj 259 234 r \$1-nJoy.x;
#X obj 334 234 r \$1-nJoy.y;
#X floatatom 259 256 5 0 0 0 - - -;
#X floatatom 334 256 5 0 0 0 - - -;
#X floatatom 297 436 5 0 0 0 - - -;
#X floatatom 382 436 5 0 0 0 - - -;
#X obj 297 414 r \$1-nJoy.x2;
#X obj 382 414 r \$1-nJoy.y2;
#N canvas 829 276 695 317 buttonViewer2 0;
#X obj 124 136 tgl 8 0 empty empty empty 17 7 0 10 -260097 -1 -1 0
1;
#X obj 114 126 tgl 8 0 empty empty empty 17 7 0 10 -258113 -1 -1 0
1;
#X obj 114 116 tgl 8 0 empty empty empty 17 7 0 10 -262144 -1 -1 0
1;
#X obj 114 136 tgl 8 0 empty empty empty 17 7 0 10 -262144 -1 -1 0
1;
#X obj 104 126 tgl 8 0 empty empty empty 17 7 0 10 -262144 -1 -1 0
1;
#X obj 124 126 tgl 8 0 empty empty empty 17 7 0 10 -262144 -1 -1 0
1;
#X obj 134 116 tgl 8 0 empty empty empty 17 7 0 10 -262144 -1 -1 0
1;
#X obj 154 116 tgl 8 0 empty empty empty 17 7 0 10 -262144 -1 -1 0
1;
#X obj 144 116 tgl 8 0 empty empty empty 17 7 0 10 -262144 -1 -1 0
1;
#X obj 144 125 tgl 8 0 empty empty empty 17 7 0 10 -262144 -1 -1 0
1;
#X obj 144 135 tgl 8 0 empty empty empty 17 7 0 10 -262144 -1 -1 0
1;
#X obj 154 125 tgl 8 0 empty empty empty 17 7 0 10 -4034 -1 -1 0 1
;
#X obj 154 135 tgl 8 0 empty empty empty 17 7 0 10 -4032 -1 -1 0.201869
0.201869;
#X obj 15 21 r \$1-a2;
#X obj 60 21 r \$1-b2;
#X obj 115 21 r \$1-up2;
#X obj 170 21 r \$1-down2;
#X obj 234 21 r \$1-left2;
#X obj 300 21 r \$1-right2;
#X obj 365 21 r \$1-minus2;
#X obj 439 21 r \$1-plus2;
#X obj 503 21 r \$1-home2;
#X obj 567 21 r \$1-one2;
#X obj 621 21 r \$1-two2;
#X obj 209 181 r \$1-c2;
#X obj 264 181 r \$1-z2;
#X connect 13 0 0 0;
#X connect 14 0 1 0;
#X connect 15 0 2 0;
#X connect 16 0 3 0;
#X connect 17 0 4 0;
#X connect 18 0 5 0;
#X connect 19 0 6 0;
#X connect 20 0 7 0;
#X connect 21 0 8 0;
#X connect 22 0 9 0;
#X connect 23 0 10 0;
#X connect 24 0 11 0;
#X connect 25 0 12 0;
#X coords 0 -1 1 1 95 47 1 100 100;
#X restore 300 314 pd buttonViewer2;
#X connect 0 0 4 0;
#X connect 2 0 3 0;
#X connect 3 0 4 1;
#X connect 4 0 1 0;
#X connect 6 0 5 0;
#X connect 8 0 7 0;
#X connect 10 0 9 0;
#X connect 12 0 11 0;
#X connect 15 0 14 0;
#X connect 17 0 16 0;
#X connect 19 0 18 0;
#X connect 21 0 20 0;
#X connect 23 0 22 0;
#X connect 25 0 24 0;
#X connect 30 0 26 0;
#X connect 31 0 27 0;
#X connect 32 0 28 0;
#X connect 33 0 29 0;
#X connect 48 0 34 0;
#X connect 49 0 35 0;
#X connect 50 0 36 0;
#X connect 51 0 37 0;
#X connect 52 0 38 0;
#X connect 53 0 39 0;
#X connect 54 0 40 0;
#X connect 55 0 41 0;
#X connect 56 0 42 0;
#X connect 57 0 43 0;
#X connect 58 0 44 0;
#X connect 59 0 45 0;
#X connect 60 0 46 0;
#X connect 61 0 47 0;
#X connect 62 0 64 0;
#X connect 63 0 65 0;
#X connect 68 0 66 0;
#X connect 69 0 67 0;
