#N canvas 669 582 838 403 10;
#X obj 31 79 s \$0-roll;
#X obj 48 99 s \$0-pitch;
#X obj 65 119 s \$0-x;
#X obj 83 139 s \$0-y;
#X obj 100 159 s \$0-z;
#X obj 34 279 r \$0-roll;
#X obj 33 329 r \$0-x;
#X obj 133 329 r \$0-z;
#X obj 83 329 r \$0-y;
#X obj 119 279 r \$0-pitch;
#X floatatom 34 301 5 0 0 1 --90+90 - -;
#X floatatom 119 301 5 0 0 1 --90+90 - -;
#X floatatom 33 351 5 0 0 0 - - -;
#X floatatom 83 351 5 0 0 0 - - -;
#X floatatom 133 351 5 0 0 1 --256+256 - -;
#X obj 31 17 inlet wii;
#X obj 31 49 route r p x y z;
#X obj 163 48 route a b;
#X obj 163 70 tgl 15 0 empty empty empty 17 7 0 10 -262144 -1 -1 0
1;
#X obj 188 70 tgl 15 0 empty empty empty 17 7 0 10 -262144 -1 -1 0
1;
#X obj 163 90 s \$0-a;
#X obj 188 110 s \$0-b;
#N canvas 381 97 927 760 pitchCtrl_1 0;
#X obj 27 84 / 90;
#X floatatom 37 106 5 0 0 1 --1+1 - -;
#X obj 84 608 s pitchCtrl_1;
#X obj 496 619 s durCtrl_1;
#X obj 27 207 moses 0;
#X obj 84 431 f;
#X obj 545 5 loadbang;
#X obj 654 551 hsl 128 15 0 200 0 0 empty empty 0-100 -2 -8 0 10 -262144
-1 -1 0 1;
#X obj 663 174 expr $f1-$f2;
#X floatatom 673 196 5 0 0 0 - - -;
#X obj 705 132 t f f;
#X text 650 69 spd: max \, base;
#X obj 400 382 t f b;
#X msg 415 87 0.618 1;
#X text 414 69 spd:prop;
#X obj 400 339 f;
#X obj 457 339 f;
#X obj 415 109 unpack f f;
#X obj 663 110 unpack f f;
#X obj 111 467 hsl 128 15 -24 12 0 0 empty empty empty -2 -8 0 10 -262144
-1 -1 0 1;
#X floatatom 29 459 5 0 0 0 - - -;
#X obj 27 406 * -24;
#X obj 27 296 expr $f1*$f1;
#X obj 663 132 t f f;
#X floatatom 651 571 5 0 0 0 - - -;
#X obj 27 126 t f f;
#X obj 494 274 expr $f1*$f1;
#X obj 494 445 * 1;
#X obj 84 538 t f;
#X obj 496 555 t f f f;
#X msg 760 377 range 0 \$1;
#X text 506 69 gliss: min center max;
#X obj 545 111 unpack f f f;
#X obj 494 316 expr ($f1*$f2) +$f3;
#X obj 27 32 inlet \$0-pitch;
#X msg 545 89 -24 0 12;
#X text -1 296 2cha;
#N canvas 367 175 450 300 y=x^2/-1+1to01 0;
#X obj 66 100 - 1;
#X obj 66 146 + 1;
#X obj 66 124 expr $f1*$f1 *-1;
#X text 102 96 y=-x^2 >> -1+1 to 0-1;
#X obj 109 44 inlet;
#X obj 106 182 outlet;
#X connect 0 0 2 0;
#X connect 1 0 5 0;
#X connect 2 0 1 0;
#X connect 4 0 0 0;
#X restore 84 334 pd y=x^2/-1+1to01;
#X obj 84 406 * 12;
#X obj 27 233 t f b;
#X obj 84 233 t f b;
#X msg 214 417 range -24 \$1;
#X msg 663 88 200 15;
#X connect 0 0 1 0;
#X connect 0 0 25 0;
#X connect 4 0 39 0;
#X connect 4 1 40 0;
#X connect 5 0 19 0;
#X connect 5 0 20 0;
#X connect 5 0 28 0;
#X connect 6 0 35 0;
#X connect 6 0 42 0;
#X connect 6 0 13 0;
#X connect 8 0 9 0;
#X connect 8 0 33 1;
#X connect 10 0 33 2;
#X connect 10 1 8 1;
#X connect 12 0 27 1;
#X connect 12 1 27 0;
#X connect 13 0 17 0;
#X connect 15 0 12 0;
#X connect 16 0 12 0;
#X connect 17 0 15 1;
#X connect 17 1 16 1;
#X connect 18 0 23 0;
#X connect 18 1 10 0;
#X connect 21 0 5 0;
#X connect 22 0 21 0;
#X connect 23 0 8 0;
#X connect 23 1 30 0;
#X connect 25 0 4 0;
#X connect 25 1 26 0;
#X connect 26 0 33 0;
#X connect 27 0 29 0;
#X connect 28 0 2 0;
#X connect 29 0 3 0;
#X connect 29 2 7 0;
#X connect 29 2 24 0;
#X connect 30 0 7 0;
#X connect 32 0 21 1;
#X connect 32 1 4 1;
#X connect 32 2 41 0;
#X connect 32 2 38 1;
#X connect 33 0 27 0;
#X connect 34 0 0 0;
#X connect 35 0 32 0;
#X connect 37 0 38 0;
#X connect 38 0 5 0;
#X connect 39 0 22 0;
#X connect 39 1 15 0;
#X connect 40 0 37 0;
#X connect 40 1 16 0;
#X connect 41 0 19 0;
#X connect 42 0 18 0;
#X restore 332 143 pd pitchCtrl_1;
#N canvas 1059 673 450 300 direction 0;
#X msg 207 87 1;
#X msg 247 87 -1;
#X obj 216 148 s direction_1;
#X obj 208 119 f;
#X obj 226 168 s direction_2;
#X obj 236 188 s direction_3;
#X connect 0 0 3 0;
#X connect 1 0 3 0;
#X connect 3 0 2 0;
#X connect 3 0 4 0;
#X connect 3 0 5 0;
#X restore 704 138 pd direction;
#N canvas 1140 123 515 657 range_3.nn 0;
#X obj 180 253 tgl 15 0 empty empty empty 17 7 0 10 -262144 -1 -1 1
1;
#X obj 271 492 *;
#X floatatom 336 488 11 0 0 0 - - -;
#X obj 271 422 / 3;
#X floatatom 271 444 5 0 0 0 - - -;
#X obj 271 390 random 4;
#X obj 384 406 - 1;
#X obj 180 273 metro 11;
#X obj 244 539 s range_3;
#X obj 336 520 / 2;
#N canvas 655 510 450 300 test 0;
#X msg 69 99 down;
#X msg 109 99 up;
#X msg 139 99 reset;
#X floatatom 79 159 5 0 0 0 - - -;
#X obj 69 137 j.stepper 99;
#X obj 48 212 outlet;
#X connect 0 0 4 0;
#X connect 1 0 4 0;
#X connect 2 0 4 0;
#X connect 4 0 3 0;
#X connect 4 0 5 0;
#X restore 122 71 pd test;
#X obj 180 224 loadbang;
#X obj 336 466 r maxSamples_3;
#X obj 361 85 r \$0-pitch;
#X obj 361 107 + 90;
#X obj 361 129 / 180;
#X obj 361 173 sqrt;
#X obj 361 203 + 2;
#X obj 361 151 * 24;
#X obj 361 247 t f f;
#X obj 180 295 t b b;
#X obj 129 350 s speedCtrl_3;
#X connect 0 0 7 0;
#X connect 1 0 8 0;
#X connect 3 0 4 0;
#X connect 3 0 1 0;
#X connect 5 0 3 0;
#X connect 6 0 3 1;
#X connect 7 0 20 0;
#X connect 9 0 1 1;
#X connect 11 0 0 0;
#X connect 12 0 2 0;
#X connect 12 0 9 0;
#X connect 13 0 14 0;
#X connect 14 0 15 0;
#X connect 15 0 18 0;
#X connect 16 0 17 0;
#X connect 17 0 19 0;
#X connect 18 0 16 0;
#X connect 19 0 5 1;
#X connect 19 1 6 0;
#X connect 20 0 21 0;
#X connect 20 1 5 0;
#X restore 450 183 pd range_3.nn;
#N canvas 664 313 964 705 pitchCtrl_2.nn 0;
#X obj 67 84 / 90;
#X floatatom 77 106 5 0 0 1 --1+1 - -;
#X obj 176 501 f;
#X obj 655 5 loadbang;
#X obj 784 601 hsl 128 15 0 100 0 0 empty empty 0-100 -2 -8 0 10 -262144
-1 -1 0 1;
#X msg 803 78 100 15;
#X obj 803 164 expr $f1-$f2;
#X floatatom 813 186 5 0 0 0 - - -;
#X obj 845 122 t f f;
#X text 790 59 spd: max \, base;
#X obj 490 382 t f b;
#X text 504 59 spd:prop;
#X obj 490 339 f;
#X obj 547 339 f;
#X obj 505 99 unpack f f;
#X obj 803 100 unpack f f;
#X obj 203 537 hsl 128 15 -24 4 0 0 empty empty empty -2 -8 0 10 -262144
-1 -1 0 1;
#X obj 176 456 * 4;
#X floatatom 120 530 9 0 0 0 - - -;
#X obj 67 456 * -24;
#X obj 803 122 t f f;
#X floatatom 781 621 5 0 0 0 - - -;
#X obj 67 126 t f f;
#X obj 604 274 expr $f1*$f1;
#X obj 604 316 expr ($f1 * $f2) + $f3;
#X obj 604 445 * 1;
#X obj 176 568 t f;
#X obj 606 555 t f f f;
#X msg 870 377 range 0 \$1;
#X obj 176 658 s pitchCtrl_2;
#X obj 606 649 s durCtrl_2;
#X obj 655 101 unpack f f f;
#X text 630 59 gliss: min center max;
#X obj 67 32 inlet \$0-pitch;
#X obj 67 329 expr $f1*$f1*$f1*$f1;
#X obj 67 257 moses 0;
#X text 36 328 4cha;
#X msg 655 79 -24 0 4;
#X obj 67 289 t f b;
#X obj 176 289 t f b;
#X obj 176 370 expr $f1*$f1;
#X msg 265 486 range -24 \$1;
#X msg 505 77 0.382 0.618;
#X connect 0 0 1 0;
#X connect 0 0 22 0;
#X connect 2 0 16 0;
#X connect 2 0 18 0;
#X connect 2 0 26 0;
#X connect 3 0 37 0;
#X connect 3 0 5 0;
#X connect 3 0 42 0;
#X connect 5 0 15 0;
#X connect 6 0 7 0;
#X connect 6 0 24 1;
#X connect 8 0 24 2;
#X connect 8 1 6 1;
#X connect 10 0 25 1;
#X connect 10 1 25 0;
#X connect 12 0 10 0;
#X connect 13 0 10 0;
#X connect 14 0 12 1;
#X connect 14 1 13 1;
#X connect 15 0 20 0;
#X connect 15 1 8 0;
#X connect 17 0 2 0;
#X connect 19 0 2 0;
#X connect 20 0 6 0;
#X connect 20 1 28 0;
#X connect 22 0 35 0;
#X connect 22 1 23 0;
#X connect 23 0 24 0;
#X connect 24 0 25 0;
#X connect 25 0 27 0;
#X connect 26 0 29 0;
#X connect 27 0 30 0;
#X connect 27 2 4 0;
#X connect 27 2 21 0;
#X connect 28 0 4 0;
#X connect 31 0 19 1;
#X connect 31 1 35 1;
#X connect 31 2 17 1;
#X connect 31 2 41 0;
#X connect 33 0 0 0;
#X connect 34 0 19 0;
#X connect 35 0 38 0;
#X connect 35 1 39 0;
#X connect 37 0 31 0;
#X connect 38 0 34 0;
#X connect 38 1 12 0;
#X connect 39 0 40 0;
#X connect 39 1 13 0;
#X connect 40 0 17 0;
#X connect 41 0 16 0;
#X connect 42 0 14 0;
#X restore 332 163 pd pitchCtrl_2.nn;
#N canvas 999 171 484 708 range_2.nn 0;
#X obj 96 267 tgl 15 0 empty empty empty 17 7 0 10 -262144 -1 -1 1
1;
#X obj 96 541 *;
#X floatatom 161 537 11 0 0 0 - - -;
#X obj 96 471 / 3;
#X floatatom 96 493 5 0 0 0 - - -;
#X obj 96 439 random 4;
#X obj 199 435 - 1;
#X obj 69 588 s range_2;
#X obj 96 287 metro 7;
#X obj 161 570 / 3;
#N canvas 655 510 450 300 test 0;
#X msg 69 99 down;
#X msg 109 99 up;
#X msg 139 99 reset;
#X floatatom 79 159 5 0 0 0 - - -;
#X obj 69 137 j.stepper 99;
#X obj 48 212 outlet;
#X connect 0 0 4 0;
#X connect 1 0 4 0;
#X connect 2 0 4 0;
#X connect 4 0 3 0;
#X connect 4 0 5 0;
#X restore 122 71 pd test;
#X obj 96 237 loadbang;
#X obj 161 515 r maxSamples_2;
#X obj 282 163 r \$0-pitch;
#X obj 282 185 + 90;
#X obj 282 207 / 180;
#X obj 282 251 sqrt;
#X obj 282 281 + 2;
#X obj 282 229 * 24;
#X obj 282 325 t f f;
#X obj 96 309 t b b;
#X obj 27 352 s speedCtrl_2;
#X connect 0 0 8 0;
#X connect 1 0 7 0;
#X connect 3 0 4 0;
#X connect 3 0 1 0;
#X connect 5 0 3 0;
#X connect 6 0 3 1;
#X connect 8 0 20 0;
#X connect 9 0 1 1;
#X connect 11 0 0 0;
#X connect 12 0 2 0;
#X connect 12 0 9 0;
#X connect 13 0 14 0;
#X connect 14 0 15 0;
#X connect 15 0 18 0;
#X connect 16 0 17 0;
#X connect 17 0 19 0;
#X connect 18 0 16 0;
#X connect 19 0 5 1;
#X connect 19 1 6 0;
#X connect 20 0 21 0;
#X connect 20 1 5 0;
#X restore 450 163 pd range_2.nn;
#N canvas 465 170 518 646 range_1.nn 0;
#X obj 212 268 tgl 15 0 empty empty empty 17 7 0 10 -262144 -1 -1 1
1;
#X obj 212 549 s range_1;
#X obj 212 492 *;
#X obj 288 416 r maxSamples_1;
#X floatatom 298 438 11 0 0 0 - - -;
#X floatatom 222 404 5 0 0 0 - - -;
#X obj 212 350 random 4;
#X obj 323 351 - 1;
#X obj 212 288 metro 5;
#X obj 265 21 r \$0-pitch;
#X obj 421 104 + 90;
#X obj 421 126 / 180;
#X obj 421 170 sqrt;
#X obj 421 200 + 2;
#X obj 421 148 * 24;
#X obj 288 463 / 5;
#N canvas 655 510 450 300 test 0;
#X msg 69 99 down;
#X msg 109 99 up;
#X msg 139 99 reset;
#X floatatom 79 159 5 0 0 0 - - -;
#X obj 69 137 j.stepper 99;
#X obj 48 212 outlet;
#X connect 0 0 4 0;
#X connect 1 0 4 0;
#X connect 2 0 4 0;
#X connect 4 0 3 0;
#X connect 4 0 5 0;
#X restore 122 71 pd test;
#X obj 212 245 loadbang;
#X obj 421 244 t f f;
#X floatatom 451 276 5 0 0 0 - - -;
#X obj 87 384 s speedCtrl_1;
#X obj 118 160 f;
#X floatatom 126 126 5 0 0 0 - - -;
#X obj 118 212 t f f;
#X floatatom 128 244 5 0 0 0 - - -;
#X obj 265 43 + 90;
#X obj 264 65 / 180;
#X obj 264 87 * 100;
#X obj 212 382 / 3;
#X floatatom 281 374 5 0 0 0 - - -;
#X connect 0 0 8 0;
#X connect 2 0 1 0;
#X connect 3 0 4 0;
#X connect 3 0 15 0;
#X connect 6 0 28 0;
#X connect 8 0 6 0;
#X connect 9 0 10 0;
#X connect 9 0 25 0;
#X connect 10 0 11 0;
#X connect 11 0 14 0;
#X connect 12 0 13 0;
#X connect 13 0 18 0;
#X connect 14 0 12 0;
#X connect 15 0 2 1;
#X connect 17 0 0 0;
#X connect 18 0 6 1;
#X connect 18 1 7 0;
#X connect 18 1 19 0;
#X connect 21 0 23 0;
#X connect 22 0 21 0;
#X connect 23 0 20 0;
#X connect 23 0 24 0;
#X connect 23 1 8 1;
#X connect 25 0 26 0;
#X connect 26 0 27 0;
#X connect 28 0 5 0;
#X connect 28 0 2 0;
#X connect 29 0 28 1;
#X restore 450 143 pd range_1.nn;
#N canvas 866 22 807 188 gliss-test 0;
#X obj 68 85 hsl 128 15 -90 90 0 0 empty empty -90+90 -2 -8 0 10 -262144
-1 -1 0 1;
#X msg 143 40 0;
#X obj 234 51 line 10 0;
#X msg 245 3 90 5555;
#X msg 246 27 -90 5555;
#X obj 29 166 outlet;
#X obj 68 115 hsl 128 15 -90 2.5 0 0 empty empty -90-2.5 -2 -8 0 10
-262144 -1 -1 0 1;
#X obj 212 116 hsl 128 15 0 90 0 0 empty empty 0-90 -2 -8 0 10 -262144
-1 -1 0 1;
#X obj 334 51 line 10 0;
#X msg 345 3 0 10000;
#X msg 346 27 -90 10000;
#X connect 0 0 5 0;
#X connect 1 0 0 0;
#X connect 2 0 0 0;
#X connect 3 0 2 0;
#X connect 4 0 2 0;
#X connect 6 0 5 0;
#X connect 7 0 5 0;
#X connect 8 0 6 0;
#X connect 9 0 8 0;
#X connect 10 0 8 0;
#X restore 402 21 pd gliss-test;
#X obj 332 21 r \$0-pitch;
#X obj 332 103 t f f f;
#X obj 332 53 j-pick2;
#N canvas 723 306 904 699 pitchCtrl_3.nn 0;
#X obj 27 84 / 90;
#X floatatom 37 106 5 0 0 1 --1+1 - -;
#X obj 27 207 moses 0;
#X obj 66 431 f;
#X obj 545 5 loadbang;
#X obj 674 601 hsl 128 15 0 100 0 0 empty empty 0-100 -2 -8 0 10 -262144
-1 -1 0 1;
#X msg 693 78 100 15;
#X obj 693 164 expr $f1-$f2;
#X floatatom 703 186 5 0 0 0 - - -;
#X obj 735 122 t f f;
#X text 680 59 spd: max \, base;
#X obj 400 382 t f b;
#X msg 415 77 0.618 1;
#X text 414 59 spd:prop;
#X obj 400 339 f;
#X obj 457 339 f;
#X obj 380 313 bang;
#X obj 437 313 bang;
#X obj 415 99 unpack f f;
#X obj 693 100 unpack f f;
#X obj 93 467 hsl 128 15 -24 0 0 0 empty empty -24-0 -2 -8 0 10 -262144
-1 -1 0 1;
#X obj 66 406 * 4;
#X floatatom 29 459 5 0 0 0 - - -;
#X obj 27 406 * -24;
#X obj 66 294 - 1;
#X obj 66 340 + 1;
#X obj 66 318 expr $f1*$f1 *-1;
#X obj 693 122 t f f;
#X floatatom 671 621 5 0 0 0 - - -;
#X obj 27 126 t f f;
#X obj 494 274 expr $f1*$f1;
#X obj 494 316 expr ($f1 * $f2) + $f3;
#X obj 494 445 * 1;
#X obj 237 466 hsl 128 15 0 4 0 0 empty empty 0-4 -2 -8 0 10 -262144
-1 -1 0 1;
#X obj 66 568 t f;
#X obj 496 555 t f f f;
#X msg 760 377 range 0 \$1;
#X obj 545 101 unpack f f f;
#X text 520 59 gliss: min center max;
#X text 97 294 y=-x^2 >> -1+1 to 0-1;
#X obj 27 32 inlet \$0-pitch;
#X obj 66 658 s pitchCtrl_3;
#X obj 496 649 s durCtrl_3;
#X obj 27 259 expr $f1*$f1*$f1*$f1*$f1*$f1*$f1*$f1;
#X msg 545 79 -24 0 -5;
#X connect 0 0 1 0;
#X connect 0 0 29 0;
#X connect 2 0 16 0;
#X connect 2 0 43 0;
#X connect 2 1 17 0;
#X connect 2 1 24 0;
#X connect 3 0 20 0;
#X connect 3 0 22 0;
#X connect 3 0 33 0;
#X connect 3 0 34 0;
#X connect 4 0 44 0;
#X connect 4 0 6 0;
#X connect 4 0 12 0;
#X connect 6 0 19 0;
#X connect 7 0 8 0;
#X connect 7 0 31 1;
#X connect 9 0 31 2;
#X connect 9 1 7 1;
#X connect 11 0 32 1;
#X connect 11 1 32 0;
#X connect 12 0 18 0;
#X connect 14 0 11 0;
#X connect 15 0 11 0;
#X connect 16 0 14 0;
#X connect 17 0 15 0;
#X connect 18 0 14 1;
#X connect 18 1 15 1;
#X connect 19 0 27 0;
#X connect 19 1 9 0;
#X connect 21 0 3 0;
#X connect 23 0 3 0;
#X connect 24 0 26 0;
#X connect 25 0 21 0;
#X connect 26 0 25 0;
#X connect 27 0 7 0;
#X connect 27 1 36 0;
#X connect 29 0 2 0;
#X connect 29 1 30 0;
#X connect 30 0 31 0;
#X connect 31 0 32 0;
#X connect 32 0 35 0;
#X connect 34 0 41 0;
#X connect 35 0 42 0;
#X connect 35 2 5 0;
#X connect 35 2 28 0;
#X connect 36 0 5 0;
#X connect 37 0 23 1;
#X connect 37 1 2 1;
#X connect 37 2 21 1;
#X connect 40 0 0 0;
#X connect 43 0 23 0;
#X connect 44 0 37 0;
#X restore 332 183 pd pitchCtrl_3.nn;
#X connect 5 0 10 0;
#X connect 6 0 12 0;
#X connect 7 0 14 0;
#X connect 8 0 13 0;
#X connect 9 0 11 0;
#X connect 15 0 16 0;
#X connect 16 0 0 0;
#X connect 16 1 1 0;
#X connect 16 2 2 0;
#X connect 16 3 3 0;
#X connect 16 4 4 0;
#X connect 16 5 17 0;
#X connect 17 0 18 0;
#X connect 17 1 19 0;
#X connect 18 0 20 0;
#X connect 19 0 21 0;
#X connect 28 0 31 1;
#X connect 29 0 31 0;
#X connect 30 0 22 0;
#X connect 30 1 25 0;
#X connect 30 2 32 0;
#X connect 31 0 30 0;
