#N canvas 244 95 678 306 10;
#X text 165 15 6 xyz \, async: range \, pitch \, spd;
#X obj 31 49 route roll pitch x y z;
#X obj 31 17 inlet wiiReceiver;
#X obj 31 79 s \$0-roll;
#X obj 56 99 s \$0-pitch;
#X obj 96 79 s \$0-x;
#X obj 126 99 s \$0-y;
#X obj 146 79 s \$0-z;
#N canvas 819 625 450 300 roll/test 0;
#X obj 77 129 / 90;
#X obj 77 151 + 1;
#X obj 77 173 / 2;
#X floatatom 105 173 5 0 0 1 0-1 - -;
#X obj 77 84 f;
#X obj 77 52 r \$0-roll;
#X floatatom 87 106 5 0 0 0 - - -;
#X connect 0 0 1 0;
#X connect 1 0 2 0;
#X connect 2 0 3 0;
#X connect 4 0 0 0;
#X connect 4 0 6 0;
#X connect 5 0 4 0;
#X restore 332 100 pd roll/test;
#N canvas 135 564 512 311 xyz/fileArray123.vol 0;
#X obj 88 115 / 256;
#X obj 88 137 abs;
#X obj 88 229 s fileArray1.vol;
#X obj 198 115 / 256;
#X obj 198 137 abs;
#X obj 308 115 / 256;
#X obj 308 137 abs;
#X obj 198 229 s fileArray2.vol;
#X obj 308 229 s fileArray3.vol;
#X obj 88 159 * 2;
#X obj 198 159 * 2;
#X obj 308 159 * 2;
#X obj 88 39 r \$0-x;
#X obj 198 39 r \$0-y;
#X obj 308 39 r \$0-z;
#X floatatom 98 181 5 0 0 0 - - -;
#X floatatom 208 181 5 0 0 0 - - -;
#X floatatom 318 181 5 0 0 0 - - -;
#X floatatom 98 61 5 0 0 0 - - -;
#X floatatom 208 61 5 0 0 0 - - -;
#X floatatom 318 61 5 0 0 0 - - -;
#X connect 0 0 1 0;
#X connect 1 0 9 0;
#X connect 3 0 4 0;
#X connect 4 0 10 0;
#X connect 5 0 6 0;
#X connect 6 0 11 0;
#X connect 9 0 2 0;
#X connect 9 0 15 0;
#X connect 10 0 7 0;
#X connect 10 0 16 0;
#X connect 11 0 8 0;
#X connect 11 0 17 0;
#X connect 12 0 0 0;
#X connect 12 0 18 0;
#X connect 13 0 3 0;
#X connect 13 0 19 0;
#X connect 14 0 5 0;
#X connect 14 0 20 0;
#X restore 495 58 pd xyz/fileArray123.vol;
#N canvas 326 389 416 384 pitch/durCtrl 0;
#X floatatom 138 160 5 0 0 1 300-0 - -;
#X obj 128 138 * 300;
#N canvas 79 773 243 186 -90+90/0+1 0;
#X obj 68 48 / 90;
#X obj 68 72 + 1;
#X obj 68 94 / 2;
#X floatatom 78 116 5 0 0 1 0-1 - -;
#X obj 68 17 inlet -90_to_+90;
#X obj 68 148 outlet 0_to_1;
#X connect 0 0 1 0;
#X connect 1 0 2 0;
#X connect 2 0 3 0;
#X connect 2 0 5 0;
#X connect 4 0 0 0;
#X restore 128 85 pd -90+90/0+1;
#N canvas 147 368 450 300 0to1/1to0 0;
#X obj 103 40 inlet 0-1;
#X obj 70 118 -;
#X floatatom 103 94 5 0 0 1 0-1 - -;
#X floatatom 87 150 5 0 0 1 1-0 - -;
#X obj 103 115 bng 15 250 50 0 empty empty empty 17 7 0 10 -262144
-1 -1;
#X obj 70 96 f 1;
#X msg 185 42 0;
#X msg 220 42 1;
#X msg 254 42 0.5;
#X obj 70 200 outlet 1-0;
#X connect 0 0 2 0;
#X connect 1 0 3 0;
#X connect 1 0 9 0;
#X connect 2 0 1 1;
#X connect 2 0 4 0;
#X connect 4 0 5 0;
#X connect 5 0 1 0;
#X connect 6 0 2 0;
#X connect 7 0 2 0;
#X connect 8 0 2 0;
#X restore 128 111 pd 0to1/1to0;
#X obj 128 41 f;
#X floatatom 138 63 5 0 0 1 --90+90 - -;
#X obj 128 9 r \$0-pitch;
#X obj 33 253 s durCtrl_1;
#X obj 113 253 s durCtrl_2;
#X obj 203 253 s durCtrl_3;
#X obj 128 193 + 5;
#X connect 1 0 0 0;
#X connect 1 0 10 0;
#X connect 2 0 3 0;
#X connect 3 0 1 0;
#X connect 4 0 5 0;
#X connect 4 0 2 0;
#X connect 6 0 4 0;
#X connect 10 0 7 0;
#X connect 10 0 8 0;
#X connect 10 0 9 0;
#X restore 332 135 pd pitch/durCtrl;
#N canvas 790 366 487 519 pitch 0;
#X floatatom 78 360 5 0 0 0 - - -;
#X floatatom 208 360 5 0 0 0 - - -;
#X floatatom 348 360 5 0 0 0 - - -;
#X obj 198 338 * 1;
#X obj 338 338 * 1;
#X obj 68 338 * 1;
#X floatatom 78 250 5 0 0 1 300-0 - -;
#X obj 68 228 * 300;
#N canvas 79 773 243 186 -90+90/0+1 0;
#X obj 68 48 / 90;
#X obj 68 72 + 1;
#X obj 68 94 / 2;
#X floatatom 78 116 5 0 0 1 0-1 - -;
#X obj 68 17 inlet -90_to_+90;
#X obj 68 148 outlet 0_to_1;
#X connect 0 0 1 0;
#X connect 1 0 2 0;
#X connect 2 0 3 0;
#X connect 2 0 5 0;
#X connect 4 0 0 0;
#X restore 68 175 pd -90+90/0+1;
#N canvas 147 368 450 300 0to1/1to0 0;
#X obj 103 40 inlet 0-1;
#X obj 70 118 -;
#X floatatom 103 94 5 0 0 1 0-1 - -;
#X floatatom 87 150 5 0 0 1 1-0 - -;
#X obj 103 115 bng 15 250 50 0 empty empty empty 17 7 0 10 -262144
-1 -1;
#X obj 70 96 f 1;
#X msg 185 42 0;
#X msg 220 42 1;
#X msg 254 42 0.5;
#X obj 70 200 outlet 1-0;
#X connect 0 0 2 0;
#X connect 1 0 3 0;
#X connect 1 0 9 0;
#X connect 2 0 1 1;
#X connect 2 0 4 0;
#X connect 4 0 5 0;
#X connect 5 0 1 0;
#X connect 6 0 2 0;
#X connect 7 0 2 0;
#X connect 8 0 2 0;
#X restore 68 201 pd 0to1/1to0;
#X obj 68 131 f;
#X floatatom 78 153 5 0 0 1 --90+90 - -;
#X obj 68 99 r \$0-pitch;
#X obj 183 147 / 256;
#X obj 273 147 / 256;
#X obj 363 147 / 256;
#X obj 183 209 + 1;
#X obj 183 231 / 2;
#X floatatom 213 231 5 0 0 1 0-1 - -;
#X obj 273 209 + 1;
#X obj 273 231 / 2;
#X floatatom 303 231 5 0 0 1 0-1 - -;
#X obj 363 209 + 1;
#X obj 363 231 / 2;
#X floatatom 393 231 5 0 0 1 0-1 - -;
#X floatatom 283 171 5 0 0 1 --1+1 - -;
#X floatatom 373 171 5 0 0 1 --1+1 - -;
#X floatatom 193 171 5 0 0 1 --1+1 - -;
#X obj 183 98 r \$0-x;
#X obj 273 98 r \$0-y;
#X obj 363 98 r \$0-z;
#X obj 183 120 f;
#X obj 273 120 f;
#X obj 363 120 f;
#X obj 68 387 s speedCtrl_1;
#X obj 198 387 s speedCtrl_2;
#X obj 338 387 s speedCtrl_3;
#X obj 68 283 + 0;
#X connect 3 0 1 0;
#X connect 3 0 35 0;
#X connect 4 0 2 0;
#X connect 4 0 36 0;
#X connect 5 0 0 0;
#X connect 5 0 34 0;
#X connect 7 0 6 0;
#X connect 7 0 37 0;
#X connect 8 0 9 0;
#X connect 9 0 7 0;
#X connect 10 0 11 0;
#X connect 10 0 8 0;
#X connect 12 0 10 0;
#X connect 13 0 27 0;
#X connect 13 0 16 0;
#X connect 14 0 25 0;
#X connect 14 0 19 0;
#X connect 15 0 26 0;
#X connect 15 0 22 0;
#X connect 16 0 17 0;
#X connect 17 0 18 0;
#X connect 17 0 5 1;
#X connect 19 0 20 0;
#X connect 20 0 21 0;
#X connect 20 0 3 1;
#X connect 22 0 23 0;
#X connect 23 0 24 0;
#X connect 23 0 4 1;
#X connect 28 0 31 0;
#X connect 29 0 32 0;
#X connect 30 0 33 0;
#X connect 31 0 13 0;
#X connect 32 0 14 0;
#X connect 33 0 15 0;
#X connect 37 0 5 0;
#X connect 37 0 3 0;
#X connect 37 0 4 0;
#X restore 332 171 pd pitch \, xyz/speedCtrl;
#N canvas 529 651 450 300 xyz/fileArray123.pan 0;
#X obj 135 114 / 256;
#X obj 135 136 * 45;
#X obj 185 114 / 256;
#X obj 185 136 * 45;
#X obj 235 114 / 256;
#X obj 235 136 * 45;
#X obj 135 158 * 2;
#X obj 185 158 * 2;
#X obj 235 158 * 2;
#X obj 135 73 f;
#X obj 185 73 f;
#X obj 235 73 f;
#X obj 135 37 r \$0-x;
#X obj 185 37 r \$0-y;
#X obj 235 37 r \$0-z;
#X obj 135 182 s fileArray1.pan;
#X obj 185 212 s fileArray2.pan;
#X obj 235 242 s fileArray3.pan;
#X connect 0 0 1 0;
#X connect 1 0 6 0;
#X connect 2 0 3 0;
#X connect 3 0 7 0;
#X connect 4 0 5 0;
#X connect 5 0 8 0;
#X connect 6 0 15 0;
#X connect 7 0 16 0;
#X connect 8 0 17 0;
#X connect 9 0 0 0;
#X connect 10 0 2 0;
#X connect 11 0 4 0;
#X connect 12 0 9 0;
#X connect 13 0 10 0;
#X connect 14 0 11 0;
#X restore 496 94 pd xyz/fileArray123.pan;
#N canvas 1037 151 619 535 xyz/range 0;
#X obj 84 395 f;
#X floatatom 94 417 11 0 0 0 - - -;
#X obj 84 160 / 256;
#X obj 194 160 / 256;
#X obj 314 160 / 256;
#X obj 84 296 *;
#X obj 84 222 + 1;
#X obj 84 244 / 2;
#X floatatom 114 244 5 0 0 1 0-1 - -;
#X obj 194 395 f;
#X floatatom 204 417 11 0 0 0 - - -;
#X obj 194 296 *;
#X obj 194 222 + 1;
#X obj 194 244 / 2;
#X floatatom 224 244 5 0 0 1 0-1 - -;
#X obj 314 395 f;
#X floatatom 324 417 11 0 0 0 - - -;
#X obj 314 296 *;
#X obj 314 222 + 1;
#X obj 314 244 / 2;
#X floatatom 344 244 5 0 0 1 0-1 - -;
#X floatatom 204 184 5 0 0 1 --1+1 - -;
#X floatatom 324 184 5 0 0 1 --1+1 - -;
#X floatatom 94 184 5 0 0 1 --1+1 - -;
#X obj 84 111 r \$0-x;
#X obj 194 111 r \$0-y;
#X obj 314 111 r \$0-z;
#X obj 84 133 f;
#X obj 194 133 f;
#X obj 314 133 f;
#X obj 84 447 s range_1;
#X obj 194 447 s range_2;
#X obj 314 447 s range_3;
#X obj 99 273 r maxSamples_1;
#X obj 209 273 r maxSamples_2;
#X obj 329 273 r maxSamples_3;
#X obj 84 348 spigot;
#X obj 117 326 tgl 15 0 empty empty empty 17 7 0 10 -262144 -1 -1 1
1;
#X obj 194 348 spigot;
#X obj 227 326 tgl 15 0 empty empty empty 17 7 0 10 -262144 -1 -1 1
1;
#X obj 314 348 spigot;
#X obj 347 326 tgl 15 0 empty empty empty 17 7 0 10 -262144 -1 -1 1
1;
#X obj 479 312 r wii/but;
#X obj 479 334 route b;
#X obj 479 356 jong-itgl;
#X connect 0 0 1 0;
#X connect 0 0 30 0;
#X connect 2 0 23 0;
#X connect 2 0 6 0;
#X connect 3 0 21 0;
#X connect 3 0 12 0;
#X connect 4 0 22 0;
#X connect 4 0 18 0;
#X connect 5 0 36 0;
#X connect 6 0 7 0;
#X connect 7 0 8 0;
#X connect 7 0 5 0;
#X connect 9 0 10 0;
#X connect 9 0 31 0;
#X connect 11 0 38 0;
#X connect 12 0 13 0;
#X connect 13 0 14 0;
#X connect 13 0 11 0;
#X connect 15 0 16 0;
#X connect 15 0 32 0;
#X connect 17 0 40 0;
#X connect 18 0 19 0;
#X connect 19 0 20 0;
#X connect 19 0 17 0;
#X connect 24 0 27 0;
#X connect 25 0 28 0;
#X connect 26 0 29 0;
#X connect 27 0 2 0;
#X connect 28 0 3 0;
#X connect 29 0 4 0;
#X connect 33 0 5 1;
#X connect 34 0 11 1;
#X connect 35 0 17 1;
#X connect 36 0 0 0;
#X connect 37 0 36 1;
#X connect 38 0 9 0;
#X connect 39 0 38 1;
#X connect 40 0 15 0;
#X connect 41 0 40 1;
#X connect 42 0 43 0;
#X connect 43 0 44 0;
#X connect 44 0 41 0;
#X connect 44 0 39 0;
#X connect 44 0 37 0;
#X restore 496 130 pd xyz/range;
#N canvas 1046 540 560 449 xyz/pitchCtrl 0;
#X floatatom 124 280 5 0 0 0 - - -;
#X floatatom 234 280 5 0 0 0 - - -;
#X floatatom 354 280 5 0 0 0 - - -;
#X obj 144 219 + 4000;
#X obj 254 219 + 4000;
#X obj 374 219 + 4000;
#X obj 374 197 * 2000;
#X obj 254 197 * 2000;
#X obj 144 197 * 2000;
#X obj 114 140 / 256;
#X obj 224 140 / 256;
#X obj 344 140 / 256;
#X floatatom 234 164 5 0 0 1 --1+1 - -;
#X floatatom 354 164 5 0 0 1 --1+1 - -;
#X floatatom 124 164 5 0 0 1 --1+1 - -;
#X obj 114 91 r \$0-x;
#X obj 224 91 r \$0-y;
#X obj 344 91 r \$0-z;
#X obj 114 113 f;
#X obj 224 113 f;
#X obj 344 113 f;
#X obj 114 305 s pitchCtrl_1;
#X obj 224 305 s pitchCtrl_2;
#X obj 344 305 s pitchCtrl_3;
#X obj 114 258 * 5;
#X obj 224 258 * 5;
#X obj 344 258 * 5;
#X floatatom 434 256 5 0 0 0 - - -;
#X connect 6 0 5 0;
#X connect 7 0 4 0;
#X connect 8 0 3 0;
#X connect 9 0 14 0;
#X connect 9 0 8 0;
#X connect 9 0 24 0;
#X connect 10 0 12 0;
#X connect 10 0 7 0;
#X connect 10 0 25 0;
#X connect 11 0 13 0;
#X connect 11 0 6 0;
#X connect 11 0 26 0;
#X connect 15 0 18 0;
#X connect 16 0 19 0;
#X connect 17 0 20 0;
#X connect 18 0 9 0;
#X connect 19 0 10 0;
#X connect 20 0 11 0;
#X connect 24 0 0 0;
#X connect 24 0 21 0;
#X connect 25 0 1 0;
#X connect 25 0 22 0;
#X connect 26 0 2 0;
#X connect 26 0 23 0;
#X connect 27 0 26 1;
#X connect 27 0 25 1;
#X connect 27 0 24 1;
#X restore 497 169 pd xyz/pitchCtrl;
#X obj 31 249 r \$0-roll;
#X obj 166 249 r \$0-x;
#X obj 266 249 r \$0-z;
#X obj 216 249 r \$0-y;
#X obj 96 249 r \$0-pitch;
#X floatatom 31 271 5 0 0 0 - - -;
#X floatatom 96 271 5 0 0 0 - - -;
#X floatatom 166 271 5 0 0 0 - - -;
#X floatatom 216 271 5 0 0 0 - - -;
#X floatatom 266 271 5 0 0 0 - - -;
#X connect 1 0 3 0;
#X connect 1 1 4 0;
#X connect 1 2 5 0;
#X connect 1 3 6 0;
#X connect 1 4 7 0;
#X connect 2 0 1 0;
#X connect 15 0 20 0;
#X connect 16 0 22 0;
#X connect 17 0 24 0;
#X connect 18 0 23 0;
#X connect 19 0 21 0;
