#N canvas 275 661 500 304 10;
#X declare -path ./lib/motex;
#N canvas 626 319 1002 697 p4 0;
#X obj 35 17 inlet roll_pitch_x_y_z;
#X obj 35 39 unpack 0 0 0 0 0;
#X obj 271 15 inlet buttons;
#X obj 271 37 route but_up but_down but_left but_right;
#X obj 535 37 route but_a but_b but_minus but_home but_plus but_one
but_two;
#X obj 239 15 tgl 15 0 empty empty empty 17 7 0 10 -262144 -1 -1 0
1;
#X obj 239 35 tgl 15 0 empty empty empty 17 7 0 10 -262144 -1 -1 0
1;
#X obj 229 25 tgl 15 0 empty empty empty 17 7 0 10 -262144 -1 -1 0
1;
#X obj 249 25 tgl 15 0 empty empty empty 17 7 0 10 -262144 -1 -1 0
1;
#X obj 868 13 tgl 15 0 empty empty a 5 5 0 10 -262144 -1 -1 0 1;
#X obj 888 13 tgl 15 0 empty empty b 5 5 0 10 -262144 -1 -1 0 1;
#X obj 868 33 tgl 15 0 empty empty - 5 5 0 10 -262144 -1 -1 0 1;
#X obj 888 33 tgl 15 0 empty empty h 5 5 0 10 -262144 -1 -1 0 1;
#X obj 908 33 tgl 15 0 empty empty + 5 5 0 10 -262144 -1 -1 0 1;
#X obj 868 53 tgl 15 0 empty empty 1 5 5 0 10 -262144 -1 -1 0 1;
#X obj 888 53 tgl 15 0 empty empty 2 5 5 0 10 -262144 -1 -1 0 1;
#X obj 178 457 s speedCtrlMin;
#X obj 188 477 s speedCtrlMax;
#X obj 331 456 s durCtrlMin;
#X obj 341 476 s durCtrlMax;
#X obj 454 487 s rangeMin;
#X obj 464 507 s rangeMax;
#X obj 454 625 s pitchCtrlMin;
#X obj 464 645 s pitchCtrlMax;
#X obj 454 435 f;
#X obj 178 408 f;
#X obj 331 408 f;
#X obj 454 578 f;
#X floatatom 464 457 11 0 0 0 - - -;
#X floatatom 188 430 5 0 0 0 - - -;
#X floatatom 341 430 5 0 0 0 - - -;
#X floatatom 464 600 5 0 0 0 - - -;
#X obj 580 93 jong-itgl;
#X obj 580 115 tgl 15 0 empty empty empty 17 7 0 10 -262144 -1 -1 1
1;
#X floatatom 464 222 5 0 0 0 - - -;
#X obj 454 178 clip -256 256;
#X obj 454 200 / 256;
#X obj 564 578 f;
#X floatatom 574 600 5 0 0 0 - - -;
#X floatatom 574 222 5 0 0 0 - - -;
#X obj 564 178 clip -256 256;
#X obj 564 200 / 256;
#X obj 564 625 s pitchCtrlMin2;
#X obj 574 645 s pitchCtrlMax2;
#X obj 684 578 f;
#X floatatom 694 600 5 0 0 0 - - -;
#X floatatom 694 222 5 0 0 0 - - -;
#X obj 684 178 clip -256 256;
#X obj 684 200 / 256;
#X obj 684 625 s pitchCtrlMin3;
#X obj 694 645 s pitchCtrlMax3;
#X obj 178 118 / 90;
#X obj 178 162 + 1;
#X obj 178 184 / 2;
#X floatatom 188 206 5 0 0 1 0-1 - -;
#X floatatom 188 248 5 0 0 1 1-0 - -;
#X floatatom 188 300 5 0 0 1 1000-0 - -;
#X obj 178 226 jong-01to10;
#X obj 35 146 / 90;
#X obj 35 208 + 1;
#X obj 35 230 / 2;
#X floatatom 63 230 5 0 0 1 0-1 - -;
#X obj 469 363 r maxSamples;
#X obj 454 386 *;
#X floatatom 464 408 11 0 0 0 - - -;
#X obj 35 111 spigot;
#X obj 68 92 tgl 15 0 empty empty empty 17 7 0 10 -262144 -1 -1 0 1
;
#X obj 178 278 * 300;
#X floatatom 188 364 5 0 0 0 - - -;
#X obj 178 343 max 0.1;
#X floatatom 301 364 5 0 0 0 - - -;
#X obj 291 343 max 1;
#X obj 650 93 jong-itgl;
#X obj 650 115 tgl 15 0 empty empty empty 17 7 0 10 -262144 -1 -1 1
1;
#X obj 454 282 + 1;
#X obj 454 304 / 2;
#X floatatom 484 304 5 0 0 1 0-1 - -;
#X obj 564 435 f;
#X floatatom 574 457 11 0 0 0 - - -;
#X obj 579 363 r maxSamples;
#X obj 564 386 *;
#X floatatom 574 408 11 0 0 0 - - -;
#X obj 564 282 + 1;
#X obj 564 304 / 2;
#X floatatom 594 304 5 0 0 1 0-1 - -;
#X obj 564 487 s rangeMin2;
#X obj 574 507 s rangeMax2;
#X floatatom 422 339 5 0 0 0 - - -;
#X floatatom 537 337 5 0 0 0 - - -;
#X obj 694 435 f;
#X floatatom 704 457 11 0 0 0 - - -;
#X obj 709 363 r maxSamples;
#X obj 694 386 *;
#X floatatom 704 408 11 0 0 0 - - -;
#X floatatom 667 337 5 0 0 0 - - -;
#X obj 694 487 s rangeMin3;
#X obj 704 507 s rangeMax3;
#X obj 684 282 + 1;
#X obj 684 304 / 2;
#X floatatom 714 304 5 0 0 1 0-1 - -;
#X obj 178 507 s speedCtrlMin2;
#X obj 188 527 s speedCtrlMax2;
#X obj 178 557 s speedCtrlMin3;
#X obj 188 577 s speedCtrlMax3;
#X obj 331 506 s durCtrlMin2;
#X obj 341 526 s durCtrlMax2;
#X obj 341 576 s durCtrlMax3;
#X obj 331 556 s durCtrlMin3;
#X obj 684 250 j-spg;
#X obj 454 250 j-spg;
#X obj 564 250 j-spg;
#X obj 832 122 s range.colorTgl;
#X obj 843 143 s pitchCtrl.colorTgl;
#X obj 701 121 s speedCtrl.colorTgl;
#X obj 711 141 s durCtrl.colorTgl;
#X connect 0 0 1 0;
#X connect 1 0 65 0;
#X connect 1 1 51 0;
#X connect 1 2 35 0;
#X connect 1 3 40 0;
#X connect 1 4 47 0;
#X connect 2 0 3 0;
#X connect 3 0 5 0;
#X connect 3 1 6 0;
#X connect 3 2 7 0;
#X connect 3 3 8 0;
#X connect 3 4 4 0;
#X connect 4 0 9 0;
#X connect 4 0 72 0;
#X connect 4 1 10 0;
#X connect 4 1 32 0;
#X connect 4 2 11 0;
#X connect 4 3 12 0;
#X connect 4 4 13 0;
#X connect 4 5 14 0;
#X connect 4 6 15 0;
#X connect 24 0 20 0;
#X connect 24 0 21 0;
#X connect 24 0 28 0;
#X connect 25 0 16 0;
#X connect 25 0 17 0;
#X connect 25 0 29 0;
#X connect 25 0 100 0;
#X connect 25 0 101 0;
#X connect 25 0 102 0;
#X connect 25 0 103 0;
#X connect 26 0 18 0;
#X connect 26 0 19 0;
#X connect 26 0 30 0;
#X connect 26 0 104 0;
#X connect 26 0 105 0;
#X connect 26 0 107 0;
#X connect 26 0 106 0;
#X connect 27 0 22 0;
#X connect 27 0 23 0;
#X connect 27 0 31 0;
#X connect 32 0 33 0;
#X connect 33 0 108 1;
#X connect 33 0 109 1;
#X connect 33 0 110 1;
#X connect 33 0 111 0;
#X connect 33 0 112 0;
#X connect 35 0 36 0;
#X connect 36 0 34 0;
#X connect 36 0 109 0;
#X connect 37 0 38 0;
#X connect 37 0 42 0;
#X connect 37 0 43 0;
#X connect 40 0 41 0;
#X connect 41 0 39 0;
#X connect 41 0 110 0;
#X connect 44 0 45 0;
#X connect 44 0 49 0;
#X connect 44 0 50 0;
#X connect 47 0 48 0;
#X connect 48 0 46 0;
#X connect 48 0 108 0;
#X connect 51 0 52 0;
#X connect 52 0 53 0;
#X connect 53 0 54 0;
#X connect 53 0 57 0;
#X connect 57 0 55 0;
#X connect 57 0 67 0;
#X connect 58 0 59 0;
#X connect 59 0 60 0;
#X connect 60 0 61 0;
#X connect 62 0 63 1;
#X connect 63 0 64 0;
#X connect 63 0 24 0;
#X connect 65 0 58 0;
#X connect 66 0 65 1;
#X connect 67 0 56 0;
#X connect 67 0 69 0;
#X connect 67 0 71 0;
#X connect 69 0 68 0;
#X connect 69 0 25 0;
#X connect 71 0 70 0;
#X connect 71 0 26 0;
#X connect 72 0 73 0;
#X connect 74 0 75 0;
#X connect 75 0 76 0;
#X connect 75 0 63 0;
#X connect 77 0 78 0;
#X connect 77 0 85 0;
#X connect 77 0 86 0;
#X connect 79 0 80 1;
#X connect 80 0 81 0;
#X connect 80 0 77 0;
#X connect 82 0 83 0;
#X connect 83 0 84 0;
#X connect 83 0 80 0;
#X connect 87 0 63 0;
#X connect 88 0 80 0;
#X connect 89 0 90 0;
#X connect 89 0 95 0;
#X connect 89 0 96 0;
#X connect 91 0 92 1;
#X connect 92 0 93 0;
#X connect 92 0 89 0;
#X connect 94 0 92 0;
#X connect 97 0 98 0;
#X connect 98 0 99 0;
#X connect 98 0 92 0;
#X connect 108 0 97 0;
#X connect 109 0 74 0;
#X connect 110 0 82 0;
#X restore 51 154 pd p4;
#X obj 51 125 j-spg2;
#X obj 151 126 j-spg2;
#N canvas 579 194 1061 792 p5 0;
#X obj 35 17 inlet roll_pitch_x_y_z;
#X obj 35 39 unpack 0 0 0 0 0;
#X obj 271 15 inlet buttons;
#X obj 271 37 route but_up but_down but_left but_right;
#X obj 535 37 route but_a but_b but_minus but_home but_plus but_one
but_two;
#X obj 239 15 tgl 15 0 empty empty empty 17 7 0 10 -262144 -1 -1 0
1;
#X obj 239 35 tgl 15 0 empty empty empty 17 7 0 10 -262144 -1 -1 0
1;
#X obj 229 25 tgl 15 0 empty empty empty 17 7 0 10 -262144 -1 -1 0
1;
#X obj 249 25 tgl 15 0 empty empty empty 17 7 0 10 -262144 -1 -1 0
1;
#X obj 868 13 tgl 15 0 empty empty a 5 5 0 10 -262144 -1 -1 0 1;
#X obj 888 13 tgl 15 0 empty empty b 5 5 0 10 -262144 -1 -1 0 1;
#X obj 868 33 tgl 15 0 empty empty - 5 5 0 10 -262144 -1 -1 0 1;
#X obj 888 33 tgl 15 0 empty empty h 5 5 0 10 -262144 -1 -1 0 1;
#X obj 908 33 tgl 15 0 empty empty + 5 5 0 10 -262144 -1 -1 0 1;
#X obj 868 53 tgl 15 0 empty empty 1 5 5 0 10 -262144 -1 -1 0 1;
#X obj 888 53 tgl 15 0 empty empty 2 5 5 0 10 -262144 -1 -1 0 1;
#X obj 178 517 s speedCtrlMin;
#X obj 188 537 s speedCtrlMax;
#X obj 301 516 s durCtrlMin;
#X obj 311 536 s durCtrlMax;
#X obj 454 487 s rangeMin;
#X obj 464 507 s rangeMax;
#X obj 514 695 s pitchCtrlMin;
#X obj 524 715 s pitchCtrlMax;
#X obj 454 435 f;
#X obj 178 468 f;
#X obj 301 468 f;
#X obj 514 648 f;
#X floatatom 464 457 11 0 0 0 - - -;
#X floatatom 188 490 5 0 0 0 - - -;
#X floatatom 311 490 5 0 0 0 - - -;
#X floatatom 524 670 5 0 0 0 - - -;
#X obj 580 93 jong-itgl;
#X obj 580 115 tgl 15 0 empty empty empty 17 7 0 10 -262144 -1 -1 1
1;
#X floatatom 464 222 5 0 0 0 - - -;
#X obj 454 178 clip -256 256;
#X obj 454 200 / 256;
#X obj 624 648 f;
#X floatatom 634 670 5 0 0 0 - - -;
#X floatatom 574 222 5 0 0 0 - - -;
#X obj 564 178 clip -256 256;
#X obj 564 200 / 256;
#X obj 624 695 s pitchCtrlMin2;
#X obj 634 715 s pitchCtrlMax2;
#X obj 744 648 f;
#X floatatom 754 670 5 0 0 0 - - -;
#X floatatom 694 222 5 0 0 0 - - -;
#X obj 684 178 clip -256 256;
#X obj 684 200 / 256;
#X obj 744 695 s pitchCtrlMin3;
#X obj 754 715 s pitchCtrlMax3;
#X obj 178 118 / 90;
#X obj 178 162 + 1;
#X obj 178 184 / 2;
#X floatatom 188 206 5 0 0 1 0-1 - -;
#X floatatom 188 248 5 0 0 1 1-0 - -;
#X floatatom 188 300 5 0 0 1 1000-0 - -;
#X obj 178 226 jong-01to10;
#X obj 35 146 / 90;
#X obj 35 208 + 1;
#X obj 35 230 / 2;
#X floatatom 63 230 5 0 0 1 0-1 - -;
#X obj 469 363 r maxSamples;
#X obj 454 386 *;
#X obj 35 111 spigot;
#X obj 68 92 tgl 15 0 empty empty empty 17 7 0 10 -262144 -1 -1 0 1
;
#X obj 178 278 * 300;
#X obj 650 93 jong-itgl;
#X obj 650 115 tgl 15 0 empty empty empty 17 7 0 10 -262144 -1 -1 1
1;
#X obj 454 282 + 1;
#X obj 454 304 / 2;
#X floatatom 484 304 5 0 0 1 0-1 - -;
#X obj 564 435 f;
#X floatatom 574 457 11 0 0 0 - - -;
#X obj 579 363 r maxSamples;
#X obj 564 386 *;
#X obj 564 282 + 1;
#X obj 564 304 / 2;
#X floatatom 594 304 5 0 0 1 0-1 - -;
#X obj 564 487 s rangeMin2;
#X obj 574 507 s rangeMax2;
#X obj 694 435 f;
#X floatatom 704 457 11 0 0 0 - - -;
#X obj 709 363 r maxSamples;
#X obj 694 386 *;
#X obj 694 487 s rangeMin3;
#X obj 704 507 s rangeMax3;
#X obj 684 282 + 1;
#X obj 684 304 / 2;
#X floatatom 714 304 5 0 0 1 0-1 - -;
#X obj 178 567 s speedCtrlMin2;
#X obj 188 587 s speedCtrlMax2;
#X obj 178 617 s speedCtrlMin3;
#X obj 188 637 s speedCtrlMax3;
#X obj 301 566 s durCtrlMin2;
#X obj 311 586 s durCtrlMax2;
#X obj 311 636 s durCtrlMax3;
#X obj 301 616 s durCtrlMin3;
#X obj 514 609 + 4000;
#X obj 624 609 + 4000;
#X obj 744 609 + 4000;
#X obj 744 587 * 2000;
#X obj 624 587 * 2000;
#X obj 514 587 * 2000;
#X obj 178 343 max 30;
#X obj 684 250 j-spg;
#X obj 454 250 j-spg;
#X obj 564 250 j-spg;
#X text 56 -15 comment;
#X obj 842 132 s range.colorTgl;
#X obj 853 153 s pitchCtrl.colorTgl;
#X obj 711 131 s speedCtrl.colorTgl;
#X obj 721 151 s durCtrl.colorTgl;
#X connect 0 0 1 0;
#X connect 1 0 64 0;
#X connect 1 1 51 0;
#X connect 1 2 35 0;
#X connect 1 3 40 0;
#X connect 1 4 47 0;
#X connect 2 0 3 0;
#X connect 3 0 5 0;
#X connect 3 1 6 0;
#X connect 3 2 7 0;
#X connect 3 3 8 0;
#X connect 3 4 4 0;
#X connect 4 0 9 0;
#X connect 4 0 67 0;
#X connect 4 1 10 0;
#X connect 4 1 32 0;
#X connect 4 2 11 0;
#X connect 4 3 12 0;
#X connect 4 4 13 0;
#X connect 4 5 14 0;
#X connect 4 6 15 0;
#X connect 24 0 20 0;
#X connect 24 0 21 0;
#X connect 24 0 28 0;
#X connect 25 0 16 0;
#X connect 25 0 17 0;
#X connect 25 0 29 0;
#X connect 25 0 90 0;
#X connect 25 0 91 0;
#X connect 25 0 92 0;
#X connect 25 0 93 0;
#X connect 26 0 18 0;
#X connect 26 0 19 0;
#X connect 26 0 30 0;
#X connect 26 0 94 0;
#X connect 26 0 95 0;
#X connect 26 0 97 0;
#X connect 26 0 96 0;
#X connect 27 0 22 0;
#X connect 27 0 23 0;
#X connect 27 0 31 0;
#X connect 32 0 33 0;
#X connect 33 0 105 1;
#X connect 33 0 106 1;
#X connect 33 0 107 1;
#X connect 33 0 109 0;
#X connect 33 0 110 0;
#X connect 35 0 36 0;
#X connect 36 0 34 0;
#X connect 36 0 106 0;
#X connect 37 0 38 0;
#X connect 37 0 42 0;
#X connect 37 0 43 0;
#X connect 40 0 41 0;
#X connect 41 0 39 0;
#X connect 41 0 107 0;
#X connect 44 0 45 0;
#X connect 44 0 49 0;
#X connect 44 0 50 0;
#X connect 47 0 48 0;
#X connect 48 0 46 0;
#X connect 48 0 105 0;
#X connect 51 0 52 0;
#X connect 52 0 53 0;
#X connect 53 0 54 0;
#X connect 53 0 57 0;
#X connect 57 0 55 0;
#X connect 57 0 66 0;
#X connect 58 0 59 0;
#X connect 59 0 60 0;
#X connect 60 0 61 0;
#X connect 62 0 63 1;
#X connect 63 0 24 0;
#X connect 64 0 58 0;
#X connect 65 0 64 1;
#X connect 66 0 56 0;
#X connect 66 0 104 0;
#X connect 67 0 68 0;
#X connect 69 0 70 0;
#X connect 70 0 71 0;
#X connect 70 0 63 0;
#X connect 72 0 73 0;
#X connect 72 0 79 0;
#X connect 72 0 80 0;
#X connect 74 0 75 1;
#X connect 75 0 72 0;
#X connect 76 0 77 0;
#X connect 77 0 78 0;
#X connect 77 0 75 0;
#X connect 81 0 82 0;
#X connect 81 0 85 0;
#X connect 81 0 86 0;
#X connect 83 0 84 1;
#X connect 84 0 81 0;
#X connect 87 0 88 0;
#X connect 88 0 89 0;
#X connect 88 0 84 0;
#X connect 98 0 27 0;
#X connect 99 0 37 0;
#X connect 100 0 44 0;
#X connect 101 0 100 0;
#X connect 102 0 99 0;
#X connect 103 0 98 0;
#X connect 104 0 25 0;
#X connect 104 0 26 0;
#X connect 105 0 87 0;
#X connect 105 0 101 0;
#X connect 106 0 69 0;
#X connect 106 0 103 0;
#X connect 107 0 76 0;
#X connect 107 0 102 0;
#X restore 151 154 pd p5;
#X obj 251 125 j-spg2;
#N canvas 406 214 1257 794 p6 0;
#X obj 263 17 inlet roll_pitch_x_y_z;
#X obj 263 39 unpack 0 0 0 0 0;
#X obj 875 26 inlet buttons;
#X obj 875 48 route but_up but_down but_left but_right;
#X obj 832 77 route but_a but_b but_minus but_home but_plus but_one
but_two;
#X obj 158 577 s speedCtrlMin;
#X obj 168 597 s speedCtrlMax;
#X obj 133 643 s durCtrlMin;
#X obj 143 663 s durCtrlMax;
#X obj 794 537 s rangeMin;
#X obj 804 557 s rangeMax;
#X obj 894 715 s pitchCtrlMin;
#X obj 904 735 s pitchCtrlMax;
#X obj 794 485 f;
#X obj 894 668 f;
#X floatatom 804 507 11 0 0 0 - - -;
#X floatatom 168 520 5 0 0 0 - - -;
#X floatatom 904 690 5 0 0 0 - - -;
#X obj 907 145 tgl 15 0 empty empty empty 17 7 0 10 -262144 -1 -1 1
1;
#X obj 834 248 clip -256 256;
#X obj 834 270 / 256;
#X obj 1004 668 f;
#X floatatom 1014 690 5 0 0 0 - - -;
#X obj 944 248 clip -256 256;
#X obj 944 270 / 256;
#X obj 1004 715 s pitchCtrlMin2;
#X obj 1014 735 s pitchCtrlMax2;
#X obj 1124 668 f;
#X floatatom 1134 690 5 0 0 0 - - -;
#X obj 1064 248 clip -256 256;
#X obj 1064 270 / 256;
#X obj 1124 715 s pitchCtrlMin3;
#X obj 1134 735 s pitchCtrlMax3;
#X obj 158 138 / 90;
#X obj 158 182 + 1;
#X obj 158 204 / 2;
#X floatatom 168 226 5 0 0 1 0-1 - -;
#X floatatom 168 268 5 0 0 1 1-0 - -;
#X floatatom 168 320 5 0 0 1 1000-0 - -;
#X obj 158 246 jong-01to10;
#X obj 45 166 / 90;
#X obj 45 228 + 1;
#X obj 45 250 / 2;
#X floatatom 73 250 5 0 0 1 0-1 - -;
#X obj 809 413 r maxSamples;
#X obj 794 436 *;
#X obj 45 131 spigot;
#X obj 78 112 tgl 15 0 empty empty empty 17 7 0 10 -262144 -1 -1 0
1;
#X obj 158 298 * 300;
#X obj 827 145 tgl 15 0 empty empty empty 17 7 0 10 -262144 -1 -1 1
1;
#X obj 794 362 + 1;
#X obj 794 384 / 2;
#X floatatom 824 384 5 0 0 1 0-1 - -;
#X obj 904 485 f;
#X floatatom 914 507 11 0 0 0 - - -;
#X obj 919 413 r maxSamples;
#X obj 904 436 *;
#X obj 904 362 + 1;
#X obj 904 384 / 2;
#X floatatom 934 384 5 0 0 1 0-1 - -;
#X obj 904 537 s rangeMin2;
#X obj 914 557 s rangeMax2;
#X obj 1024 485 f;
#X floatatom 1034 507 11 0 0 0 - - -;
#X obj 1039 413 r maxSamples;
#X obj 1024 436 *;
#X obj 1024 537 s rangeMin3;
#X obj 1034 557 s rangeMax3;
#X obj 1024 362 + 1;
#X obj 1024 384 / 2;
#X floatatom 1054 384 5 0 0 1 0-1 - -;
#X obj 288 577 s speedCtrlMin2;
#X obj 298 597 s speedCtrlMax2;
#X obj 428 577 s speedCtrlMin3;
#X obj 438 597 s speedCtrlMax3;
#X obj 243 643 s durCtrlMin2;
#X obj 253 663 s durCtrlMax2;
#X obj 373 663 s durCtrlMax3;
#X obj 363 643 s durCtrlMin3;
#X obj 894 629 + 4000;
#X obj 1004 629 + 4000;
#X obj 1124 629 + 4000;
#X obj 1124 607 * 2000;
#X obj 1004 607 * 2000;
#X obj 894 607 * 2000;
#X text 31 14 6 xyz \, async: range \, pitch \, spd;
#X obj 834 318 spigot;
#X obj 944 318 spigot;
#X obj 1064 318 spigot;
#X obj 907 123 jong-itgl b;
#X obj 827 123 jong-itgl a;
#X floatatom 298 520 5 0 0 0 - - -;
#X floatatom 438 520 5 0 0 0 - - -;
#X obj 288 498 * 1;
#X obj 428 498 * 1;
#X obj 158 498 * 1;
#X obj 158 413 + 30;
#X obj 158 362 spigot;
#X floatatom 954 294 5 0 0 1 --1+1 - -;
#X floatatom 1074 294 5 0 0 1 --1+1 - -;
#X floatatom 844 294 5 0 0 1 --1+1 - -;
#X obj 660 18 s range.colorTgl;
#X obj 671 39 s pitchCtrl.colorTgl;
#X obj 529 17 s speedCtrl.colorTgl;
#X obj 539 37 s durCtrl.colorTgl;
#X connect 0 0 1 0;
#X connect 1 0 46 0;
#X connect 1 1 33 0;
#X connect 1 2 19 0;
#X connect 1 3 23 0;
#X connect 1 4 29 0;
#X connect 2 0 3 0;
#X connect 3 4 4 0;
#X connect 4 0 90 0;
#X connect 4 1 89 0;
#X connect 13 0 9 0;
#X connect 13 0 10 0;
#X connect 13 0 15 0;
#X connect 14 0 11 0;
#X connect 14 0 12 0;
#X connect 14 0 17 0;
#X connect 18 0 86 1;
#X connect 18 0 87 1;
#X connect 18 0 88 1;
#X connect 18 0 102 0;
#X connect 18 0 101 0;
#X connect 19 0 20 0;
#X connect 20 0 86 0;
#X connect 20 0 100 0;
#X connect 21 0 22 0;
#X connect 21 0 25 0;
#X connect 21 0 26 0;
#X connect 23 0 24 0;
#X connect 24 0 87 0;
#X connect 24 0 98 0;
#X connect 27 0 28 0;
#X connect 27 0 31 0;
#X connect 27 0 32 0;
#X connect 29 0 30 0;
#X connect 30 0 88 0;
#X connect 30 0 99 0;
#X connect 33 0 34 0;
#X connect 34 0 35 0;
#X connect 35 0 36 0;
#X connect 35 0 39 0;
#X connect 39 0 37 0;
#X connect 39 0 48 0;
#X connect 40 0 41 0;
#X connect 41 0 42 0;
#X connect 42 0 43 0;
#X connect 44 0 45 1;
#X connect 45 0 13 0;
#X connect 46 0 40 0;
#X connect 47 0 46 1;
#X connect 48 0 38 0;
#X connect 48 0 97 0;
#X connect 49 0 97 1;
#X connect 49 0 103 0;
#X connect 49 0 104 0;
#X connect 50 0 51 0;
#X connect 51 0 52 0;
#X connect 51 0 45 0;
#X connect 51 0 95 1;
#X connect 53 0 54 0;
#X connect 53 0 60 0;
#X connect 53 0 61 0;
#X connect 55 0 56 1;
#X connect 56 0 53 0;
#X connect 57 0 58 0;
#X connect 58 0 59 0;
#X connect 58 0 56 0;
#X connect 58 0 93 1;
#X connect 62 0 63 0;
#X connect 62 0 66 0;
#X connect 62 0 67 0;
#X connect 64 0 65 1;
#X connect 65 0 62 0;
#X connect 68 0 69 0;
#X connect 69 0 70 0;
#X connect 69 0 65 0;
#X connect 69 0 94 1;
#X connect 79 0 14 0;
#X connect 80 0 21 0;
#X connect 81 0 27 0;
#X connect 82 0 81 0;
#X connect 83 0 80 0;
#X connect 84 0 79 0;
#X connect 86 0 50 0;
#X connect 86 0 84 0;
#X connect 87 0 57 0;
#X connect 87 0 83 0;
#X connect 88 0 68 0;
#X connect 88 0 82 0;
#X connect 89 0 18 0;
#X connect 90 0 49 0;
#X connect 93 0 91 0;
#X connect 93 0 71 0;
#X connect 93 0 72 0;
#X connect 94 0 92 0;
#X connect 94 0 73 0;
#X connect 94 0 74 0;
#X connect 95 0 5 0;
#X connect 95 0 6 0;
#X connect 95 0 16 0;
#X connect 96 0 93 0;
#X connect 96 0 94 0;
#X connect 96 0 95 0;
#X connect 96 0 7 0;
#X connect 96 0 8 0;
#X connect 96 0 75 0;
#X connect 96 0 76 0;
#X connect 96 0 78 0;
#X connect 96 0 77 0;
#X connect 97 0 96 0;
#X restore 251 154 pd p6;
#X obj 89 101 j-sel 0;
#X obj 189 101 j-sel 1;
#X obj 289 101 j-sel 2;
#X obj 351 125 j-spg2;
#N canvas 274 22 1403 817 p7 0;
#X obj 263 17 inlet roll_pitch_x_y_z;
#X obj 263 39 unpack 0 0 0 0 0;
#X obj 715 26 inlet buttons;
#X obj 715 48 route but_up but_down but_left but_right;
#X obj 672 77 route but_a but_b but_minus but_home but_plus but_one
but_two;
#X obj 158 577 s speedCtrlMin;
#X obj 168 597 s speedCtrlMax;
#X obj 133 643 s durCtrlMin;
#X obj 143 663 s durCtrlMax;
#X obj 634 717 s rangeMin;
#X obj 644 737 s rangeMax;
#X obj 1015 486 s pitchCtrlMin;
#X obj 1025 506 s pitchCtrlMax;
#X obj 1015 439 f;
#X floatatom 644 687 11 0 0 0 - - -;
#X floatatom 168 520 5 0 0 0 - - -;
#X floatatom 1025 461 5 0 0 0 - - -;
#X obj 747 145 tgl 15 0 empty empty empty 17 7 0 10 -262144 -1 -1 1
1;
#X obj 674 248 clip -256 256;
#X obj 674 270 / 256;
#X obj 1125 439 f;
#X floatatom 1135 461 5 0 0 0 - - -;
#X obj 784 248 clip -256 256;
#X obj 784 270 / 256;
#X obj 1125 486 s pitchCtrlMin2;
#X obj 1135 506 s pitchCtrlMax2;
#X obj 1245 439 f;
#X floatatom 1255 461 5 0 0 0 - - -;
#X obj 904 248 clip -256 256;
#X obj 904 270 / 256;
#X obj 1245 486 s pitchCtrlMin3;
#X obj 1255 506 s pitchCtrlMax3;
#X obj 45 166 / 90;
#X obj 45 228 + 1;
#X obj 45 250 / 2;
#X floatatom 73 250 5 0 0 1 0-1 - -;
#X obj 649 493 r maxSamples;
#X obj 634 516 *;
#X obj 45 131 spigot;
#X obj 667 145 tgl 15 0 empty empty empty 17 7 0 10 -262144 -1 -1 1
1;
#X obj 634 362 + 1;
#X obj 634 384 / 2;
#X floatatom 664 384 5 0 0 1 0-1 - -;
#X floatatom 754 687 11 0 0 0 - - -;
#X obj 759 493 r maxSamples;
#X obj 744 516 *;
#X obj 744 362 + 1;
#X obj 744 384 / 2;
#X floatatom 774 384 5 0 0 1 0-1 - -;
#X obj 744 717 s rangeMin2;
#X obj 754 737 s rangeMax2;
#X floatatom 874 687 11 0 0 0 - - -;
#X obj 879 493 r maxSamples;
#X obj 864 516 *;
#X obj 864 717 s rangeMin3;
#X obj 874 737 s rangeMax3;
#X obj 864 362 + 1;
#X obj 864 384 / 2;
#X floatatom 894 384 5 0 0 1 0-1 - -;
#X obj 288 577 s speedCtrlMin2;
#X obj 298 597 s speedCtrlMax2;
#X obj 428 577 s speedCtrlMin3;
#X obj 438 597 s speedCtrlMax3;
#X obj 243 643 s durCtrlMin2;
#X obj 253 663 s durCtrlMax2;
#X obj 373 663 s durCtrlMax3;
#X obj 363 643 s durCtrlMin3;
#X obj 1015 400 + 4000;
#X obj 1125 400 + 4000;
#X obj 1245 400 + 4000;
#X obj 1245 378 * 2000;
#X obj 1125 378 * 2000;
#X obj 1015 378 * 2000;
#X text 31 14 6 xyz \, async: range \, pitch \, spd;
#X obj 674 318 spigot;
#X obj 784 318 spigot;
#X obj 904 318 spigot;
#X obj 747 123 jong-itgl b;
#X obj 667 123 jong-itgl a;
#X floatatom 298 520 5 0 0 0 - - -;
#X floatatom 438 520 5 0 0 0 - - -;
#X obj 288 498 * 1;
#X obj 428 498 * 1;
#X obj 158 498 * 1;
#X obj 158 413 + 30;
#X obj 158 362 spigot;
#X floatatom 794 294 5 0 0 1 --1+1 - -;
#X floatatom 914 294 5 0 0 1 --1+1 - -;
#X floatatom 684 294 5 0 0 1 --1+1 - -;
#X obj 859 120 s range.colorTgl;
#X obj 870 141 s pitchCtrl.colorTgl;
#X obj 518 88 s speedCtrl.colorTgl;
#X obj 528 108 s durCtrl.colorTgl;
#X obj 1061 567 r maxSamples;
#X floatatom 1071 590 11 0 0 0 - - -;
#X obj 158 125 / 90;
#X obj 158 169 + 1;
#X obj 158 191 / 2;
#X floatatom 168 213 5 0 0 1 0-1 - -;
#X floatatom 168 255 5 0 0 1 1-0 - -;
#X floatatom 168 307 5 0 0 1 1000-0 - -;
#X obj 158 233 jong-01to10;
#X obj 158 285 * 300;
#X obj 1019 564 - 0.5;
#X floatatom 1026 621 11 0 0 0 - - -;
#X obj 1026 599 *;
#X obj 982 593 bng 15 250 50 0 empty empty empty 17 7 0 10 -262144
-1 -1;
#X obj 634 665 + 0;
#X obj 744 665 + 0;
#X obj 864 665 + 0;
#X connect 0 0 1 0;
#X connect 1 0 38 0;
#X connect 1 1 95 0;
#X connect 1 2 18 0;
#X connect 1 3 22 0;
#X connect 1 4 28 0;
#X connect 2 0 3 0;
#X connect 3 4 4 0;
#X connect 4 0 78 0;
#X connect 4 1 77 0;
#X connect 13 0 11 0;
#X connect 13 0 12 0;
#X connect 13 0 16 0;
#X connect 17 0 74 1;
#X connect 17 0 75 1;
#X connect 17 0 76 1;
#X connect 17 0 38 1;
#X connect 18 0 19 0;
#X connect 19 0 74 0;
#X connect 19 0 88 0;
#X connect 20 0 21 0;
#X connect 20 0 24 0;
#X connect 20 0 25 0;
#X connect 22 0 23 0;
#X connect 23 0 75 0;
#X connect 23 0 86 0;
#X connect 26 0 27 0;
#X connect 26 0 30 0;
#X connect 26 0 31 0;
#X connect 28 0 29 0;
#X connect 29 0 76 0;
#X connect 29 0 87 0;
#X connect 32 0 33 0;
#X connect 33 0 34 0;
#X connect 34 0 35 0;
#X connect 34 0 103 0;
#X connect 36 0 37 1;
#X connect 37 0 107 0;
#X connect 38 0 32 0;
#X connect 39 0 85 1;
#X connect 39 0 91 0;
#X connect 39 0 92 0;
#X connect 40 0 41 0;
#X connect 41 0 42 0;
#X connect 41 0 37 0;
#X connect 41 0 83 1;
#X connect 44 0 45 1;
#X connect 45 0 108 0;
#X connect 46 0 47 0;
#X connect 47 0 48 0;
#X connect 47 0 45 0;
#X connect 47 0 81 1;
#X connect 52 0 53 1;
#X connect 53 0 109 0;
#X connect 56 0 57 0;
#X connect 57 0 58 0;
#X connect 57 0 53 0;
#X connect 57 0 82 1;
#X connect 67 0 13 0;
#X connect 68 0 20 0;
#X connect 69 0 26 0;
#X connect 70 0 69 0;
#X connect 71 0 68 0;
#X connect 72 0 67 0;
#X connect 74 0 40 0;
#X connect 74 0 72 0;
#X connect 75 0 46 0;
#X connect 75 0 71 0;
#X connect 76 0 56 0;
#X connect 76 0 70 0;
#X connect 77 0 17 0;
#X connect 77 0 89 0;
#X connect 77 0 90 0;
#X connect 78 0 39 0;
#X connect 81 0 79 0;
#X connect 81 0 59 0;
#X connect 81 0 60 0;
#X connect 82 0 80 0;
#X connect 82 0 61 0;
#X connect 82 0 62 0;
#X connect 83 0 5 0;
#X connect 83 0 6 0;
#X connect 83 0 15 0;
#X connect 84 0 81 0;
#X connect 84 0 82 0;
#X connect 84 0 83 0;
#X connect 84 0 7 0;
#X connect 84 0 8 0;
#X connect 84 0 63 0;
#X connect 84 0 64 0;
#X connect 84 0 66 0;
#X connect 84 0 65 0;
#X connect 85 0 84 0;
#X connect 93 0 94 0;
#X connect 93 0 105 1;
#X connect 95 0 96 0;
#X connect 96 0 97 0;
#X connect 97 0 98 0;
#X connect 97 0 101 0;
#X connect 101 0 99 0;
#X connect 101 0 102 0;
#X connect 102 0 100 0;
#X connect 102 0 85 0;
#X connect 103 0 105 0;
#X connect 103 0 106 0;
#X connect 105 0 104 0;
#X connect 105 0 107 1;
#X connect 105 0 108 1;
#X connect 105 0 109 1;
#X connect 106 0 107 0;
#X connect 106 0 108 0;
#X connect 106 0 109 0;
#X connect 107 0 9 0;
#X connect 107 0 10 0;
#X connect 107 0 14 0;
#X connect 108 0 43 0;
#X connect 108 0 49 0;
#X connect 108 0 50 0;
#X connect 109 0 51 0;
#X connect 109 0 54 0;
#X connect 109 0 55 0;
#X restore 351 154 pd p7;
#X obj 389 101 j-sel 3;
#X obj 157 221 declare -path ./lib/motex;
#X obj 351 233 pan~;
#X connect 1 0 0 0;
#X connect 1 1 0 1;
#X connect 2 0 3 0;
#X connect 2 1 3 1;
#X connect 4 0 5 0;
#X connect 4 1 5 1;
#X connect 6 0 1 2;
#X connect 7 0 2 2;
#X connect 8 0 4 2;
#X connect 9 0 10 0;
#X connect 9 1 10 1;
#X connect 11 0 9 2;
