#N canvas 178 266 450 300 10;
#X obj 199 162 tgl 15 0 empty empty empty 17 7 0 10 -262144 -1 -1 0
1;
#X obj 199 184 sel 0;
#X msg 199 206 1;
#X obj 199 228 tgl 15 0 empty empty empty 17 7 0 10 -262144 -1 -1 1
1;
#X obj 136 60 inlet toggle;
#X obj 199 248 outlet inverted_toggle;
#X msg 229 206 0;
#X obj 136 82 route reset;
#X msg 113 121 0;
#X obj 88 27 loadbang;
#X msg 88 49 reset;
#X connect 0 0 1 0;
#X connect 1 0 2 0;
#X connect 1 1 6 0;
#X connect 2 0 3 0;
#X connect 3 0 5 0;
#X connect 4 0 7 0;
#X connect 6 0 3 0;
#X connect 7 0 8 0;
#X connect 7 1 0 0;
#X connect 8 0 0 0;
#X connect 9 0 10 0;
#X connect 10 0 7 0;
