#N canvas 137 91 446 372 10;
#X obj 119 46 inlet;
#X obj 119 198 spigot;
#X obj 142 103 tgl 15 0 empty empty empty 17 7 0 10 -262144 -1 -1 1
1;
#X obj 259 46 inlet;
#X obj 259 198 spigot;
#X obj 162 103 tgl 15 0 empty empty empty 17 7 0 10 -262144 -1 -1 1
1;
#X obj 119 280 outlet;
#X obj 186 4 loadbang;
#X msg 186 26 1;
#X obj 186 48 t f f;
#X obj 259 280 outlet;
#X connect 0 0 1 0;
#X connect 1 0 6 0;
#X connect 2 0 1 1;
#X connect 3 0 4 0;
#X connect 4 0 10 0;
#X connect 5 0 4 1;
#X connect 7 0 8 0;
#X connect 8 0 9 0;
#X connect 9 0 2 0;
#X connect 9 1 5 0;
#X coords 0 -1 1 1 80 20 1 100 100;
