#N canvas 363 475 450 300 10;
#X obj 135 102 tgl 13 0 empty empty empty 0 -6 0 8 -233017 -1 -1 0
1;
#X obj 98 140 outlet;
#X obj 98 22 inlet;
#X obj 162 140 outlet;
#X obj 151 102 bng 13 250 50 0 empty empty empty 0 -6 0 8 -233017 -1
-1;
#X obj 178 82 bang;
#X obj 162 42 loadbang;
#X obj 162 62 \$1;
#X obj 98 120 spigot;
#X obj 142 2 inlet;
#X connect 0 0 8 1;
#X connect 0 0 3 0;
#X connect 2 0 5 0;
#X connect 2 0 8 0;
#X connect 5 0 4 0;
#X connect 6 0 7 0;
#X connect 7 0 0 0;
#X connect 8 0 1 0;
#X connect 9 0 0 0;
#X coords 0 -1 1 1 66 17 1 100 100;
