#N canvas 437 210 450 300 10;
#X obj 185 102 tgl 13 0 empty empty empty 0 -6 0 8 -233017 -258113
-1 0 1;
#X obj 148 150 outlet;
#X obj 148 22 inlet;
#X obj 148 120 spigot;
#X obj 185 74 r \$1;
#X connect 0 0 3 1;
#X connect 2 0 3 0;
#X connect 3 0 1 0;
#X connect 4 0 0 0;
#X coords 0 -1 1 1 100 17 1 100 100;
