#N canvas 686 184 598 625 10;
#X obj 375 475 outlet~;
#X obj 125 475 outlet~;
#X obj 391 431 line~;
#X msg 391 410 \$1 1;
#X obj 141 428 line~;
#X msg 141 407 \$1 1;
#X obj 375 451 *~;
#X obj 125 453 *~;
#X obj 201 64 loadbang;
#X text 318 177 range: 0 to 1;
#X obj 201 86 bng 15 250 50 0 empty empty empty 17 7 0 10 -262144 -1
-1;
#X msg 201 106 0.5;
#X obj 65 124 inlet~ modo;
#X obj 392 123 inlet range_zeroToOne;
#X obj 251 177 clip 0 1;
#X floatatom 236 442 5 0 0 0 - - -;
#X floatatom 236 483 5 0 0 0 - - -;
#X obj 236 461 expr sqrt($f1);
#X msg 243 413 1;
#X obj 141 337 expr 1-$f1;
#X obj 141 359 sqrt;
#X obj 391 359 sqrt;
#X connect 2 0 6 1;
#X connect 3 0 2 0;
#X connect 4 0 7 1;
#X connect 5 0 4 0;
#X connect 6 0 0 0;
#X connect 7 0 1 0;
#X connect 8 0 10 0;
#X connect 10 0 11 0;
#X connect 11 0 14 0;
#X connect 12 0 7 0;
#X connect 12 0 6 0;
#X connect 13 0 14 0;
#X connect 14 0 19 0;
#X connect 14 0 21 0;
#X connect 15 0 17 0;
#X connect 17 0 16 0;
#X connect 18 0 15 0;
#X connect 19 0 20 0;
#X connect 20 0 5 0;
#X connect 21 0 3 0;
#X coords 0 625 1 624 120 12 0;
