#N canvas 259 447 469 517 10;
#X floatatom 104 119 10 0 0 0 - - -;
#X floatatom 174 119 10 0 0 0 - - -;
#X obj 104 -41 inlet float;
#X obj 104 71 jong-storeMin;
#X obj 194 71 jong-storeMax;
#X msg 103 13 reset;
#X obj 104 -19 route reset;
#X obj 241 119 bng 15 250 50 0 empty empty R 6 7 0 10 -262144 -1 -1
;
#X connect 2 0 6 0;
#X connect 3 0 0 0;
#X connect 4 0 1 0;
#X connect 5 0 3 0;
#X connect 5 0 4 0;
#X connect 6 0 5 0;
#X connect 6 1 3 0;
#X connect 6 1 4 0;
#X connect 7 0 5 0;
#X coords 0 -1 1 1 160 40 1 100 100;
