#N canvas 617 55 1055 616 10;
#X msg 141 321 start;
#X msg 284 321 stop;
#X obj 103 118 bng 15 250 50 0 empty empty empty 6 7 0 10 -258113 -1
-1;
#X obj 121 118 bng 15 250 50 0 empty empty empty 17 7 0 10 -262144
-1 -1;
#X obj 510 361 ISOtime;
#X symbolatom 510 383 11 0 0 0 - - -;
#X symbolatom 405 383 10 0 0 0 - - -;
#X obj 405 361 ISOdate;
#X obj 405 414 pack symbol symbol;
#X msg 405 446 %d \$1 \$2;
#X obj 71 366 inlet~;
#X text 43 341 stereo;
#X obj 21 366 inlet~;
#X obj 141 558 writesf~ 2;
#X obj 224 30 inlet start;
#X obj 314 30 inlet stop;
#X msg 405 479 open /Users/jong/Desktop/\$1_\$2.mp3;
#X obj 518 122 tgl 15 0 empty empty empty 17 7 0 10 -262144 -1 -1 0
1;
#X msg 513 93 1;
#X msg 547 93 0;
#X obj 103 178 t b b;
#X obj 103 240 del 0;
#X obj 405 312 t b b;
#N canvas 173 240 658 695 timer 1;
#X obj 87 -182 bng 15 250 50 0 empty empty stop&reset 17 7 0 10 -262144
-1 -1;
#X obj 268 -118 tgl 15 0 empty empty empty 17 7 0 10 -262144 -1 -1
0 1;
#X obj 308 -32 + 1;
#X msg 87 -147 0;
#X msg 109 -95 0;
#X obj 268 -96 metro 1000;
#X floatatom 350 -98 5 0 0 0 - - -;
#X msg 380 -130 100;
#X msg 350 -130 10;
#X msg 410 -130 1000;
#X floatatom 308 63 5 0 0 0 - - -;
#X obj 198 104 f 0;
#X obj 228 106 + 1;
#X floatatom 198 146 5 0 0 0 - - -;
#X obj 368 175 s \$0-seconds;
#X obj 208 175 s \$0-minutes;
#X obj 410 -162 loadbang;
#X obj 268 -34 f 0;
#X obj 198 62 sel 0;
#X obj 268 10 % 60;
#X obj 109 -73 t f f;
#X obj 139 -256 inlet tgl;
#X obj 139 -234 route reset;
#X obj 308 82 t b f;
#X obj 198 277 pack f f;
#X msg 198 339 \$1:\$2;
#X obj 198 361 symbol;
#X obj 198 383 outlet symbol;
#X obj 342 281 loadbang;
#X msg 342 303 0 0;
#X connect 0 0 3 0;
#X connect 1 0 5 0;
#X connect 2 0 17 1;
#X connect 3 0 1 0;
#X connect 3 0 4 0;
#X connect 4 0 20 0;
#X connect 5 0 17 0;
#X connect 6 0 5 1;
#X connect 7 0 6 0;
#X connect 8 0 6 0;
#X connect 9 0 6 0;
#X connect 10 0 23 0;
#X connect 11 0 12 0;
#X connect 11 0 13 0;
#X connect 12 0 11 1;
#X connect 13 0 15 0;
#X connect 13 0 24 0;
#X connect 16 0 9 0;
#X connect 17 0 2 0;
#X connect 17 0 19 0;
#X connect 18 0 11 0;
#X connect 19 0 10 0;
#X connect 19 0 18 0;
#X connect 20 0 11 0;
#X connect 20 1 17 0;
#X connect 21 0 22 0;
#X connect 22 0 0 0;
#X connect 22 1 1 0;
#X connect 23 0 13 0;
#X connect 23 1 14 0;
#X connect 23 1 24 1;
#X connect 24 0 25 0;
#X connect 25 0 26 0;
#X connect 26 0 27 0;
#X connect 28 0 29 0;
#X connect 29 0 25 0;
#X restore 518 195 pd timer;
#X msg 589 145 reset;
#X symbolatom 139 118 7 0 0 0 - - -;
#X connect 0 0 13 0;
#X connect 1 0 13 0;
#X connect 2 0 18 0;
#X connect 2 0 20 0;
#X connect 3 0 1 0;
#X connect 3 0 19 0;
#X connect 4 0 5 0;
#X connect 5 0 8 1;
#X connect 6 0 8 0;
#X connect 7 0 6 0;
#X connect 8 0 9 0;
#X connect 9 0 16 0;
#X connect 10 0 13 1;
#X connect 12 0 13 0;
#X connect 14 0 2 0;
#X connect 15 0 3 0;
#X connect 16 0 13 0;
#X connect 17 0 23 0;
#X connect 18 0 17 0;
#X connect 19 0 17 0;
#X connect 19 0 24 0;
#X connect 20 0 21 0;
#X connect 20 1 22 0;
#X connect 21 0 0 0;
#X connect 22 0 7 0;
#X connect 22 1 4 0;
#X connect 23 0 25 0;
#X connect 24 0 23 0;
#X coords 0 -1 1 1 85 35 1 100 100;
