#N canvas 146 105 317 233 10;
#X obj 138 140 t f f;
#X floatatom 148 162 5 0 0 0 - - -;
#X obj 75 23 inlet float;
#X floatatom 85 45 5 0 0 0 - - -;
#X obj 138 182 outlet maximum;
#X obj 138 118 min 1e-21;
#X text 219 143 store minimum;
#X obj 75 65 route reset;
#X obj 17 67 loadbang;
#X msg 75 91 9999;
#X connect 0 0 1 0;
#X connect 0 0 4 0;
#X connect 0 1 5 1;
#X connect 2 0 3 0;
#X connect 2 0 7 0;
#X connect 5 0 0 0;
#X connect 7 0 9 0;
#X connect 7 1 5 0;
#X connect 8 0 9 0;
#X connect 9 0 0 0;
