#N canvas 251 242 286 257 10;
#X obj 128 108 max 1e-21;
#X obj 128 140 t f f;
#X floatatom 138 162 5 0 0 0 - - -;
#X obj 65 33 inlet float;
#X obj 128 182 outlet maximum;
#X text 177 160 store maximum;
#X obj 65 75 route reset;
#X obj 8 75 loadbang;
#X floatatom 147 86 5 0 0 0 - - -;
#X msg 65 102 -9999;
#X connect 0 0 1 0;
#X connect 1 0 2 0;
#X connect 1 0 4 0;
#X connect 1 1 0 1;
#X connect 3 0 6 0;
#X connect 6 0 9 0;
#X connect 6 1 0 0;
#X connect 6 1 8 0;
#X connect 7 0 9 0;
#X connect 9 0 1 0;
