#N canvas 956 236 660 649 10;
#X obj 133 400 del 1000;
#X msg 48 326 stop;
#X obj 329 367 timer;
#X obj 233 216 f;
#X obj 441 304 t f f b;
#X obj 469 346 f;
#X obj 441 384 /;
#X obj 309 475 expr ($f2-$f1)*$f3;
#X floatatom 451 406 5 0 0 0 - - -;
#X obj 133 329 t f f;
#X obj 479 165 f \$1;
#X obj 479 187 sel 0;
#X msg 458 214 1000;
#X obj 469 268 t f f;
#X obj 479 141 loadbang;
#X obj 48 166 sel 0;
#X obj 75 599 outlet bang;
#X obj 133 165 spigot;
#X obj 166 134 tgl 15 0 empty empty empty 17 7 0 10 -262144 -1 -1 0
1;
#X obj 386 83 max 1;
#X text 428 83 error \, if smaller than 1;
#X obj 329 307 bang;
#X obj 386 136 t b f b;
#X obj 28 244 del 0;
#N canvas 702 276 609 651 fix:2013-06-22:byOrm 0;
#X text 124 257 Lieber Jong \, anbei die Lösung für Dein Problem.
Der Grund dafür \, dass Deine Lösung nicht funktioniert \, hat damit
zu tun \, dass Du eine Art feedback loop zwischen dem Zähler und dem
vmetro Objekt hast \, der dazu führt \, dass die "0" an das metro
Objekt gesendet wird \, bevor das Objekt sein delay gescheduled hat
und daher das "stop" zu früh ankommt. Ich habe ein "del 0" Objekt
vor den "stop" Befehl gehängt und dadurch wird die Reihenfolge gesichert.
LG \, Orm Am Freitag \, den 21 Juni 2013 um 22:45:50 Uhr (+0200) schrieb
Jonghyun Kim:;
#X text 126 61 Lieber Orm \, gibt es noch Fehler. Ich möchte das Metro
mit [sel 100] stoppen \, aber kann ich nicht. Könntest Du das Bug
wegschmeissen? LG \, Jong;
#X obj 46 31 inlet;
#X restore 28 448 pd fix:2013-06-22:byOrm;
#X text 511 215 default = 1000;
#X text 157 600 vmetro: Tempo Variable Metronome: stable version 0.1
;
#X text 403 575 2013 by Orm Finnendahl & Jonghyun Kim;
#X obj 386 41 inlet timeInMilliseconds;
#X obj 48 40 inlet start-stopToggle;
#X connect 0 0 21 0;
#X connect 1 0 0 0;
#X connect 2 0 7 0;
#X connect 3 0 9 0;
#X connect 4 0 6 0;
#X connect 4 1 5 1;
#X connect 4 2 5 0;
#X connect 5 0 6 1;
#X connect 6 0 8 0;
#X connect 6 0 7 2;
#X connect 7 0 17 0;
#X connect 9 0 0 0;
#X connect 9 1 7 1;
#X connect 10 0 11 0;
#X connect 11 0 12 0;
#X connect 11 1 13 0;
#X connect 12 0 13 0;
#X connect 13 0 4 0;
#X connect 13 0 3 1;
#X connect 13 1 5 1;
#X connect 14 0 10 0;
#X connect 15 0 23 0;
#X connect 15 1 21 0;
#X connect 17 0 9 0;
#X connect 18 0 17 1;
#X connect 19 0 22 0;
#X connect 21 0 16 0;
#X connect 21 0 3 0;
#X connect 21 0 2 0;
#X connect 22 0 2 1;
#X connect 22 1 3 1;
#X connect 22 1 4 0;
#X connect 22 2 1 0;
#X connect 23 0 1 0;
#X connect 23 0 24 0;
#X connect 28 0 19 0;
#X connect 29 0 15 0;
#X connect 29 0 18 0;
