#N canvas 464 143 647 369 10;
#X obj 148 17 inlet fileArray;
#X obj 265 17 inlet envArray;
#X obj 265 103 s \$0-envArr;
#X obj 211 215 r \$0-envArr;
#X obj 11 280 s \$0-grain1;
#X obj 252 323 outlet~;
#X obj 36 258 s \$0-grain2;
#X obj 11 15 inlet startDurPitch;
#X obj 374 18 inlet envLength;
#X obj 226 236 r \$0-envLgt;
#X obj 374 41 s \$0-envLgt;
#X obj 327 215 r \$0-envArr;
#X obj 342 237 r \$0-envLgt;
#X obj 297 174 r \$0-grain2;
#X obj 181 174 r \$0-grain1;
#X obj 166 79 symbol \$1;
#X obj 291 79 symbol \$2;
#X obj 11 197 route 0 1;
#X obj 11 82 f;
#X obj 41 82 + 1;
#X obj 11 163 list;
#X obj 11 40 t bang list;
#X obj 196 195 r \$0-fileArr;
#X obj 312 195 r \$0-fileArr;
#X obj 148 104 s \$0-fileArr;
#X obj 451 84 loadbang;
#X obj 451 116 bng 15 250 50 0 empty empty empty 17 7 0 10 -262144
-1 -1;
#X obj 233 46 bng 15 250 50 0 empty empty empty 17 7 0 10 -262144 -1
-1;
#X obj 297 260 64grain~;
#X obj 11 122 % 2;
#X obj 516 84 r grainReset;
#X obj 181 260 64grain~;
#X connect 0 0 24 0;
#X connect 1 0 2 0;
#X connect 3 0 31 2;
#X connect 7 0 21 0;
#X connect 8 0 10 0;
#X connect 9 0 31 3;
#X connect 11 0 28 2;
#X connect 12 0 28 3;
#X connect 13 0 28 0;
#X connect 14 0 31 0;
#X connect 15 0 24 0;
#X connect 16 0 2 0;
#X connect 17 0 4 0;
#X connect 17 1 6 0;
#X connect 18 0 19 0;
#X connect 18 0 29 0;
#X connect 19 0 18 1;
#X connect 20 0 17 0;
#X connect 21 0 18 0;
#X connect 21 1 20 1;
#X connect 22 0 31 1;
#X connect 23 0 28 1;
#X connect 25 0 26 0;
#X connect 26 0 27 0;
#X connect 27 0 15 0;
#X connect 27 0 16 0;
#X connect 28 0 5 0;
#X connect 29 0 20 0;
#X connect 30 0 26 0;
#X connect 31 0 5 0;
