#N canvas 956 366 696 506 10;
#X obj 93 415 *~;
#X obj 93 438 outlet~;
#X obj 43 165 +;
#X msg 15 248 \$1 \, \$2 \$3;
#X obj 15 79 t f f;
#X obj 58 79 t f f f;
#X obj 58 138 sectosamp;
#X obj 58 113 / 1000;
#X obj 122 79 * 1000;
#X obj 300 22 inlet sampArray;
#X obj 428 22 inlet envArray;
#X msg 300 249 set \$1;
#X msg 428 248 set \$1;
#X obj 15 49 unpack f f f;
#X obj 15 23 inlet start_dur_pitch;
#X obj 157 112 t f b;
#X obj 157 222 pack f f;
#X msg 157 246 0 \, \$2 \$1;
#X obj 222 174 - 3;
#X obj 550 22 inlet envelopeSize;
#X obj 15 222 pack f f f;
#X obj 157 363 tabread4~;
#X obj 300 153 symbol \$1;
#X obj 428 153 symbol \$2;
#X obj 15 362 tabread4~;
#X obj 463 87 loadbang;
#X obj 463 119 bng 15 250 50 0 empty empty empty 17 7 0 10 -262144
-1 -1;
#X obj 367 106 bng 15 250 50 0 empty empty empty 17 7 0 10 -262144
-1 -1;
#X obj 202 133 f 255;
#X obj 157 271 vline~;
#X obj 15 274 vline~;
#X obj 523 87 r grainReset;
#X connect 0 0 1 0;
#X connect 2 0 20 1;
#X connect 3 0 30 0;
#X connect 4 0 20 0;
#X connect 4 1 2 0;
#X connect 5 0 7 0;
#X connect 5 1 20 2;
#X connect 5 2 15 0;
#X connect 6 0 2 1;
#X connect 7 0 6 0;
#X connect 8 0 7 1;
#X connect 9 0 22 0;
#X connect 10 0 23 0;
#X connect 11 0 24 0;
#X connect 12 0 21 0;
#X connect 13 0 4 0;
#X connect 13 1 5 0;
#X connect 13 2 8 0;
#X connect 14 0 13 0;
#X connect 15 0 16 0;
#X connect 15 1 28 0;
#X connect 16 0 17 0;
#X connect 17 0 29 0;
#X connect 19 0 28 1;
#X connect 20 0 3 0;
#X connect 21 0 0 1;
#X connect 22 0 11 0;
#X connect 23 0 12 0;
#X connect 24 0 0 0;
#X connect 25 0 26 0;
#X connect 26 0 27 0;
#X connect 27 0 22 0;
#X connect 27 0 23 0;
#X connect 28 0 18 0;
#X connect 28 0 16 1;
#X connect 29 0 21 0;
#X connect 30 0 24 0;
#X connect 31 0 26 0;
